<svg viewBox="0 0 20 20" xmlns="http://www.w3.org/2000/svg">
<path d="M5 10C4.65482 10 4.375 9.72018 4.375 9.375L4.37501 3.125C4.37501 2.77982 4.65484 2.5 5.00001 2.5C5.34519 2.5 5.62501 2.77982 5.62501 3.125L5.625 9.375C5.625 9.72018 5.34518 10 5 10Z" fill="inherit"/>
<path d="M15 10C14.6548 10 14.375 9.72018 14.375 9.375L14.375 3.125C14.375 2.77982 14.6548 2.5 15 2.5C15.3452 2.5 15.625 2.77982 15.625 3.125L15.625 9.375C15.625 9.72018 15.3452 10 15 10Z" fill="inherit"/>
<path d="M5.62501 16.875L5.625 15.625C5.625 15.2798 5.34517 15 4.99999 15C4.65482 15 4.375 15.2798 4.375 15.625L4.37501 16.875C4.37502 17.2202 4.65484 17.5 5.00002 17.5C5.3452 17.5 5.62502 17.2202 5.62501 16.875Z" fill="inherit"/>
<path d="M15.625 15.625L15.625 16.875C15.625 17.2202 15.3452 17.5 15 17.5C14.6548 17.5 14.375 17.2202 14.375 16.875L14.375 15.625C14.375 15.2798 14.6548 15 15 15C15.3452 15 15.625 15.2798 15.625 15.625Z" fill="inherit"/>
<path d="M10.625 4.37499L10.625 3.12499C10.625 2.77982 10.3452 2.5 9.99999 2.5C9.65482 2.5 9.375 2.77983 9.375 3.12501L9.37501 4.37501C9.37502 4.72018 9.65484 5 10 5C10.3452 5 10.625 4.72017 10.625 4.37499Z" fill="inherit"/>
<path d="M10 17.5C9.65482 17.5 9.375 17.2202 9.375 16.875V10.625C9.375 10.2798 9.65482 10 10 10C10.3452 10 10.625 10.2798 10.625 10.625V16.875C10.625 17.2202 10.3452 17.5 10 17.5Z" fill="inherit"/>
<path d="M3.125 12.5C3.125 13.5355 3.96447 14.375 5 14.375C6.03553 14.375 6.875 13.5355 6.875 12.5C6.875 11.4645 6.03553 10.625 5 10.625C3.96447 10.625 3.125 11.4645 3.125 12.5Z" fill="inherit"/>
<path d="M10 9.375C8.96447 9.375 8.125 8.53553 8.125 7.5C8.125 6.46447 8.96447 5.625 10 5.625C11.0355 5.625 11.875 6.46447 11.875 7.5C11.875 8.53553 11.0355 9.375 10 9.375Z" fill="inherit"/>
<path d="M13.125 12.5C13.125 13.5355 13.9645 14.375 15 14.375C16.0355 14.375 16.875 13.5355 16.875 12.5C16.875 11.4645 16.0355 10.625 15 10.625C13.9645 10.625 13.125 11.4645 13.125 12.5Z" fill="inherit"/>
</svg>
