<svg viewBox="0 0 20 20" xmlns="http://www.w3.org/2000/svg">
<path fill-rule="evenodd" clip-rule="evenodd" d="M12.5 3.125C10.0838 3.125 8.125 5.08375 8.125 7.5L8.125 15.9911L12.0581 12.0581C12.3021 11.814 12.6979 11.814 12.9419 12.0581C13.186 12.3021 13.186 12.6979 12.9419 12.9419L7.94194 17.9419C7.82473 18.0592 7.66576 18.125 7.5 18.125C7.33424 18.125 7.17527 18.0592 7.05806 17.9419L2.05806 12.9419C1.81398 12.6979 1.81398 12.3021 2.05806 12.0581C2.30214 11.814 2.69786 11.814 2.94194 12.0581L6.875 15.9911V7.5C6.875 4.3934 9.3934 1.875 12.5 1.875C15.6066 1.875 18.125 4.3934 18.125 7.5V10C18.125 10.3452 17.8452 10.625 17.5 10.625C17.1548 10.625 16.875 10.3452 16.875 10V7.5C16.875 5.08375 14.9162 3.125 12.5 3.125Z" fill="inherit"/>
</svg>
