<svg viewBox="0 0 20 20" xmlns="http://www.w3.org/2000/svg">
<path fill-rule="evenodd" clip-rule="evenodd" d="M10 17C13.866 17 17 13.866 17 10C17 6.13401 13.866 3 10 3C6.13401 3 3 6.13401 3 10C3 13.866 6.13401 17 10 17ZM10.875 7.375C10.875 6.89175 10.4832 6.5 10 6.5C9.51675 6.5 9.125 6.89175 9.125 7.375L9.125 10.5126L7.99372 9.38128C7.65201 9.03957 7.09799 9.03957 6.75628 9.38128C6.41457 9.72299 6.41457 10.277 6.75628 10.6187L9.38128 13.2437C9.72299 13.5854 10.277 13.5854 10.6187 13.2437L13.2437 10.6187C13.5854 10.277 13.5854 9.72299 13.2437 9.38128C12.902 9.03957 12.348 9.03957 12.0063 9.38128L10.875 10.5126V7.375Z" fill="inherit"/>
</svg>
