<svg viewBox="0 0 20 20" xmlns="http://www.w3.org/2000/svg">
<path d="M2.94194 2.05806C2.69786 1.81398 2.30214 1.81398 2.05806 2.05806C1.81398 2.30214 1.81398 2.69786 2.05806 2.94194L17.0581 17.9419C17.3021 18.186 17.6979 18.186 17.9419 17.9419C18.186 17.6979 18.186 17.3021 17.9419 17.0581L2.94194 2.05806Z" fill="inherit"/>
<path d="M17.1424 13.7296C16.9561 13.7983 16.7685 13.8645 16.5797 13.928L6.09907 3.44742C7.11038 2.47372 8.48528 1.875 10 1.875C13.1066 1.875 15.625 4.3934 15.625 7.5L15.6248 7.54099V8.125C15.6248 9.89427 16.2924 11.5062 17.3903 12.7249C17.5291 12.8789 17.5824 13.0917 17.5327 13.293C17.4831 13.4942 17.3369 13.6578 17.1424 13.7296Z" fill="inherit"/>
<path fill-rule="evenodd" clip-rule="evenodd" d="M4.37501 7.49984C4.37501 7.34665 4.38114 7.1949 4.39316 7.04481L13.0467 15.6983C12.7295 17.088 11.4858 18.125 10 18.125C8.27412 18.125 6.87501 16.7259 6.87501 15C6.87501 14.9214 6.87793 14.8433 6.88367 14.766C5.49111 14.5549 4.14406 14.2046 2.85729 13.7296C2.66282 13.6578 2.5166 13.4942 2.46694 13.293C2.41728 13.0917 2.47064 12.8789 2.60939 12.7249C3.70733 11.5062 4.37484 9.89427 4.37484 8.125L4.37501 7.49984ZM8.12684 14.9161C8.12563 14.9439 8.12501 14.9718 8.12501 15C8.12501 16.0355 8.96448 16.875 10 16.875C11.0355 16.875 11.875 16.0355 11.875 15C11.875 14.9718 11.8744 14.9438 11.8732 14.916C11.256 14.9716 10.6312 15 9.99985 15C9.36863 15 8.74389 14.9716 8.12684 14.9161Z" fill="inherit"/>
</svg>
