<svg viewBox="0 0 20 20" xmlns="http://www.w3.org/2000/svg">
<path d="M4.8753 2.91683C5.1055 2.65962 5.08361 2.2645 4.82641 2.0343C4.56921 1.80409 4.17408 1.82598 3.94388 2.08318C2.94309 3.20136 2.24671 4.59957 1.98717 6.1466C1.93006 6.48702 2.15972 6.80928 2.50014 6.86639C2.84056 6.9235 3.16283 6.69384 3.21994 6.35342C3.4392 5.04651 4.02751 3.86405 4.8753 2.91683Z" fill="inherit"/>
<path d="M16.0558 2.08318C15.8256 1.82598 15.4305 1.80409 15.1733 2.0343C14.9161 2.2645 14.8942 2.65962 15.1244 2.91683C15.9722 3.86405 16.5605 5.04651 16.7798 6.35342C16.8369 6.69384 17.1591 6.9235 17.4996 6.86639C17.84 6.80928 18.0697 6.48702 18.0125 6.1466C17.753 4.59957 17.0566 3.20136 16.0558 2.08318Z" fill="inherit"/>
<path fill-rule="evenodd" clip-rule="evenodd" d="M10 1.875C6.89346 1.875 4.3751 4.39331 4.37501 7.49984L4.37484 8.125C4.37484 9.89427 3.70733 11.5062 2.60939 12.7249C2.47064 12.8789 2.41728 13.0917 2.46694 13.293C2.5166 13.4942 2.66282 13.6578 2.85729 13.7296C4.14406 14.2046 5.49111 14.5549 6.88367 14.766C6.87793 14.8433 6.87501 14.9214 6.87501 15C6.87501 16.7259 8.27412 18.125 10 18.125C11.7259 18.125 13.125 16.7259 13.125 15C13.125 14.9213 13.1221 14.8433 13.1164 14.766C14.5088 14.5549 15.8557 14.2045 17.1424 13.7296C17.3369 13.6578 17.4831 13.4942 17.5327 13.293C17.5824 13.0917 17.5291 12.8789 17.3903 12.7249C16.2924 11.5062 15.6248 9.89427 15.6248 8.125V7.54099L15.625 7.5C15.625 4.3934 13.1066 1.875 10 1.875ZM8.12501 15C8.12501 14.9718 8.12563 14.9439 8.12684 14.9161C8.74389 14.9716 9.36863 15 9.99985 15C10.6312 15 11.256 14.9716 11.8732 14.916C11.8744 14.9438 11.875 14.9718 11.875 15C11.875 16.0355 11.0355 16.875 10 16.875C8.96448 16.875 8.12501 16.0355 8.12501 15Z" fill="inherit"/>
</svg>
