<svg viewBox="0 0 20 20" xmlns="http://www.w3.org/2000/svg">
<path d="M3.91921 3.15771C3.70893 2.94743 3.36799 2.94743 3.15771 3.15771C2.94743 3.36799 2.94743 3.70893 3.15771 3.91921L16.0808 16.8423C16.2911 17.0526 16.632 17.0526 16.8423 16.8423C17.0526 16.632 17.0526 16.2911 16.8423 16.0808L3.91921 3.15771Z" fill="inherit"/>
<path d="M15.9231 5.33835V13.6386L5.58665 3.30216C5.6946 3.27112 5.80664 3.24848 5.92221 3.23506C7.26012 3.07979 8.62085 3 10 3C11.3791 3 12.7399 3.07979 14.0778 3.23506C15.1528 3.35983 15.9231 4.28313 15.9231 5.33835Z" fill="inherit"/>
<path d="M4.07692 16.4615V6.36142L14.1735 16.458L10 14.3712L4.85619 16.9432C4.68928 17.0266 4.49105 17.0177 4.3323 16.9196C4.17355 16.8215 4.07692 16.6482 4.07692 16.4615Z" fill="inherit"/>
</svg>
