<svg viewBox="0 0 20 20" xmlns="http://www.w3.org/2000/svg">
<path d="M12.5 1.48669L11.8371 2.14962C11.471 2.51573 11.471 3.10933 11.8371 3.47544C12.2032 3.84156 12.7968 3.84156 13.1629 3.47544C13.529 3.10933 13.529 2.51573 13.1629 2.14962L12.5 1.48669Z" fill="inherit"/>
<path d="M9.99999 1.48669L9.33709 2.14962C8.97097 2.51573 8.97097 3.10933 9.33709 3.47544C9.7032 3.84156 10.2968 3.84156 10.6629 3.47544C11.029 3.10933 11.029 2.51573 10.6629 2.14962L9.99999 1.48669Z" fill="inherit"/>
<path d="M7.49999 1.48669L6.83709 2.14962C6.47097 2.51573 6.47097 3.10933 6.83709 3.47544C7.2032 3.84156 7.7968 3.84156 8.16291 3.47544C8.52903 3.10933 8.52903 2.51573 8.16291 2.14962L7.49999 1.48669Z" fill="inherit"/>
<path d="M8.125 6.28894C8.54023 6.27167 8.95693 6.26012 9.375 6.25434V5.62503C9.375 5.27985 9.65482 5.00003 10 5.00003C10.3452 5.00003 10.625 5.27985 10.625 5.62503V6.25434C11.0431 6.26012 11.4598 6.27167 11.875 6.28894V5.62503C11.875 5.27985 12.1548 5.00003 12.5 5.00003C12.8452 5.00003 13.125 5.27985 13.125 5.62503V6.35839C13.2103 6.36432 13.2955 6.3705 13.3807 6.37692C14.6725 6.47425 15.625 7.56613 15.625 8.8314V9.68019C13.7777 9.47853 11.9009 9.37503 10 9.37503C8.09905 9.37503 6.22228 9.47853 4.375 9.68019V8.8314C4.375 7.56613 5.32745 6.47425 6.61928 6.37692C6.70445 6.3705 6.78969 6.36432 6.875 6.35839V5.62503C6.875 5.27985 7.15482 5.00003 7.5 5.00003C7.84518 5.00003 8.125 5.27985 8.125 5.62503V6.28894Z" fill="inherit"/>
<path d="M10 10.625C7.94039 10.625 5.9162 10.7783 3.9383 11.0743C2.72659 11.2556 1.875 12.3097 1.875 13.5048V13.825C2.59877 13.6905 3.35586 13.7917 4.02951 14.1285C4.64045 14.434 5.35955 14.434 5.97049 14.1285C6.93334 13.6471 8.06666 13.6471 9.02951 14.1285C9.64045 14.434 10.3596 14.434 10.9705 14.1285C11.9333 13.6471 13.0667 13.6471 14.0295 14.1285C14.6404 14.434 15.3596 14.434 15.9705 14.1285C16.6441 13.7917 17.4012 13.6905 18.125 13.825V13.5048C18.125 12.3097 17.2734 11.2556 16.0617 11.0743C14.0838 10.7783 12.0596 10.625 10 10.625Z" fill="inherit"/>
<path d="M18.125 15.1094C17.5996 14.9513 17.0285 14.9971 16.5295 15.2465C15.5667 15.728 14.4333 15.728 13.4705 15.2465C12.8596 14.9411 12.1404 14.9411 11.5295 15.2465C10.5667 15.728 9.43334 15.728 8.47049 15.2465C7.85955 14.9411 7.14045 14.9411 6.52951 15.2465C5.56666 15.728 4.43334 15.728 3.47049 15.2465C2.97153 14.9971 2.40041 14.9513 1.875 15.1094V17.1875C1.875 18.0505 2.57456 18.75 3.4375 18.75H16.5625C17.4254 18.75 18.125 18.0505 18.125 17.1875V15.1094Z" fill="inherit"/>
</svg>
