<svg viewBox="0 0 20 20" xmlns="http://www.w3.org/2000/svg">
<path fill-rule="evenodd" clip-rule="evenodd" d="M10.0002 1.875C7.97594 1.875 5.98585 2.02311 4.0403 2.30917C2.3917 2.55157 1.25 3.99546 1.25 5.6172V10.6328C1.25 12.2545 2.3917 13.6984 4.0403 13.9408C4.77076 14.0482 5.50751 14.1362 6.25 14.2042V17.5C6.25 17.7528 6.40228 17.9807 6.63582 18.0774C6.86937 18.1742 7.13819 18.1207 7.31694 17.9419L10.8032 14.4557C10.8599 14.399 10.9388 14.3645 11.0251 14.3623C12.6968 14.3209 14.3436 14.1785 15.9596 13.9409C17.6083 13.6985 18.75 12.2546 18.75 10.6329V5.61713C18.75 3.99537 17.6083 2.55147 15.9597 2.30909C14.0143 2.02308 12.0244 1.875 10.0002 1.875ZM6.875 7.1875C6.35723 7.1875 5.9375 7.60723 5.9375 8.125C5.9375 8.64277 6.35723 9.0625 6.875 9.0625C7.39277 9.0625 7.8125 8.64277 7.8125 8.125C7.8125 7.60723 7.39277 7.1875 6.875 7.1875ZM9.0625 8.125C9.0625 7.60723 9.48223 7.1875 10 7.1875C10.5178 7.1875 10.9375 7.60723 10.9375 8.125C10.9375 8.64277 10.5178 9.0625 10 9.0625C9.48223 9.0625 9.0625 8.64277 9.0625 8.125ZM13.125 7.1875C12.6072 7.1875 12.1875 7.60723 12.1875 8.125C12.1875 8.64277 12.6072 9.0625 13.125 9.0625C13.6428 9.0625 14.0625 8.64277 14.0625 8.125C14.0625 7.60723 13.6428 7.1875 13.125 7.1875Z" fill="inherit"/>
</svg>
