<svg viewBox="0 0 20 20" xmlns="http://www.w3.org/2000/svg">
<path fill-rule="evenodd" clip-rule="evenodd" d="M3.85388 16.6846C3.43331 16.264 3.43331 15.5821 3.85388 15.1616L9.23849 9.77696C9.65906 9.3564 10.3409 9.3564 10.7615 9.77696L16.1461 15.1616C16.5667 15.5821 16.5667 16.264 16.1461 16.6846C15.7255 17.1051 15.0437 17.1051 14.6231 16.6846L9.99999 12.0615L5.37687 16.6846C4.95631 17.1051 4.27444 17.1051 3.85388 16.6846ZM3.85388 10.223C3.43331 9.80247 3.43331 9.1206 3.85388 8.70004L9.23849 3.31542C9.65906 2.89486 10.3409 2.89486 10.7615 3.31542L16.1461 8.70004C16.5667 9.1206 16.5667 9.80247 16.1461 10.223C15.7255 10.6436 15.0437 10.6436 14.6231 10.223L9.99999 5.59992L5.37688 10.223C4.95631 10.6436 4.27444 10.6436 3.85388 10.223Z" fill="inherit"/>
</svg>
