<svg viewBox="0 0 20 20" xmlns="http://www.w3.org/2000/svg">
<path fill-rule="evenodd" clip-rule="evenodd" d="M16.6846 16.1461C16.264 16.5667 15.5821 16.5667 15.1616 16.1461L9.77696 10.7615C9.3564 10.3409 9.3564 9.65906 9.77696 9.23849L15.1616 3.85388C15.5821 3.43331 16.264 3.43331 16.6846 3.85388C17.1051 4.27444 17.1051 4.95631 16.6846 5.37688L12.0615 9.99999L16.6846 14.6231C17.1051 15.0437 17.1051 15.7255 16.6846 16.1461ZM10.223 16.1461C9.80247 16.5667 9.1206 16.5667 8.70004 16.1461L3.31542 10.7615C2.89486 10.3409 2.89486 9.65905 3.31542 9.23849L8.70004 3.85388C9.1206 3.43331 9.80247 3.43331 10.223 3.85388C10.6436 4.27444 10.6436 4.95631 10.223 5.37687L5.59992 9.99999L10.223 14.6231C10.6436 15.0437 10.6436 15.7255 10.223 16.1461Z" fill="inherit"/>
</svg>
