<svg viewBox="0 0 20 20" xmlns="http://www.w3.org/2000/svg">
<path d="M13.2308 6.76923H6.76923V13.2308H13.2308V6.76923Z" fill="inherit"/>
<path fill-rule="evenodd" clip-rule="evenodd" d="M7.30769 3C7.60508 3 7.84615 3.24108 7.84615 3.53846V4.07692H9.46154V3.53846C9.46154 3.24108 9.70262 3 10 3C10.2974 3 10.5385 3.24108 10.5385 3.53846V4.07692H12.1538V3.53846C12.1538 3.24108 12.3949 3 12.6923 3C12.9897 3 13.2308 3.24108 13.2308 3.53846V4.07692H13.7692C14.9588 4.07692 15.9231 5.04123 15.9231 6.23077V6.76923H16.4615C16.7589 6.76923 17 7.01031 17 7.30769C17 7.60508 16.7589 7.84615 16.4615 7.84615H15.9231V9.46154H16.4615C16.7589 9.46154 17 9.70262 17 10C17 10.2974 16.7589 10.5385 16.4615 10.5385H15.9231V12.1538H16.4615C16.7589 12.1538 17 12.3949 17 12.6923C17 12.9897 16.7589 13.2308 16.4615 13.2308H15.9231V13.7692C15.9231 14.9588 14.9588 15.9231 13.7692 15.9231H13.2308V16.4615C13.2308 16.7589 12.9897 17 12.6923 17C12.3949 17 12.1538 16.7589 12.1538 16.4615V15.9231H10.5385V16.4615C10.5385 16.7589 10.2974 17 10 17C9.70262 17 9.46154 16.7589 9.46154 16.4615V15.9231H7.84615V16.4615C7.84615 16.7589 7.60508 17 7.30769 17C7.01031 17 6.76923 16.7589 6.76923 16.4615V15.9231H6.23077C5.04123 15.9231 4.07692 14.9588 4.07692 13.7692V13.2308H3.53846C3.24108 13.2308 3 12.9897 3 12.6923C3 12.3949 3.24108 12.1538 3.53846 12.1538H4.07692V10.5385H3.53846C3.24108 10.5385 3 10.2974 3 10C3 9.70262 3.24108 9.46154 3.53846 9.46154H4.07692V7.84615H3.53846C3.24108 7.84615 3 7.60508 3 7.30769C3 7.01031 3.24108 6.76923 3.53846 6.76923H4.07692V6.23077C4.07692 5.04123 5.04123 4.07692 6.23077 4.07692H6.76923V3.53846C6.76923 3.24108 7.01031 3 7.30769 3ZM5.69231 6.23077C5.69231 5.93339 5.93339 5.69231 6.23077 5.69231H13.7692C14.0666 5.69231 14.3077 5.93339 14.3077 6.23077V13.7692C14.3077 14.0666 14.0666 14.3077 13.7692 14.3077H6.23077C5.93339 14.3077 5.69231 14.0666 5.69231 13.7692V6.23077Z" fill="inherit"/>
</svg>
