<svg viewBox="0 0 20 20" xmlns="http://www.w3.org/2000/svg">
<path fill-rule="evenodd" clip-rule="evenodd" d="M6.75114 6.75001H9.04027L9.0417 6.75002H11.1072C12.2449 6.75166 13.1667 7.67445 13.1667 8.81253V14.5417C14.1792 14.5417 15 13.7209 15 12.7084V6.81615C15 5.89618 14.3126 5.09793 13.372 5.01985C13.2352 5.0085 13.0982 4.99808 12.9609 4.98858C12.6554 4.40118 12.0412 4 11.3334 4H10.4167C9.70884 4 9.09467 4.40118 8.78916 4.98857C8.65185 4.99807 8.51479 5.0085 8.37799 5.01985C7.45992 5.09605 6.78315 5.85821 6.75114 6.75001ZM10.4167 4.91667C9.91044 4.91667 9.50003 5.32708 9.50003 5.83334H12.25C12.25 5.32708 11.8396 4.91667 11.3334 4.91667H10.4167Z" fill="inherit"/>
<path fill-rule="evenodd" clip-rule="evenodd" d="M4 8.81253C4 8.1797 4.51301 7.66669 5.14584 7.66669H11.1042C11.737 7.66669 12.25 8.1797 12.25 8.81253V15.6876C12.25 16.3204 11.737 16.8334 11.1042 16.8334H5.14584C4.51301 16.8334 4 16.3204 4 15.6876V8.81253ZM5.83334 10.4167C5.83334 10.1636 6.03855 9.95837 6.29168 9.95837H6.29626C6.5494 9.95837 6.7546 10.1636 6.7546 10.4167V10.4213C6.7546 10.6744 6.5494 10.8796 6.29626 10.8796H6.29168C6.03855 10.8796 5.83334 10.6744 5.83334 10.4213V10.4167ZM7.20835 10.4167C7.20835 10.1636 7.41356 9.95837 7.66669 9.95837H9.95837C10.2115 9.95837 10.4167 10.1636 10.4167 10.4167C10.4167 10.6698 10.2115 10.875 9.95837 10.875H7.66669C7.41356 10.875 7.20835 10.6698 7.20835 10.4167ZM5.83334 12.25C5.83334 11.9969 6.03855 11.7917 6.29168 11.7917H6.29626C6.5494 11.7917 6.7546 11.9969 6.7546 12.25V12.2546C6.7546 12.5078 6.5494 12.713 6.29626 12.713H6.29168C6.03855 12.713 5.83334 12.5078 5.83334 12.2546V12.25ZM7.20835 12.25C7.20835 11.9969 7.41356 11.7917 7.66669 11.7917H9.95837C10.2115 11.7917 10.4167 11.9969 10.4167 12.25C10.4167 12.5032 10.2115 12.7084 9.95837 12.7084H7.66669C7.41356 12.7084 7.20835 12.5032 7.20835 12.25ZM5.83334 14.0834C5.83334 13.8303 6.03855 13.6251 6.29168 13.6251H6.29626C6.5494 13.6251 6.7546 13.8303 6.7546 14.0834V14.088C6.7546 14.3411 6.5494 14.5463 6.29626 14.5463H6.29168C6.03855 14.5463 5.83334 14.3411 5.83334 14.088V14.0834ZM7.20835 14.0834C7.20835 13.8303 7.41356 13.6251 7.66669 13.6251H9.95837C10.2115 13.6251 10.4167 13.8303 10.4167 14.0834C10.4167 14.3365 10.2115 14.5417 9.95837 14.5417H7.66669C7.41356 14.5417 7.20835 14.3365 7.20835 14.0834Z" fill="inherit"/>
</svg>
