<svg viewBox="0 0 20 20" xmlns="http://www.w3.org/2000/svg">
<path fill-rule="evenodd" clip-rule="evenodd" d="M8.5 4C8.04274 4 7.65596 4.30733 7.5374 4.72766C7.51314 4.81367 7.5 4.90489 7.5 5H11.5C11.5 4.90489 11.4869 4.81367 11.4626 4.72766C11.344 4.30733 10.9573 4 10.5 4H8.5ZM6.70436 4.11859C7.03007 3.45624 7.71128 3 8.5 3H10.5C11.2887 3 11.9699 3.45624 12.2956 4.11859C12.6274 4.14686 12.9577 4.18011 13.2865 4.21827C14.2848 4.33412 15 5.19148 15 6.17132V15C15 16.1046 14.1046 17 13 17H6C4.89543 17 4 16.1046 4 15V6.17132C4 5.19148 4.71522 4.33412 5.71348 4.21827C6.04231 4.18011 6.37263 4.14686 6.70436 4.11859Z" fill="inherit"/>
</svg>
