<svg viewBox="0 0 20 20" xmlns="http://www.w3.org/2000/svg">
<path fill-rule="evenodd" clip-rule="evenodd" d="M6.75114 6.75001H9.04027L9.0417 6.75002H11.1072C12.2449 6.75166 13.1667 7.67445 13.1667 8.81253V14.5417C14.1792 14.5417 15 13.7209 15 12.7084V6.81615C15 5.89618 14.3126 5.09793 13.372 5.01985C13.2352 5.0085 13.0982 4.99808 12.9609 4.98858C12.6554 4.40118 12.0412 4 11.3334 4H10.4167C9.70884 4 9.09467 4.40118 8.78916 4.98857C8.65185 4.99807 8.51479 5.0085 8.37799 5.01985C7.45992 5.09605 6.78315 5.85821 6.75114 6.75001ZM10.4167 4.91667C9.91044 4.91667 9.50003 5.32708 9.50003 5.83334H12.25C12.25 5.32708 11.8396 4.91667 11.3334 4.91667H10.4167Z" fill="inherit"/>
<path fill-rule="evenodd" clip-rule="evenodd" d="M4 8.81253C4 8.1797 4.51301 7.66669 5.14584 7.66669H11.1042C11.737 7.66669 12.25 8.1797 12.25 8.81253V15.6876C12.25 16.3204 11.737 16.8334 11.1042 16.8334H5.14584C4.51301 16.8334 4 16.3204 4 15.6876V8.81253ZM9.85793 11.6197C10.0161 11.422 9.98402 11.1336 9.78635 10.9755C9.58869 10.8173 9.30026 10.8494 9.14213 11.0471L7.62868 12.9389L7.07411 12.3843C6.89512 12.2053 6.60492 12.2053 6.42592 12.3843C6.24693 12.5633 6.24693 12.8535 6.42592 13.0325L7.3426 13.9492C7.43478 14.0413 7.56186 14.0899 7.69204 14.0827C7.82221 14.0755 7.94315 14.0132 8.02459 13.9114L9.85793 11.6197Z" fill="inherit"/>
</svg>
