<svg viewBox="0 0 20 20" xmlns="http://www.w3.org/2000/svg">
<path fill-rule="evenodd" clip-rule="evenodd" d="M2 4.66667C2 3.19391 3.19391 2 4.66667 2H15.3333C16.8061 2 18 3.19391 18 4.66667V15.3333C18 16.8061 16.8061 18 15.3333 18H4.66667C3.19391 18 2 16.8061 2 15.3333V4.66667ZM14.6667 10C14.6667 10.1768 14.5964 10.3464 14.4714 10.4714L12.4714 12.4714C12.2111 12.7318 11.7889 12.7318 11.5286 12.4714C11.2682 12.2111 11.2682 11.7889 11.5286 11.5286L13.0572 10L11.5286 8.4714C11.2682 8.21105 11.2682 7.78895 11.5286 7.5286C11.7889 7.26825 12.2111 7.26825 12.4714 7.5286L14.4714 9.5286C14.5964 9.65362 14.6667 9.82319 14.6667 10ZM5.5286 9.52859C5.40357 9.65362 5.33333 9.82319 5.33333 10C5.33333 10.1768 5.40357 10.3464 5.5286 10.4714L7.52859 12.4714C7.78894 12.7318 8.21105 12.7318 8.4714 12.4714C8.73175 12.2111 8.73175 11.7889 8.4714 11.5286L6.94281 10L8.4714 8.47141C8.73175 8.21106 8.73175 7.78895 8.4714 7.5286C8.21106 7.26825 7.78895 7.26825 7.5286 7.5286L5.5286 9.52859Z" fill="inherit"/>
</svg>
