<svg viewBox="0 0 20 20" xmlns="http://www.w3.org/2000/svg">
<path fill-rule="evenodd" clip-rule="evenodd" d="M9.85669 1.875C9.09288 1.875 8.44102 2.42721 8.31545 3.18063L8.23916 3.63835C8.20014 3.87246 8.03089 4.06173 7.80862 4.14495C7.67342 4.19558 7.54044 4.25075 7.40987 4.31029C7.19382 4.4088 6.94018 4.39469 6.74696 4.25668L6.36916 3.98682C5.74762 3.54286 4.89622 3.61332 4.35612 4.15342L4.15344 4.3561C3.61334 4.8962 3.54288 5.7476 3.98683 6.36914L4.25669 6.74694C4.3947 6.94016 4.40881 7.1938 4.3103 7.40985C4.25076 7.54042 4.19559 7.67341 4.14496 7.80861C4.06173 8.03088 3.87246 8.20013 3.63835 8.23915L3.18063 8.31544C2.42721 8.44101 1.875 9.09286 1.875 9.85668V10.1433C1.875 10.9071 2.42721 11.559 3.18063 11.6846L3.63835 11.7608C3.87246 11.7999 4.06173 11.9691 4.14495 12.1914C4.19558 12.3266 4.25075 12.4596 4.31029 12.5901C4.4088 12.8062 4.39469 13.0598 4.25667 13.253L3.9868 13.6309C3.54284 14.2524 3.6133 15.1038 4.1534 15.6439L4.35608 15.8466C4.89618 16.3867 5.74758 16.4571 6.36912 16.0132L6.74694 15.7433C6.94016 15.6053 7.1938 15.5912 7.40985 15.6897C7.54043 15.7492 7.67341 15.8044 7.80861 15.855C8.03088 15.9383 8.20013 16.1275 8.23915 16.3616L8.31544 16.8194C8.44101 17.5728 9.09286 18.125 9.85668 18.125H10.1433C10.9071 18.125 11.559 17.5728 11.6846 16.8194L11.7608 16.3617C11.7999 16.1275 11.9691 15.9383 12.1914 15.855C12.3266 15.8044 12.4596 15.7492 12.5901 15.6897C12.8062 15.5912 13.0598 15.6053 13.253 15.7433L13.6308 16.0132C14.2524 16.4571 15.1038 16.3867 15.6439 15.8466L15.8466 15.6439C16.3867 15.1038 16.4571 14.2524 16.0132 13.6309L15.7433 13.2531C15.6053 13.0598 15.5912 12.8062 15.6897 12.5902C15.7492 12.4596 15.8044 12.3266 15.855 12.1914C15.9383 11.9691 16.1275 11.7999 16.3616 11.7609L16.8194 11.6846C17.5728 11.559 18.125 10.9071 18.125 10.1433V9.85669C18.125 9.09288 17.5728 8.44102 16.8194 8.31545L16.3617 8.23916C16.1275 8.20014 15.9383 8.03089 15.855 7.80862C15.8044 7.67342 15.7492 7.54045 15.6897 7.40988C15.5912 7.19383 15.6053 6.94019 15.7433 6.74697L16.0132 6.36914C16.4572 5.7476 16.3867 4.8962 15.8466 4.3561L15.6439 4.15342C15.1038 3.61332 14.2524 3.54286 13.6309 3.98681L13.2531 4.25669C13.0598 4.3947 12.8062 4.40881 12.5901 4.3103C12.4596 4.25076 12.3266 4.19559 12.1914 4.14496C11.9691 4.06173 11.7999 3.87246 11.7609 3.63835L11.6846 3.18063C11.559 2.42721 10.9071 1.875 10.1433 1.875H9.85669ZM10 13.125C11.7259 13.125 13.125 11.7259 13.125 10C13.125 8.27411 11.7259 6.875 10 6.875C8.27411 6.875 6.875 8.27411 6.875 10C6.875 11.7259 8.27411 13.125 10 13.125Z" fill="inherit"/>
</svg>
