<svg viewBox="0 0 20 20" xmlns="http://www.w3.org/2000/svg">
<path d="M14.1699 8.67231C14.2852 9.03484 13.9902 9.37438 13.6097 9.37438H10.7223C10.499 9.37438 10.2927 9.25526 10.181 9.0619L8.73706 6.56114C8.54671 6.23147 8.6934 5.80602 9.06537 5.72508C9.36651 5.65954 9.67922 5.62502 10 5.62502C11.9534 5.62502 13.6077 6.90519 14.1699 8.67231Z" fill="inherit"/>
<path d="M6.76615 7.05331C7.02273 6.77189 7.46473 6.85742 7.65515 7.18722L9.09847 9.68689C9.21013 9.88026 9.21013 10.1185 9.09848 10.3119L7.65481 12.8124C7.46438 13.1423 7.02233 13.2278 6.76576 12.9463C6.0571 12.1688 5.625 11.1349 5.625 10C5.625 8.86494 6.05726 7.83083 6.76615 7.05331Z" fill="inherit"/>
<path d="M9.0648 14.2748C8.69288 14.1938 8.54623 13.7684 8.73654 13.4388L10.181 10.9369C10.2927 10.7435 10.499 10.6244 10.7223 10.6244H13.6101C13.9905 10.6244 14.2855 10.9638 14.1704 11.3263C13.6086 13.0942 11.9539 14.375 10 14.375C9.67902 14.375 9.36611 14.3405 9.0648 14.2748Z" fill="inherit"/>
<path fill-rule="evenodd" clip-rule="evenodd" d="M17.5006 10.6244C17.8458 10.6244 18.1256 10.3446 18.1256 9.99938C18.1256 9.6542 17.8458 9.37438 17.5006 9.37438H16.8476C16.8127 8.98759 16.7458 8.61004 16.6496 8.2444L17.2619 8.02154C17.5863 7.90348 17.7535 7.54483 17.6354 7.22047C17.5174 6.89611 17.1587 6.72887 16.8344 6.84692L16.222 7.06981C16.0579 6.72196 15.8655 6.39009 15.6478 6.07717L16.1476 5.65777C16.412 5.43589 16.4465 5.04167 16.2246 4.77725C16.0027 4.51283 15.6085 4.47834 15.3441 4.70021L14.8438 5.11997C14.5725 4.85057 14.2787 4.60366 13.9656 4.38227L14.2918 3.81734C14.4644 3.5184 14.362 3.13616 14.063 2.96357C13.7641 2.79098 13.3819 2.8934 13.2093 3.19234L12.8837 3.75628C12.5387 3.59672 12.1783 3.4649 11.8053 3.3637L11.9184 2.72247C11.9783 2.38253 11.7514 2.05837 11.4114 1.99843C11.0715 1.93849 10.7473 2.16547 10.6874 2.5054L10.5741 3.14796C10.385 3.13234 10.1937 3.12438 10.0006 3.12438C9.80748 3.12438 9.61616 3.13236 9.42698 3.148L9.31368 2.50544C9.25374 2.16551 8.92958 1.93853 8.58965 1.99846C8.24971 2.0584 8.02273 2.38257 8.08267 2.7225L8.19577 3.3639C7.82291 3.4651 7.46255 3.59689 7.11761 3.75642L6.79182 3.19219C6.61922 2.89326 6.23697 2.79085 5.93804 2.96345C5.63912 3.13606 5.53671 3.5183 5.70931 3.81723L6.03561 4.38234C5.72269 4.60362 5.42903 4.85045 5.15768 5.11978L4.65704 4.6997C4.39262 4.47782 3.99839 4.51231 3.77652 4.77673C3.55464 5.04115 3.58913 5.43538 3.85355 5.65725L4.35374 6.07696C4.1359 6.38997 3.94341 6.72197 3.77924 7.06999L3.16671 6.84705C2.84235 6.72899 2.4837 6.89624 2.36564 7.2206C2.24759 7.54496 2.41483 7.90361 2.73919 8.02167L3.35163 8.24458C3.25539 8.61015 3.1885 8.98764 3.15364 9.37438H2.50061C2.15543 9.37438 1.87561 9.6542 1.87561 9.99938C1.87561 10.3446 2.15543 10.6244 2.50061 10.6244H3.15364C3.18849 11.0111 3.25537 11.3886 3.3516 11.7542L2.73898 11.9772C2.41462 12.0953 2.24738 12.4539 2.36544 12.7783C2.48349 13.1027 2.84215 13.2699 3.16651 13.1518L3.77918 12.9288C3.94337 13.2769 4.13592 13.609 4.35384 13.9221L3.85343 14.342C3.58901 14.5639 3.55452 14.9581 3.77639 15.2225C3.99827 15.487 4.39249 15.5215 4.65691 15.2996L5.15784 14.8793C5.42922 15.1486 5.72295 15.3954 6.036 15.6168L5.70926 16.1827C5.53668 16.4816 5.6391 16.8639 5.93803 17.0365C6.23696 17.2091 6.61921 17.1066 6.7918 16.8077L7.11801 16.2427C7.46283 16.4022 7.8231 16.5339 8.19595 16.6351L8.08267 17.2775C8.02273 17.6175 8.24971 17.9416 8.58964 18.0016C8.92958 18.0615 9.25374 17.8345 9.31368 17.4946L9.42719 16.8508C9.61627 16.8664 9.80751 16.8744 10.0006 16.8744C10.1937 16.8744 10.3849 16.8664 10.5739 16.8508L10.6874 17.4946C10.7473 17.8345 11.0715 18.0615 11.4114 18.0016C11.7514 17.9417 11.9783 17.6175 11.9184 17.2776L11.8051 16.6351C12.178 16.534 12.5383 16.4022 12.8832 16.2427L13.2093 16.8076C13.3819 17.1065 13.7641 17.2089 14.0631 17.0364C14.362 16.8638 14.4644 16.4815 14.2918 16.1826L13.9652 15.6168C14.2783 15.3954 14.5722 15.1485 14.8436 14.879L15.3442 15.2991C15.6086 15.5209 16.0029 15.4865 16.2247 15.222C16.4466 14.9576 16.4121 14.5634 16.1477 14.3415L15.6476 13.9219C15.8654 13.6089 16.0578 13.2769 16.222 12.929L16.8346 13.152C17.1589 13.27 17.5176 13.1028 17.6356 12.7784C17.7537 12.4541 17.5865 12.0954 17.2621 11.9774L16.6496 11.7544C16.7458 11.3888 16.8127 11.0112 16.8476 10.6244H17.5006ZM15.2862 8.07552C15.2812 8.06166 15.2766 8.04774 15.2726 8.03378C15.0494 7.43541 14.7273 6.88526 14.3261 6.40323C14.3205 6.39703 14.3149 6.39069 14.3095 6.38422C14.3042 6.37788 14.299 6.37147 14.294 6.36498C13.8854 5.88285 13.3972 5.47044 12.8495 5.14812C12.8372 5.14207 12.8251 5.13557 12.813 5.12863C12.8007 5.12151 12.7887 5.11402 12.777 5.1062C12.2401 4.80093 11.6481 4.58147 11.0196 4.46645C11.0056 4.46494 10.9915 4.46294 10.9773 4.46045C10.9636 4.45803 10.9501 4.45519 10.9368 4.45193C10.6323 4.40093 10.3196 4.37438 10.0006 4.37438C9.68193 4.37438 9.36961 4.40083 9.06566 4.45163C9.0519 4.45503 9.03793 4.45799 9.02377 4.46048C9.00912 4.46307 8.9945 4.46512 8.97994 4.46665C8.33749 4.58432 7.7337 4.81108 7.1879 5.12691C6.62297 5.4538 6.12037 5.87587 5.70193 6.3711C5.69856 6.37533 5.69513 6.37953 5.69163 6.3837C5.68985 6.38582 5.68807 6.38792 5.68627 6.39C5.68439 6.39219 5.6825 6.39435 5.68059 6.3965C5.27665 6.88031 4.95257 7.4329 4.7284 8.03408C4.7244 8.04798 4.7199 8.06185 4.71488 8.07565C4.70985 8.08945 4.70439 8.10297 4.69851 8.1162C4.48939 8.70504 4.37561 9.33896 4.37561 9.99938C4.37561 10.6613 4.48996 11.2966 4.69997 11.8865C4.70522 11.8985 4.71012 11.9108 4.71467 11.9232C4.71921 11.9357 4.72332 11.9482 4.72703 11.9608C5.18331 13.1871 6.05511 14.2112 7.17129 14.8621C7.17445 14.8638 7.17759 14.8655 7.18073 14.8673C7.18317 14.8686 7.1856 14.87 7.18803 14.8714C7.19388 14.8748 7.19965 14.8783 7.20534 14.8818C7.75358 15.1963 8.35985 15.4212 9.00412 15.5364C9.01066 15.5373 9.01721 15.5384 9.02376 15.5395C9.02987 15.5406 9.03594 15.5418 9.04197 15.543C9.35351 15.5965 9.67381 15.6244 10.0006 15.6244C10.3275 15.6244 10.6478 15.5965 10.9594 15.543C10.9653 15.5418 10.9713 15.5406 10.9773 15.5396C10.9838 15.5384 10.9903 15.5374 10.9967 15.5365C11.6396 15.4216 12.2446 15.1975 12.7919 14.8841C12.7988 14.8797 12.8059 14.8754 12.8131 14.8713C12.8199 14.8673 12.8269 14.8635 12.8338 14.8598C13.3916 14.5339 13.8883 14.1148 14.3025 13.6237L14.3096 13.6151L14.3173 13.6061C14.7233 13.1207 15.0489 12.5659 15.2737 11.962C15.2775 11.9491 15.2817 11.9362 15.2864 11.9234C15.2911 11.9105 15.2962 11.8979 15.3016 11.8855C15.5114 11.2959 15.6256 10.661 15.6256 9.99938C15.6256 9.33892 15.5118 8.70505 15.3027 8.11631C15.2968 8.103 15.2913 8.08941 15.2862 8.07552Z" fill="inherit"/>
</svg>
