<svg viewBox="0 0 20 20" xmlns="http://www.w3.org/2000/svg">
<path fill-rule="evenodd" clip-rule="evenodd" d="M9.68508 1.33514C9.87968 1.22162 10.1203 1.22162 10.3149 1.33514L12.1899 2.42889C12.4881 2.60281 12.5888 2.98551 12.4149 3.28367C12.2409 3.58183 11.8582 3.68254 11.5601 3.50861L10 2.59856L8.43992 3.50861C8.14176 3.68254 7.75906 3.58183 7.58514 3.28367C7.41121 2.98551 7.51192 2.60281 7.81008 2.42889L9.68508 1.33514ZM4.91486 4.84133C5.08879 5.13949 4.98808 5.52219 4.68992 5.69611L3.7404 6.25L4.68992 6.80389C4.98808 6.97781 5.08879 7.36051 4.91486 7.65867C4.74094 7.95683 4.35824 8.05754 4.06008 7.88361L3.125 7.33815V8.125C3.125 8.47018 2.84518 8.75 2.5 8.75C2.15482 8.75 1.875 8.47018 1.875 8.125V6.25C1.875 6.02771 1.99307 5.82214 2.18508 5.71014L4.06008 4.61639C4.35824 4.44246 4.74094 4.54317 4.91486 4.84133ZM15.0851 4.84133C15.2591 4.54317 15.6418 4.44246 15.9399 4.61639L17.8149 5.71014C18.0069 5.82214 18.125 6.02771 18.125 6.25V8.125C18.125 8.47018 17.8452 8.75 17.5 8.75C17.1548 8.75 16.875 8.47018 16.875 8.125V7.33815L15.9399 7.88361C15.6418 8.05754 15.2591 7.95683 15.0851 7.65867C14.9112 7.36051 15.0119 6.97781 15.3101 6.80389L16.2596 6.25L15.3101 5.69611C15.0119 5.52219 14.9112 5.13949 15.0851 4.84133ZM7.58514 9.21633C7.75906 8.91817 8.14176 8.81746 8.43992 8.99139L10 9.90144L11.5601 8.99139C11.8582 8.81746 12.2409 8.91817 12.4149 9.21633C12.5888 9.51449 12.4881 9.89719 12.1899 10.0711L10.625 10.984V12.5C10.625 12.8452 10.3452 13.125 10 13.125C9.65482 13.125 9.375 12.8452 9.375 12.5V10.984L7.81008 10.0711C7.51192 9.89719 7.41121 9.51449 7.58514 9.21633ZM2.5 11.25C2.84518 11.25 3.125 11.5298 3.125 11.875V13.391L4.68992 14.3039C4.98808 14.4778 5.08879 14.8605 4.91486 15.1587C4.74094 15.4568 4.35824 15.5575 4.06008 15.3836L2.18508 14.2899C1.99307 14.1779 1.875 13.9723 1.875 13.75V11.875C1.875 11.5298 2.15482 11.25 2.5 11.25ZM17.5 11.25C17.8452 11.25 18.125 11.5298 18.125 11.875V13.75C18.125 13.9723 18.0069 14.1779 17.8149 14.2899L15.9399 15.3836C15.6418 15.5575 15.2591 15.4568 15.0851 15.1587C14.9112 14.8605 15.0119 14.4778 15.3101 14.3039L16.875 13.391V11.875C16.875 11.5298 17.1548 11.25 17.5 11.25ZM10 15.625C10.3452 15.625 10.625 15.9048 10.625 16.25V17.0369L11.5601 16.4914C11.8582 16.3175 12.2409 16.4182 12.4149 16.7163C12.5888 17.0145 12.4881 17.3972 12.1899 17.5711L10.3149 18.6649C10.1203 18.7784 9.87968 18.7784 9.68508 18.6649L7.81008 17.5711C7.51192 17.3972 7.41121 17.0145 7.58514 16.7163C7.75906 16.4182 8.14176 16.3175 8.43992 16.4914L9.375 17.0369V16.25C9.375 15.9048 9.65482 15.625 10 15.625Z" fill="inherit"/>
</svg>
