<svg viewBox="0 0 20 20" xmlns="http://www.w3.org/2000/svg">
<path fill-rule="evenodd" clip-rule="evenodd" d="M10 2C5.58172 2 2 5.58172 2 10C2 14.4183 5.58172 18 10 18C14.4183 18 18 14.4183 18 10C18 5.58172 14.4183 2 10 2ZM8.05049 5.96634C7.86197 5.68355 7.47989 5.60714 7.19711 5.79566C6.91432 5.98419 6.83791 6.36626 7.02643 6.64905L8.85014 9.38462H7.53846C7.19859 9.38462 6.92308 9.66013 6.92308 10C6.92308 10.3399 7.19859 10.6154 7.53846 10.6154H9.38462V11.8462H7.53846C7.19859 11.8462 6.92308 12.1217 6.92308 12.4615C6.92308 12.8014 7.19859 13.0769 7.53846 13.0769H9.38462V14.3077C9.38462 14.6476 9.66013 14.9231 10 14.9231C10.3399 14.9231 10.6154 14.6476 10.6154 14.3077V13.0769H12.4615C12.8014 13.0769 13.0769 12.8014 13.0769 12.4615C13.0769 12.1217 12.8014 11.8462 12.4615 11.8462H10.6154V10.6154H12.4615C12.8014 10.6154 13.0769 10.3399 13.0769 10C13.0769 9.66013 12.8014 9.38462 12.4615 9.38462H11.1499L12.9736 6.64905C13.1621 6.36626 13.0857 5.98419 12.8029 5.79566C12.5201 5.60714 12.138 5.68355 11.9495 5.96634L10 8.8906L8.05049 5.96634Z" fill="inherit"/>
</svg>
