<svg viewBox="0 0 20 20" xmlns="http://www.w3.org/2000/svg">
<path fill-rule="evenodd" clip-rule="evenodd" d="M10 2C5.58172 2 2 5.58172 2 10C2 14.4183 5.58172 18 10 18C14.4183 18 18 14.4183 18 10C18 5.58172 14.4183 2 10 2ZM7.53846 6.30769C7.19859 6.30769 6.92308 6.58321 6.92308 6.92308C6.92308 7.26295 7.19859 7.53846 7.53846 7.53846H8.76923C9.57306 7.53846 10.2569 8.05219 10.5103 8.76923H7.53846C7.19859 8.76923 6.92308 9.04475 6.92308 9.38462C6.92308 9.72448 7.19859 10 7.53846 10H10.5103C10.2569 10.717 9.57306 11.2308 8.76923 11.2308H7.53846C7.28956 11.2308 7.06517 11.3807 6.96992 11.6107C6.87467 11.8406 6.92732 12.1053 7.10332 12.2813L9.56486 14.7428C9.80518 14.9832 10.1948 14.9832 10.4351 14.7428C10.6755 14.5025 10.6755 14.1129 10.4351 13.8726L9.0145 12.4519C10.3926 12.3432 11.5153 11.3266 11.7846 10H12.4615C12.8014 10 13.0769 9.72448 13.0769 9.38462C13.0769 9.04475 12.8014 8.76923 12.4615 8.76923H11.7846C11.6923 8.31454 11.4997 7.89625 11.231 7.53846H12.4615C12.8014 7.53846 13.0769 7.26295 13.0769 6.92308C13.0769 6.58321 12.8014 6.30769 12.4615 6.30769H7.53846Z" fill="inherit"/>
</svg>
