<svg viewBox="0 0 20 20" xmlns="http://www.w3.org/2000/svg">
<path d="M6.375 3.40625C6.375 2.6296 7.0046 2 7.78125 2H8.0625C9.6158 2 10.875 3.2592 10.875 4.8125V6.21875C10.875 6.9954 11.5046 7.625 12.2812 7.625H13.6875C15.2408 7.625 16.5 8.8842 16.5 10.4375V12.9688C16.5 13.7454 15.8704 14.375 15.0938 14.375H7.78125C7.0046 14.375 6.375 13.7454 6.375 12.9688V3.40625Z" fill="inherit"/>
<path d="M12 4.8125C12 3.82771 11.6385 2.92736 11.0409 2.23693C13.5901 2.90283 15.5972 4.90991 16.2631 7.45911C15.5726 6.86153 14.6723 6.5 13.6875 6.5H12.2812C12.1259 6.5 12 6.37408 12 6.21875V4.8125Z" fill="inherit"/>
<path d="M4.40625 5.375H5.25V12.9688C5.25 14.3667 6.38328 15.5 7.78125 15.5H13.125V16.3438C13.125 17.1204 12.4954 17.75 11.7188 17.75H4.40625C3.6296 17.75 3 17.1204 3 16.3438V6.78125C3 6.0046 3.6296 5.375 4.40625 5.375Z" fill="inherit"/>
</svg>
