<svg viewBox="0 0 20 20" xmlns="http://www.w3.org/2000/svg">
<path fill-rule="evenodd" clip-rule="evenodd" d="M5.40625 2H7.9375C9.4908 2 10.75 3.2592 10.75 4.8125V6.21875C10.75 6.9954 11.3796 7.625 12.1562 7.625H13.5625C15.1158 7.625 16.375 8.8842 16.375 10.4375V16.3438C16.375 17.1204 15.7454 17.75 14.9688 17.75H5.40625C4.6296 17.75 4 17.1204 4 16.3438V3.40625C4 2.6296 4.6296 2 5.40625 2ZM10.5852 9.47725C10.4798 9.37176 10.3367 9.3125 10.1875 9.3125C10.0383 9.3125 9.89524 9.37176 9.78975 9.47725L7.53975 11.7273C7.32008 11.9469 7.32008 12.3031 7.53975 12.5227C7.75942 12.7424 8.11558 12.7424 8.33525 12.5227L9.625 11.233L9.625 14.375C9.625 14.6857 9.87684 14.9375 10.1875 14.9375C10.4982 14.9375 10.75 14.6857 10.75 14.375L10.75 11.233L12.0398 12.5227C12.2594 12.7424 12.6156 12.7424 12.8352 12.5227C13.0549 12.3031 13.0549 11.9469 12.8352 11.7273L10.5852 9.47725Z" fill="inherit"/>
<path d="M11.875 4.8125C11.875 3.82771 11.5135 2.92736 10.9159 2.23693C13.4651 2.90283 15.4722 4.90991 16.1381 7.45911C15.4476 6.86153 14.5473 6.5 13.5625 6.5H12.1562C12.0009 6.5 11.875 6.37408 11.875 6.21875V4.8125Z" fill="inherit"/>
</svg>
