<svg viewBox="0 0 20 20" xmlns="http://www.w3.org/2000/svg">
<path fill-rule="evenodd" clip-rule="evenodd" d="M5.40625 2H7.9375C9.4908 2 10.75 3.2592 10.75 4.8125V6.21875C10.75 6.9954 11.3796 7.625 12.1562 7.625H13.5625C15.1158 7.625 16.375 8.8842 16.375 10.4375V16.3438C16.375 17.1204 15.7454 17.75 14.9688 17.75H5.40625C4.6296 17.75 4 17.1204 4 16.3438V3.40625C4 2.6296 4.6296 2 5.40625 2ZM9.78975 14.7727C10.0094 14.9924 10.3656 14.9924 10.5852 14.7727L12.8352 12.5227C13.0549 12.3031 13.0549 11.9469 12.8352 11.7273C12.6156 11.5076 12.2594 11.5076 12.0398 11.7273L10.75 13.017L10.75 9.875C10.75 9.56434 10.4982 9.3125 10.1875 9.3125C9.87684 9.3125 9.625 9.56434 9.625 9.875L9.625 13.017L8.33525 11.7273C8.11558 11.5076 7.75942 11.5076 7.53975 11.7273C7.32008 11.9469 7.32008 12.3031 7.53975 12.5227L9.78975 14.7727Z" fill="inherit"/>
<path d="M11.875 4.8125C11.875 3.82771 11.5135 2.92736 10.9159 2.23693C13.4651 2.90283 15.4722 4.90991 16.1381 7.45911C15.4476 6.86153 14.5473 6.5 13.5625 6.5H12.1562C12.0009 6.5 11.875 6.37408 11.875 6.21875V4.8125Z" fill="inherit"/>
</svg>
