<svg viewBox="0 0 20 20" xmlns="http://www.w3.org/2000/svg">
<path fill-rule="evenodd" clip-rule="evenodd" d="M10 2C5.58172 2 2 5.58172 2 10C2 14.4183 5.58172 18 10 18C14.4183 18 18 14.4183 18 10C18 5.58172 14.4183 2 10 2ZM7.84615 6.92308C7.40252 6.92308 7.16656 7.26671 7.07817 7.4435C6.97137 7.65708 6.92308 7.90909 6.92308 8.15385C6.92308 8.3986 6.97137 8.65061 7.07817 8.8642C7.16656 9.04098 7.40252 9.38462 7.84615 9.38462C8.28978 9.38462 8.52575 9.04098 8.61414 8.8642C8.72094 8.65061 8.76923 8.3986 8.76923 8.15385C8.76923 7.90909 8.72094 7.65708 8.61414 7.4435C8.52575 7.26671 8.28978 6.92308 7.84615 6.92308ZM11.3859 7.4435C11.4742 7.26671 11.7102 6.92308 12.1538 6.92308C12.5975 6.92308 12.8334 7.26671 12.9218 7.4435C13.0286 7.65708 13.0769 7.90909 13.0769 8.15385C13.0769 8.3986 13.0286 8.65061 12.9218 8.8642C12.8334 9.04098 12.5975 9.38462 12.1538 9.38462C11.7102 9.38462 11.4742 9.04098 11.3859 8.8642C11.2791 8.65061 11.2308 8.3986 11.2308 8.15385C11.2308 7.90909 11.2791 7.65708 11.3859 7.4435ZM13.046 13.046C13.2863 12.8057 13.2863 12.4161 13.046 12.1757C12.8057 11.9354 12.416 11.9354 12.1757 12.1757C10.9741 13.3773 9.0259 13.3773 7.82429 12.1757C7.58396 11.9354 7.19432 11.9354 6.954 12.1757C6.71368 12.4161 6.71368 12.8057 6.954 13.046C8.63626 14.7283 11.3637 14.7283 13.046 13.046Z" fill="inherit"/>
</svg>
