<svg viewBox="0 0 20 20" xmlns="http://www.w3.org/2000/svg">
<path fill-rule="evenodd" clip-rule="evenodd" d="M10 2C5.58172 2 2 5.58172 2 10C2 14.4183 5.58172 18 10 18C14.4183 18 18 14.4183 18 10C18 5.58172 14.4183 2 10 2ZM7.84615 6.92308C7.40252 6.92308 7.16656 7.26671 7.07817 7.4435C6.97137 7.65708 6.92308 7.90909 6.92308 8.15385C6.92308 8.3986 6.97137 8.65061 7.07817 8.8642C7.16656 9.04098 7.40252 9.38462 7.84615 9.38462C8.28978 9.38462 8.52575 9.04098 8.61414 8.8642C8.72094 8.65061 8.76923 8.3986 8.76923 8.15385C8.76923 7.90909 8.72094 7.65708 8.61414 7.4435C8.52575 7.26671 8.28978 6.92308 7.84615 6.92308ZM11.3859 7.4435C11.4742 7.26671 11.7102 6.92308 12.1538 6.92308C12.5975 6.92308 12.8334 7.26671 12.9218 7.4435C13.0286 7.65708 13.0769 7.90909 13.0769 8.15385C13.0769 8.3986 13.0286 8.65061 12.9218 8.8642C12.8334 9.04098 12.5975 9.38462 12.1538 9.38462C11.7102 9.38462 11.4742 9.04098 11.3859 8.8642C11.2791 8.65061 11.2308 8.3986 11.2308 8.15385C11.2308 7.90909 11.2791 7.65708 11.3859 7.4435ZM7.82457 13.978C7.58424 14.2184 7.1946 14.2184 6.95428 13.978C6.71396 13.7377 6.71396 13.3481 6.95428 13.1078C7.79906 12.263 8.90868 11.8423 10.0151 11.8461C11.1116 11.8498 12.209 12.2705 13.0463 13.1078C13.2866 13.3481 13.2866 13.7377 13.0463 13.978C12.806 14.2184 12.4163 14.2184 12.176 13.978C11.5777 13.3798 10.7957 13.0795 10.0109 13.0768C9.21891 13.0741 8.42817 13.3744 7.82457 13.978Z" fill="inherit"/>
</svg>
