<svg viewBox="0 0 20 20" xmlns="http://www.w3.org/2000/svg">
<path fill-rule="evenodd" clip-rule="evenodd" d="M1.64439 2C2.00028 2 2.28878 2.2885 2.28878 2.64439V3.10785L3.86813 2.71301C5.80813 2.22802 7.85762 2.45299 9.64621 3.34729L9.73876 3.39356C11.2219 4.13514 12.9181 4.33327 14.5322 3.95347L17.204 3.32483C17.4075 3.27694 17.6216 3.33078 17.7783 3.46925C17.935 3.60772 18.0147 3.8136 17.9922 4.02148C17.8349 5.47381 17.7542 6.94931 17.7542 8.44391C17.7542 9.95096 17.8362 11.4386 17.9962 12.9026C18.0315 13.2262 17.82 13.5253 17.5032 13.5999L14.8274 14.2295C12.9198 14.6783 10.9152 14.4442 9.16241 13.5678L9.06985 13.5215C7.55643 12.7648 5.82224 12.5744 4.1807 12.9848L2.28878 13.4578V18.1098C2.28878 18.4656 2.00028 18.7542 1.64439 18.7542C1.2885 18.7542 1 18.4656 1 18.1098V2.64439C1 2.2885 1.2885 2 1.64439 2Z" fill="inherit"/>
</svg>
