<svg viewBox="0 0 20 20" xmlns="http://www.w3.org/2000/svg">
<path fill-rule="evenodd" clip-rule="evenodd" d="M15.7143 16.7143C16.9767 16.7143 18 15.6909 18 14.4286V7.57143C18 6.30906 16.9767 5.28571 15.7143 5.28571H11.6162C11.4647 5.28571 11.3193 5.22551 11.2122 5.11835L9.59594 3.5021C9.27445 3.18061 8.83841 3 8.38376 3H4.28571C3.02335 3 2 4.02335 2 5.28571V14.4286C2 15.6909 3.02335 16.7143 4.28571 16.7143H15.7143ZM10.5714 8.71429C10.5714 8.39869 10.3156 8.14286 10 8.14286C9.68441 8.14286 9.42857 8.39869 9.42857 8.71429L9.42857 11.9062L8.11835 10.5959C7.89519 10.3728 7.53338 10.3728 7.31023 10.5959C7.08707 10.8191 7.08707 11.1809 7.31022 11.4041L9.59594 13.6898C9.7031 13.7969 9.84845 13.8571 10 13.8571C10.1516 13.8571 10.2969 13.7969 10.4041 13.6898L12.6898 11.4041C12.9129 11.1809 12.9129 10.8191 12.6898 10.5959C12.4666 10.3728 12.1048 10.3728 11.8817 10.5959L10.5714 11.9062L10.5714 8.71429Z" fill="inherit"/>
</svg>
