<svg viewBox="0 0 20 20" xmlns="http://www.w3.org/2000/svg">
<path fill-rule="evenodd" clip-rule="evenodd" d="M15.7143 16.7143C16.9767 16.7143 18 15.6909 18 14.4286V7.57143C18 6.30906 16.9767 5.28571 15.7143 5.28571H11.6162C11.4647 5.28571 11.3193 5.22551 11.2122 5.11835L9.59594 3.5021C9.27445 3.18061 8.83841 3 8.38376 3H4.28571C3.02335 3 2 4.02335 2 5.28571V14.4286C2 15.6909 3.02335 16.7143 4.28571 16.7143H15.7143ZM7.71429 10.4286C7.39869 10.4286 7.14286 10.6844 7.14286 11C7.14286 11.3156 7.39869 11.5714 7.71429 11.5714H12.2857C12.6013 11.5714 12.8571 11.3156 12.8571 11C12.8571 10.6844 12.6013 10.4286 12.2857 10.4286H7.71429Z" fill="inherit"/>
</svg>
