<svg viewBox="0 0 20 20" xmlns="http://www.w3.org/2000/svg">
<path fill-rule="evenodd" clip-rule="evenodd" d="M3.68707 3.25256C4.10129 3.25256 4.43707 3.58835 4.43707 4.00256V5.77781H6.21234C6.62655 5.77781 6.96234 6.1136 6.96234 6.52781C6.96234 6.94202 6.62655 7.27781 6.21234 7.27781H3.68707C3.27286 7.27781 2.93707 6.94202 2.93707 6.52781V4.00256C2.93707 3.58835 3.27286 3.25256 3.68707 3.25256Z" fill="inherit"/>
<path fill-rule="evenodd" clip-rule="evenodd" d="M3.33581 6.15149C4.66518 3.85396 7.15133 2.30554 9.99999 2.30554C14.2495 2.30554 17.6944 5.75046 17.6944 9.99999C17.6944 14.2495 14.2495 17.6944 9.99999 17.6944C5.75046 17.6944 2.30554 14.2495 2.30554 9.99999C2.30554 9.58577 2.64133 9.24999 3.05554 9.24999C3.46976 9.24999 3.80554 9.58577 3.80554 9.99999C3.80554 13.4211 6.57889 16.1944 9.99999 16.1944C13.4211 16.1944 16.1944 13.4211 16.1944 9.99999C16.1944 6.57889 13.4211 3.80554 9.99999 3.80554C7.70836 3.80554 5.70639 5.04956 4.63414 6.90272C4.4267 7.26124 3.96789 7.38371 3.60936 7.17627C3.25084 6.96883 3.12837 6.51002 3.33581 6.15149Z" fill="inherit"/>
<path fill-rule="evenodd" clip-rule="evenodd" d="M10.0016 5.08331C10.4158 5.08335 10.7516 5.41917 10.7515 5.83339L10.7511 9.69241L13.4757 12.4169C13.7686 12.7098 13.7686 13.1847 13.4757 13.4776C13.1828 13.7705 12.7079 13.7705 12.415 13.4776L9.47077 10.5334C9.3301 10.3927 9.25108 10.2019 9.2511 10.003L9.25152 5.83324C9.25156 5.41902 9.58738 5.08327 10.0016 5.08331Z" fill="inherit"/>
</svg>
