<svg viewBox="0 0 20 20" xmlns="http://www.w3.org/2000/svg">
<path d="M9.30806 3.43306C9.55214 3.18898 9.94786 3.18898 10.1919 3.43306L17.4331 10.6742C17.6771 10.9183 18.0729 10.9183 18.3169 10.6742C18.561 10.4301 18.561 10.0344 18.3169 9.79029L11.0758 2.54917C10.3436 1.81694 9.15641 1.81694 8.42417 2.54918L1.18306 9.79029C0.938981 10.0344 0.938981 10.4301 1.18306 10.6742C1.42714 10.9183 1.82286 10.9183 2.06694 10.6742L9.30806 3.43306Z" fill="inherit"/>
<path d="M9.75 4.75888L16.5492 11.5581C16.5739 11.5828 16.5992 11.6068 16.625 11.6298V16.7947C16.625 17.6577 15.9254 18.3572 15.0625 18.3572H12.25C11.9048 18.3572 11.625 18.0774 11.625 17.7322V13.9822C11.625 13.6371 11.3452 13.3572 11 13.3572H8.5C8.15482 13.3572 7.875 13.6371 7.875 13.9822V17.7322C7.875 18.0774 7.59518 18.3572 7.25 18.3572H4.4375C3.57456 18.3572 2.875 17.6577 2.875 16.7947V11.6298C2.90077 11.6068 2.92606 11.5828 2.95083 11.5581L9.75 4.75888Z" fill="inherit"/>
</svg>
