<svg viewBox="0 0 20 20" xmlns="http://www.w3.org/2000/svg">
<path d="M10 3.4375C9.51675 3.4375 9.125 3.82925 9.125 4.3125V5.1875C9.125 5.67075 9.51675 6.0625 10 6.0625C10.4832 6.0625 10.875 5.67075 10.875 5.1875V4.3125C10.875 3.82925 10.4832 3.4375 10 3.4375Z" fill="inherit"/>
<path fill-rule="evenodd" clip-rule="evenodd" d="M4.75 5.1875H7.375C7.375 6.63725 8.55025 7.8125 10 7.8125C11.4497 7.8125 12.625 6.63725 12.625 5.1875H15.25C16.2165 5.1875 17 5.971 17 6.9375V14.8125C17 15.779 16.2165 16.5625 15.25 16.5625H4.75C3.7835 16.5625 3 15.779 3 14.8125V6.9375C3 5.971 3.7835 5.1875 4.75 5.1875ZM6.9375 11.3125C7.66237 11.3125 8.25 10.7249 8.25 10C8.25 9.27513 7.66237 8.6875 6.9375 8.6875C6.21263 8.6875 5.625 9.27513 5.625 10C5.625 10.7249 6.21263 11.3125 6.9375 11.3125ZM9.08167 14.8125C9.11036 14.6711 9.12543 14.5248 9.12543 14.375C9.12543 13.1669 8.14605 12.1875 6.93793 12.1875C5.7298 12.1875 4.75043 13.1669 4.75043 14.375C4.75043 14.5248 4.76549 14.6711 4.79419 14.8125H9.08167ZM11.75 9.5625C11.2668 9.5625 10.875 9.95425 10.875 10.4375C10.875 10.9207 11.2668 11.3125 11.75 11.3125H14.375C14.8582 11.3125 15.25 10.9207 15.25 10.4375C15.25 9.95425 14.8582 9.5625 14.375 9.5625H11.75ZM10.875 13.0625C10.875 12.5793 11.2668 12.1875 11.75 12.1875H13.5C13.9832 12.1875 14.375 12.5793 14.375 13.0625C14.375 13.5457 13.9832 13.9375 13.5 13.9375H11.75C11.2668 13.9375 10.875 13.5457 10.875 13.0625Z" fill="inherit"/>
</svg>
