<svg viewBox="0 0 20 20" xmlns="http://www.w3.org/2000/svg">
<path fill-rule="evenodd" clip-rule="evenodd" d="M5.75983 2.5C4.66232 2.5 3.69314 3.21581 3.37038 4.26479L1.36055 10.7967C1.28726 11.0349 1.25 11.2827 1.25 11.5319V15C1.25 16.3807 2.36929 17.5 3.75 17.5H16.25C17.6307 17.5 18.75 16.3807 18.75 15V11.5319C18.75 11.2827 18.7127 11.0349 18.6394 10.7967L16.6296 4.26479C16.3069 3.21581 15.3377 2.5 14.2402 2.5H5.75983ZM17.2788 10.625L15.4349 4.63239C15.2735 4.1079 14.7889 3.75 14.2402 3.75H5.75983C5.21107 3.75 4.72648 4.1079 4.5651 4.63239L2.72122 10.625H5.09119C6.03812 10.625 6.90377 11.16 7.32725 12.007L7.54078 12.434C7.75252 12.8575 8.18535 13.125 8.65881 13.125H11.3412C11.8147 13.125 12.2475 12.8575 12.4592 12.434L12.6727 12.007C13.0962 11.16 13.9619 10.625 14.9088 10.625H17.2788Z" fill="inherit"/>
</svg>
