<svg viewBox="0 0 20 20" xmlns="http://www.w3.org/2000/svg">
<path fill-rule="evenodd" clip-rule="evenodd" d="M12.8571 2C10.0168 2 7.71429 4.30254 7.71429 7.14286C7.71429 7.44284 7.74003 7.73726 7.78956 8.02392C7.84075 8.32021 7.76517 8.56957 7.62108 8.71365L2.66947 13.6653C2.24082 14.0939 2 14.6753 2 15.2815V17.4286C2 17.7442 2.25584 18 2.57143 18H5.42857C5.74416 18 6 17.7442 6 17.4286V16.2857H7.14286C7.45845 16.2857 7.71429 16.0299 7.71429 15.7143V14.5714H8.85714C9.0087 14.5714 9.15404 14.5112 9.2612 14.4041L11.2863 12.3789C11.4304 12.2348 11.6798 12.1592 11.9761 12.2104C12.2627 12.26 12.5572 12.2857 12.8571 12.2857C15.6975 12.2857 18 9.98318 18 7.14286C18 4.30254 15.6975 2 12.8571 2ZM12.8571 4.28571C12.5416 4.28571 12.2857 4.54155 12.2857 4.85714C12.2857 5.17273 12.5416 5.42857 12.8571 5.42857C13.8039 5.42857 14.5714 6.19608 14.5714 7.14286C14.5714 7.45845 14.8273 7.71429 15.1429 7.71429C15.4584 7.71429 15.7143 7.45845 15.7143 7.14286C15.7143 5.5649 14.4351 4.28571 12.8571 4.28571Z" fill="inherit"/>
</svg>
