<svg viewBox="0 0 20 20" xmlns="http://www.w3.org/2000/svg">
<path d="M16 17.2455C17.3807 17.2455 18.5 16.1262 18.5 14.7455V7.93397L12.7677 11.2855L15.6713 12.849C15.9752 13.0127 16.0889 13.3917 15.9253 13.6956C15.7616 13.9996 15.3826 14.1133 15.0787 13.9496L10.3426 11.3994C9.97266 11.2002 9.52735 11.2002 9.15738 11.3994L4.42131 13.9496C4.11739 14.1133 3.73835 13.9996 3.57471 13.6956C3.41106 13.3917 3.52477 13.0127 3.82869 12.849L6.73232 11.2855L1 7.93397V14.7455C1 16.1262 2.11929 17.2455 3.5 17.2455L16 17.2455Z" fill="inherit"/>
<path d="M1 6.48599V5.86538C1 4.94568 1.50498 4.10024 2.31475 3.66421L8.56475 0.298822C9.30469 -0.0996074 10.1953 -0.0996073 10.9353 0.298822L17.1852 3.66421C17.995 4.10024 18.5 4.94568 18.5 5.86539V6.48599L11.4785 10.5913L10.9353 10.2988C10.1953 9.90042 9.30469 9.90041 8.56475 10.2988L8.02154 10.5913L1 6.48599Z" fill="inherit"/>
</svg>
