<svg viewBox="0 0 20 20" xmlns="http://www.w3.org/2000/svg">
<path fill-rule="evenodd" clip-rule="evenodd" d="M6.80123 2.15061C7.24112 1.93067 7.75888 1.93067 8.19877 2.15061L12.3602 4.23135C12.4482 4.27534 12.5518 4.27534 12.6398 4.23135L15.8637 2.61936C16.9026 2.09991 18.125 2.85537 18.125 4.01691V14.4206C18.125 15.0124 17.7906 15.5535 17.2613 15.8181L13.1988 17.8494C12.7589 18.0693 12.2411 18.0693 11.8012 17.8494L7.63975 15.7686C7.55178 15.7247 7.44822 15.7247 7.36025 15.7686L4.13627 17.3806C3.09736 17.9001 1.875 17.1446 1.875 15.9831V5.57941C1.875 4.98758 2.20938 4.44654 2.73873 4.18186L6.80123 2.15061ZM7.5 4.99999C7.84518 4.99999 8.125 5.27981 8.125 5.62499V12.5C8.125 12.8452 7.84518 13.125 7.5 13.125C7.15482 13.125 6.875 12.8452 6.875 12.5V5.62499C6.875 5.27981 7.15482 4.99999 7.5 4.99999ZM13.125 7.49999C13.125 7.15481 12.8452 6.87499 12.5 6.87499C12.1548 6.87499 11.875 7.15481 11.875 7.49999V14.375C11.875 14.7202 12.1548 15 12.5 15C12.8452 15 13.125 14.7202 13.125 14.375V7.49999Z" fill="inherit"/>
</svg>
