<svg viewBox="0 0 20 20" xmlns="http://www.w3.org/2000/svg">
<path fill-rule="evenodd" clip-rule="evenodd" d="M16.25 8.125C16.25 8.47018 15.9702 8.75 15.625 8.75L11.875 8.75C11.5298 8.75 11.25 8.47018 11.25 8.125V4.375C11.25 4.02982 11.5298 3.75 11.875 3.75C12.2202 3.75 12.5 4.02982 12.5 4.375V6.61612L16.4331 2.68306C16.6771 2.43898 17.0729 2.43898 17.3169 2.68306C17.561 2.92714 17.561 3.32286 17.3169 3.56694L13.3839 7.5L15.625 7.5C15.9702 7.5 16.25 7.77982 16.25 8.125Z" fill="inherit"/>
<path fill-rule="evenodd" clip-rule="evenodd" d="M1.25 3.75C1.25 2.36929 2.36929 1.25 3.75 1.25H4.89302C5.61 1.25 6.23498 1.73796 6.40887 2.43354L7.33037 6.11952C7.48284 6.72942 7.25495 7.37129 6.75202 7.74849L5.674 8.557C5.56206 8.64096 5.53772 8.7639 5.56917 8.84974C6.51542 11.4329 8.5671 13.4846 11.1503 14.4308C11.2361 14.4623 11.359 14.4379 11.443 14.326L12.2515 13.248C12.6287 12.7451 13.2706 12.5172 13.8805 12.6696L17.5665 13.5911C18.262 13.765 18.75 14.39 18.75 15.107V16.25C18.75 17.6307 17.6307 18.75 16.25 18.75H14.375C7.12626 18.75 1.25 12.8737 1.25 5.625V3.75Z" fill="inherit"/>
</svg>
