<svg viewBox="0 0 20 20" xmlns="http://www.w3.org/2000/svg">
<path fill-rule="evenodd" clip-rule="evenodd" d="M10 17C13.866 17 17 13.866 17 10C17 6.13401 13.866 3 10 3C6.13401 3 3 6.13401 3 10C3 13.866 6.13401 17 10 17ZM10.875 7.375C10.875 6.89175 10.4832 6.5 10 6.5C9.51675 6.5 9.125 6.89175 9.125 7.375V9.125H7.375C6.89175 9.125 6.5 9.51675 6.5 10C6.5 10.4832 6.89175 10.875 7.375 10.875H9.125V12.625C9.125 13.1082 9.51675 13.5 10 13.5C10.4832 13.5 10.875 13.1082 10.875 12.625V10.875H12.625C13.1082 10.875 13.5 10.4832 13.5 10C13.5 9.51675 13.1082 9.125 12.625 9.125H10.875V7.375Z" fill="inherit"/>
</svg>
