<svg viewBox="0 0 20 20" xmlns="http://www.w3.org/2000/svg">
<path fill-rule="evenodd" clip-rule="evenodd" d="M1.875 1.875C1.52982 1.875 1.25 2.15482 1.25 2.5C1.25 2.84518 1.52982 3.125 1.875 3.125H2.5V11.875C2.5 13.2557 3.61929 14.375 5 14.375H6.00786L5.03207 17.3024C4.92292 17.6298 5.09989 17.9838 5.42736 18.0929C5.75482 18.2021 6.10877 18.0251 6.21793 17.6976L6.49214 16.875H13.5079L13.7821 17.6976C13.8912 18.0251 14.2452 18.2021 14.5726 18.0929C14.9001 17.9838 15.0771 17.6298 14.9679 17.3024L13.9921 14.375H15C16.3807 14.375 17.5 13.2557 17.5 11.875V3.125H18.125C18.4702 3.125 18.75 2.84518 18.75 2.5C18.75 2.15482 18.4702 1.875 18.125 1.875H1.875ZM6.90881 15.625L7.32547 14.375H12.6745L13.0912 15.625H6.90881ZM13.125 5.625C13.125 5.27982 12.8452 5 12.5 5C12.1548 5 11.875 5.27982 11.875 5.625V10.625C11.875 10.9702 12.1548 11.25 12.5 11.25C12.8452 11.25 13.125 10.9702 13.125 10.625V5.625ZM10.625 7.5C10.625 7.15482 10.3452 6.875 10 6.875C9.65482 6.875 9.375 7.15482 9.375 7.5V10.625C9.375 10.9702 9.65482 11.25 10 11.25C10.3452 11.25 10.625 10.9702 10.625 10.625V7.5ZM8.125 9.375C8.125 9.02982 7.84518 8.75 7.5 8.75C7.15482 8.75 6.875 9.02982 6.875 9.375V10.625C6.875 10.9702 7.15482 11.25 7.5 11.25C7.84518 11.25 8.125 10.9702 8.125 10.625V9.375Z" fill="inherit"/>
</svg>
