<svg viewBox="0 0 20 20" xmlns="http://www.w3.org/2000/svg">
<path d="M4.6875 3.125C3.47938 3.125 2.5 4.10438 2.5 5.3125C2.5 6.52062 3.47938 7.5 4.6875 7.5H15.3125C16.5206 7.5 17.5 6.52062 17.5 5.3125C17.5 4.10438 16.5206 3.125 15.3125 3.125H4.6875Z" fill="inherit"/>
<path d="M3.125 9.375C2.77982 9.375 2.5 9.65482 2.5 10C2.5 10.3452 2.77982 10.625 3.125 10.625H16.875C17.2202 10.625 17.5 10.3452 17.5 10C17.5 9.65482 17.2202 9.375 16.875 9.375H3.125Z" fill="inherit"/>
<path d="M2.5 13.125C2.5 12.7798 2.77982 12.5 3.125 12.5H16.875C17.2202 12.5 17.5 12.7798 17.5 13.125C17.5 13.4702 17.2202 13.75 16.875 13.75H3.125C2.77982 13.75 2.5 13.4702 2.5 13.125Z" fill="inherit"/>
<path d="M3.125 15.625C2.77982 15.625 2.5 15.9048 2.5 16.25C2.5 16.5952 2.77982 16.875 3.125 16.875H16.875C17.2202 16.875 17.5 16.5952 17.5 16.25C17.5 15.9048 17.2202 15.625 16.875 15.625H3.125Z" fill="inherit"/>
</svg>
