<svg viewBox="0 0 20 20" xmlns="http://www.w3.org/2000/svg">
<path fill-rule="evenodd" clip-rule="evenodd" d="M17.0267 3.4188C17.3616 3.33509 17.5652 2.99575 17.4815 2.66088C17.3978 2.32601 17.0584 2.12241 16.7236 2.20613L3.44061 5.52686C3.38501 5.53589 3.32945 5.54503 3.27393 5.55428C2.08071 5.75311 1.25 6.79817 1.25 7.97832V15.625C1.25 17.0057 2.36929 18.125 3.75 18.125H16.25C17.6307 18.125 18.75 17.0057 18.75 15.625V7.97832C18.75 6.79817 17.9193 5.75311 16.7261 5.55428C14.7547 5.22578 12.7356 5.03928 10.6798 5.00554L17.0267 3.4188ZM9.03926 10.5523C9.28334 10.7964 9.28334 11.1921 9.03926 11.4362L9.03484 11.4406C8.79076 11.6847 8.39503 11.6847 8.15096 11.4406L8.14654 11.4362C7.90246 11.1921 7.90246 10.7964 8.14654 10.5523L8.15096 10.5479C8.39503 10.3038 8.79076 10.3038 9.03484 10.5479L9.03926 10.5523ZM8.1512 13.2082C8.39528 13.4522 8.791 13.4522 9.03508 13.2082L9.0395 13.2037C9.28358 12.9597 9.28358 12.5639 9.0395 12.3199L9.03508 12.3154C8.791 12.0714 8.39528 12.0714 8.1512 12.3154L8.14678 12.3199C7.9027 12.5639 7.9027 12.9597 8.14678 13.2037L8.1512 13.2082ZM7.27168 12.32C7.51576 12.5641 7.51576 12.9598 7.27168 13.2039L7.26726 13.2083C7.02318 13.4524 6.62746 13.4524 6.38338 13.2083L6.37896 13.2039C6.13488 12.9598 6.13488 12.5641 6.37896 12.32L6.38338 12.3156C6.62746 12.0715 7.02318 12.0715 7.26726 12.3156L7.27168 12.32ZM6.38362 11.4404C6.6277 11.6845 7.02343 11.6845 7.2675 11.4404L7.27192 11.436C7.516 11.1919 7.516 10.7962 7.27192 10.5521L7.2675 10.5477C7.02343 10.3036 6.6277 10.3036 6.38362 10.5477L6.3792 10.5521C6.13512 10.7962 6.13512 11.1919 6.3792 11.436L6.38362 11.4404ZM7.7124 8.12497C8.05758 8.12497 8.3374 8.40479 8.3374 8.74997V8.75622C8.3374 9.1014 8.05758 9.38122 7.7124 9.38122H7.70615C7.36097 9.38122 7.08115 9.1014 7.08115 8.75622V8.74997C7.08115 8.40479 7.36097 8.12497 7.70615 8.12497H7.7124ZM10.7325 10.858C11.0315 10.6854 11.1339 10.3031 10.9613 10.0042L10.9582 9.99879C10.7856 9.69986 10.4033 9.59744 10.1044 9.77003L10.099 9.77315C9.80007 9.94574 9.69765 10.328 9.87023 10.6269L9.87336 10.6323C10.0459 10.9313 10.4282 11.0337 10.7271 10.8611L10.7325 10.858ZM9.58301 15.1298C9.28408 15.3024 8.90184 15.2 8.72925 14.9011L8.72612 14.8956C8.55353 14.5967 8.65596 14.2145 8.95489 14.0419L8.9603 14.0388C9.25923 13.8662 9.64148 13.9686 9.81407 14.2675L9.81719 14.2729C9.98978 14.5719 9.88736 14.9541 9.58843 15.1267L9.58301 15.1298ZM9.8175 9.48319C9.99009 9.18426 9.88767 8.80201 9.58874 8.62943L9.58333 8.6263C9.28439 8.45371 8.90215 8.55613 8.72956 8.85507L8.72644 8.86048C8.55385 9.15941 8.65627 9.54166 8.9552 9.71424L8.96061 9.71737C9.25955 9.88996 9.64179 9.78754 9.81438 9.4886L9.8175 9.48319ZM10.9583 13.7573C10.7857 14.0562 10.4034 14.1586 10.1045 13.986L10.0991 13.9829C9.80014 13.8103 9.69772 13.4281 9.87031 13.1291L9.87343 13.1237C10.046 12.8248 10.4283 12.7224 10.7272 12.895L10.7326 12.8981C11.0315 13.0707 11.134 13.4529 10.9614 13.7518L10.9583 13.7573ZM10.8374 12.5061C11.1826 12.5061 11.4624 12.2263 11.4624 11.8811V11.8748C11.4624 11.5296 11.1826 11.2498 10.8374 11.2498H10.8312C10.486 11.2498 10.2062 11.5296 10.2062 11.8748V11.8811C10.2062 12.2263 10.486 12.5061 10.8312 12.5061H10.8374ZM7.7124 14.375C8.05758 14.375 8.3374 14.6548 8.3374 15V15.0062C8.3374 15.3514 8.05758 15.6312 7.7124 15.6312H7.70615C7.36097 15.6312 7.08115 15.3514 7.08115 15.0062V15C7.08115 14.6548 7.36097 14.375 7.70615 14.375H7.7124ZM5.31994 13.983C5.61887 13.8104 5.7213 13.4281 5.54871 13.1292L5.54558 13.1238C5.37299 12.8249 4.99075 12.7224 4.69182 12.895L4.6864 12.8982C4.38747 13.0707 4.28505 13.453 4.45764 13.7519L4.46076 13.7573C4.63335 14.0563 5.01559 14.1587 5.31453 13.9861L5.31994 13.983ZM6.45801 9.71722C6.15908 9.88981 5.77684 9.78739 5.60425 9.48846L5.60112 9.48305C5.42853 9.18411 5.53096 8.80187 5.82989 8.62928L5.8353 8.62615C6.13423 8.45357 6.51648 8.55599 6.68907 8.85492L6.69219 8.86033C6.86478 9.15927 6.76236 9.54151 6.46343 9.7141L6.45801 9.71722ZM6.6925 14.8958C6.86509 14.5969 6.76267 14.2146 6.46374 14.042L6.45833 14.0389C6.15939 13.8663 5.77715 13.9687 5.60456 14.2677L5.60144 14.2731C5.42885 14.572 5.53127 14.9543 5.8302 15.1268L5.83561 15.13C6.13455 15.3026 6.51679 15.2001 6.68938 14.9012L6.6925 14.8958ZM5.54565 10.6323C5.37307 10.9312 4.99082 11.0336 4.69189 10.861L4.68648 10.8579C4.38754 10.6853 4.28512 10.3031 4.45771 10.0041L4.46083 9.99872C4.63342 9.69979 5.01567 9.59736 5.3146 9.76995L5.32001 9.77308C5.61895 9.94567 5.72137 10.3279 5.54878 10.6268L5.54565 10.6323ZM4.5874 12.5061C4.93258 12.5061 5.2124 12.2263 5.2124 11.8811V11.8748C5.2124 11.5296 4.93258 11.2498 4.5874 11.2498H4.58115C4.23597 11.2498 3.95615 11.5296 3.95615 11.8748V11.8811C3.95615 12.2263 4.23597 12.5061 4.58115 12.5061H4.5874ZM14.375 8.74997C15.0654 8.74997 15.625 9.30961 15.625 9.99997C15.625 10.6903 15.0654 11.25 14.375 11.25C13.6846 11.25 13.125 10.6903 13.125 9.99997C13.125 9.30961 13.6846 8.74997 14.375 8.74997ZM15.625 13.75C15.625 13.0596 15.0654 12.5 14.375 12.5C13.6846 12.5 13.125 13.0596 13.125 13.75C13.125 14.4403 13.6846 15 14.375 15C15.0654 15 15.625 14.4403 15.625 13.75Z" fill="inherit"/>
</svg>
