<svg viewBox="0 0 20 20" xmlns="http://www.w3.org/2000/svg">
<path fill-rule="evenodd" clip-rule="evenodd" d="M10 1.25C8.3992 1.25 6.81978 1.34262 5.26685 1.52284C4.01903 1.66765 3.125 2.73935 3.125 3.96416V18.125C3.125 18.3324 3.22787 18.5263 3.39961 18.6425C3.57134 18.7588 3.78956 18.7823 3.98212 18.7053L6.875 17.5481L9.76788 18.7053C9.91689 18.7649 10.0831 18.7649 10.2321 18.7053L13.125 17.5481L16.0179 18.7053C16.2104 18.7823 16.4287 18.7588 16.6004 18.6425C16.7721 18.5263 16.875 18.3324 16.875 18.125V3.96416C16.875 2.73935 15.981 1.66766 14.7332 1.52284C13.1802 1.34262 11.6008 1.25 10 1.25ZM12.9419 7.31694C13.186 7.07286 13.186 6.67713 12.9419 6.43306C12.6979 6.18898 12.3021 6.18898 12.0581 6.43306L7.05806 11.4331C6.81398 11.6771 6.81398 12.0729 7.05806 12.3169C7.30214 12.561 7.69786 12.561 7.94194 12.3169L12.9419 7.31694ZM7.1875 7.5C7.1875 6.98223 7.60723 6.5625 8.125 6.5625C8.64277 6.5625 9.0625 6.98223 9.0625 7.5C9.0625 8.01777 8.64277 8.4375 8.125 8.4375C7.60723 8.4375 7.1875 8.01777 7.1875 7.5ZM11.875 10.3125C11.3572 10.3125 10.9375 10.7322 10.9375 11.25C10.9375 11.7678 11.3572 12.1875 11.875 12.1875C12.3928 12.1875 12.8125 11.7678 12.8125 11.25C12.8125 10.7322 12.3928 10.3125 11.875 10.3125Z" fill="inherit"/>
</svg>
