<svg viewBox="0 0 20 20" xmlns="http://www.w3.org/2000/svg">
<path fill-rule="evenodd" clip-rule="evenodd" d="M10.25 2C8.79473 2 7.35889 2.0842 5.94714 2.24804C4.81275 2.37969 4 3.35396 4 4.46741V17.3409C4 17.5294 4.09352 17.7057 4.24964 17.8114C4.40576 17.9171 4.60415 17.9385 4.7792 17.8685L7.40909 16.8165L10.039 17.8685C10.1744 17.9226 10.3256 17.9226 10.461 17.8685L13.0909 16.8165L15.7208 17.8685C15.8959 17.9385 16.0942 17.9171 16.2504 17.8114C16.4065 17.7057 16.5 17.5294 16.5 17.3409V4.46741C16.5 3.35395 15.6872 2.37969 14.5529 2.24804C13.1411 2.0842 11.7053 2 10.25 2ZM9.5154 6.94722C9.73729 6.72533 9.73729 6.36558 9.5154 6.14369C9.29351 5.9218 8.93376 5.9218 8.71187 6.14369L7.00733 7.84823C6.78544 8.07012 6.78544 8.42988 7.00733 8.65176L8.71187 10.3563C8.93376 10.5782 9.29351 10.5782 9.5154 10.3563C9.73729 10.1344 9.73729 9.77467 9.5154 9.55278L8.7808 8.81818H11.1023C11.8868 8.81818 12.5227 9.45414 12.5227 10.2386C12.5227 11.0231 11.8868 11.6591 11.1023 11.6591H10.25C9.9362 11.6591 9.68182 11.9135 9.68182 12.2273C9.68182 12.5411 9.9362 12.7955 10.25 12.7955H11.1023C12.5144 12.7955 13.6591 11.6507 13.6591 10.2386C13.6591 8.82654 12.5144 7.68182 11.1023 7.68182H8.7808L9.5154 6.94722Z" fill="inherit"/>
</svg>
