<svg viewBox="0 0 20 20" xmlns="http://www.w3.org/2000/svg">
<path fill-rule="evenodd" clip-rule="evenodd" d="M3.87859 14.6608H2.00002C1.66865 14.6608 1.40002 14.9294 1.40002 15.2608C1.40002 15.5921 1.66865 15.8608 2.00002 15.8608H5.08322C5.1177 15.8638 5.1524 15.8638 5.1869 15.8608H5.34558C5.67695 15.8608 5.94558 15.5921 5.94558 15.2608V11.9152C5.94558 11.5839 5.67695 11.3152 5.34558 11.3152C5.01421 11.3152 4.74558 11.5839 4.74558 11.9152V13.7932C4.42673 13.2865 4.17776 12.739 4.00543 12.1658C3.84054 11.6157 3.74662 11.0423 3.72939 10.4593C3.68094 8.82085 4.2415 7.22259 5.30275 5.97334C6.36399 4.72409 7.85061 3.91251 9.47534 3.69543C11.1001 3.47836 12.7476 3.87118 14.0996 4.798C15.4516 5.72482 16.4121 7.11986 16.7955 8.71356C17.1789 10.3073 16.958 11.9865 16.1755 13.4268C15.3929 14.8672 14.1043 15.9663 12.5586 16.512C11.013 17.0576 9.31988 17.011 7.80657 16.3811C7.50064 16.2538 7.14941 16.3985 7.02207 16.7045C6.89474 17.0104 7.03951 17.3616 7.34544 17.489C9.13281 18.2329 11.1325 18.288 12.9581 17.6435C14.7837 16.9991 16.3057 15.7009 17.2299 13.9997C18.1541 12.2985 18.415 10.3152 17.9622 8.43288C17.5094 6.55057 16.3749 4.9029 14.7781 3.80824C14.3974 3.54726 13.9969 3.32213 13.5816 3.13407C13.5264 3.0774 13.4591 3.03077 13.3815 2.99857C11.7172 2.3086 9.86629 2.21201 8.13926 2.725C6.41224 3.23799 4.91419 4.32935 3.89646 5.81596C2.87874 7.30257 2.40327 9.09399 2.54983 10.8896C2.59507 11.4438 2.69869 11.9879 2.85696 12.5137C3.08576 13.2759 3.42993 14.0002 3.87859 14.6608Z" fill="inherit"/>
</svg>
