<svg viewBox="0 0 20 20" xmlns="http://www.w3.org/2000/svg">
<path fill-rule="evenodd" clip-rule="evenodd" d="M8.36363 6.36363H6.18182C4.97683 6.36363 4 7.34046 4 8.54545V14C4 15.205 4.97683 16.1818 6.18182 16.1818H11.6364C12.8413 16.1818 13.8182 15.205 13.8182 14V8.54545C13.8182 7.34046 12.8413 6.36363 11.6364 6.36363H9.45454L9.45454 2.54545C9.45454 2.24421 9.21033 2 8.90909 2C8.60784 2 8.36363 2.24421 8.36363 2.54545V6.36363ZM8.36363 6.36363H9.45454V10.5013L10.7052 9.25066C10.9182 9.03765 11.2636 9.03765 11.4766 9.25066C11.6896 9.46367 11.6896 9.80904 11.4766 10.022L9.29478 12.2039C9.08177 12.4169 8.7364 12.4169 8.52339 12.2039L6.34158 10.022C6.12856 9.80903 6.12856 9.46367 6.34158 9.25066C6.55459 9.03765 6.89995 9.03765 7.11296 9.25066L8.36363 10.5013V6.36363Z" fill="inherit"/>
<path d="M6.47372 17.2727C6.85096 17.9249 7.55607 18.3636 8.36365 18.3636H13.8182C15.0232 18.3636 16 17.3868 16 16.1818V10.7273C16 9.9197 15.5612 9.2146 14.9091 8.83735V14C14.9091 15.8075 13.4438 17.2727 11.6364 17.2727H6.47372Z" fill="inherit"/>
</svg>
