<svg viewBox="0 0 20 20" xmlns="http://www.w3.org/2000/svg">
<path fill-rule="evenodd" clip-rule="evenodd" d="M9.99997 3C10.3156 3 10.5714 3.25584 10.5714 3.57143V4.14716C12.1473 4.17093 13.6996 4.29288 15.2225 4.5072C16.0044 4.61724 16.7785 4.75164 17.544 4.90959C17.8311 4.96882 18.0268 5.23566 17.997 5.52726C17.9672 5.81886 17.7217 6.04065 17.4285 6.04065H15.9675L17.8521 13.7545C17.914 14.0079 17.7966 14.2709 17.5667 14.394C16.8439 14.7808 16.0181 15 15.1428 15C14.2676 15 13.4418 14.7808 12.719 14.394C12.4891 14.2709 12.3717 14.0079 12.4336 13.7545L14.3182 6.04065H10.5714V16.1594C11.5561 16.2165 12.5023 16.4206 13.3878 16.7501C13.647 16.8466 13.7999 17.1148 13.7509 17.3869C13.7019 17.6591 13.4651 17.8571 13.1885 17.8571H6.81114C6.53461 17.8571 6.29776 17.6591 6.24876 17.3869C6.19975 17.1148 6.35266 16.8466 6.61183 16.7501C7.49744 16.4205 8.44371 16.2165 9.42854 16.1593V6.04065H5.6818L7.56644 13.7545C7.62832 14.0079 7.51089 14.2709 7.281 14.394C6.55824 14.7808 5.73244 15 4.85716 15C3.98189 15 3.15609 14.7808 2.43333 14.394C2.20344 14.2709 2.086 14.0079 2.14789 13.7545L4.03253 6.04065H2.57146C2.27834 6.04065 2.03276 5.81886 2.00299 5.52726C1.97322 5.23566 2.16892 4.96882 2.45599 4.90959C3.22152 4.75164 3.99563 4.61724 4.77753 4.5072C6.30039 4.29288 7.8527 4.17094 9.42854 4.14716V3.57143C9.42854 3.25584 9.68438 3 9.99997 3ZM13.7165 13.3187L15.1428 7.48071L16.5692 13.3187H13.7165ZM6.2835 13.3187L4.85716 7.48071L3.43083 13.3187H6.2835Z" fill="inherit"/>
</svg>
