<svg viewBox="0 0 20 20" xmlns="http://www.w3.org/2000/svg">
<path d="M6.875 9.0625C6.875 7.85438 7.85438 6.875 9.0625 6.875C10.2706 6.875 11.25 7.85438 11.25 9.0625C11.25 9.66673 11.0058 10.2128 10.6093 10.6093C10.2128 11.0058 9.66673 11.25 9.0625 11.25C7.85438 11.25 6.875 10.2706 6.875 9.0625Z" fill="inherit"/>
<path fill-rule="evenodd" clip-rule="evenodd" d="M10 1.875C5.51269 1.875 1.875 5.51269 1.875 10C1.875 14.4873 5.51269 18.125 10 18.125C14.4873 18.125 18.125 14.4873 18.125 10C18.125 5.51269 14.4873 1.875 10 1.875ZM9.0625 5.625C7.16402 5.625 5.625 7.16402 5.625 9.0625C5.625 10.961 7.16402 12.5 9.0625 12.5C9.78566 12.5 10.4573 12.2762 11.0109 11.8948L12.6831 13.5669C12.9271 13.811 13.3229 13.811 13.5669 13.5669C13.811 13.3229 13.811 12.9271 13.5669 12.6831L11.8948 11.0109C12.2762 10.4573 12.5 9.78566 12.5 9.0625C12.5 7.16402 10.961 5.625 9.0625 5.625Z" fill="inherit"/>
</svg>
