<svg viewBox="0 0 20 20" xmlns="http://www.w3.org/2000/svg">
<path fill-rule="evenodd" clip-rule="evenodd" d="M1.875 3.75C1.875 3.40482 2.15482 3.125 2.5 3.125H14.375C14.7202 3.125 15 3.40482 15 3.75C15 4.09518 14.7202 4.375 14.375 4.375H2.5C2.15482 4.375 1.875 4.09518 1.875 3.75ZM13.9331 7.05806C14.1771 6.81398 14.5729 6.81398 14.8169 7.05806L17.9419 10.1831C18.186 10.4271 18.186 10.8229 17.9419 11.0669C17.6979 11.311 17.3021 11.311 17.0581 11.0669L15 9.00888L15 17.5C15 17.8452 14.7202 18.125 14.375 18.125C14.0298 18.125 13.75 17.8452 13.75 17.5L13.75 9.00888L11.6919 11.0669C11.4479 11.311 11.0521 11.311 10.8081 11.0669C10.564 10.8229 10.564 10.4271 10.8081 10.1831L13.9331 7.05806ZM1.875 7.5C1.875 7.15482 2.15482 6.875 2.5 6.875H10.625C10.9702 6.875 11.25 7.15482 11.25 7.5C11.25 7.84518 10.9702 8.125 10.625 8.125H2.5C2.15482 8.125 1.875 7.84518 1.875 7.5ZM1.875 11.25C1.875 10.9048 2.15482 10.625 2.5 10.625H6.875C7.22018 10.625 7.5 10.9048 7.5 11.25C7.5 11.5952 7.22018 11.875 6.875 11.875H2.5C2.15482 11.875 1.875 11.5952 1.875 11.25Z" fill="inherit"/>
</svg>
