<svg viewBox="0 0 20 20" xmlns="http://www.w3.org/2000/svg">
<path fill-rule="evenodd" clip-rule="evenodd" d="M1.25 4.6875C1.25 3.82455 1.94956 3.125 2.8125 3.125H17.1875C18.0504 3.125 18.75 3.82456 18.75 4.6875V15.3125C18.75 16.1754 18.0504 16.875 17.1875 16.875H2.8125C1.94955 16.875 1.25 16.1754 1.25 15.3125V4.6875ZM17.5 7.8125C17.5 7.63991 17.3601 7.5 17.1875 7.5H10.9375C10.7649 7.5 10.625 7.63991 10.625 7.8125V9.0625C10.625 9.23509 10.7649 9.375 10.9375 9.375H17.1875C17.3601 9.375 17.5 9.23509 17.5 9.0625V7.8125ZM17.5 10.9375C17.5 10.7649 17.3601 10.625 17.1875 10.625H10.9375C10.7649 10.625 10.625 10.7649 10.625 10.9375V12.1875C10.625 12.3601 10.7649 12.5 10.9375 12.5H17.1875C17.3601 12.5 17.5 12.3601 17.5 12.1875V10.9375ZM17.5 14.0625C17.5 13.8899 17.3601 13.75 17.1875 13.75H10.9375C10.7649 13.75 10.625 13.8899 10.625 14.0625V15.3125C10.625 15.4851 10.7649 15.625 10.9375 15.625H17.1875C17.3601 15.625 17.5 15.4851 17.5 15.3125V14.0625ZM9.0625 15.625C9.23509 15.625 9.375 15.4851 9.375 15.3125V14.0625C9.375 13.8899 9.23509 13.75 9.0625 13.75H2.8125C2.63991 13.75 2.5 13.8899 2.5 14.0625V15.3125C2.5 15.4851 2.63991 15.625 2.8125 15.625H9.0625ZM2.8125 12.5H9.0625C9.23509 12.5 9.375 12.3601 9.375 12.1875V10.9375C9.375 10.7649 9.23509 10.625 9.0625 10.625H2.8125C2.63991 10.625 2.5 10.7649 2.5 10.9375V12.1875C2.5 12.3601 2.63991 12.5 2.8125 12.5ZM2.8125 9.375H9.0625C9.23509 9.375 9.375 9.23509 9.375 9.0625V7.8125C9.375 7.63991 9.23509 7.5 9.0625 7.5H2.8125C2.63991 7.5 2.5 7.63991 2.5 7.8125V9.0625C2.5 9.23509 2.63991 9.375 2.8125 9.375Z" fill="inherit"/>
</svg>
