<svg viewBox="0 0 20 20" xmlns="http://www.w3.org/2000/svg">
<path d="M16.808 9.5625C16.808 10.2874 16.2203 10.875 15.4955 10.875C14.7706 10.875 14.183 10.2874 14.183 9.5625V4.3125C14.183 3.58763 14.7706 3 15.4955 3C16.2203 3 16.808 3.58763 16.808 4.3125V9.5625Z" fill="inherit"/>
<path d="M13.308 9.70833V4.95656C13.308 4.29371 12.9335 3.68775 12.3406 3.39131L12.297 3.3695C11.811 3.12651 11.2751 3 10.7317 3L5.99261 3C5.15842 3 4.44019 3.5888 4.2766 4.4068L3.2266 9.6568C3.01002 10.7397 3.83828 11.75 4.94261 11.75H8.05795V15.25C8.05795 16.2165 8.84146 17 9.80795 17C10.2912 17 10.683 16.6082 10.683 16.125V15.5417C10.683 14.7844 10.9286 14.0475 11.383 13.4417L12.608 11.8083C13.0623 11.2025 13.308 10.4656 13.308 9.70833Z" fill="inherit"/>
</svg>
