<svg viewBox="0 0 20 20" xmlns="http://www.w3.org/2000/svg">
<path fill-rule="evenodd" clip-rule="evenodd" d="M1.25 5.3125C1.25 4.44955 1.94956 3.75 2.8125 3.75H17.1875C18.0504 3.75 18.75 4.44956 18.75 5.3125V7.83446C18.75 8.05756 18.6311 8.26375 18.438 8.37546C17.8759 8.7006 17.5 9.30677 17.5 10C17.5 10.6932 17.8759 11.2994 18.438 11.6245C18.6311 11.7363 18.75 11.9424 18.75 12.1655V14.6875C18.75 15.5504 18.0504 16.25 17.1875 16.25H2.8125C1.94955 16.25 1.25 15.5504 1.25 14.6875V12.1655C1.25 11.9424 1.36893 11.7363 1.56205 11.6245C2.12412 11.2994 2.5 10.6932 2.5 10C2.5 9.30677 2.12412 8.7006 1.56205 8.37546C1.36893 8.26375 1.25 8.05756 1.25 7.83446V5.3125ZM13.75 4.375C14.0952 4.375 14.375 4.65482 14.375 5V5.625C14.375 5.97018 14.0952 6.25 13.75 6.25C13.4048 6.25 13.125 5.97018 13.125 5.625V5C13.125 4.65482 13.4048 4.375 13.75 4.375ZM14.375 8.125C14.375 7.77982 14.0952 7.5 13.75 7.5C13.4048 7.5 13.125 7.77982 13.125 8.125V8.75C13.125 9.09518 13.4048 9.375 13.75 9.375C14.0952 9.375 14.375 9.09518 14.375 8.75V8.125ZM13.75 10.625C14.0952 10.625 14.375 10.9048 14.375 11.25V11.875C14.375 12.2202 14.0952 12.5 13.75 12.5C13.4048 12.5 13.125 12.2202 13.125 11.875V11.25C13.125 10.9048 13.4048 10.625 13.75 10.625ZM14.375 14.375C14.375 14.0298 14.0952 13.75 13.75 13.75C13.4048 13.75 13.125 14.0298 13.125 14.375V15C13.125 15.3452 13.4048 15.625 13.75 15.625C14.0952 15.625 14.375 15.3452 14.375 15V14.375ZM5 10C5 9.65482 5.27982 9.375 5.625 9.375H10C10.3452 9.375 10.625 9.65482 10.625 10C10.625 10.3452 10.3452 10.625 10 10.625H5.625C5.27982 10.625 5 10.3452 5 10ZM5.625 11.875C5.27982 11.875 5 12.1548 5 12.5C5 12.8452 5.27982 13.125 5.625 13.125H8.125C8.47018 13.125 8.75 12.8452 8.75 12.5C8.75 12.1548 8.47018 11.875 8.125 11.875H5.625Z" fill="inherit"/>
</svg>
