<svg viewBox="0 0 20 20" xmlns="http://www.w3.org/2000/svg">
<path fill-rule="evenodd" clip-rule="evenodd" d="M11.75 7.375C11.2668 7.375 10.875 6.98325 10.875 6.5C10.875 6.01675 11.2668 5.625 11.75 5.625H16.125C16.6082 5.625 17 6.01675 17 6.5V10.875C17 11.3583 16.6082 11.75 16.125 11.75C15.6418 11.75 15.25 11.3583 15.25 10.875V8.61244L11.4937 12.3687C11.152 12.7104 10.598 12.7104 10.2563 12.3687L8.25 10.3624L4.49372 14.1187C4.15201 14.4604 3.59799 14.4604 3.25628 14.1187C2.91457 13.777 2.91457 13.223 3.25628 12.8813L7.63128 8.50628C7.97299 8.16457 8.52701 8.16457 8.86872 8.50628L10.875 10.5126L14.0126 7.375H11.75Z" fill="inherit"/>
</svg>
