<svg viewBox="0 0 20 20" xmlns="http://www.w3.org/2000/svg">
<path d="M8.25 14.8125C8.25 15.5374 7.66237 16.125 6.9375 16.125C6.21263 16.125 5.625 15.5374 5.625 14.8125C5.625 14.0876 6.21263 13.5 6.9375 13.5C7.66237 13.5 8.25 14.0876 8.25 14.8125Z" fill="inherit"/>
<path d="M14.375 14.8125C14.375 15.5374 13.7874 16.125 13.0625 16.125C12.3376 16.125 11.75 15.5374 11.75 14.8125C11.75 14.0876 12.3376 13.5 13.0625 13.5C13.7874 13.5 14.375 14.0876 14.375 14.8125Z" fill="inherit"/>
<path d="M3.875 3.875C3.39175 3.875 3 4.26675 3 4.75V13.5C3 13.9832 3.39175 14.375 3.875 14.375H4.79376C4.99644 13.3765 5.87921 12.625 6.9375 12.625C7.99579 12.625 8.87856 13.3765 9.08124 14.375H10C10.4832 14.375 10.875 13.9832 10.875 13.5V4.75C10.875 4.26675 10.4832 3.875 10 3.875H3.875Z" fill="inherit"/>
<path d="M13.5 6.5C13.0168 6.5 12.625 6.89175 12.625 7.375V12.6688C12.7664 12.6401 12.9127 12.625 13.0625 12.625C14.1208 12.625 15.0036 13.3765 15.2062 14.375H16.125C16.6082 14.375 17 13.9832 17 13.5V9.125C17 8.89294 16.9078 8.67038 16.7437 8.50628L14.9937 6.75628C14.8296 6.59219 14.6071 6.5 14.375 6.5H13.5Z" fill="inherit"/>
</svg>
