<svg viewBox="0 0 20 20" xmlns="http://www.w3.org/2000/svg">
<path d="M16.25 5H3.75V12.5H16.25V5Z" fill="inherit"/>
<path fill-rule="evenodd" clip-rule="evenodd" d="M2.8125 2.5C1.94956 2.5 1.25 3.19955 1.25 4.0625V13.4375C1.25 14.3004 1.94955 15 2.8125 15H8.125V16.25H5C4.65482 16.25 4.375 16.5298 4.375 16.875C4.375 17.2202 4.65482 17.5 5 17.5H15C15.3452 17.5 15.625 17.2202 15.625 16.875C15.625 16.5298 15.3452 16.25 15 16.25H11.875V15H17.1875C18.0504 15 18.75 14.3004 18.75 13.4375V4.0625C18.75 3.19956 18.0504 2.5 17.1875 2.5H2.8125ZM2.8125 13.75H17.1875C17.3601 13.75 17.5 13.6101 17.5 13.4375V4.0625C17.5 3.88991 17.3601 3.75 17.1875 3.75H2.8125C2.63991 3.75 2.5 3.88991 2.5 4.0625V13.4375C2.5 13.6101 2.63991 13.75 2.8125 13.75Z" fill="inherit"/>
</svg>
