<svg viewBox="0 0 20 20" xmlns="http://www.w3.org/2000/svg">
<path fill-rule="evenodd" clip-rule="evenodd" d="M17 10C17 13.866 13.866 17 10 17C6.13401 17 3 13.866 3 10C3 6.13401 6.13401 3 10 3C13.866 3 17 6.13401 17 10ZM11.75 7.375C11.75 8.3415 10.9665 9.125 10 9.125C9.0335 9.125 8.25 8.3415 8.25 7.375C8.25 6.4085 9.0335 5.625 10 5.625C10.9665 5.625 11.75 6.4085 11.75 7.375ZM9.99994 10.875C8.23459 10.875 6.71345 11.9206 6.02202 13.4263C6.98478 14.543 8.40982 15.25 9.99998 15.25C11.5901 15.25 13.0151 14.5431 13.9779 13.4263C13.2865 11.9206 11.7653 10.875 9.99994 10.875Z" fill="inherit"/>
</svg>
