<svg viewBox="0 0 20 20" xmlns="http://www.w3.org/2000/svg">
<path d="M11.25 3.38385C11.25 2.27023 9.90358 1.71251 9.11612 2.49997L5.36612 6.24997H3.75755C2.80643 6.24997 1.82588 6.80367 1.54109 7.83752C1.35123 8.52675 1.25 9.25204 1.25 9.99997C1.25 10.7479 1.35123 11.4732 1.54109 12.1624C1.82588 13.1963 2.80643 13.75 3.75755 13.75H5.36612L9.11612 17.5C9.90358 18.2874 11.25 17.7297 11.25 16.6161V3.38385Z" fill="inherit"/>
<path d="M15.4864 4.25467C15.7305 4.0106 16.1262 4.0106 16.3703 4.25467C19.5433 7.42768 19.5433 12.5721 16.3703 15.7452C16.1262 15.9892 15.7305 15.9892 15.4864 15.7452C15.2423 15.5011 15.2423 15.1054 15.4864 14.8613C18.1713 12.1764 18.1713 7.82341 15.4864 5.13856C15.2423 4.89448 15.2423 4.49875 15.4864 4.25467Z" fill="inherit"/>
<path d="M13.2769 6.46445C13.521 6.22038 13.9167 6.22038 14.1608 6.46445C16.1134 8.41707 16.1134 11.5829 14.1608 13.5355C13.9167 13.7796 13.521 13.7796 13.2769 13.5355C13.0329 13.2914 13.0329 12.8957 13.2769 12.6516C14.7414 11.1872 14.7414 8.8128 13.2769 7.34834C13.0329 7.10426 13.0329 6.70853 13.2769 6.46445Z" fill="inherit"/>
</svg>
