<svg viewBox="0 0 20 20" xmlns="http://www.w3.org/2000/svg">
<path d="M11.25 3.38385C11.25 2.27023 9.90358 1.71251 9.11612 2.49997L5.36612 6.24997H3.75755C2.80643 6.24997 1.82588 6.80367 1.54109 7.83752C1.35123 8.52675 1.25 9.25204 1.25 9.99997C1.25 10.7479 1.35123 11.4732 1.54109 12.1624C1.82588 13.1963 2.80643 13.75 3.75755 13.75H5.36612L9.11612 17.5C9.90358 18.2874 11.25 17.7297 11.25 16.6161V3.38385Z" fill="inherit"/>
<path d="M14.8169 7.68302C14.5729 7.43894 14.1771 7.43894 13.9331 7.68302C13.689 7.9271 13.689 8.32283 13.9331 8.5669L15.3661 9.99996L13.9331 11.433C13.689 11.6771 13.689 12.0728 13.9331 12.3169C14.1771 12.561 14.5729 12.561 14.8169 12.3169L16.25 10.8838L17.6831 12.3169C17.9271 12.561 18.3229 12.561 18.5669 12.3169C18.811 12.0728 18.811 11.6771 18.5669 11.433L17.1339 9.99996L18.5669 8.5669C18.811 8.32283 18.811 7.9271 18.5669 7.68302C18.3229 7.43894 17.9271 7.43894 17.6831 7.68302L16.25 9.11608L14.8169 7.68302Z" fill="inherit"/>
</svg>
