<svg viewBox="0 0 20 20" xmlns="http://www.w3.org/2000/svg">
<path fill-rule="evenodd" clip-rule="evenodd" d="M10 5.625C10 3.20875 11.9588 1.25 14.375 1.25C14.8159 1.25 15.2427 1.31543 15.6456 1.43754C15.8558 1.50126 16.0172 1.67066 16.0706 1.88374C16.124 2.09681 16.0616 2.32228 15.9063 2.47761L13.1407 5.24319C13.1921 5.63951 13.3699 6.02151 13.6742 6.32583C13.9785 6.63014 14.3605 6.8079 14.7568 6.85931L17.5224 4.09373C17.6777 3.9384 17.9032 3.87602 18.1163 3.92942C18.3293 3.98282 18.4987 4.14416 18.5625 4.35438C18.6846 4.75725 18.75 5.18405 18.75 5.625C18.75 8.04125 16.7912 10 14.375 10C14.2496 10 14.1253 9.99471 14.0023 9.98431C13.1546 9.91265 12.4448 10.068 12.0787 10.5126L6.11939 17.7489C5.59737 18.3828 4.81923 18.75 3.99807 18.75C2.48035 18.75 1.25 17.5196 1.25 16.0019C1.25 15.1808 1.61722 14.4026 2.2511 13.8806L9.4874 7.92131C9.93197 7.55519 10.0873 6.84544 10.0157 5.99774C10.0053 5.87473 10 5.75041 10 5.625ZM3.43103 15.9375C3.43103 15.5924 3.71085 15.3125 4.05603 15.3125H4.06228C4.40746 15.3125 4.68728 15.5924 4.68728 15.9375V15.9438C4.68728 16.289 4.40746 16.5688 4.06228 16.5688H4.05603C3.71085 16.5688 3.43103 16.289 3.43103 15.9438V15.9375Z" fill="inherit"/>
</svg>
