<svg viewBox="0 0 20 20" xmlns="http://www.w3.org/2000/svg">
<path fill-rule="evenodd" clip-rule="evenodd" d="M9.69972 2.31274C9.89117 2.22909 10.1088 2.22909 10.3003 2.31274C13.1718 3.56738 15.8933 5.10109 18.4305 6.87949C18.6683 7.04616 18.7885 7.33513 18.7391 7.62128C18.6896 7.90743 18.4795 8.13934 18.1996 8.2166C17.721 8.34871 17.2461 8.48982 16.7752 8.63975C16.9428 10.0692 17.0462 11.5181 17.0823 12.9836C17.0899 13.2928 16.9069 13.575 16.6214 13.6942C14.4384 14.6056 12.3619 15.7217 10.4159 17.0185C10.164 17.1864 9.83592 17.1864 9.58405 17.0185C8.45862 16.2685 7.28953 15.579 6.08142 14.9545C5.838 15.4108 5.52401 15.8394 5.13949 16.2239C4.84659 16.5168 4.37172 16.5168 4.07883 16.2239C3.78593 15.9311 3.78593 15.4562 4.07883 15.1633C4.34368 14.8984 4.56205 14.6049 4.73395 14.2926C4.28694 14.0843 3.83504 13.8848 3.37848 13.6942C3.09305 13.575 2.91005 13.2928 2.91767 12.9836C2.95377 11.5181 3.0571 10.0692 3.22473 8.63972C2.75384 8.4898 2.27901 8.34869 1.80045 8.2166C1.52053 8.13933 1.31036 7.90742 1.26094 7.62127C1.21152 7.33512 1.33173 7.04616 1.56952 6.87948C4.10667 5.10108 6.82816 3.56737 9.69972 2.31274ZM4.67809 9.13486C4.55544 10.249 4.47308 11.3754 4.43252 12.5126C4.68591 12.6224 4.93786 12.735 5.18836 12.8501C5.20352 12.7105 5.2111 12.5701 5.2111 12.4297V12.3706C4.86266 12.1315 4.63412 11.7303 4.63412 11.2758C4.63412 10.8212 4.86266 10.4201 5.2111 10.1809V9.33299C5.03406 9.26568 4.85638 9.19963 4.67809 9.13486ZM7.82557 8.7906C8.64199 8.32831 9.47542 7.89262 10.3247 7.48469C10.6981 7.30535 10.8554 6.85728 10.676 6.48391C10.4967 6.11053 10.0486 5.95324 9.67524 6.13258C8.44804 6.72204 7.25285 7.36742 6.09297 8.06541C5.49681 7.83229 4.89367 7.61306 4.28397 7.40812C4.10109 7.34665 3.91761 7.28647 3.73356 7.22758C5.72049 5.93488 7.81475 4.79352 10 3.81976C12.1852 4.79352 14.2795 5.93489 16.2664 7.22759C16.0824 7.28648 15.8989 7.34667 15.716 7.40815C13.7368 8.07339 11.827 8.88922 10 9.84198C9.28753 9.47042 8.56245 9.1197 7.82557 8.7906ZM6.7111 9.93998V10.1809C7.05954 10.4201 7.28808 10.8212 7.28808 11.2758C7.28808 11.7303 7.05954 12.1315 6.7111 12.3706V12.4297C6.7111 12.7995 6.67305 13.1694 6.59696 13.533C7.76747 14.1305 8.90309 14.7864 9.99997 15.497C11.7612 14.3561 13.6223 13.3559 15.5674 12.5126C15.5268 11.3754 15.4445 10.249 15.3218 9.13489C13.6055 9.75839 11.9461 10.5006 10.3534 11.3515C10.1326 11.4696 9.86741 11.4696 9.64656 11.3515C8.69138 10.8412 7.71218 10.3699 6.7111 9.93998Z" fill="inherit"/>
</svg>
