<svg viewBox="0 0 20 20" xmlns="http://www.w3.org/2000/svg">
<path fill-rule="evenodd" clip-rule="evenodd" d="M7.5 4.5C7.22386 4.5 7 4.72386 7 5C7 5.27614 7.22386 5.5 7.5 5.5C7.77614 5.5 8 5.27614 8 5C8 4.72386 7.77614 4.5 7.5 4.5ZM5.64538 4.25C5.94207 3.51704 6.66066 3 7.5 3C8.33934 3 9.05793 3.51704 9.35462 4.25L16.875 4.25C17.2892 4.25 17.625 4.58579 17.625 5C17.625 5.41421 17.2892 5.75 16.875 5.75L9.35462 5.75C9.05793 6.48296 8.33934 7 7.5 7C6.66066 7 5.94207 6.48296 5.64538 5.75H3.125C2.71079 5.75 2.375 5.41421 2.375 5C2.375 4.58579 2.71079 4.25 3.125 4.25H5.64538ZM12.5 9.5C12.2239 9.5 12 9.72386 12 10C12 10.2761 12.2239 10.5 12.5 10.5C12.7761 10.5 13 10.2761 13 10C13 9.72386 12.7761 9.5 12.5 9.5ZM10.6454 9.25C10.9421 8.51704 11.6607 8 12.5 8C13.3393 8 14.0579 8.51704 14.3546 9.25L16.875 9.25C17.2892 9.25 17.625 9.58579 17.625 10C17.625 10.4142 17.2892 10.75 16.875 10.75L14.3546 10.75C14.0579 11.483 13.3393 12 12.5 12C11.6607 12 10.9421 11.483 10.6454 10.75H3.125C2.71079 10.75 2.375 10.4142 2.375 10C2.375 9.58579 2.71079 9.25 3.125 9.25H10.6454ZM7.5 14.5C7.22386 14.5 7 14.7239 7 15C7 15.2761 7.22386 15.5 7.5 15.5C7.77614 15.5 8 15.2761 8 15C8 14.7239 7.77614 14.5 7.5 14.5ZM5.64538 14.25C5.94207 13.517 6.66066 13 7.5 13C8.33934 13 9.05793 13.517 9.35462 14.25H16.875C17.2892 14.25 17.625 14.5858 17.625 15C17.625 15.4142 17.2892 15.75 16.875 15.75H9.35462C9.05793 16.483 8.33934 17 7.5 17C6.66066 17 5.94207 16.483 5.64538 15.75L3.125 15.75C2.71079 15.75 2.375 15.4142 2.375 15C2.375 14.5858 2.71079 14.25 3.125 14.25L5.64538 14.25Z" fill="inherit"/>
</svg>
