<svg viewBox="0 0 20 20" xmlns="http://www.w3.org/2000/svg">
<path fill-rule="evenodd" clip-rule="evenodd" d="M5 2.375C5.41421 2.375 5.75 2.71079 5.75 3.125L5.75 10.6454C6.48296 10.9421 7 11.6607 7 12.5C7 13.3393 6.48296 14.0579 5.75 14.3546L5.75 16.875C5.75 17.2892 5.41421 17.625 5 17.625C4.58579 17.625 4.25 17.2892 4.25 16.875L4.25 14.3546C3.51704 14.0579 3 13.3393 3 12.5C3 11.6607 3.51704 10.9421 4.25 10.6454L4.25 3.125C4.25 2.71079 4.58579 2.375 5 2.375ZM10 2.375C10.4142 2.375 10.75 2.71079 10.75 3.125V5.64538C11.483 5.94207 12 6.66066 12 7.5C12 8.33934 11.483 9.05793 10.75 9.35462V16.875C10.75 17.2892 10.4142 17.625 10 17.625C9.58579 17.625 9.25 17.2892 9.25 16.875V9.35462C8.51704 9.05793 8 8.33934 8 7.5C8 6.66066 8.51704 5.94207 9.25 5.64538V3.125C9.25 2.71079 9.58579 2.375 10 2.375ZM15 2.375C15.4142 2.375 15.75 2.71079 15.75 3.125V10.6454C16.483 10.9421 17 11.6607 17 12.5C17 13.3393 16.483 14.0579 15.75 14.3546L15.75 16.875C15.75 17.2892 15.4142 17.625 15 17.625C14.5858 17.625 14.25 17.2892 14.25 16.875L14.25 14.3546C13.517 14.0579 13 13.3393 13 12.5C13 11.6607 13.517 10.9421 14.25 10.6454V3.125C14.25 2.71079 14.5858 2.375 15 2.375ZM10 7C9.72386 7 9.5 7.22386 9.5 7.5C9.5 7.77614 9.72386 8 10 8C10.2761 8 10.5 7.77614 10.5 7.5C10.5 7.22386 10.2761 7 10 7ZM5 12C4.72386 12 4.5 12.2239 4.5 12.5C4.5 12.7761 4.72386 13 5 13C5.27614 13 5.5 12.7761 5.5 12.5C5.5 12.2239 5.27614 12 5 12ZM15 12C14.7239 12 14.5 12.2239 14.5 12.5C14.5 12.7761 14.7239 13 15 13C15.2761 13 15.5 12.7761 15.5 12.5C15.5 12.2239 15.2761 12 15 12Z" fill="inherit"/>
</svg>
