<svg viewBox="0 0 20 20" xmlns="http://www.w3.org/2000/svg">
<path fill-rule="evenodd" clip-rule="evenodd" d="M2.25 5.33333C2.25 4.06001 3.28223 3.02778 4.55556 3.02778H15.4444C16.7178 3.02778 17.75 4.06001 17.75 5.33333V11.5556C17.75 12.8289 16.7178 13.8611 15.4444 13.8611H13.4218L10.5303 16.7526C10.2374 17.0454 9.76256 17.0454 9.46967 16.7526L6.57823 13.8611H4.55556C3.28223 13.8611 2.25 12.8289 2.25 11.5556V5.33333ZM4.55556 4.52778C4.11066 4.52778 3.75 4.88844 3.75 5.33333V11.5556C3.75 12.0005 4.11066 12.3611 4.55556 12.3611H6.88889C7.0878 12.3611 7.27857 12.4401 7.41922 12.5808L10 15.1616L12.5808 12.5808C12.7214 12.4401 12.9122 12.3611 13.1111 12.3611H15.4444C15.8893 12.3611 16.25 12.0005 16.25 11.5556V5.33333C16.25 4.88844 15.8893 4.52778 15.4444 4.52778H4.55556ZM5.36111 6.88889C5.36111 6.47468 5.6969 6.13889 6.11111 6.13889H13.8889C14.3031 6.13889 14.6389 6.47468 14.6389 6.88889C14.6389 7.3031 14.3031 7.63889 13.8889 7.63889H6.11111C5.6969 7.63889 5.36111 7.3031 5.36111 6.88889ZM5.36111 10C5.36111 9.58579 5.6969 9.25 6.11111 9.25H9.22222C9.63644 9.25 9.97222 9.58579 9.97222 10C9.97222 10.4142 9.63644 10.75 9.22222 10.75H6.11111C5.6969 10.75 5.36111 10.4142 5.36111 10Z" fill="inherit"/>
</svg>
