<svg viewBox="0 0 20 20" xmlns="http://www.w3.org/2000/svg">
<path fill-rule="evenodd" clip-rule="evenodd" d="M1.125 4.0625C1.125 3.13052 1.88052 2.375 2.8125 2.375H17.1875C18.1195 2.375 18.875 3.13052 18.875 4.0625V5.3125C18.875 6.10758 18.3251 6.77423 17.5849 6.95293L17.1025 15.1541C17.0209 16.5416 15.8719 17.625 14.4821 17.625H5.51795C4.12807 17.625 2.97909 16.5416 2.89748 15.1541L2.41505 6.95293C1.67486 6.77423 1.125 6.10758 1.125 5.3125V4.0625ZM3.13159 5.5C3.12766 5.49997 3.12373 5.49997 3.11979 5.5H2.8125C2.70895 5.5 2.625 5.41605 2.625 5.3125V4.0625C2.625 3.95895 2.70895 3.875 2.8125 3.875H17.1875C17.2911 3.875 17.375 3.95895 17.375 4.0625V5.3125C17.375 5.41605 17.2911 5.5 17.1875 5.5H16.8802C16.8763 5.49997 16.8723 5.49997 16.8684 5.5H3.13159ZM3.92041 7L4.39489 15.0661C4.42987 15.6607 4.92229 16.125 5.51795 16.125H14.4821C15.0777 16.125 15.5701 15.6607 15.6051 15.0661L16.0796 7H3.92041ZM7.59467 9.15717C7.88756 8.86428 8.36244 8.86428 8.65533 9.15717L10 10.5018L11.3447 9.15717C11.6376 8.86428 12.1124 8.86428 12.4053 9.15717C12.6982 9.45006 12.6982 9.92494 12.4053 10.2178L11.0607 11.5625L12.4053 12.9072C12.6982 13.2001 12.6982 13.6749 12.4053 13.9678C12.1124 14.2607 11.6376 14.2607 11.3447 13.9678L10 12.6232L8.65533 13.9678C8.36244 14.2607 7.88756 14.2607 7.59467 13.9678C7.30178 13.6749 7.30178 13.2001 7.59467 12.9072L8.93934 11.5625L7.59467 10.2178C7.30178 9.92494 7.30178 9.45006 7.59467 9.15717Z" fill="inherit"/>
</svg>
