<svg viewBox="0 0 20 20" xmlns="http://www.w3.org/2000/svg">
<path fill-rule="evenodd" clip-rule="evenodd" d="M1.125 4.0625C1.125 3.13052 1.88052 2.375 2.8125 2.375H17.1875C18.1195 2.375 18.875 3.13052 18.875 4.0625V5.3125C18.875 6.10758 18.3251 6.77423 17.5849 6.95293L17.1025 15.1541C17.0209 16.5416 15.8719 17.625 14.4821 17.625H5.51795C4.12807 17.625 2.97909 16.5416 2.89748 15.1541L2.41505 6.95293C1.67486 6.77423 1.125 6.10758 1.125 5.3125V4.0625ZM3.13159 5.5C3.12766 5.49997 3.12373 5.49997 3.11979 5.5H2.8125C2.70895 5.5 2.625 5.41605 2.625 5.3125V4.0625C2.625 3.95895 2.70895 3.875 2.8125 3.875H17.1875C17.2911 3.875 17.375 3.95895 17.375 4.0625V5.3125C17.375 5.41605 17.2911 5.5 17.1875 5.5H16.8802C16.8763 5.49997 16.8723 5.49997 16.8684 5.5H3.13159ZM3.92041 7L4.39489 15.0661C4.42987 15.6607 4.92229 16.125 5.51795 16.125H14.4821C15.0777 16.125 15.5701 15.6607 15.6051 15.0661L16.0796 7H3.92041ZM10 8C10.4142 8 10.75 8.33579 10.75 8.75V12.5643L11.9697 11.3447C12.2626 11.0518 12.7374 11.0518 13.0303 11.3447C13.3232 11.6376 13.3232 12.1124 13.0303 12.4053L10.5303 14.9053C10.2374 15.1982 9.76256 15.1982 9.46967 14.9053L6.96967 12.4053C6.67678 12.1124 6.67678 11.6376 6.96967 11.3447C7.26256 11.0518 7.73744 11.0518 8.03033 11.3447L9.25 12.5643V8.75C9.25 8.33579 9.58579 8 10 8Z" fill="inherit"/>
</svg>
