<svg viewBox="0 0 20 20" xmlns="http://www.w3.org/2000/svg">
<path fill-rule="evenodd" clip-rule="evenodd" d="M1.125 4.0625C1.125 3.13052 1.88052 2.375 2.8125 2.375H17.1875C18.1195 2.375 18.875 3.13052 18.875 4.0625V5.3125C18.875 6.10758 18.3251 6.77423 17.5849 6.95293L17.1025 15.1541C17.0209 16.5416 15.8719 17.625 14.4821 17.625H5.51795C4.12807 17.625 2.97909 16.5416 2.89748 15.1541L2.41505 6.95293C1.67486 6.77423 1.125 6.10758 1.125 5.3125V4.0625ZM3.13159 5.5C3.12766 5.49997 3.12373 5.49997 3.11979 5.5H2.8125C2.70895 5.5 2.625 5.41605 2.625 5.3125V4.0625C2.625 3.95895 2.70895 3.875 2.8125 3.875H17.1875C17.2911 3.875 17.375 3.95895 17.375 4.0625V5.3125C17.375 5.41605 17.2911 5.5 17.1875 5.5H16.8802C16.8763 5.49997 16.8723 5.49997 16.8684 5.5H3.13159ZM3.92041 7L4.39489 15.0661C4.42987 15.6607 4.92229 16.125 5.51795 16.125H14.4821C15.0777 16.125 15.5701 15.6607 15.6051 15.0661L16.0796 7H3.92041ZM7.58313 9.375C7.58313 8.96079 7.91892 8.625 8.33313 8.625H11.6665C12.0807 8.625 12.4165 8.96079 12.4165 9.375C12.4165 9.78921 12.0807 10.125 11.6665 10.125H8.33313C7.91892 10.125 7.58313 9.78921 7.58313 9.375Z" fill="inherit"/>
</svg>
