<svg viewBox="0 0 20 20" xmlns="http://www.w3.org/2000/svg">
<path fill-rule="evenodd" clip-rule="evenodd" d="M10 2.25C10.4142 2.25 10.75 2.58579 10.75 3L10.75 15.1893L12.5808 13.3586C12.8737 13.0657 13.3485 13.0657 13.6414 13.3586C13.9343 13.6515 13.9343 14.1263 13.6414 14.4192L10.5303 17.5303C10.3897 17.671 10.1989 17.75 10 17.75C9.80108 17.75 9.61032 17.671 9.46967 17.5303L6.35856 14.4192C6.06566 14.1263 6.06566 13.6515 6.35856 13.3586C6.65145 13.0657 7.12632 13.0657 7.41922 13.3586L9.25 15.1893L9.25 3C9.25 2.58579 9.58578 2.25 10 2.25Z" fill="inherit"/>
</svg>
