<svg viewBox="0 0 20 20" xmlns="http://www.w3.org/2000/svg">
<path fill-rule="evenodd" clip-rule="evenodd" d="M10 3.75C6.54822 3.75 3.75 6.54822 3.75 10C3.75 13.4518 6.54822 16.25 10 16.25C13.4518 16.25 16.25 13.4518 16.25 10C16.25 6.54822 13.4518 3.75 10 3.75ZM2.25 10C2.25 5.71979 5.71979 2.25 10 2.25C14.2802 2.25 17.75 5.71979 17.75 10C17.75 14.2802 14.2802 17.75 10 17.75C5.71979 17.75 2.25 14.2802 2.25 10ZM10 6.13889C10.4142 6.13889 10.75 6.47468 10.75 6.88889V11.3005L11.803 10.2474C12.0959 9.95455 12.5708 9.95455 12.8637 10.2474C13.1566 10.5403 13.1566 11.0152 12.8637 11.3081L10.5303 13.6414C10.2374 13.9343 9.76256 13.9343 9.46967 13.6414L7.13634 11.3081C6.84344 11.0152 6.84344 10.5403 7.13634 10.2474C7.42923 9.95455 7.9041 9.95455 8.197 10.2474L9.25 11.3005L9.25 6.88889C9.25 6.47468 9.58579 6.13889 10 6.13889Z" fill="inherit"/>
</svg>
