<svg viewBox="0 0 20 20" xmlns="http://www.w3.org/2000/svg">
<path fill-rule="evenodd" clip-rule="evenodd" d="M12.4318 3C12.4318 2.58579 12.7676 2.25 13.1818 2.25L17 2.25C17.4142 2.25 17.75 2.58579 17.75 3V6.81818C17.75 7.2324 17.4142 7.56818 17 7.56818C16.5858 7.56818 16.25 7.2324 16.25 6.81818V4.81066L13.0758 7.98488C12.7829 8.27777 12.308 8.27777 12.0151 7.98488C11.7222 7.69198 11.7222 7.21711 12.0151 6.92422L15.1893 3.75L13.1818 3.75C12.7676 3.75 12.4318 3.41421 12.4318 3ZM2.25 3C2.25 2.58579 2.58579 2.25 3 2.25H6.81818C7.2324 2.25 7.56818 2.58579 7.56818 3C7.56818 3.41421 7.2324 3.75 6.81818 3.75H4.81066L7.98488 6.92422C8.27777 7.21711 8.27777 7.69198 7.98488 7.98488C7.69198 8.27777 7.21711 8.27777 6.92422 7.98488L3.75 4.81066V6.81818C3.75 7.2324 3.41421 7.56818 3 7.56818C2.58579 7.56818 2.25 7.2324 2.25 6.81818V3ZM7.98488 12.0151C8.27777 12.308 8.27777 12.7829 7.98488 13.0758L4.81066 16.25H6.81818C7.2324 16.25 7.56818 16.5858 7.56818 17C7.56818 17.4142 7.2324 17.75 6.81818 17.75H3C2.58579 17.75 2.25 17.4142 2.25 17V13.1818C2.25 12.7676 2.58579 12.4318 3 12.4318C3.41421 12.4318 3.75 12.7676 3.75 13.1818V15.1893L6.92422 12.0151C7.21711 11.7222 7.69198 11.7222 7.98488 12.0151ZM12.0151 12.0151C12.308 11.7222 12.7829 11.7222 13.0758 12.0151L16.25 15.1893V13.1818C16.25 12.7676 16.5858 12.4318 17 12.4318C17.4142 12.4318 17.75 12.7676 17.75 13.1818V17C17.75 17.4142 17.4142 17.75 17 17.75H13.1818C12.7676 17.75 12.4318 17.4142 12.4318 17C12.4318 16.5858 12.7676 16.25 13.1818 16.25H15.1893L12.0151 13.0758C11.7222 12.7829 11.7222 12.308 12.0151 12.0151Z" fill="inherit"/>
</svg>
