<svg viewBox="0 0 20 20" xmlns="http://www.w3.org/2000/svg">
<path fill-rule="evenodd" clip-rule="evenodd" d="M12.5 3.25C10.1528 3.25 8.25 5.15279 8.25 7.5V15.6893L11.9697 11.9697C12.2626 11.6768 12.7374 11.6768 13.0303 11.9697C13.3232 12.2626 13.3232 12.7374 13.0303 13.0303L8.03033 18.0303C7.88968 18.171 7.69891 18.25 7.5 18.25C7.30109 18.25 7.11032 18.171 6.96967 18.0303L1.96967 13.0303C1.67678 12.7374 1.67678 12.2626 1.96967 11.9697C2.26256 11.6768 2.73744 11.6768 3.03033 11.9697L6.75 15.6893V7.5C6.75 4.32436 9.32436 1.75 12.5 1.75C15.6756 1.75 18.25 4.32436 18.25 7.5V10C18.25 10.4142 17.9142 10.75 17.5 10.75C17.0858 10.75 16.75 10.4142 16.75 10V7.5C16.75 5.15279 14.8472 3.25 12.5 3.25Z" fill="inherit"/>
</svg>
