<svg viewBox="0 0 20 20" xmlns="http://www.w3.org/2000/svg">
<path fill-rule="evenodd" clip-rule="evenodd" d="M8.97477 4.02521C9.26767 4.31811 9.26767 4.79298 8.97477 5.08587L4.81066 9.24999L17 9.24999C17.4142 9.24999 17.75 9.58577 17.75 9.99999C17.75 10.4142 17.4142 10.75 17 10.75L4.81066 10.75L8.97477 14.9141C9.26767 15.207 9.26767 15.6819 8.97477 15.9748C8.68188 16.2677 8.20701 16.2677 7.91411 15.9748L2.46967 10.5303C2.32902 10.3897 2.25 10.1989 2.25 9.99999C2.25 9.80107 2.32902 9.61031 2.46967 9.46966L7.91411 4.02521C8.20701 3.73232 8.68188 3.73232 8.97477 4.02521Z" fill="inherit"/>
</svg>
