<svg viewBox="0 0 20 20" xmlns="http://www.w3.org/2000/svg">
<path fill-rule="evenodd" clip-rule="evenodd" d="M18.0303 8.03033C17.7374 8.32322 17.2626 8.32322 16.9697 8.03033L13.25 4.31066L13.25 12.5C13.25 15.6756 10.6756 18.25 7.5 18.25C4.32436 18.25 1.75 15.6756 1.75 12.5L1.75 10C1.75 9.58579 2.08579 9.25 2.5 9.25C2.91421 9.25 3.25 9.58579 3.25 10L3.25 12.5C3.25 14.8472 5.15279 16.75 7.5 16.75C9.84721 16.75 11.75 14.8472 11.75 12.5L11.75 4.31066L8.03033 8.03033C7.73744 8.32322 7.26256 8.32322 6.96967 8.03033C6.67678 7.73744 6.67678 7.26256 6.96967 6.96967L11.9697 1.96967C12.2626 1.67678 12.7374 1.67678 13.0303 1.96967L18.0303 6.96967C18.3232 7.26256 18.3232 7.73744 18.0303 8.03033Z" fill="inherit"/>
</svg>
