<svg viewBox="0 0 20 20" xmlns="http://www.w3.org/2000/svg">
<path fill-rule="evenodd" clip-rule="evenodd" d="M10 4.25C10.2042 4.25 10.3996 4.33328 10.541 4.4806L14.541 8.64727C14.8279 8.94608 14.8182 9.42085 14.5194 9.70771C14.2206 9.99456 13.7458 9.98487 13.459 9.68607L10.75 6.86423V15C10.75 15.4142 10.4142 15.75 10 15.75C9.58579 15.75 9.25 15.4142 9.25 15V6.86423L6.54104 9.68607C6.25419 9.98487 5.77941 9.99456 5.4806 9.70771C5.18179 9.42085 5.1721 8.94608 5.45896 8.64727L9.45896 4.4806C9.60039 4.33328 9.79578 4.25 10 4.25Z" fill="inherit"/>
</svg>
