<svg viewBox="0 0 20 20" xmlns="http://www.w3.org/2000/svg">
<path fill-rule="evenodd" clip-rule="evenodd" d="M6.875 3L16.25 3C16.4489 3 16.6397 3.07902 16.7803 3.21967C16.921 3.36032 17 3.55109 17 3.75V13.125C17 13.5392 16.6642 13.875 16.25 13.875C15.8358 13.875 15.5 13.5392 15.5 13.125V5.56066L4.28033 16.7803C3.98744 17.0732 3.51256 17.0732 3.21967 16.7803C2.92678 16.4874 2.92678 16.0126 3.21967 15.7197L14.4393 4.5L6.875 4.5C6.46079 4.5 6.125 4.16421 6.125 3.75C6.125 3.33579 6.46079 3 6.875 3Z" fill="inherit"/>
</svg>
