<svg viewBox="0 0 20 20" xmlns="http://www.w3.org/2000/svg">
<path fill-rule="evenodd" clip-rule="evenodd" d="M9.46967 1.34467C9.76256 1.05178 10.2374 1.05178 10.5303 1.34467L13.0303 3.84467C13.3232 4.13756 13.3232 4.61244 13.0303 4.90533C12.7374 5.19822 12.2626 5.19822 11.9697 4.90533L10.75 3.68566L10.75 12.5C10.75 12.9142 10.4142 13.25 10 13.25C9.58579 13.25 9.25 12.9142 9.25 12.5L9.25 3.68566L8.03033 4.90533C7.73744 5.19822 7.26256 5.19822 6.96967 4.90533C6.67678 4.61244 6.67678 4.13756 6.96967 3.84467L9.46967 1.34467ZM6.25 7.625C5.62868 7.625 5.125 8.12868 5.125 8.75V16.25C5.125 16.8713 5.62868 17.375 6.25 17.375H13.75C14.3713 17.375 14.875 16.8713 14.875 16.25V8.75C14.875 8.12868 14.3713 7.625 13.75 7.625H12.5C12.0858 7.625 11.75 7.28921 11.75 6.875C11.75 6.46079 12.0858 6.125 12.5 6.125H13.75C15.1997 6.125 16.375 7.30025 16.375 8.75V16.25C16.375 17.6997 15.1997 18.875 13.75 18.875H6.25C4.80025 18.875 3.625 17.6997 3.625 16.25V8.75C3.625 7.30025 4.80025 6.125 6.25 6.125H7.5C7.91421 6.125 8.25 6.46079 8.25 6.875C8.25 7.28921 7.91421 7.625 7.5 7.625H6.25Z" fill="inherit"/>
</svg>
