<svg viewBox="0 0 20 20" xmlns="http://www.w3.org/2000/svg">
<path fill-rule="evenodd" clip-rule="evenodd" d="M10 4.25C10.4142 4.25 10.75 4.58579 10.75 5L10.75 13.1358L13.459 10.3139C13.7458 10.0151 14.2206 10.0054 14.5194 10.2923C14.8182 10.5791 14.8279 11.0539 14.541 11.3527L10.541 15.5194C10.3996 15.6667 10.2042 15.75 10 15.75C9.79578 15.75 9.60039 15.6667 9.45896 15.5194L5.45896 11.3527C5.1721 11.0539 5.18179 10.5791 5.4806 10.2923C5.77941 10.0054 6.25419 10.0151 6.54104 10.3139L9.25 13.1358L9.25 5C9.25 4.58579 9.58579 4.25 10 4.25Z" fill="inherit"/>
</svg>
