<svg viewBox="0 0 20 20" xmlns="http://www.w3.org/2000/svg">
<path fill-rule="evenodd" clip-rule="evenodd" d="M10 3.75C6.54822 3.75 3.75 6.54822 3.75 10C3.75 13.4518 6.54822 16.25 10 16.25C13.4518 16.25 16.25 13.4518 16.25 10C16.25 6.54822 13.4518 3.75 10 3.75ZM2.25 10C2.25 5.71979 5.71979 2.25 10 2.25C14.2802 2.25 17.75 5.71979 17.75 10C17.75 14.2802 14.2802 17.75 10 17.75C5.71979 17.75 2.25 14.2802 2.25 10ZM10.2474 7.13634C10.5403 6.84344 11.0152 6.84344 11.3081 7.13634L13.6414 9.46967C13.9343 9.76256 13.9343 10.2374 13.6414 10.5303L11.3081 12.8637C11.0152 13.1566 10.5403 13.1566 10.2474 12.8637C9.95455 12.5708 9.95455 12.0959 10.2474 11.803L11.3005 10.75H6.88889C6.47468 10.75 6.13889 10.4142 6.13889 10C6.13889 9.58579 6.47468 9.25 6.88889 9.25L11.3005 9.25L10.2474 8.197C9.95455 7.9041 9.95455 7.42923 10.2474 7.13634Z" fill="inherit"/>
</svg>
