<svg viewBox="0 0 20 20" xmlns="http://www.w3.org/2000/svg">
<path fill-rule="evenodd" clip-rule="evenodd" d="M8.21967 0.71967C8.51256 0.426777 8.98744 0.426777 9.28033 0.71967L11.7803 3.21967C12.0732 3.51256 12.0732 3.98744 11.7803 4.28033C11.4874 4.57322 11.0126 4.57322 10.7197 4.28033L9.5 3.06066L9.5 10.625C9.5 11.0392 9.16421 11.375 8.75 11.375C8.33579 11.375 8 11.0392 8 10.625L8 3.06066L6.78033 4.28033C6.48744 4.57322 6.01256 4.57322 5.71967 4.28033C5.42678 3.98744 5.42678 3.51256 5.71967 3.21967L8.21967 0.71967ZM5.625 7C5.00368 7 4.5 7.50368 4.5 8.125V14.375C4.5 14.9963 5.00368 15.5 5.625 15.5H11.875C12.4963 15.5 13 14.9963 13 14.375V8.125C13 7.50368 12.4963 7 11.875 7H11.25C10.8358 7 10.5 6.66421 10.5 6.25C10.5 5.83579 10.8358 5.5 11.25 5.5H11.875C13.2838 5.5 14.4334 6.60978 14.4972 8.0028C15.8902 8.06663 17 9.21621 17 10.625V16.875C17 18.3247 15.8247 19.5 14.375 19.5H8.125C6.71621 19.5 5.56663 18.3902 5.5028 16.9972C4.10978 16.9334 3 15.7838 3 14.375V8.125C3 6.67525 4.17525 5.5 5.625 5.5H6.25C6.66421 5.5 7 5.83579 7 6.25C7 6.66421 6.66421 7 6.25 7H5.625ZM7.00687 17C7.06905 17.5625 7.54593 18 8.125 18H14.375C14.9963 18 15.5 17.4963 15.5 16.875V10.625C15.5 10.0459 15.0625 9.56905 14.5 9.50687V14.375C14.5 15.8247 13.3247 17 11.875 17H7.00687Z" fill="inherit"/>
</svg>
