<svg viewBox="0 0 20 20" xmlns="http://www.w3.org/2000/svg">
<path fill-rule="evenodd" clip-rule="evenodd" d="M13.125 1.75L17.5 1.75C17.6989 1.75 17.8897 1.82902 18.0303 1.96967C18.171 2.11032 18.25 2.30109 18.25 2.5V6.875C18.25 7.28921 17.9142 7.625 17.5 7.625C17.0858 7.625 16.75 7.28921 16.75 6.875V4.31066L6.78033 14.2803C6.48744 14.5732 6.01256 14.5732 5.71967 14.2803C5.42678 13.9874 5.42678 13.5126 5.71967 13.2197L15.6893 3.25L13.125 3.25C12.7108 3.25 12.375 2.91421 12.375 2.5C12.375 2.08579 12.7108 1.75 13.125 1.75ZM4.375 5.75C3.75368 5.75 3.25 6.25368 3.25 6.875V15.625C3.25 16.2463 3.75368 16.75 4.375 16.75H13.125C13.7463 16.75 14.25 16.2463 14.25 15.625V8.75C14.25 8.33579 14.5858 8 15 8C15.4142 8 15.75 8.33579 15.75 8.75V15.625C15.75 17.0747 14.5747 18.25 13.125 18.25H4.375C2.92525 18.25 1.75 17.0747 1.75 15.625V6.875C1.75 5.42525 2.92525 4.25 4.375 4.25H11.25C11.6642 4.25 12 4.58579 12 5C12 5.41421 11.6642 5.75 11.25 5.75H4.375Z" fill="inherit"/>
</svg>
