<svg viewBox="0 0 20 20" xmlns="http://www.w3.org/2000/svg">
<path fill-rule="evenodd" clip-rule="evenodd" d="M11.9697 1.96967C12.2626 1.67678 12.7374 1.67678 13.0303 1.96967L18.0303 6.96967C18.3232 7.26256 18.3232 7.73744 18.0303 8.03033L13.0303 13.0303C12.7374 13.3232 12.2626 13.3232 11.9697 13.0303C11.6768 12.7374 11.6768 12.2626 11.9697 11.9697L15.6893 8.25H7.5C5.15279 8.25 3.25 10.1528 3.25 12.5C3.25 14.8472 5.15279 16.75 7.5 16.75H10C10.4142 16.75 10.75 17.0858 10.75 17.5C10.75 17.9142 10.4142 18.25 10 18.25H7.5C4.32436 18.25 1.75 15.6756 1.75 12.5C1.75 9.32436 4.32436 6.75 7.5 6.75H15.6893L11.9697 3.03033C11.6768 2.73744 11.6768 2.26256 11.9697 1.96967Z" fill="inherit"/>
</svg>
