<svg viewBox="0 0 20 20" xmlns="http://www.w3.org/2000/svg">
<path fill-rule="evenodd" clip-rule="evenodd" d="M10.2923 5.4806C10.5791 5.18179 11.0539 5.1721 11.3527 5.45896L15.5194 9.45896C15.6667 9.60039 15.75 9.79578 15.75 10C15.75 10.2042 15.6667 10.3996 15.5194 10.541L11.3527 14.541C11.0539 14.8279 10.5791 14.8182 10.2923 14.5194C10.0054 14.2206 10.0151 13.7458 10.3139 13.459L13.1358 10.75L5 10.75C4.58579 10.75 4.25 10.4142 4.25 10C4.25 9.58579 4.58579 9.25 5 9.25L13.1358 9.25L10.3139 6.54104C10.0151 6.25419 10.0054 5.77941 10.2923 5.4806Z" fill="inherit"/>
</svg>
