<svg viewBox="0 0 20 20" xmlns="http://www.w3.org/2000/svg">
<path fill-rule="evenodd" clip-rule="evenodd" d="M10 2.25C10.1989 2.25 10.3897 2.32902 10.5303 2.46967L15.9748 7.91411C16.2677 8.20701 16.2677 8.68188 15.9748 8.97477C15.6819 9.26767 15.207 9.26767 14.9141 8.97477L10.75 4.81066V17C10.75 17.4142 10.4142 17.75 10 17.75C9.58579 17.75 9.25 17.4142 9.25 17V4.81066L5.08589 8.97477C4.79299 9.26767 4.31812 9.26767 4.02523 8.97477C3.73233 8.68188 3.73233 8.20701 4.02523 7.91411L9.46967 2.46967C9.61032 2.32902 9.80109 2.25 10 2.25Z" fill="inherit"/>
</svg>
