<svg viewBox="0 0 20 20" xmlns="http://www.w3.org/2000/svg">
<path fill-rule="evenodd" clip-rule="evenodd" d="M11.0252 4.02521C11.3181 3.73232 11.793 3.73232 12.0859 4.02521L17.5303 9.46966C17.671 9.61031 17.75 9.80107 17.75 9.99999C17.75 10.1989 17.671 10.3897 17.5303 10.5303L12.0859 15.9748C11.793 16.2677 11.3181 16.2677 11.0252 15.9748C10.7323 15.6819 10.7323 15.207 11.0252 14.9141L15.1893 10.75L3 10.75C2.58579 10.75 2.25 10.4142 2.25 9.99999C2.25 9.58577 2.58579 9.24999 3 9.24999L15.1893 9.24999L11.0252 5.08587C10.7323 4.79298 10.7323 4.31811 11.0252 4.02521Z" fill="inherit"/>
</svg>
