<svg viewBox="0 0 20 20" xmlns="http://www.w3.org/2000/svg">
<path fill-rule="evenodd" clip-rule="evenodd" d="M10 3.75C6.54822 3.75 3.75 6.54822 3.75 10C3.75 13.4518 6.54822 16.25 10 16.25C13.4518 16.25 16.25 13.4518 16.25 10C16.25 6.54822 13.4518 3.75 10 3.75ZM2.25 10C2.25 5.71979 5.71979 2.25 10 2.25C14.2802 2.25 17.75 5.71979 17.75 10C17.75 14.2802 14.2802 17.75 10 17.75C5.71979 17.75 2.25 14.2802 2.25 10ZM9.25 8.69955L8.197 9.75255C7.9041 10.0454 7.42923 10.0454 7.13634 9.75255C6.84344 9.45966 6.84344 8.98479 7.13634 8.69189L9.46967 6.35856C9.76256 6.06567 10.2374 6.06567 10.5303 6.35856L12.8637 8.69189C13.1566 8.98479 13.1566 9.45966 12.8637 9.75255C12.5708 10.0454 12.0959 10.0454 11.803 9.75255L10.75 8.69955V13.1111C10.75 13.5253 10.4142 13.8611 10 13.8611C9.58579 13.8611 9.25 13.5253 9.25 13.1111L9.25 8.69955Z" fill="inherit"/>
</svg>
