<svg viewBox="0 0 20 20" xmlns="http://www.w3.org/2000/svg">
<path fill-rule="evenodd" clip-rule="evenodd" d="M10 3.75C6.54822 3.75 3.75 6.54822 3.75 10C3.75 13.4518 6.54822 16.25 10 16.25C13.4518 16.25 16.25 13.4518 16.25 10C16.25 6.54822 13.4518 3.75 10 3.75ZM2.25 10C2.25 5.71979 5.71979 2.25 10 2.25C14.2802 2.25 17.75 5.71979 17.75 10C17.75 14.2802 14.2802 17.75 10 17.75C5.71979 17.75 2.25 14.2802 2.25 10ZM9.75255 7.13634C10.0454 7.42923 10.0454 7.9041 9.75255 8.197L8.69955 9.25L13.1111 9.25C13.5253 9.25 13.8611 9.58579 13.8611 10C13.8611 10.4142 13.5253 10.75 13.1111 10.75H8.69955L9.75255 11.803C10.0454 12.0959 10.0454 12.5708 9.75255 12.8637C9.45966 13.1566 8.98479 13.1566 8.69189 12.8637L6.35856 10.5303C6.06567 10.2374 6.06567 9.76256 6.35856 9.46967L8.69189 7.13634C8.98479 6.84344 9.45966 6.84344 9.75255 7.13634Z" fill="inherit"/>
</svg>
