<svg viewBox="0 0 20 20" xmlns="http://www.w3.org/2000/svg">
<path fill-rule="evenodd" clip-rule="evenodd" d="M9.70771 5.4806C9.99456 5.77941 9.98487 6.25419 9.68607 6.54104L6.86423 9.25L15 9.25C15.4142 9.25 15.75 9.58579 15.75 10C15.75 10.4142 15.4142 10.75 15 10.75L6.86423 10.75L9.68607 13.459C9.98487 13.7458 9.99456 14.2206 9.70771 14.5194C9.42085 14.8182 8.94608 14.8279 8.64727 14.541L4.4806 10.541C4.33328 10.3996 4.25 10.2042 4.25 10C4.25 9.79578 4.33328 9.60039 4.4806 9.45896L8.64727 5.45896C8.94608 5.1721 9.42085 5.18179 9.70771 5.4806Z" fill="inherit"/>
</svg>
