<svg viewBox="0 0 20 20" xmlns="http://www.w3.org/2000/svg">
<path fill-rule="evenodd" clip-rule="evenodd" d="M10 2.25C10.4142 2.25 10.75 2.58579 10.75 3L10.75 15.1893L14.9141 11.0252C15.207 10.7323 15.6819 10.7323 15.9748 11.0252C16.2677 11.3181 16.2677 11.793 15.9748 12.0859L10.5303 17.5303C10.3897 17.671 10.1989 17.75 10 17.75C9.80109 17.75 9.61032 17.671 9.46967 17.5303L4.02523 12.0859C3.73233 11.793 3.73233 11.3181 4.02523 11.0252C4.31812 10.7323 4.79299 10.7323 5.08589 11.0252L9.25 15.1893L9.25 3C9.25 2.58579 9.58579 2.25 10 2.25Z" fill="inherit"/>
</svg>
