<svg viewBox="0 0 20 20" xmlns="http://www.w3.org/2000/svg">
<path fill-rule="evenodd" clip-rule="evenodd" d="M2.46967 2.46967C2.76256 2.17678 3.23744 2.17678 3.53033 2.46967L6.70455 5.64389V3.63636C6.70455 3.22215 7.04033 2.88636 7.45455 2.88636C7.86876 2.88636 8.20455 3.22215 8.20455 3.63636L8.20455 7.45455C8.20455 7.86876 7.86876 8.20455 7.45455 8.20455H3.63636C3.22215 8.20455 2.88636 7.86876 2.88636 7.45455C2.88636 7.04033 3.22215 6.70455 3.63636 6.70455L5.64389 6.70455L2.46967 3.53033C2.17678 3.23744 2.17678 2.76256 2.46967 2.46967ZM17.5303 2.46967C17.8232 2.76256 17.8232 3.23744 17.5303 3.53033L14.3561 6.70455H16.3636C16.7779 6.70455 17.1136 7.04033 17.1136 7.45455C17.1136 7.86876 16.7779 8.20455 16.3636 8.20455H12.5455C12.1312 8.20455 11.7955 7.86876 11.7955 7.45455V3.63636C11.7955 3.22215 12.1312 2.88636 12.5455 2.88636C12.9597 2.88636 13.2955 3.22215 13.2955 3.63636V5.64389L16.4697 2.46967C16.7626 2.17678 17.2374 2.17678 17.5303 2.46967ZM2.88636 12.5455C2.88636 12.1312 3.22215 11.7955 3.63636 11.7955L7.45455 11.7955C7.86876 11.7955 8.20455 12.1312 8.20455 12.5455V16.3636C8.20455 16.7779 7.86876 17.1136 7.45455 17.1136C7.04033 17.1136 6.70455 16.7778 6.70455 16.3636L6.70455 14.3561L3.53033 17.5303C3.23744 17.8232 2.76256 17.8232 2.46967 17.5303C2.17678 17.2374 2.17678 16.7626 2.46967 16.4697L5.64389 13.2955L3.63636 13.2955C3.22215 13.2955 2.88636 12.9597 2.88636 12.5455ZM11.7955 12.5455C11.7955 12.1312 12.1312 11.7955 12.5455 11.7955H16.3636C16.7779 11.7955 17.1136 12.1312 17.1136 12.5455C17.1136 12.9597 16.7779 13.2955 16.3636 13.2955H14.3561L17.5303 16.4697C17.8232 16.7626 17.8232 17.2374 17.5303 17.5303C17.2374 17.8232 16.7626 17.8232 16.4697 17.5303L13.2955 14.3561L13.2955 16.3636C13.2955 16.7779 12.9597 17.1136 12.5455 17.1136C12.1312 17.1136 11.7955 16.7778 11.7955 16.3636L11.7955 12.5455Z" fill="inherit"/>
</svg>
