<svg viewBox="0 0 20 20" xmlns="http://www.w3.org/2000/svg">
<path fill-rule="evenodd" clip-rule="evenodd" d="M14.773 5.22703C12.1369 2.59099 7.86307 2.59099 5.22703 5.22703C2.59099 7.86307 2.59099 12.1369 5.22703 14.773C7.86307 17.409 12.1369 17.409 14.773 14.773C15.0659 14.4801 15.5407 14.4801 15.8336 14.773C16.1265 15.0659 16.1265 15.5407 15.8336 15.8336C12.6118 19.0555 7.38819 19.0555 4.16637 15.8336C0.944543 12.6118 0.944544 7.38819 4.16637 4.16637C7.38819 0.944544 12.6118 0.944544 15.8336 4.16637C17.4444 5.77714 18.25 7.88981 18.25 10C18.25 10.837 17.9965 11.6235 17.5508 12.2178C17.105 12.8123 16.4318 13.25 15.625 13.25C14.8903 13.25 14.2664 12.887 13.8241 12.3732C13.03 13.65 11.6143 14.5 10 14.5C7.51472 14.5 5.5 12.4853 5.5 10C5.5 7.51472 7.51472 5.5 10 5.5C11.1661 5.5 12.2286 5.94355 13.028 6.67115C13.1168 6.356 13.4064 6.125 13.75 6.125C14.1642 6.125 14.5 6.46079 14.5 6.875V10C14.5 10.5438 14.6662 11.0072 14.8992 11.3178C15.1319 11.6281 15.3962 11.75 15.625 11.75C15.8538 11.75 16.1181 11.6281 16.3508 11.3178C16.5838 11.0072 16.75 10.5438 16.75 10C16.75 8.27137 16.0911 6.5452 14.773 5.22703ZM13 10C13 8.34315 11.6569 7 10 7C8.34315 7 7 8.34315 7 10C7 11.6569 8.34315 13 10 13C11.6569 13 13 11.6569 13 10Z" fill="inherit"/>
</svg>
