<svg viewBox="0 0 20 20" xmlns="http://www.w3.org/2000/svg">
<path fill-rule="evenodd" clip-rule="evenodd" d="M8.51343 4.5C8.4637 4.5 8.41601 4.51975 8.38085 4.55492L7.85052 4.02459L8.38085 4.55492L3.06835 9.86742C2.99512 9.94064 2.99512 10.0594 3.06835 10.1326L8.38085 15.4451C8.41601 15.4802 8.4637 15.5 8.51343 15.5H16.2501C16.8714 15.5 17.3751 14.9963 17.3751 14.375V5.625C17.3751 5.00368 16.8714 4.5 16.2501 4.5L8.51343 4.5ZM7.32018 3.49426C7.63665 3.17779 8.06588 3 8.51343 3L16.2501 3C17.6999 3 18.8751 4.17525 18.8751 5.625V14.375C18.8751 15.8247 17.6999 17 16.2501 17H8.51343C8.06588 17 7.63665 16.8222 7.32019 16.5057L2.00768 11.1932C1.34867 10.5342 1.34868 9.46577 2.00769 8.80676L2.53802 9.33709L2.00769 8.80676L7.32018 3.49426ZM9.46977 7.59467C9.76267 7.30178 10.2375 7.30178 10.5304 7.59467L11.8751 8.93934L13.2198 7.59467C13.5127 7.30178 13.9875 7.30178 14.2804 7.59467C14.5733 7.88756 14.5733 8.36244 14.2804 8.65533L12.9358 10L14.2804 11.3447C14.5733 11.6376 14.5733 12.1124 14.2804 12.4053C13.9875 12.6982 13.5127 12.6982 13.2198 12.4053L11.8751 11.0607L10.5304 12.4053C10.2375 12.6982 9.76267 12.6982 9.46977 12.4053C9.17688 12.1124 9.17688 11.6376 9.46977 11.3447L10.8144 10L9.46977 8.65533C9.17688 8.36244 9.17688 7.88756 9.46977 7.59467Z" fill="inherit"/>
</svg>
