<svg viewBox="0 0 20 20" xmlns="http://www.w3.org/2000/svg">
<path fill-rule="evenodd" clip-rule="evenodd" d="M1.125 4.6875C1.125 3.75552 1.88052 3 2.8125 3H17.1875C18.1195 3 18.875 3.75552 18.875 4.6875V12.8125C18.875 13.7445 18.1195 14.5 17.1875 14.5H2.8125C1.88052 14.5 1.125 13.7445 1.125 12.8125V4.6875ZM17.375 11.7556C16.7154 11.8151 16.19 12.3404 16.1306 13H3.86939C3.80995 12.3404 3.28464 11.8151 2.625 11.7556V5.74439C3.28464 5.68495 3.80995 5.15964 3.86939 4.5H16.1306C16.19 5.15964 16.7154 5.68495 17.375 5.74439V11.7556ZM10 7C9.0335 7 8.25 7.7835 8.25 8.75C8.25 9.7165 9.0335 10.5 10 10.5C10.9665 10.5 11.75 9.7165 11.75 8.75C11.75 7.7835 10.9665 7 10 7ZM6.75 8.75C6.75 6.95507 8.20507 5.5 10 5.5C11.7949 5.5 13.25 6.95507 13.25 8.75C13.25 10.5449 11.7949 12 10 12C8.20507 12 6.75 10.5449 6.75 8.75ZM4.25 8.75C4.25 8.33579 4.58579 8 5 8H5.00625C5.42046 8 5.75625 8.33579 5.75625 8.75V8.75625C5.75625 9.17046 5.42046 9.50625 5.00625 9.50625H5C4.58579 9.50625 4.25 9.17046 4.25 8.75625V8.75ZM14.25 8.75C14.25 8.33579 14.5858 8 15 8H15.0062C15.4205 8 15.7562 8.33579 15.7562 8.75V8.75625C15.7562 9.17046 15.4205 9.50625 15.0062 9.50625H15C14.5858 9.50625 14.25 9.17046 14.25 8.75625V8.75ZM1.125 15.625C1.125 15.2108 1.46079 14.875 1.875 14.875C6.49814 14.875 10.978 15.4934 15.2359 16.6523C15.3782 16.6911 15.5 16.5823 15.5 16.4626V15.625C15.5 15.2108 15.8358 14.875 16.25 14.875C16.6642 14.875 17 15.2108 17 15.625V16.4626C17 17.5987 15.9114 18.3908 14.842 18.0997C10.7113 16.9753 6.36385 16.375 1.875 16.375C1.46079 16.375 1.125 16.0392 1.125 15.625Z" fill="inherit"/>
</svg>
