<svg viewBox="0 0 20 20" xmlns="http://www.w3.org/2000/svg">
<path fill-rule="evenodd" clip-rule="evenodd" d="M1.25 3C1.25 2.58579 1.58579 2.25 2 2.25H18C18.4142 2.25 18.75 2.58579 18.75 3C18.75 3.41421 18.4142 3.75 18 3.75H2C1.58579 3.75 1.25 3.41421 1.25 3ZM1.25 7.36364C1.25 6.94942 1.58579 6.61364 2 6.61364H18C18.4142 6.61364 18.75 6.94942 18.75 7.36364C18.75 7.77785 18.4142 8.11364 18 8.11364H2C1.58579 8.11364 1.25 7.77785 1.25 7.36364ZM1.25 11.7273C1.25 11.3131 1.58579 10.9773 2 10.9773H18C18.4142 10.9773 18.75 11.3131 18.75 11.7273C18.75 12.1415 18.4142 12.4773 18 12.4773H2C1.58579 12.4773 1.25 12.1415 1.25 11.7273ZM1.25 16.0909C1.25 15.6767 1.58579 15.3409 2 15.3409H18C18.4142 15.3409 18.75 15.6767 18.75 16.0909C18.75 16.5051 18.4142 16.8409 18 16.8409H2C1.58579 16.8409 1.25 16.5051 1.25 16.0909Z" fill="inherit"/>
</svg>
