<svg viewBox="0 0 20 20" xmlns="http://www.w3.org/2000/svg">
<path fill-rule="evenodd" clip-rule="evenodd" d="M0.5 8.125C0.5 6.67525 1.67525 5.5 3.125 5.5H15.625C17.052 5.5 18.2131 6.6387 18.2491 8.05704C18.9695 8.24946 19.5 8.90652 19.5 9.6875V11.5625C19.5 12.3435 18.9695 13.0006 18.2491 13.193C18.2131 14.6113 17.052 15.75 15.625 15.75H3.125C1.67525 15.75 0.5 14.5747 0.5 13.125V8.125ZM16.75 13.125C16.75 13.7463 16.2463 14.25 15.625 14.25H3.125C2.50368 14.25 2 13.7463 2 13.125V8.125C2 7.50368 2.50368 7 3.125 7H15.625C16.2463 7 16.75 7.50368 16.75 8.125V13.125Z" fill="inherit"/>
</svg>
