<svg viewBox="0 0 20 20" xmlns="http://www.w3.org/2000/svg">
<path fill-rule="evenodd" clip-rule="evenodd" d="M6.25551 3.60984C6.37159 3.32958 6.64507 3.14685 6.94842 3.14685H13.0516C13.3549 3.14685 13.6284 3.32958 13.7445 3.60984C13.8606 3.89009 13.7964 4.21268 13.5819 4.42718L13.0387 4.97041V8.60511C13.0387 8.81086 13.1204 9.00818 13.2659 9.15367L16.1955 12.0833C16.1961 12.0839 16.1967 12.0845 16.1972 12.085C16.1976 12.0853 16.1979 12.0857 16.1982 12.086L17.0804 12.9681C18.514 14.4018 17.4987 16.8532 15.4711 16.8532H4.52884C2.50133 16.8532 1.48595 14.4018 2.91961 12.9681L6.73409 9.15367C6.87958 9.00818 6.96131 8.81086 6.96131 8.60511V4.9704L6.41809 4.42718C6.20359 4.21268 6.13942 3.89009 6.25551 3.60984ZM4.61266 13.3964C4.6126 13.3965 4.61271 13.3964 4.61266 13.3964L3.98028 14.0288C3.49156 14.5175 3.83769 15.3532 4.52884 15.3532H15.4711C16.1623 15.3532 16.5084 14.5175 16.0197 14.0288L15.1366 13.1457C15.1363 13.1454 15.1361 13.1452 15.1358 13.1449C15.0276 13.037 14.89 12.9635 14.7402 12.9335L12.9187 12.5692C12.0841 12.4023 11.2177 12.5183 10.4565 12.899L10.2143 13.02C9.15473 13.5498 7.94876 13.7113 6.78709 13.479L5.31336 13.1843C5.05909 13.1334 4.79606 13.2131 4.61266 13.3964ZM13.0612 11.0703C11.9467 10.8808 10.7992 11.0506 9.78565 11.5573L9.54352 11.6784C8.78226 12.059 7.91584 12.1751 7.08126 12.0081L6.18099 11.8281L7.79475 10.2143C8.22154 9.78754 8.46131 9.20868 8.46131 8.60511V4.65974C8.46131 4.65544 8.46127 4.65114 8.4612 4.64685H11.5388C11.5387 4.65114 11.5387 4.65544 11.5387 4.65974V8.60511C11.5387 9.20868 11.7784 9.78754 12.2052 10.2143L13.0612 11.0703Z" fill="inherit"/>
</svg>
