<svg viewBox="0 0 20 20" xmlns="http://www.w3.org/2000/svg">
<path fill-rule="evenodd" clip-rule="evenodd" d="M7.70698 4.31365C7.8279 3.15402 8.80837 2.25 10 2.25C11.1916 2.25 12.1721 3.15403 12.293 4.31365C14.1376 5.17678 15.4167 7.0493 15.4167 9.22223V11.6788C15.4167 11.899 15.5041 12.1101 15.6598 12.2658L16.7526 13.3586C16.9671 13.5731 17.0312 13.8956 16.9151 14.1759C16.799 14.4562 16.5256 14.6389 16.2222 14.6389H13.0833V14.6667C13.0833 16.3695 11.7029 17.75 10 17.75C8.29712 17.75 6.91667 16.3695 6.91667 14.6667V14.6389H3.77778C3.47443 14.6389 3.20095 14.4562 3.08487 14.1759C2.96878 13.8956 3.03295 13.5731 3.24745 13.3586L4.34017 12.2658C4.49587 12.1101 4.58333 11.899 4.58333 11.6788V9.22223C4.58333 7.0493 5.86245 5.17677 7.70698 4.31365ZM8.41667 14.6389V14.6667C8.41667 15.5411 9.12555 16.25 10 16.25C10.8745 16.25 11.5833 15.5411 11.5833 14.6667V14.6389H8.41667ZM10 3.75C9.5551 3.75 9.19444 4.11066 9.19444 4.55556V4.8211C9.19444 5.13896 8.99407 5.4223 8.69438 5.52823C7.17214 6.06626 6.08333 7.51806 6.08333 9.22223V11.6788C6.08333 12.2123 5.90036 12.727 5.56917 13.1389H14.4308C14.0996 12.727 13.9167 12.2123 13.9167 11.6788V9.22223C13.9167 7.51806 12.8279 6.06626 11.3056 5.52823C11.0059 5.4223 10.8056 5.13896 10.8056 4.8211V4.55556C10.8056 4.11066 10.4449 3.75 10 3.75Z" fill="inherit"/>
</svg>
