<svg viewBox="0 0 20 20" xmlns="http://www.w3.org/2000/svg">
<path fill-rule="evenodd" clip-rule="evenodd" d="M10 3.25C7.65279 3.25 5.75 5.15279 5.75 7.5L5.74984 8.125C5.74984 8.12493 5.74984 8.12507 5.74984 8.125C5.74979 9.8482 5.22079 11.4492 4.31699 12.7726C5.40877 13.1095 6.54212 13.3518 7.70761 13.49C8.45898 13.5791 9.22389 13.625 9.99984 13.625C10.7759 13.625 11.5409 13.5791 12.2924 13.49C13.4578 13.3517 14.591 13.1094 15.6827 12.7726C14.7788 11.4492 14.2498 9.84827 14.2498 8.125V7.53496L14.25 7.5C14.25 5.15279 12.3472 3.25 10 3.25ZM4.25 7.4998C4.25011 4.32426 6.82443 1.75 10 1.75C13.1756 1.75 15.75 4.32436 15.75 7.5L15.7498 7.54099V8.125C15.7498 9.86219 16.4051 11.4446 17.4832 12.6412C17.6497 12.826 17.7137 13.0814 17.6541 13.3229C17.5945 13.5644 17.419 13.7607 17.1857 13.8468C15.9258 14.3119 14.6085 14.6582 13.2475 14.8722C13.2492 14.9146 13.25 14.9572 13.25 15C13.25 16.7949 11.7949 18.25 10 18.25C8.20507 18.25 6.75 16.7949 6.75 15C6.75 14.9572 6.75083 14.9147 6.75248 14.8723C5.39137 14.6583 4.07397 14.312 2.81399 13.8468C2.58063 13.7607 2.40517 13.5644 2.34557 13.3229C2.28598 13.0814 2.35001 12.826 2.51651 12.6412C3.59457 11.4446 4.24984 9.86219 4.24984 8.125L4.25 7.4998C4.25 7.49987 4.25 7.49974 4.25 7.4998ZM8.25077 15.0523C8.27842 15.9946 9.05099 16.75 10 16.75C10.949 16.75 11.7216 15.9946 11.7492 15.0523C11.1723 15.1004 10.5889 15.125 9.99984 15.125C9.41091 15.125 8.82755 15.1004 8.25077 15.0523ZM8 6.875C8 6.46079 8.33579 6.125 8.75 6.125H11.25C11.5266 6.125 11.7807 6.27724 11.9113 6.52111C12.0418 6.76497 12.0275 7.06088 11.874 7.29103L10.1514 9.875H11.25C11.6642 9.875 12 10.2108 12 10.625C12 11.0392 11.6642 11.375 11.25 11.375H8.75C8.4734 11.375 8.21926 11.2228 8.08874 10.9789C7.95823 10.735 7.97253 10.4391 8.12596 10.209L9.84861 7.625H8.75C8.33579 7.625 8 7.28921 8 6.875Z" fill="inherit"/>
</svg>
