<svg viewBox="0 0 20 20" xmlns="http://www.w3.org/2000/svg">
<path fill-rule="evenodd" clip-rule="evenodd" d="M4.90992 1.94116C5.21856 2.2174 5.24483 2.69155 4.96859 3.00019C4.1361 3.93032 3.55859 5.0912 3.34336 6.3741C3.27483 6.7826 2.88811 7.0582 2.47961 6.98967C2.0711 6.92114 1.7955 6.53442 1.86404 6.12592C2.12761 4.55487 2.83479 3.13509 3.85088 1.99982C4.12713 1.69118 4.60127 1.66491 4.90992 1.94116ZM15.0901 1.94116C15.3987 1.66491 15.8729 1.69118 16.1491 1.99982C17.1652 3.13509 17.8724 4.55487 18.136 6.12592C18.2045 6.53442 17.9289 6.92114 17.5204 6.98967C17.1119 7.0582 16.7252 6.7826 16.6566 6.3741C16.4414 5.0912 15.8639 3.93032 15.0314 3.00019C14.7552 2.69155 14.7814 2.2174 15.0901 1.94116ZM10 3.25001C7.65279 3.25001 5.75 5.1528 5.75 7.50001L5.74984 8.12501M15.6827 12.7726C14.7788 11.4492 14.2498 9.84828 14.2498 8.12501V7.53497L14.25 7.50001C14.25 5.1528 12.3472 3.25001 10 3.25001M4.25 7.49981C4.25011 4.32426 6.82443 1.75001 10 1.75001C13.1756 1.75001 15.75 4.32437 15.75 7.50001L15.7498 7.541V8.12501C15.7498 9.8622 16.4051 11.4446 17.4832 12.6412C17.6497 12.8261 17.7137 13.0814 17.6541 13.3229C17.5945 13.5644 17.419 13.7607 17.1857 13.8468C15.9258 14.3119 14.6085 14.6582 13.2475 14.8722C13.2492 14.9146 13.25 14.9572 13.25 15C13.25 16.7949 11.7949 18.25 10 18.25C8.20508 18.25 6.75 16.7949 6.75 15C6.75 14.9573 6.75083 14.9147 6.75248 14.8723C5.39137 14.6583 4.07397 14.312 2.81399 13.8468C2.58063 13.7607 2.40517 13.5644 2.34557 13.3229C2.28598 13.0814 2.35001 12.8261 2.51651 12.6412C3.59457 11.4446 4.24984 9.8622 4.24984 8.12501L4.25 7.49981C4.25 7.49988 4.25 7.49974 4.25 7.49981ZM8.25077 15.0523C8.27842 15.9946 9.05099 16.75 10 16.75C10.949 16.75 11.7216 15.9946 11.7492 15.0523C11.1723 15.1004 10.5889 15.125 9.99984 15.125C9.41091 15.125 8.82756 15.1005 8.25077 15.0523Z" fill="inherit"/>
</svg>
