<svg viewBox="0 0 20 20" xmlns="http://www.w3.org/2000/svg">
<path fill-rule="evenodd" clip-rule="evenodd" d="M1.96967 1.96967C2.26256 1.67678 2.73744 1.67678 3.03033 1.96967L5.2784 4.21774C6.31664 2.72696 8.04366 1.75 10 1.75C13.1756 1.75 15.75 4.32436 15.75 7.5L15.75 7.50301L15.7498 7.54099V8.125C15.7498 9.86219 16.4051 11.4446 17.4832 12.6412C17.6497 12.826 17.7137 13.0814 17.6541 13.3229C17.5945 13.5644 17.419 13.7607 17.1857 13.8468C16.6215 14.0551 16.0457 14.2396 15.4597 14.399L18.0303 16.9697C18.3232 17.2626 18.3232 17.7374 18.0303 18.0303C17.7374 18.3232 17.2626 18.3232 16.9697 18.0303L1.96967 3.03033C1.67678 2.73744 1.67678 2.26256 1.96967 1.96967ZM14.2215 13.1608C14.716 13.0502 15.2033 12.9205 15.6827 12.7726C14.7788 11.4492 14.2498 9.84828 14.2498 8.125V7.54099L14.2498 7.53798L14.25 7.5C14.25 7.4995 14.25 7.49899 14.25 7.49849C14.2492 5.15197 12.3467 3.25 10 3.25C8.45849 3.25 7.10739 4.07073 6.362 5.30134L14.2215 13.1608ZM5.0287 7.77592C5.44235 7.79766 5.76005 8.1506 5.73832 8.56424C5.65657 10.1204 5.1434 11.5626 4.317 12.7726C5.40877 13.1095 6.54212 13.3518 7.70761 13.49C8.45898 13.5791 9.22389 13.625 9.99984 13.625C10.2654 13.625 10.5297 13.6196 10.7925 13.609C11.2064 13.5922 11.5555 13.9142 11.5722 14.328C11.589 14.7419 11.267 15.091 10.8532 15.1078C10.5701 15.1192 10.2856 15.125 9.99984 15.125C9.41091 15.125 8.82756 15.1004 8.25077 15.0523C8.27842 15.9946 9.05099 16.75 10 16.75C10.7492 16.75 11.3903 16.2788 11.6395 15.6141C11.7848 15.2262 12.2171 15.0296 12.605 15.175C12.9928 15.3204 13.1894 15.7526 13.044 16.1405C12.5826 17.3717 11.3948 18.25 10 18.25C8.20507 18.25 6.75 16.7949 6.75 15C6.75 14.9572 6.75083 14.9147 6.75248 14.8723C5.39137 14.6583 4.07397 14.312 2.81399 13.8468C2.58063 13.7607 2.40517 13.5644 2.34557 13.3229C2.28598 13.0814 2.35001 12.826 2.51651 12.6412C3.51978 11.5276 4.15662 10.0801 4.24039 8.48554C4.26212 8.0719 4.61506 7.75419 5.0287 7.77592Z" fill="inherit"/>
</svg>
