<svg viewBox="0 0 20 20" xmlns="http://www.w3.org/2000/svg">
<path fill-rule="evenodd" clip-rule="evenodd" d="M12.6777 0.344926C12.9789 0.512869 13.1268 0.864602 13.0361 1.19734L11.2319 7.8125H17.8125C18.1111 7.8125 18.3813 7.98968 18.5004 8.26359C18.6194 8.53749 18.5646 8.85591 18.3608 9.07424L14.5405 13.1674L19.0303 17.6572C19.3232 17.9501 19.3232 18.4249 19.0303 18.7178C18.7374 19.0107 18.2626 19.0107 17.9697 18.7178L1.46967 2.21783C1.17678 1.92494 1.17678 1.45006 1.46967 1.15717C1.76256 0.864277 2.23744 0.864277 2.53033 1.15717L6.98355 5.61039L11.7642 0.488262C11.9995 0.236129 12.3765 0.176984 12.6777 0.344926ZM8.04484 6.67168L9.57183 8.19867L10.7906 3.72978L8.04484 6.67168ZM10.6857 9.3125L13.4792 12.1061L16.0866 9.3125H10.6857ZM5.6364 8.15296C5.93922 8.43559 5.95558 8.91018 5.67296 9.21299L4.41341 10.5625H7.73591C8.15013 10.5625 8.48591 10.8983 8.48591 11.3125C8.48591 11.7267 8.15013 12.0625 7.73591 12.0625H2.6875C2.38885 12.0625 2.11867 11.8853 1.99964 11.6114C1.88061 11.3375 1.93544 11.0191 2.13921 10.8008L4.57637 8.18951C4.859 7.8867 5.33359 7.87033 5.6364 8.15296ZM9.9086 12.5643C10.3082 12.6733 10.5438 13.0856 10.4348 13.4852L9.70938 16.1452L11.0721 14.6852C11.3547 14.3824 11.8293 14.366 12.1321 14.6487C12.4349 14.9313 12.4513 15.4059 12.1686 15.7087L8.73579 19.3867C8.50047 19.6389 8.12353 19.698 7.82229 19.5301C7.52105 19.3621 7.37318 19.0104 7.46393 18.6777L8.98769 13.0905C9.09668 12.6909 9.50899 12.4553 9.9086 12.5643Z" fill="inherit"/>
</svg>
