<svg viewBox="0 0 20 20" xmlns="http://www.w3.org/2000/svg">
<path fill-rule="evenodd" clip-rule="evenodd" d="M1.25 4.18182C1.25 2.56262 2.56262 1.25 4.18182 1.25H15.8182C17.4374 1.25 18.75 2.56262 18.75 4.18182V15.8182C18.75 17.4374 17.4374 18.75 15.8182 18.75H4.18182C2.56262 18.75 1.25 17.4374 1.25 15.8182V4.18182ZM4.18182 2.75C3.39105 2.75 2.75 3.39105 2.75 4.18182V15.8182C2.75 16.609 3.39105 17.25 4.18182 17.25H15.8182C16.609 17.25 17.25 16.609 17.25 15.8182V4.18182C17.25 3.39105 16.609 2.75 15.8182 2.75H15.1136V14.3636C15.1136 14.6236 14.979 14.865 14.7579 15.0016C14.5368 15.1383 14.2607 15.1507 14.0282 15.0345L10 13.0203L5.97177 15.0345C5.73928 15.1507 5.46318 15.1383 5.24207 15.0016C5.02095 14.865 4.88636 14.6236 4.88636 14.3636V2.75H4.18182ZM6.38636 2.75V13.1501L9.66459 11.511C9.87574 11.4054 10.1243 11.4054 10.3354 11.511L13.6136 13.1501V2.75H6.38636Z" fill="inherit"/>
</svg>
