<svg viewBox="0 0 20 20" xmlns="http://www.w3.org/2000/svg">
<path fill-rule="evenodd" clip-rule="evenodd" d="M2.46967 2.46967C2.76256 2.17678 3.23744 2.17678 3.53033 2.46967L4.19873 3.13807C4.56121 2.79894 5.03033 2.5676 5.56318 2.50576C7.01895 2.33682 8.49949 2.25 10 2.25C11.5005 2.25 12.9811 2.33682 14.4368 2.50576C15.6896 2.65116 16.5833 3.72633 16.5833 4.94988V15.5227L17.5303 16.4697C17.8232 16.7626 17.8232 17.2374 17.5303 17.5303C17.2374 17.8232 16.7626 17.8232 16.4697 17.5303L2.46967 3.53033C2.17678 3.23744 2.17678 2.76256 2.46967 2.46967ZM15.0833 14.0227V4.94988C15.0833 4.44989 14.7231 4.04906 14.2639 3.99576C12.8654 3.83346 11.4426 3.75 10 3.75C8.5574 3.75 7.13459 3.83346 5.7361 3.99576C5.55681 4.01657 5.39369 4.08926 5.26087 4.20021L15.0833 14.0227ZM4.16667 6.71629C4.58088 6.71629 4.91667 7.05207 4.91667 7.46629V15.7865L9.66459 13.4125C9.87574 13.3069 10.1243 13.3069 10.3354 13.4125L11.9028 14.1962C12.2733 14.3815 12.4235 14.832 12.2382 15.2025C12.053 15.5729 11.6025 15.7231 11.232 15.5379L10 14.9219L4.50208 17.6708C4.26959 17.7871 3.99348 17.7746 3.77237 17.638C3.55126 17.5013 3.41667 17.2599 3.41667 17V7.46629C3.41667 7.05207 3.75245 6.71629 4.16667 6.71629Z" fill="inherit"/>
</svg>
