<svg viewBox="0 0 20 20" xmlns="http://www.w3.org/2000/svg">
<path fill-rule="evenodd" clip-rule="evenodd" d="M10 3.75C8.51535 3.75 7.05107 3.8359 5.6118 4.00293C5.12811 4.05906 4.75 4.48098 4.75 5.00559V16.1865L9.66459 13.7292C9.87574 13.6236 10.1243 13.6236 10.3354 13.7292L15.25 16.1865V5.00559C15.25 4.48098 14.8719 4.05906 14.3882 4.00293C12.9489 3.8359 11.4846 3.75 10 3.75ZM5.43888 2.51293C6.93543 2.33925 8.45744 2.25 10 2.25C11.5426 2.25 13.0646 2.33925 14.5611 2.51293C15.8384 2.66116 16.75 3.75742 16.75 5.00559V17.4C16.75 17.6599 16.6154 17.9013 16.3943 18.038C16.1732 18.1746 15.8971 18.1871 15.6646 18.0708L10 15.2385L4.33541 18.0708C4.10292 18.1871 3.82681 18.1746 3.6057 18.038C3.38459 17.9013 3.25 17.6599 3.25 17.4V5.00559C3.25 3.75742 4.16162 2.66116 5.43888 2.51293Z" fill="inherit"/>
</svg>
