<svg viewBox="0 0 20 20" xmlns="http://www.w3.org/2000/svg">
<path fill-rule="evenodd" clip-rule="evenodd" d="M2.75 3.97887V14.3111C3.31449 14.1892 3.90007 14.125 4.5 14.125C6.0541 14.125 7.50867 14.5552 8.75 15.3026V5.25563C7.58934 4.31371 6.11128 3.75 4.5 3.75C3.89395 3.75 3.30747 3.82969 2.75 3.97887ZM10.25 5.25563V15.3026C11.4913 14.5552 12.9459 14.125 14.5 14.125C15.0999 14.125 15.6855 14.1892 16.25 14.3111V3.97887C15.6925 3.82969 15.106 3.75 14.5 3.75C12.8887 3.75 11.4107 4.31371 10.25 5.25563ZM9.5 3.93731C8.1129 2.87908 6.37921 2.25 4.5 2.25C3.53709 2.25 2.61117 2.41528 1.75007 2.71963C1.45037 2.82556 1.25 3.1089 1.25 3.42676V15.3018C1.25 15.5452 1.36818 15.7735 1.56696 15.9141C1.76574 16.0547 2.02039 16.09 2.24993 16.0089C2.95272 15.7605 3.70973 15.625 4.5 15.625C6.22928 15.625 7.80511 16.2743 8.99981 17.3436C9.28457 17.5985 9.71543 17.5985 10.0002 17.3436C11.1949 16.2743 12.7707 15.625 14.5 15.625C15.2903 15.625 16.0473 15.7605 16.7501 16.0089C16.9796 16.09 17.2343 16.0547 17.433 15.9141C17.6318 15.7735 17.75 15.5452 17.75 15.3018V3.42676C17.75 3.1089 17.5496 2.82556 17.2499 2.71963C16.3888 2.41528 15.4629 2.25 14.5 2.25C12.6208 2.25 10.8871 2.87908 9.5 3.93731Z" fill="inherit"/>
</svg>
