<svg viewBox="0 0 20 20" xmlns="http://www.w3.org/2000/svg">
<path fill-rule="evenodd" clip-rule="evenodd" d="M6.125 4.375C6.125 2.92525 7.30025 1.75 8.75 1.75H11.25C12.6997 1.75 13.875 2.92525 13.875 4.375V4.43189C14.616 4.50181 15.3512 4.59157 16.0802 4.70064C17.3561 4.89154 18.25 6.00084 18.25 7.25474V10.4074C18.25 11.0347 18.0267 11.638 17.625 12.1011V15.3333C17.625 16.6028 16.7089 17.7215 15.4138 17.8934C13.6423 18.1286 11.8351 18.25 10 18.25C8.16488 18.25 6.35771 18.1286 4.58616 17.8934C3.29109 17.7215 2.375 16.6028 2.375 15.3333V12.1011C1.9733 11.638 1.75 11.0347 1.75 10.4074V7.25474C1.75 6.00084 2.64392 4.89155 3.9198 4.70064C4.64878 4.59157 5.38402 4.50181 6.125 4.43189V4.375ZM7.62642 4.318C8.41193 4.27287 9.20334 4.25 10 4.25C10.7967 4.25 11.5881 4.27287 12.3736 4.318C12.3439 3.72316 11.8522 3.25 11.25 3.25H8.75C8.14779 3.25 7.6561 3.72316 7.62642 4.318ZM3.875 12.956V15.3333C3.875 15.8879 4.2704 16.3384 4.78358 16.4065C6.48986 16.633 8.23108 16.75 10 16.75C11.7689 16.75 13.5101 16.633 15.2164 16.4065C15.7296 16.3384 16.125 15.8879 16.125 15.3333V12.956C14.1882 13.5535 12.131 13.875 10 13.875C7.86905 13.875 5.81186 13.5535 3.875 12.956ZM10 5.75C8.96767 5.75 7.94478 5.78984 6.93278 5.86804C5.9927 5.94069 5.06198 6.04644 4.14177 6.18413C3.63592 6.25982 3.25 6.70708 3.25 7.25474V10.4074C3.25 10.7373 3.39138 11.0331 3.61155 11.2208C3.70123 11.2973 3.80531 11.3572 3.92236 11.3961C5.83185 12.031 7.875 12.375 10 12.375C12.125 12.375 14.1682 12.031 16.0776 11.3961C16.1947 11.3572 16.2988 11.2973 16.3885 11.2208C16.6086 11.0332 16.75 10.7373 16.75 10.4074V7.25474C16.75 6.70707 16.3641 6.25981 15.8582 6.18413C14.938 6.04644 14.0073 5.94069 13.0672 5.86804C12.0552 5.78984 11.0323 5.75 10 5.75ZM9.25 10.625C9.25 10.2108 9.58579 9.875 10 9.875H10.0062C10.4205 9.875 10.7562 10.2108 10.7562 10.625V10.6312C10.7562 11.0455 10.4205 11.3812 10.0062 11.3812H10C9.58579 11.3812 9.25 11.0455 9.25 10.6312V10.625Z" fill="inherit"/>
</svg>
