<svg viewBox="0 0 20 20" xmlns="http://www.w3.org/2000/svg">
<path fill-rule="evenodd" clip-rule="evenodd" d="M7.12726 1.2258C7.48581 1.43321 7.60833 1.892 7.40092 2.25055C7.25314 2.50602 7.14206 2.78511 7.07475 3.08097C7.07521 3.0814 7.07567 3.08184 7.07613 3.08228C7.78597 2.26671 8.83234 1.75 10.0001 1.75C11.1689 1.75 12.216 2.26758 12.9259 3.08433C12.926 3.08429 12.926 3.08425 12.9261 3.0842C12.8588 2.78714 12.7475 2.50695 12.5991 2.25055C12.3917 1.892 12.5143 1.43321 12.8728 1.2258C13.2314 1.01839 13.6901 1.14091 13.8976 1.49946C14.202 2.02576 14.4031 2.61981 14.4728 3.25294C14.4962 3.46485 14.4282 3.67668 14.2859 3.83547C14.0994 4.04368 13.8979 4.23822 13.683 4.41741C13.8078 4.79795 13.8751 5.20407 13.8751 5.625C13.8751 5.80019 13.8635 5.97304 13.8408 6.14275C13.7439 6.86711 13.1532 7.32108 12.5558 7.41859C12.4663 7.4332 12.3766 7.44705 12.2866 7.46014C12.3556 7.58229 12.4151 7.71051 12.4642 7.84382C13.4833 7.71363 14.4774 7.50378 15.44 7.22074C15.3846 6.51555 15.2912 5.82123 15.162 5.13978C15.0848 4.73282 15.3521 4.34034 15.7591 4.26314C16.166 4.18595 16.5585 4.45327 16.6357 4.86022C16.813 5.79491 16.9276 6.75153 16.975 7.72548C16.9914 8.06289 16.7802 8.36964 16.4591 8.47472C15.2066 8.88465 13.9017 9.17857 12.5574 9.34387C12.5035 9.57661 12.4187 9.79749 12.3076 10.002C13.9704 10.186 15.5746 10.5666 17.096 11.1203C17.4077 11.2337 17.6079 11.5383 17.5883 11.8694C17.4806 13.6884 17.1385 15.445 16.5915 17.1092C16.4622 17.5027 16.0384 17.7168 15.6449 17.5875C15.2514 17.4582 15.0372 17.0343 15.1665 16.6408C15.6169 15.2706 15.9177 13.8321 16.0493 12.3445C15.7307 12.2391 15.4085 12.1419 15.0828 12.053C15.11 12.1966 15.1244 12.3458 15.1244 12.5C15.1244 15.8345 12.9943 18.875 9.99939 18.875C7.00444 18.875 4.87439 15.8345 4.87439 12.5C4.87439 12.3459 4.88873 12.1968 4.91596 12.0533C4.59067 12.1421 4.26884 12.2393 3.9507 12.3445C4.08231 13.8321 4.38306 15.2706 4.83344 16.6408C4.96277 17.0343 4.74863 17.4582 4.35512 17.5875C3.96162 17.7168 3.53777 17.5027 3.40844 17.1092C2.86146 15.445 2.51936 13.6884 2.41171 11.8694C2.39212 11.5383 2.59228 11.2337 2.90393 11.1203C4.23352 10.6364 5.62618 10.2847 7.06594 10.0809C7.06875 10.0805 7.07155 10.0801 7.07435 10.0797C7.27931 10.0508 7.48522 10.0248 7.69202 10.002C7.58087 9.79749 7.4961 9.5766 7.44228 9.34387C6.09794 9.17857 4.79308 8.88465 3.54052 8.47472C3.21946 8.36964 3.00827 8.06289 3.02469 7.72548C3.07207 6.75153 3.18665 5.79491 3.36395 4.86023C3.44115 4.45327 3.83363 4.18595 4.24059 4.26314C4.64755 4.34034 4.91487 4.73282 4.83767 5.13978C4.7084 5.82123 4.61503 6.51555 4.55964 7.22074C5.52225 7.50378 6.51634 7.71364 7.53555 7.84383C7.5846 7.71049 7.64416 7.58224 7.71323 7.46008C7.62338 7.44701 7.53378 7.43317 7.44443 7.41859C6.84706 7.32108 6.25641 6.86711 6.15951 6.14275C6.1368 5.97304 6.12513 5.80019 6.12513 5.625C6.12513 5.20311 6.1928 4.7961 6.31806 4.41482C6.10276 4.23499 5.90086 4.03972 5.71403 3.83073C5.57195 3.67179 5.50423 3.45988 5.52779 3.248C5.59799 2.61671 5.79886 2.02438 6.10251 1.49946C6.30992 1.14091 6.76872 1.01839 7.12726 1.2258ZM10.0001 7.625C9.39626 7.625 8.90311 8.10102 8.87601 8.69749C8.87522 8.71484 8.87482 8.73235 8.87482 8.75C8.87482 9.37137 9.37846 9.875 9.99973 9.875C10.6211 9.875 11.1248 9.37128 11.1248 8.75C11.1248 8.73205 11.1244 8.71454 11.1236 8.69749C11.0965 8.10071 10.6037 7.625 10.0001 7.625ZM9.99973 11.375C10.7227 11.375 11.4363 11.4148 12.1384 11.4924C12.3313 11.5137 12.5234 11.5379 12.7146 11.5649C13.2688 11.6431 13.6244 12.0597 13.6244 12.5C13.6244 15.3787 11.8369 17.375 9.99939 17.375C8.16185 17.375 6.37439 15.3787 6.37439 12.5C6.37439 12.0598 6.72986 11.6432 7.284 11.565C7.46168 11.5399 7.64014 11.5173 7.81937 11.4971M10.0001 3.25C9.09008 3.25 8.29834 3.76162 7.89901 4.51645C7.72435 4.84659 7.62513 5.2231 7.62513 5.625C7.62513 5.72628 7.63143 5.82575 7.64358 5.9231C7.64587 5.92453 7.64867 5.9261 7.65202 5.92772C7.66113 5.9321 7.67269 5.936 7.68608 5.93818C8.43877 6.06105 9.2117 6.125 10.0001 6.125C10.7886 6.125 11.5615 6.06105 12.3142 5.93818C12.3276 5.936 12.3391 5.9321 12.3482 5.92772C12.3516 5.9261 12.3544 5.92452 12.3567 5.9231C12.3688 5.82575 12.3751 5.72628 12.3751 5.625C12.3751 5.2237 12.2762 4.84771 12.102 4.51793C11.703 3.7623 10.9108 3.25 10.0001 3.25Z" fill="inherit"/>
</svg>
