<svg viewBox="0 0 20 20" xmlns="http://www.w3.org/2000/svg">
<path fill-rule="evenodd" clip-rule="evenodd" d="M1.75 2.5C1.75 2.08579 2.08579 1.75 2.5 1.75H12.5C12.9142 1.75 13.25 2.08579 13.25 2.5C13.25 2.87162 12.9797 3.18012 12.625 3.23963V5.5H17.5C17.9142 5.5 18.25 5.83579 18.25 6.25C18.25 6.62162 17.9797 6.93012 17.625 6.98963V16.75H18.125C18.5392 16.75 18.875 17.0858 18.875 17.5C18.875 17.9142 18.5392 18.25 18.125 18.25H1.875C1.46079 18.25 1.125 17.9142 1.125 17.5C1.125 17.0858 1.46079 16.75 1.875 16.75H2.375V3.23963C2.02029 3.18012 1.75 2.87162 1.75 2.5ZM3.875 3.25V16.75H4.875V14.6875C4.875 13.7555 5.63052 13 6.5625 13H8.4375C9.36948 13 10.125 13.7555 10.125 14.6875V16.75H11.125V3.25H3.875ZM12.625 7V16.75H16.125V7H12.625ZM8.625 16.75V14.6875C8.625 14.5839 8.54105 14.5 8.4375 14.5H6.5625C6.45895 14.5 6.375 14.5839 6.375 14.6875V16.75H8.625ZM4.875 5.625C4.875 5.21079 5.21079 4.875 5.625 4.875H6.25C6.66421 4.875 7 5.21079 7 5.625C7 6.03921 6.66421 6.375 6.25 6.375H5.625C5.21079 6.375 4.875 6.03921 4.875 5.625ZM8 5.625C8 5.21079 8.33579 4.875 8.75 4.875H9.375C9.78921 4.875 10.125 5.21079 10.125 5.625C10.125 6.03921 9.78921 6.375 9.375 6.375H8.75C8.33579 6.375 8 6.03921 8 5.625ZM4.875 8.125C4.875 7.71079 5.21079 7.375 5.625 7.375H6.25C6.66421 7.375 7 7.71079 7 8.125C7 8.53921 6.66421 8.875 6.25 8.875H5.625C5.21079 8.875 4.875 8.53921 4.875 8.125ZM8 8.125C8 7.71079 8.33579 7.375 8.75 7.375H9.375C9.78921 7.375 10.125 7.71079 10.125 8.125C10.125 8.53921 9.78921 8.875 9.375 8.875H8.75C8.33579 8.875 8 8.53921 8 8.125ZM13.625 9.375C13.625 8.96079 13.9608 8.625 14.375 8.625H14.3813C14.7955 8.625 15.1313 8.96079 15.1313 9.375V9.38125C15.1313 9.79546 14.7955 10.1313 14.3813 10.1313H14.375C13.9608 10.1313 13.625 9.79546 13.625 9.38125V9.375ZM4.875 10.625C4.875 10.2108 5.21079 9.875 5.625 9.875H6.25C6.66421 9.875 7 10.2108 7 10.625C7 11.0392 6.66421 11.375 6.25 11.375H5.625C5.21079 11.375 4.875 11.0392 4.875 10.625ZM8 10.625C8 10.2108 8.33579 9.875 8.75 9.875H9.375C9.78921 9.875 10.125 10.2108 10.125 10.625C10.125 11.0392 9.78921 11.375 9.375 11.375H8.75C8.33579 11.375 8 11.0392 8 10.625ZM13.625 11.875C13.625 11.4608 13.9608 11.125 14.375 11.125H14.3813C14.7955 11.125 15.1313 11.4608 15.1313 11.875V11.8813C15.1313 12.2955 14.7955 12.6313 14.3813 12.6313H14.375C13.9608 12.6313 13.625 12.2955 13.625 11.8813V11.875ZM13.625 14.375C13.625 13.9608 13.9608 13.625 14.375 13.625H14.3813C14.7955 13.625 15.1313 13.9608 15.1313 14.375V14.3813C15.1313 14.7955 14.7955 15.1313 14.3813 15.1313H14.375C13.9608 15.1313 13.625 14.7955 13.625 14.3813V14.375Z" fill="inherit"/>
</svg>
