<svg viewBox="0 0 20 20" xmlns="http://www.w3.org/2000/svg">
<path fill-rule="evenodd" clip-rule="evenodd" d="M3 2.5C3 2.08579 3.33579 1.75 3.75 1.75H16.25C16.6642 1.75 17 2.08579 17 2.5C17 2.87162 16.7297 3.18012 16.375 3.23963V16.75H16.875C17.2892 16.75 17.625 17.0858 17.625 17.5C17.625 17.9142 17.2892 18.25 16.875 18.25H3.125C2.71079 18.25 2.375 17.9142 2.375 17.5C2.375 17.0858 2.71079 16.75 3.125 16.75H3.625V3.23963C3.27029 3.18012 3 2.87162 3 2.5ZM5.125 3.25V16.75H6.75V14.6875C6.75 13.7555 7.50552 13 8.4375 13H11.5625C12.4945 13 13.25 13.7555 13.25 14.6875V16.75H14.875V3.25H5.125ZM11.75 16.75V14.6875C11.75 14.5839 11.6661 14.5 11.5625 14.5H8.4375C8.33395 14.5 8.25 14.5839 8.25 14.6875V16.75H11.75ZM6.75 5.625C6.75 5.21079 7.08579 4.875 7.5 4.875H8.75C9.16421 4.875 9.5 5.21079 9.5 5.625C9.5 6.03921 9.16421 6.375 8.75 6.375H7.5C7.08579 6.375 6.75 6.03921 6.75 5.625ZM10.5 5.625C10.5 5.21079 10.8358 4.875 11.25 4.875H12.5C12.9142 4.875 13.25 5.21079 13.25 5.625C13.25 6.03921 12.9142 6.375 12.5 6.375H11.25C10.8358 6.375 10.5 6.03921 10.5 5.625ZM6.75 8.125C6.75 7.71079 7.08579 7.375 7.5 7.375H8.75C9.16421 7.375 9.5 7.71079 9.5 8.125C9.5 8.53921 9.16421 8.875 8.75 8.875H7.5C7.08579 8.875 6.75 8.53921 6.75 8.125ZM10.5 8.125C10.5 7.71079 10.8358 7.375 11.25 7.375H12.5C12.9142 7.375 13.25 7.71079 13.25 8.125C13.25 8.53921 12.9142 8.875 12.5 8.875H11.25C10.8358 8.875 10.5 8.53921 10.5 8.125ZM6.75 10.625C6.75 10.2108 7.08579 9.875 7.5 9.875H8.75C9.16421 9.875 9.5 10.2108 9.5 10.625C9.5 11.0392 9.16421 11.375 8.75 11.375H7.5C7.08579 11.375 6.75 11.0392 6.75 10.625ZM10.5 10.625C10.5 10.2108 10.8358 9.875 11.25 9.875H12.5C12.9142 9.875 13.25 10.2108 13.25 10.625C13.25 11.0392 12.9142 11.375 12.5 11.375H11.25C10.8358 11.375 10.5 11.0392 10.5 10.625Z" fill="inherit"/>
</svg>
