<svg viewBox="0 0 20 20" xmlns="http://www.w3.org/2000/svg">
<path fill-rule="evenodd" clip-rule="evenodd" d="M4.56711 3.75C4.4396 3.75 4.31731 3.80065 4.22715 3.89082L3.25131 4.86666C2.5829 5.53507 2.5829 6.61878 3.25131 7.28719C3.36056 7.39644 3.47998 7.48718 3.6061 7.56008C4.26089 7.93854 5.11259 7.84644 5.67184 7.28719C5.69753 7.2615 5.72218 7.23526 5.74579 7.20854C5.8882 7.04737 6.09294 6.9551 6.30801 6.95515C6.52308 6.95521 6.72778 7.04759 6.8701 7.20883C7.18482 7.56537 7.64286 7.78843 8.15393 7.78843C8.66503 7.78843 9.12309 7.56535 9.43781 7.20877C9.58018 7.04747 9.78497 6.95507 10.0001 6.95507C10.2153 6.95507 10.42 7.04747 10.5624 7.20877C10.8771 7.56535 11.3352 7.78843 11.8463 7.78843C12.3573 7.78843 12.8154 7.5654 13.1301 7.20889C13.2724 7.04767 13.4771 6.9553 13.6921 6.95524C13.9072 6.95518 14.1119 7.04744 14.2543 7.20858C14.2779 7.23529 14.3025 7.26149 14.3282 7.28712C14.8875 7.84641 15.7392 7.93849 16.3941 7.55991C16.5201 7.48703 16.6395 7.39632 16.7487 7.28712C17.4171 6.61871 17.4171 5.535 16.7487 4.86659L15.7729 3.89082C15.6828 3.80065 15.5605 3.75 15.433 3.75H4.56711ZM13.692 8.70526C13.1701 9.0723 12.5332 9.28843 11.8463 9.28843C11.1592 9.28843 10.5222 9.07218 10.0001 8.70494C9.47808 9.07218 8.84102 9.28843 8.15393 9.28843C7.46702 9.28843 6.83011 9.07229 6.30814 8.70521C5.61871 9.19086 4.78131 9.37301 3.98079 9.25234V17.0193H10.4809V11.6154C10.4809 10.8613 11.0922 10.25 11.8463 10.25H14.3079C15.062 10.25 15.6733 10.8613 15.6733 11.6154V17.0193H16.0194V9.25224C15.2189 9.37296 14.3815 9.19087 13.692 8.70526ZM17.5194 8.60497C17.6201 8.52595 17.7169 8.4402 17.8094 8.34778C19.0635 7.09358 19.0635 5.06012 17.8094 3.80593L16.8336 2.83016C16.4621 2.45869 15.9583 2.25 15.433 2.25H4.56711C4.04178 2.25 3.53796 2.45869 3.16649 2.83016L2.19065 3.806C0.936451 5.0602 0.936451 7.09365 2.19065 8.34785C2.28314 8.44035 2.38007 8.52616 2.48079 8.60522V17.0193H2.09098C1.67677 17.0193 1.34098 17.3551 1.34098 17.7693C1.34098 18.1835 1.67677 18.5193 2.09098 18.5193H17.9093C18.3235 18.5193 18.6593 18.1835 18.6593 17.7693C18.6593 17.3551 18.3235 17.0193 17.9093 17.0193H17.5194V8.60497ZM14.1733 17.0193V11.75H11.9809V17.0193H14.1733ZM4.32697 11.6154C4.32697 10.8613 4.93827 10.25 5.69236 10.25H8.76933C9.52341 10.25 10.1347 10.8613 10.1347 11.6154V14.6924C10.1347 15.4464 9.52341 16.0578 8.76933 16.0578H5.69236C4.93827 16.0578 4.32697 15.4464 4.32697 14.6924V11.6154ZM5.82697 11.75V14.5578H8.63472V11.75H5.82697Z" fill="inherit"/>
</svg>
