<svg viewBox="0 0 20 20" xmlns="http://www.w3.org/2000/svg">
<path fill-rule="evenodd" clip-rule="evenodd" d="M7.50004 1.62054C7.69895 1.62054 7.88972 1.69956 8.03037 1.84021L7.50005 2.37054L6.96971 1.84022C7.11036 1.69957 7.30113 1.62055 7.50004 1.62054ZM7.49558 2.37501C7.38511 2.37613 7.27498 2.41884 7.19069 2.50313C7.1064 2.58742 7.06369 2.69755 7.06257 2.80802L7.49558 2.37501ZM7.50451 2.37501C7.61498 2.37613 7.72512 2.41884 7.80941 2.50313C7.8937 2.58742 7.9364 2.69754 7.93752 2.80801L7.50451 2.37501ZM10 1.62054C10.199 1.62054 10.3897 1.69956 10.5304 1.84021L10 2.37054L9.46971 1.84022C9.61036 1.69957 9.80112 1.62055 10 1.62054ZM9.99558 2.37501C9.88511 2.37613 9.77498 2.41884 9.69069 2.50313C9.6064 2.58742 9.56369 2.69755 9.56257 2.80802L9.99558 2.37501ZM10.0045 2.37501C10.115 2.37613 10.2251 2.41884 10.3094 2.50313C10.3937 2.58742 10.4364 2.69754 10.4375 2.80801L10.0045 2.37501ZM12.5 1.62054C12.699 1.62054 12.8897 1.69956 13.0304 1.84022L12.5 2.37054L11.9697 1.84022C12.1104 1.69957 12.3011 1.62055 12.5 1.62054ZM12.4956 2.37501C12.3851 2.37613 12.275 2.41884 12.1907 2.50313C12.1064 2.58742 12.0637 2.69755 12.0626 2.80802L12.4956 2.37501ZM12.5045 2.37501C12.615 2.37613 12.7251 2.41884 12.8094 2.50313C12.8937 2.58742 12.9364 2.69754 12.9375 2.80801L12.5045 2.37501ZM8.25135 2.06119C8.66628 2.47612 8.66628 3.14886 8.25135 3.56379C7.83642 3.97872 7.16368 3.97872 6.74875 3.56379C6.33381 3.14886 6.33381 2.47612 6.74875 2.06119L6.96971 1.84022L7.50005 2.37054L8.03037 1.84021L8.25135 2.06119ZM10.7513 2.06119C11.1663 2.47612 11.1663 3.14886 10.7513 3.56379C10.3364 3.97872 9.66368 3.97872 9.24875 3.56379C8.83382 3.14886 8.83382 2.47612 9.24875 2.06119L9.46971 1.84022L10 2.37054L10.5304 1.84021L10.7513 2.06119ZM13.2513 2.06119C13.6663 2.47612 13.6663 3.14886 13.2513 3.56379C12.8364 3.97872 12.1637 3.97872 11.7487 3.56379C11.3338 3.14886 11.3338 2.47612 11.7487 2.06119L11.9697 1.84022L12.5 2.37054L13.0304 1.84022L13.2513 2.06119ZM7.5 4.87499C7.91421 4.87499 8.25 5.21077 8.25 5.62499V6.1619C8.58233 6.14785 8.91568 6.13779 9.25 6.13175V5.62499C9.25 5.21077 9.58579 4.87499 10 4.87499C10.4142 4.87499 10.75 5.21077 10.75 5.62499V6.13175C11.0843 6.13779 11.4177 6.14785 11.75 6.1619V5.62499C11.75 5.21077 12.0858 4.87499 12.5 4.87499C12.9142 4.87499 13.25 5.21077 13.25 5.62499V6.25274C13.3051 6.25709 13.3602 6.26155 13.4153 6.26612C14.7661 6.37823 15.75 7.52394 15.75 8.84017V10.2776C15.8602 10.2932 15.9703 10.3092 16.0802 10.3256C17.356 10.5165 18.25 11.6258 18.25 12.8797V13.7337C18.2502 13.7442 18.2502 13.7546 18.25 13.7651V17.1875C18.25 18.1195 17.4945 18.875 16.5625 18.875H3.4375C2.50552 18.875 1.75 18.1195 1.75 17.1875V13.7651C1.74978 13.7546 1.74978 13.7442 1.75 13.7337V12.8797C1.75 11.6258 2.64395 10.5165 3.91982 10.3256C4.02974 10.3092 4.1398 10.2932 4.25 10.2776V8.84017C4.25 7.52394 5.23392 6.37823 6.5847 6.26612C6.63977 6.26155 6.69487 6.25709 6.75 6.25274V5.62499C6.75 5.21077 7.08579 4.87499 7.5 4.87499ZM5.75 10.094C7.14713 9.94919 8.56502 9.87499 10 9.87499C11.435 9.87499 12.8529 9.94919 14.25 10.094V8.84017C14.25 8.26476 13.8256 7.80533 13.2912 7.76098C12.2062 7.67093 11.1086 7.62499 10 7.62499C8.89143 7.62499 7.79377 7.67093 6.70877 7.76098C6.1744 7.80533 5.75 8.26476 5.75 8.84017V10.094ZM3.25 14.9635V17.1875C3.25 17.291 3.33395 17.375 3.4375 17.375H16.5625C16.6661 17.375 16.75 17.291 16.75 17.1875V14.9635L16.5854 15.0458C15.5874 15.5448 14.4126 15.5448 13.4146 15.0458C12.8388 14.7579 12.1612 14.7579 11.5854 15.0458C10.5874 15.5448 9.41263 15.5448 8.41459 15.0458C7.83884 14.7579 7.16116 14.7579 6.58541 15.0458C5.58737 15.5448 4.41263 15.5448 3.41459 15.0458L3.25 14.9635ZM16.75 13.2865L15.9146 13.7042C15.3388 13.992 14.6612 13.992 14.0854 13.7042C13.0874 13.2051 11.9126 13.2051 10.9146 13.7042C10.3388 13.992 9.66116 13.992 9.08541 13.7042C8.08737 13.2051 6.91263 13.2051 5.91459 13.7042C5.33884 13.992 4.66116 13.992 4.08541 13.7042L3.25 13.2865V12.8797C3.25 12.3321 3.63593 11.8848 4.14179 11.8091C4.45757 11.7619 4.77459 11.7184 5.09281 11.6787C6.70006 11.4783 8.3378 11.375 10 11.375C11.6622 11.375 13.2999 11.4783 14.9072 11.6787C15.2254 11.7184 15.5424 11.7619 15.8582 11.8091C16.3641 11.8848 16.75 12.3321 16.75 12.8797V13.2865Z" fill="inherit"/>
</svg>
