<svg viewBox="0 0 20 20" xmlns="http://www.w3.org/2000/svg">
<path fill-rule="evenodd" clip-rule="evenodd" d="M10 2.625C8.45228 2.625 6.92579 2.71454 5.42536 2.88867C4.90498 2.94907 4.5 3.40261 4.5 3.96416V16.25C4.5 16.8713 5.00368 17.375 5.625 17.375H14.375C14.9963 17.375 15.5 16.8713 15.5 16.25V3.96416C15.5 3.40261 15.095 2.94907 14.5746 2.88867C13.0742 2.71454 11.5477 2.625 10 2.625ZM5.25244 1.39867C6.81015 1.2179 8.39438 1.125 10 1.125C11.6056 1.125 13.1899 1.2179 14.7476 1.39867C16.0615 1.55116 17 2.67905 17 3.96416V16.25C17 17.6997 15.8247 18.875 14.375 18.875H5.625C4.17525 18.875 3 17.6997 3 16.25V3.96416C3 2.67905 3.93849 1.55116 5.25244 1.39867ZM6.125 5C6.125 4.58579 6.46079 4.25 6.875 4.25H13.125C13.5392 4.25 13.875 4.58579 13.875 5V6.875C13.875 7.28921 13.5392 7.625 13.125 7.625H6.875C6.46079 7.625 6.125 7.28921 6.125 6.875V5ZM7.625 5.75V6.125H12.375V5.75H7.625ZM6.125 9.375C6.125 8.96079 6.46079 8.625 6.875 8.625H6.88125C7.29546 8.625 7.63125 8.96079 7.63125 9.375V9.38125C7.63125 9.79546 7.29546 10.1313 6.88125 10.1313H6.875C6.46079 10.1313 6.125 9.79546 6.125 9.38125V9.375ZM8.2063 9.375C8.2063 8.96079 8.54209 8.625 8.9563 8.625H8.96255C9.37676 8.625 9.71255 8.96079 9.71255 9.375V9.38125C9.71255 9.79546 9.37676 10.1313 8.96255 10.1313H8.9563C8.54209 10.1313 8.2063 9.79546 8.2063 9.38125V9.375ZM10.2937 9.375C10.2937 8.96079 10.6295 8.625 11.0437 8.625H11.05C11.4642 8.625 11.8 8.96079 11.8 9.375V9.38125C11.8 9.79546 11.4642 10.1313 11.05 10.1313H11.0437C10.6295 10.1313 10.2937 9.79546 10.2937 9.38125V9.375ZM12.375 9.375C12.375 8.96079 12.7108 8.625 13.125 8.625H13.1313C13.5455 8.625 13.8813 8.96079 13.8813 9.375V9.38125C13.8813 9.79546 13.5455 10.1313 13.1313 10.1313H13.125C12.7108 10.1313 12.375 9.79546 12.375 9.38125V9.375ZM6.125 11.25C6.125 10.8358 6.46079 10.5 6.875 10.5H6.88125C7.29546 10.5 7.63125 10.8358 7.63125 11.25V11.2563C7.63125 11.6705 7.29546 12.0063 6.88125 12.0063H6.875C6.46079 12.0063 6.125 11.6705 6.125 11.2563V11.25ZM8.2063 11.25C8.2063 10.8358 8.54209 10.5 8.9563 10.5H8.96255C9.37676 10.5 9.71255 10.8358 9.71255 11.25V11.2563C9.71255 11.6705 9.37676 12.0063 8.96255 12.0063H8.9563C8.54209 12.0063 8.2063 11.6705 8.2063 11.2563V11.25ZM10.2937 11.25C10.2937 10.8358 10.6295 10.5 11.0437 10.5H11.05C11.4642 10.5 11.8 10.8358 11.8 11.25V11.2563C11.8 11.6705 11.4642 12.0063 11.05 12.0063H11.0437C10.6295 12.0063 10.2937 11.6705 10.2937 11.2563V11.25ZM12.375 11.25C12.375 10.8358 12.7108 10.5 13.125 10.5H13.1313C13.5455 10.5 13.8813 10.8358 13.8813 11.25V11.2563C13.8813 11.6705 13.5455 12.0063 13.1313 12.0063H13.125C12.7108 12.0063 12.375 11.6705 12.375 11.2563V11.25ZM6.125 13.125C6.125 12.7108 6.46079 12.375 6.875 12.375H6.88125C7.29546 12.375 7.63125 12.7108 7.63125 13.125V13.1313C7.63125 13.5455 7.29546 13.8813 6.88125 13.8813H6.875C6.46079 13.8813 6.125 13.5455 6.125 13.1313V13.125ZM8.2063 13.125C8.2063 12.7108 8.54209 12.375 8.9563 12.375H8.96255C9.37676 12.375 9.71255 12.7108 9.71255 13.125V13.1313C9.71255 13.5455 9.37676 13.8813 8.96255 13.8813H8.9563C8.54209 13.8813 8.2063 13.5455 8.2063 13.1313V13.125ZM10.2937 13.125C10.2937 12.7108 10.6295 12.375 11.0437 12.375H11.05C11.4642 12.375 11.8 12.7108 11.8 13.125V13.1313C11.8 13.5455 11.4642 13.8813 11.05 13.8813H11.0437C10.6295 13.8813 10.2937 13.5455 10.2937 13.1313V13.125ZM13.125 12.375C13.5392 12.375 13.875 12.7108 13.875 13.125V15C13.875 15.4142 13.5392 15.75 13.125 15.75C12.7108 15.75 12.375 15.4142 12.375 15V13.125C12.375 12.7108 12.7108 12.375 13.125 12.375ZM6.125 15C6.125 14.5858 6.46079 14.25 6.875 14.25H6.88125C7.29546 14.25 7.63125 14.5858 7.63125 15V15.0063C7.63125 15.4205 7.29546 15.7563 6.88125 15.7563H6.875C6.46079 15.7563 6.125 15.4205 6.125 15.0063V15ZM8.2063 15C8.2063 14.5858 8.54209 14.25 8.9563 14.25H8.96255C9.37676 14.25 9.71255 14.5858 9.71255 15V15.0063C9.71255 15.4205 9.37676 15.7563 8.96255 15.7563H8.9563C8.54209 15.7563 8.2063 15.4205 8.2063 15.0063V15ZM10.2937 15C10.2937 14.5858 10.6295 14.25 11.0437 14.25H11.05C11.4642 14.25 11.8 14.5858 11.8 15V15.0063C11.8 15.4205 11.4642 15.7563 11.05 15.7563H11.0437C10.6295 15.7563 10.2937 15.4205 10.2937 15.0063V15Z" fill="inherit"/>
</svg>
