<svg viewBox="0 0 20 20" xmlns="http://www.w3.org/2000/svg">
<path fill-rule="evenodd" clip-rule="evenodd" d="M5.625 1.75C6.03921 1.75 6.375 2.08579 6.375 2.5V3.625H13.625V2.5C13.625 2.08579 13.9608 1.75 14.375 1.75C14.7892 1.75 15.125 2.08579 15.125 2.5V3.625H15.625C17.0747 3.625 18.25 4.80025 18.25 6.25V15.625C18.25 17.0747 17.0747 18.25 15.625 18.25H4.375C2.92525 18.25 1.75 17.0747 1.75 15.625V6.25C1.75 4.80025 2.92525 3.625 4.375 3.625H4.875V2.5C4.875 2.08579 5.21079 1.75 5.625 1.75ZM4.375 5.125C3.75368 5.125 3.25 5.62868 3.25 6.25V7.00261C3.59097 6.84063 3.9724 6.75 4.375 6.75H15.625C16.0276 6.75 16.409 6.84063 16.75 7.00261V6.25C16.75 5.62868 16.2463 5.125 15.625 5.125H4.375ZM16.75 9.375C16.75 8.75368 16.2463 8.25 15.625 8.25H4.375C3.75368 8.25 3.25 8.75368 3.25 9.375V15.625C3.25 16.2463 3.75368 16.75 4.375 16.75H15.625C16.2463 16.75 16.75 16.2463 16.75 15.625V9.375ZM9.25 10.625C9.25 10.2108 9.58579 9.875 10 9.875H10.0063C10.4205 9.875 10.7563 10.2108 10.7563 10.625V10.6313C10.7563 11.0455 10.4205 11.3813 10.0063 11.3813H10C9.58579 11.3813 9.25 11.0455 9.25 10.6313V10.625ZM11.125 10.625C11.125 10.2108 11.4608 9.875 11.875 9.875H11.8813C12.2955 9.875 12.6313 10.2108 12.6313 10.625V10.6313C12.6313 11.0455 12.2955 11.3813 11.8813 11.3813H11.875C11.4608 11.3813 11.125 11.0455 11.125 10.6313V10.625ZM13 10.625C13 10.2108 13.3358 9.875 13.75 9.875H13.7563C14.1705 9.875 14.5063 10.2108 14.5063 10.625V10.6313C14.5063 11.0455 14.1705 11.3813 13.7563 11.3813H13.75C13.3358 11.3813 13 11.0455 13 10.6313V10.625ZM5.5 12.5C5.5 12.0858 5.83579 11.75 6.25 11.75H6.25625C6.67046 11.75 7.00625 12.0858 7.00625 12.5V12.5063C7.00625 12.9205 6.67046 13.2563 6.25625 13.2563H6.25C5.83579 13.2563 5.5 12.9205 5.5 12.5063V12.5ZM7.375 12.5C7.375 12.0858 7.71079 11.75 8.125 11.75H8.13125C8.54546 11.75 8.88125 12.0858 8.88125 12.5V12.5063C8.88125 12.9205 8.54546 13.2563 8.13125 13.2563H8.125C7.71079 13.2563 7.375 12.9205 7.375 12.5063V12.5ZM9.25 12.5C9.25 12.0858 9.58579 11.75 10 11.75H10.0063C10.4205 11.75 10.7563 12.0858 10.7563 12.5V12.5063C10.7563 12.9205 10.4205 13.2563 10.0063 13.2563H10C9.58579 13.2563 9.25 12.9205 9.25 12.5063V12.5ZM11.125 12.5C11.125 12.0858 11.4608 11.75 11.875 11.75H11.8813C12.2955 11.75 12.6313 12.0858 12.6313 12.5V12.5063C12.6313 12.9205 12.2955 13.2563 11.8813 13.2563H11.875C11.4608 13.2563 11.125 12.9205 11.125 12.5063V12.5ZM13 12.5C13 12.0858 13.3358 11.75 13.75 11.75H13.7563C14.1705 11.75 14.5063 12.0858 14.5063 12.5V12.5063C14.5063 12.9205 14.1705 13.2563 13.7563 13.2563H13.75C13.3358 13.2563 13 12.9205 13 12.5063V12.5ZM5.5 14.375C5.5 13.9608 5.83579 13.625 6.25 13.625H6.25625C6.67046 13.625 7.00625 13.9608 7.00625 14.375V14.3813C7.00625 14.7955 6.67046 15.1313 6.25625 15.1313H6.25C5.83579 15.1313 5.5 14.7955 5.5 14.3813V14.375ZM7.375 14.375C7.375 13.9608 7.71079 13.625 8.125 13.625H8.13125C8.54546 13.625 8.88125 13.9608 8.88125 14.375V14.3813C8.88125 14.7955 8.54546 15.1313 8.13125 15.1313H8.125C7.71079 15.1313 7.375 14.7955 7.375 14.3813V14.375ZM9.25 14.375C9.25 13.9608 9.58579 13.625 10 13.625H10.0063C10.4205 13.625 10.7563 13.9608 10.7563 14.375V14.3813C10.7563 14.7955 10.4205 15.1313 10.0063 15.1313H10C9.58579 15.1313 9.25 14.7955 9.25 14.3813V14.375ZM11.125 14.375C11.125 13.9608 11.4608 13.625 11.875 13.625H11.8813C12.2955 13.625 12.6313 13.9608 12.6313 14.375V14.3813C12.6313 14.7955 12.2955 15.1313 11.8813 15.1313H11.875C11.4608 15.1313 11.125 14.7955 11.125 14.3813V14.375Z" fill="inherit"/>
</svg>
