<svg viewBox="0 0 20 20" xmlns="http://www.w3.org/2000/svg">
<path fill-rule="evenodd" clip-rule="evenodd" d="M7.81373 2.30855C8.53763 2.26968 9.26655 2.25 10 2.25C10.7334 2.25 11.4624 2.26968 12.1863 2.30855C13.0257 2.35363 13.7722 2.81595 14.2071 3.51281L14.8809 4.59262C15.0552 4.8719 15.3526 5.06393 15.6965 5.1128C16.0138 5.15789 16.3299 5.20669 16.6447 5.25916C17.8876 5.46627 18.75 6.5541 18.75 7.77869V14.6923C18.75 16.1261 17.5877 17.2885 16.1538 17.2885H3.84615C2.41234 17.2885 1.25 16.1261 1.25 14.6923V7.77868C1.25 6.55409 2.1124 5.46626 3.35528 5.25915C3.67014 5.20668 3.98623 5.15788 4.3035 5.1128C4.64738 5.06393 4.94484 4.87189 5.11911 4.59261L5.79293 3.51281C6.22778 2.81595 6.97425 2.35363 7.81373 2.30855ZM10 3.75C9.29339 3.75 8.59129 3.76896 7.89417 3.8064C7.56212 3.82423 7.25173 4.00844 7.06549 4.30691L6.39167 5.38671C5.97341 6.05699 5.27881 6.48927 4.51455 6.59788C4.20914 6.64128 3.90489 6.68825 3.60184 6.73875C3.11692 6.81955 2.75 7.25166 2.75 7.77868V14.6923C2.75 15.2977 3.24077 15.7885 3.84615 15.7885H16.1538C16.7592 15.7885 17.25 15.2977 17.25 14.6923V7.77869C17.25 7.25166 16.8831 6.81956 16.3982 6.73876C16.0951 6.68826 15.7909 6.64128 15.4855 6.59788C14.7212 6.48927 14.0266 6.05699 13.6083 5.38671L12.9345 4.30691C12.7483 4.00844 12.4379 3.82423 12.1058 3.8064C11.4087 3.76896 10.7066 3.75 10 3.75ZM10 7.44231C8.37501 7.44231 7.05769 8.75962 7.05769 10.3846C7.05769 12.0096 8.37501 13.3269 10 13.3269C11.625 13.3269 12.9423 12.0096 12.9423 10.3846C12.9423 8.75962 11.625 7.44231 10 7.44231ZM5.55769 10.3846C5.55769 7.9312 7.54658 5.94231 10 5.94231C12.4534 5.94231 14.4423 7.9312 14.4423 10.3846C14.4423 12.838 12.4534 14.8269 10 14.8269C7.54658 14.8269 5.55769 12.838 5.55769 10.3846ZM14.7885 8.53846C14.7885 8.12425 15.1242 7.78846 15.5385 7.78846H15.5446C15.9588 7.78846 16.2946 8.12425 16.2946 8.53846V8.54462C16.2946 8.95883 15.9588 9.29462 15.5446 9.29462H15.5385C15.1242 9.29462 14.7885 8.95883 14.7885 8.54462V8.53846Z" fill="inherit"/>
</svg>
