<svg viewBox="0 0 20 20" xmlns="http://www.w3.org/2000/svg">
<path fill-rule="evenodd" clip-rule="evenodd" d="M2.25 6.1111C2.25 4.83777 3.28223 3.80554 4.55556 3.80554H12.3333C13.6067 3.80554 14.6389 4.83777 14.6389 6.1111V6.91665H15.4444C16.7178 6.91665 17.75 7.94888 17.75 9.22221V13.8889C17.75 15.1622 16.7178 16.1944 15.4444 16.1944H7.66667C6.39334 16.1944 5.36111 15.1622 5.36111 13.8889V13.0833H4.55556C3.28223 13.0833 2.25 12.0511 2.25 10.7778V6.1111ZM6.86111 13.8889C6.86111 14.3338 7.22177 14.6944 7.66667 14.6944H15.4444C15.8893 14.6944 16.25 14.3338 16.25 13.8889V9.22221C16.25 8.77731 15.8893 8.41665 15.4444 8.41665H7.66667C7.22177 8.41665 6.86111 8.77731 6.86111 9.22221V13.8889ZM13.1389 6.91665H7.66667C6.39334 6.91665 5.36111 7.94888 5.36111 9.22221V11.5833H4.55556C4.11066 11.5833 3.75 11.2227 3.75 10.7778V6.1111C3.75 5.6662 4.11066 5.30554 4.55556 5.30554H12.3333C12.7782 5.30554 13.1389 5.6662 13.1389 6.1111V6.91665ZM11.5556 10.75C11.1107 10.75 10.75 11.1106 10.75 11.5555C10.75 12.0004 11.1107 12.3611 11.5556 12.3611C12.0005 12.3611 12.3611 12.0004 12.3611 11.5555C12.3611 11.1106 12.0005 10.75 11.5556 10.75ZM9.25 11.5555C9.25 10.2822 10.2822 9.24999 11.5556 9.24999C12.8289 9.24999 13.8611 10.2822 13.8611 11.5555C13.8611 12.8289 12.8289 13.8611 11.5556 13.8611C10.2822 13.8611 9.25 12.8289 9.25 11.5555Z" fill="inherit"/>
</svg>
