<svg viewBox="0 0 20 20" xmlns="http://www.w3.org/2000/svg">
<path fill-rule="evenodd" clip-rule="evenodd" d="M13 3.4375C13 2.50552 13.7555 1.75 14.6875 1.75H16.5625C17.4945 1.75 18.25 2.50552 18.25 3.4375V16.5625C18.25 17.4945 17.4945 18.25 16.5625 18.25H14.6875C13.7555 18.25 13 17.4945 13 16.5625V3.4375ZM14.6875 3.25C14.5839 3.25 14.5 3.33395 14.5 3.4375V16.5625C14.5 16.6661 14.5839 16.75 14.6875 16.75H16.5625C16.6661 16.75 16.75 16.6661 16.75 16.5625V3.4375C16.75 3.33395 16.6661 3.25 16.5625 3.25H14.6875ZM7.375 7.1875C7.375 6.25552 8.13052 5.5 9.0625 5.5H10.9375C11.8695 5.5 12.625 6.25552 12.625 7.1875V16.5625C12.625 17.4945 11.8695 18.25 10.9375 18.25H9.0625C8.13052 18.25 7.375 17.4945 7.375 16.5625V7.1875ZM9.0625 7C8.95895 7 8.875 7.08395 8.875 7.1875V16.5625C8.875 16.6661 8.95895 16.75 9.0625 16.75H10.9375C11.0411 16.75 11.125 16.6661 11.125 16.5625V7.1875C11.125 7.08395 11.0411 7 10.9375 7H9.0625ZM1.75 10.9375C1.75 10.0055 2.50552 9.25 3.4375 9.25H5.3125C6.24448 9.25 7 10.0055 7 10.9375V16.5625C7 17.4945 6.24448 18.25 5.3125 18.25H3.4375C2.50552 18.25 1.75 17.4945 1.75 16.5625V10.9375ZM3.4375 10.75C3.33395 10.75 3.25 10.8339 3.25 10.9375V16.5625C3.25 16.6661 3.33395 16.75 3.4375 16.75H5.3125C5.41605 16.75 5.5 16.6661 5.5 16.5625V10.9375C5.5 10.8339 5.41605 10.75 5.3125 10.75H3.4375Z" fill="inherit"/>
</svg>
