<svg viewBox="0 0 20 20" xmlns="http://www.w3.org/2000/svg">
<path fill-rule="evenodd" clip-rule="evenodd" d="M9.74162 2.4413C9.90048 2.58357 9.99127 2.78674 9.99127 3V10.0087H17C17.2133 10.0087 17.4164 10.0995 17.5587 10.2584C17.701 10.4173 17.7689 10.6292 17.7455 10.8411C17.3158 14.7276 14.0221 17.75 10.0214 17.75C5.72939 17.75 2.25 14.2706 2.25 9.97858C2.25 5.9779 5.2724 2.68417 9.15886 2.25454C9.37083 2.23111 9.58275 2.29903 9.74162 2.4413ZM8.49127 3.895C5.7675 4.57775 3.75 7.04298 3.75 9.97858C3.75 13.4422 6.55781 16.25 10.0214 16.25C12.957 16.25 15.4223 14.2325 16.105 11.5087H9.24127C8.82705 11.5087 8.49127 11.1729 8.49127 10.7587V3.895ZM11.9289 2.74447C12.1276 2.6039 12.3823 2.56856 12.6118 2.64969C14.8205 3.43034 16.5697 5.17954 17.3504 7.38815C17.4315 7.6177 17.3962 7.87235 17.2556 8.07114C17.1151 8.26992 16.8867 8.3881 16.6433 8.3881H12.3619C11.9477 8.3881 11.6119 8.05232 11.6119 7.6381V3.35682C11.6119 3.11336 11.7301 2.88505 11.9289 2.74447ZM13.1119 4.52024V6.8881H15.4798C14.9196 5.901 14.099 5.08047 13.1119 4.52024Z" fill="inherit"/>
</svg>
