<svg viewBox="0 0 20 20" xmlns="http://www.w3.org/2000/svg">
<path fill-rule="evenodd" clip-rule="evenodd" d="M2.375 5C2.375 3.55025 3.55025 2.375 5 2.375H15C16.4497 2.375 17.625 3.55025 17.625 5V15C17.625 16.4497 16.4497 17.625 15 17.625H5C3.55025 17.625 2.375 16.4497 2.375 15V5ZM5 3.875C4.37868 3.875 3.875 4.37868 3.875 5V15C3.875 15.6213 4.37868 16.125 5 16.125H15C15.6213 16.125 16.125 15.6213 16.125 15V5C16.125 4.37868 15.6213 3.875 15 3.875H5ZM13.75 5.5C14.1642 5.5 14.5 5.83579 14.5 6.25V13.75C14.5 14.1642 14.1642 14.5 13.75 14.5C13.3358 14.5 13 14.1642 13 13.75V6.25C13 5.83579 13.3358 5.5 13.75 5.5ZM11.25 7.375C11.6642 7.375 12 7.71079 12 8.125V13.75C12 14.1642 11.6642 14.5 11.25 14.5C10.8358 14.5 10.5 14.1642 10.5 13.75V8.125C10.5 7.71079 10.8358 7.375 11.25 7.375ZM8.75 9.25C9.16421 9.25 9.5 9.58579 9.5 10V13.75C9.5 14.1642 9.16421 14.5 8.75 14.5C8.33579 14.5 8 14.1642 8 13.75V10C8 9.58579 8.33579 9.25 8.75 9.25ZM6.25 11.125C6.66421 11.125 7 11.4608 7 11.875V13.75C7 14.1642 6.66421 14.5 6.25 14.5C5.83579 14.5 5.5 14.1642 5.5 13.75V11.875C5.5 11.4608 5.83579 11.125 6.25 11.125Z" fill="inherit"/>
</svg>
