<svg viewBox="0 0 20 20" xmlns="http://www.w3.org/2000/svg">
<path fill-rule="evenodd" clip-rule="evenodd" d="M4.02212 2.1855C5.97367 1.89855 7.96984 1.75 10.0002 1.75C12.0305 1.75 14.0265 1.89853 15.9778 2.18542C17.6922 2.43747 18.875 3.93787 18.875 5.61713V10.6329C18.875 12.3121 17.6922 13.8126 15.9778 14.0646C15.0198 14.2054 14.0509 14.3129 13.0725 14.3859C13.0065 14.3908 12.9514 14.4249 12.9199 14.4723L10.624 17.916C10.4849 18.1247 10.2508 18.25 10 18.25C9.74924 18.25 9.51506 18.1247 9.37596 17.916L7.0801 14.4722C7.04854 14.4249 6.99352 14.3908 6.92743 14.3858C5.94904 14.3129 4.98019 14.2054 4.02211 14.0645C2.3078 13.8124 1.125 12.312 1.125 10.6328V5.6172C1.125 3.93796 2.30781 2.43756 4.02212 2.1855ZM10.0002 3.25C8.0431 3.25 6.11986 3.39319 4.24032 3.66954C3.31455 3.80566 2.625 4.62798 2.625 5.6172V10.6328C2.625 11.622 3.31455 12.4443 4.24032 12.5804L4.13122 13.3225L4.24032 12.5804C5.16308 12.7161 6.09635 12.8197 7.03899 12.89C7.55656 12.9286 8.03508 13.2005 8.32817 13.6402L10 16.1479L11.6718 13.6402C11.9649 13.2006 12.4434 12.9286 12.961 12.89C13.9036 12.8198 14.8369 12.7162 15.7596 12.5805C16.6854 12.4444 17.375 11.6221 17.375 10.6329V5.61713C17.375 4.6279 16.6854 3.80558 15.7597 3.66947C13.8803 3.39316 11.9572 3.25 10.0002 3.25ZM5.5 6.875C5.5 6.46079 5.83579 6.125 6.25 6.125H13.75C14.1642 6.125 14.5 6.46079 14.5 6.875C14.5 7.28921 14.1642 7.625 13.75 7.625H6.25C5.83579 7.625 5.5 7.28921 5.5 6.875ZM5.5 9.375C5.5 8.96079 5.83579 8.625 6.25 8.625H10C10.4142 8.625 10.75 8.96079 10.75 9.375C10.75 9.78921 10.4142 10.125 10 10.125H6.25C5.83579 10.125 5.5 9.78921 5.5 9.375Z" fill="inherit"/>
</svg>
