<svg viewBox="0 0 20 20" xmlns="http://www.w3.org/2000/svg">
<path fill-rule="evenodd" clip-rule="evenodd" d="M10 3.875C6.20931 3.875 3.25 6.67735 3.25 10C3.25 11.4923 3.83826 12.8666 4.83117 13.9383C5.30614 14.4509 5.85683 15.3209 5.5561 16.3104C5.51251 16.4538 5.46197 16.5941 5.40489 16.731C6.15825 16.6599 6.8532 16.3925 7.43983 15.9804C7.62215 15.8523 7.85199 15.8119 8.06707 15.8701C8.6783 16.0357 9.32693 16.125 10 16.125C13.7907 16.125 16.75 13.3226 16.75 10C16.75 6.67735 13.7907 3.875 10 3.875ZM4.43517 18.2226C4.28224 18.2077 4.13063 18.1867 3.98102 18.1599C3.71697 18.1127 3.49827 17.928 3.40745 17.6756C3.31663 17.4232 3.36753 17.1415 3.54093 16.9368C3.80185 16.6289 4.0011 16.2684 4.12092 15.8742C4.18148 15.6749 4.10029 15.3565 3.73085 14.9577C2.50205 13.6315 1.75 11.9002 1.75 10C1.75 5.72873 5.50642 2.375 10 2.375C14.4936 2.375 18.25 5.72873 18.25 10C18.25 14.2713 14.4936 17.625 10 17.625C9.31415 17.625 8.6468 17.5476 8.00803 17.4012C7.1326 17.9395 6.10165 18.25 5 18.25C4.80963 18.25 4.62112 18.2407 4.43517 18.2226Z" fill="inherit"/>
</svg>
