<svg viewBox="0 0 20 20" xmlns="http://www.w3.org/2000/svg">
<path fill-rule="evenodd" clip-rule="evenodd" d="M4.02212 2.1855C5.97367 1.89855 7.96983 1.75 10.0002 1.75C12.0305 1.75 14.0265 1.89853 15.9778 2.18542C17.6922 2.43747 18.875 3.93787 18.875 5.61713V10.6329C18.875 12.3121 17.6922 13.8126 15.9778 14.0646C14.3568 14.3029 12.7049 14.4458 11.0282 14.4873C10.9734 14.4886 10.9251 14.5105 10.8916 14.5441L7.40533 18.0303C7.19083 18.2448 6.86824 18.309 6.58799 18.1929C6.30773 18.0768 6.125 17.8033 6.125 17.5V14.3181C5.41867 14.2514 4.71756 14.1667 4.02211 14.0645C2.3078 13.8124 1.125 12.312 1.125 10.6328V5.6172C1.125 3.93796 2.30781 2.43756 4.02212 2.1855ZM10.0002 3.25C8.0431 3.25 6.11986 3.39319 4.24032 3.66954C3.31455 3.80566 2.625 4.62798 2.625 5.6172V10.6328C2.625 11.622 3.31455 12.4443 4.24032 12.5804C5.12841 12.711 6.02625 12.8119 6.93279 12.8819C7.32342 12.9121 7.625 13.2379 7.625 13.6297V15.6893L9.83091 13.4834C10.1419 13.1724 10.5588 12.9984 10.9911 12.9877C12.607 12.9477 14.1984 12.8101 15.7596 12.5805C16.6854 12.4444 17.375 11.6221 17.375 10.6329V5.61713C17.375 4.6279 16.6854 3.80558 15.7597 3.66947C13.8803 3.39316 11.9572 3.25 10.0002 3.25ZM7.1875 8.43119C7.26482 8.35228 7.3125 8.24421 7.3125 8.125C7.3125 8.00579 7.26482 7.89772 7.1875 7.81881V8.43119ZM5.8125 8.125C5.8125 7.5382 6.2882 7.0625 6.875 7.0625C7.4618 7.0625 7.9375 7.5382 7.9375 8.125C7.9375 8.7118 7.4618 9.1875 6.875 9.1875C6.2882 9.1875 5.8125 8.7118 5.8125 8.125ZM10.3125 8.43119C10.3898 8.35228 10.4375 8.24421 10.4375 8.125C10.4375 8.00579 10.3898 7.89772 10.3125 7.81881V8.43119ZM8.9375 8.125C8.9375 7.5382 9.4132 7.0625 10 7.0625C10.5868 7.0625 11.0625 7.5382 11.0625 8.125C11.0625 8.7118 10.5868 9.1875 10 9.1875C9.4132 9.1875 8.9375 8.7118 8.9375 8.125ZM13.4375 8.43119C13.5148 8.35228 13.5625 8.24421 13.5625 8.125C13.5625 8.00579 13.5148 7.89772 13.4375 7.81881V8.43119ZM12.0625 8.125C12.0625 7.5382 12.5382 7.0625 13.125 7.0625C13.7118 7.0625 14.1875 7.5382 14.1875 8.125C14.1875 8.7118 13.7118 9.1875 13.125 9.1875C12.5382 9.1875 12.0625 8.7118 12.0625 8.125Z" fill="inherit"/>
</svg>
