<svg viewBox="0 0 20 20" xmlns="http://www.w3.org/2000/svg">
<path fill-rule="evenodd" clip-rule="evenodd" d="M10.0002 3.25C8.0431 3.25 6.11986 3.39319 4.24032 3.66954C3.31455 3.80566 2.625 4.62798 2.625 5.6172V10.6328C2.625 11.622 3.31455 12.4443 4.24032 12.5804L4.13122 13.3225L4.24032 12.5804C5.12841 12.711 6.02625 12.8119 6.93279 12.8819C7.32342 12.9121 7.625 13.2379 7.625 13.6297V15.6893L9.66974 13.6446C10.0846 13.2297 10.6401 12.999 11.2147 12.9816C12.7539 12.9348 14.2705 12.7995 15.7596 12.5805C16.6854 12.4444 17.375 11.6221 17.375 10.6329V5.61713C17.375 4.6279 16.6854 3.80558 15.7597 3.66947C13.8803 3.39316 11.9572 3.25 10.0002 3.25ZM4.02212 2.1855C5.97367 1.89855 7.96984 1.75 10.0002 1.75C12.0305 1.75 14.0265 1.89853 15.9778 2.18542C17.6922 2.43747 18.875 3.93787 18.875 5.61713V10.6329C18.875 12.3121 17.6922 13.8126 15.9778 14.0646C14.4316 14.2919 12.8574 14.4324 11.2603 14.4809C11.0556 14.4871 10.8668 14.5689 10.7304 14.7053L7.40533 18.0303C7.19083 18.2448 6.86824 18.309 6.58799 18.1929C6.30773 18.0768 6.125 17.8033 6.125 17.5V14.3181C5.41868 14.2514 4.71756 14.1667 4.02211 14.0645C2.3078 13.8124 1.125 12.312 1.125 10.6328V5.6172C1.125 3.93796 2.30781 2.43756 4.02212 2.1855Z" fill="inherit"/>
</svg>
