<svg viewBox="0 0 20 20" xmlns="http://www.w3.org/2000/svg">
<path fill-rule="evenodd" clip-rule="evenodd" d="M10.0002 3.25C8.0431 3.25 6.11986 3.39319 4.24032 3.66954C3.31455 3.80566 2.625 4.62798 2.625 5.6172V10.6328C2.625 11.622 3.31455 12.4443 4.24032 12.5804L4.13122 13.3225L4.24032 12.5804C5.07404 12.703 5.91634 12.7994 6.76637 12.8687C7.45402 12.9248 8.09173 13.2855 8.48274 13.872L10 16.1479L11.5172 13.8721C11.9082 13.2856 12.546 12.9248 13.2336 12.8688C14.0837 12.7995 14.9259 12.7031 15.7596 12.5805C16.6854 12.4444 17.375 11.6221 17.375 10.6329V5.61713C17.375 4.6279 16.6854 3.80558 15.7597 3.66947C13.8803 3.39316 11.9572 3.25 10.0002 3.25ZM4.02212 2.1855C5.97367 1.89855 7.96984 1.75 10.0002 1.75C12.0305 1.75 14.0265 1.89853 15.9778 2.18542C17.6922 2.43747 18.875 3.93787 18.875 5.61713V10.6329C18.875 12.3121 17.6922 13.8126 15.9778 14.0646C15.1122 14.1919 14.2378 14.2919 13.3555 14.3638C13.1098 14.3838 12.8937 14.5115 12.7653 14.7041L10.624 17.916C10.4849 18.1247 10.2508 18.25 10 18.25C9.74924 18.25 9.51506 18.1247 9.37596 17.916L7.23466 14.7041C7.10623 14.5114 6.89015 14.3838 6.64447 14.3638C5.76216 14.2918 4.88774 14.1918 4.02211 14.0645C2.3078 13.8124 1.125 12.312 1.125 10.6328V5.6172C1.125 3.93796 2.30781 2.43756 4.02212 2.1855Z" fill="inherit"/>
</svg>
