<svg viewBox="0 0 20 20" xmlns="http://www.w3.org/2000/svg">
<path fill-rule="evenodd" clip-rule="evenodd" d="M2.25 4.94444C2.25 3.67112 3.28223 2.63889 4.55556 2.63889H15.4444C16.7178 2.63889 17.75 3.67112 17.75 4.94444V11.1667C17.75 12.44 16.7178 13.4722 15.4444 13.4722H11.8662L8.197 17.1414C7.9825 17.3559 7.65991 17.4201 7.37965 17.304C7.0994 17.1879 6.91667 16.9145 6.91667 16.6111V13.4722H4.55556C3.28223 13.4722 2.25 12.44 2.25 11.1667V4.94444ZM4.55556 4.13889C4.11066 4.13889 3.75 4.49955 3.75 4.94444V11.1667C3.75 11.6116 4.11066 11.9722 4.55556 11.9722H7.66667C8.08088 11.9722 8.41667 12.308 8.41667 12.7222V14.8004L11.0252 12.1919C11.1659 12.0512 11.3566 11.9722 11.5556 11.9722H15.4444C15.8893 11.9722 16.25 11.6116 16.25 11.1667V4.94444C16.25 4.49955 15.8893 4.13889 15.4444 4.13889H4.55556ZM6.13889 8.05555C6.13889 7.64134 6.47468 7.30555 6.88889 7.30555H6.89667C7.31088 7.30555 7.64667 7.64134 7.64667 8.05555C7.64667 8.46977 7.31088 8.80555 6.89667 8.80555H6.88889C6.47468 8.80555 6.13889 8.46977 6.13889 8.05555ZM9.25 8.05555C9.25 7.64134 9.58579 7.30555 10 7.30555H10.0078C10.422 7.30555 10.7578 7.64134 10.7578 8.05555C10.7578 8.46977 10.422 8.80555 10.0078 8.80555H10C9.58579 8.80555 9.25 8.46977 9.25 8.05555ZM12.3611 8.05555C12.3611 7.64134 12.6969 7.30555 13.1111 7.30555H13.1189C13.5331 7.30555 13.8689 7.64134 13.8689 8.05555C13.8689 8.46977 13.5331 8.80555 13.1189 8.80555H13.1111C12.6969 8.80555 12.3611 8.46977 12.3611 8.05555Z" fill="inherit"/>
</svg>
