<svg viewBox="0 0 20 20" xmlns="http://www.w3.org/2000/svg">
<path fill-rule="evenodd" clip-rule="evenodd" d="M4.07813 2.09123C5.81231 1.86608 7.58041 1.75 9.37524 1.75C11.1699 1.75 12.9378 1.86606 14.6718 2.09117C16.4123 2.31711 17.625 3.83065 17.625 5.53109V6.61421C18.3874 7.07053 18.875 7.9115 18.875 8.84018V12.4115C18.875 13.7298 17.8882 14.8761 16.5358 14.9864C16.4822 14.9908 16.4286 14.9951 16.375 14.9992V16.875C16.375 17.1783 16.1923 17.4518 15.912 17.5679C15.6318 17.684 15.3092 17.6198 15.0947 17.4053L12.8132 15.1238C11.7705 15.1161 10.737 15.0699 9.71417 14.9864C9.56333 14.974 9.4164 14.9486 9.27449 14.9112L6.15533 18.0303C5.94083 18.2448 5.61824 18.309 5.33799 18.1929C5.05773 18.0768 4.875 17.8033 4.875 17.5V14.2543C4.60861 14.225 4.34298 14.1932 4.07814 14.1588C2.33771 13.9328 1.125 12.4193 1.125 10.7189V5.53115C1.125 3.83072 2.3377 2.31719 4.07813 2.09123ZM7.97947 14.0849C7.59864 13.629 7.375 13.041 7.375 12.4114V8.84018C7.375 7.52394 8.35893 6.37824 9.7097 6.26613C10.8359 6.17266 11.975 6.125 13.125 6.125C14.1338 6.125 15.1343 6.16168 16.125 6.23379V5.53109C16.125 4.52917 15.4181 3.70064 14.4787 3.57868C12.8086 3.36187 11.1052 3.25 9.37524 3.25C7.64515 3.25 5.94157 3.36189 4.27126 3.57875C3.33185 3.70071 2.625 4.52924 2.625 5.53115V10.7189C2.625 11.7208 3.33185 12.5493 4.27126 12.6713C4.74306 12.7325 5.2175 12.7854 5.69444 12.8297C6.08008 12.8656 6.375 13.1892 6.375 13.5765V15.6893L7.97947 14.0849ZM13.125 7.625C12.0164 7.625 10.9188 7.67094 9.83377 7.76099C9.2994 7.80534 8.875 8.26477 8.875 8.84018V12.4114C8.875 12.833 9.10621 13.1977 9.44024 13.3757C9.55859 13.4388 9.69159 13.4795 9.83621 13.4913C10.9204 13.5798 12.0173 13.625 13.125 13.625C13.3239 13.625 13.5147 13.704 13.6553 13.8447L14.875 15.0643V14.2994C14.875 13.9028 15.1837 13.5748 15.5796 13.5508C15.8584 13.5338 16.1365 13.514 16.4138 13.4914C16.9494 13.4477 17.375 12.9876 17.375 12.4115V8.84018C17.375 8.35084 17.0648 7.94147 16.6453 7.80648C16.5732 7.78329 16.4967 7.76768 16.4162 7.76099C15.3312 7.67094 14.2335 7.625 13.125 7.625Z" fill="inherit"/>
</svg>
