<svg viewBox="0 0 20 20" xmlns="http://www.w3.org/2000/svg">
<path fill-rule="evenodd" clip-rule="evenodd" d="M10 3.875C6.20931 3.875 3.25 6.67735 3.25 10C3.25 11.6039 3.92986 13.0728 5.06216 14.175C5.44225 14.545 5.80724 15.1573 5.66391 15.8799C5.60535 16.1751 5.51798 16.4598 5.40489 16.731C6.15825 16.6599 6.8532 16.3925 7.43983 15.9804C7.62215 15.8523 7.85199 15.8119 8.06707 15.8701C8.6783 16.0357 9.32693 16.125 10 16.125C13.7907 16.125 16.75 13.3226 16.75 10C16.75 6.67735 13.7907 3.875 10 3.875ZM4.43529 18.2226C4.28232 18.2077 4.13067 18.1867 3.98102 18.1599C3.71697 18.1127 3.49827 17.928 3.40745 17.6756C3.31663 17.4232 3.36753 17.1415 3.54093 16.9368C3.86365 16.5559 4.09208 16.0947 4.19257 15.5881C4.19714 15.565 4.1979 15.5282 4.17328 15.4687C4.14701 15.4052 4.09564 15.3275 4.0159 15.2499C2.61965 13.8908 1.75 12.0438 1.75 10C1.75 5.72873 5.50641 2.375 10 2.375C14.4936 2.375 18.25 5.72873 18.25 10C18.25 14.2713 14.4936 17.625 10 17.625C9.31415 17.625 8.6468 17.5476 8.00803 17.4012C7.1326 17.9395 6.10165 18.25 5 18.25C4.80967 18.25 4.6212 18.2407 4.43529 18.2226ZM7.1875 10.3062C7.26482 10.2273 7.3125 10.1192 7.3125 10C7.3125 9.88079 7.26482 9.77272 7.1875 9.69381V10.3062ZM5.8125 10C5.8125 9.4132 6.2882 8.9375 6.875 8.9375C7.4618 8.9375 7.9375 9.4132 7.9375 10C7.9375 10.5868 7.4618 11.0625 6.875 11.0625C6.2882 11.0625 5.8125 10.5868 5.8125 10ZM10.3125 10.3062C10.3898 10.2273 10.4375 10.1192 10.4375 10C10.4375 9.88079 10.3898 9.77272 10.3125 9.69381V10.3062ZM8.9375 10C8.9375 9.4132 9.4132 8.9375 10 8.9375C10.5868 8.9375 11.0625 9.4132 11.0625 10C11.0625 10.5868 10.5868 11.0625 10 11.0625C9.4132 11.0625 8.9375 10.5868 8.9375 10ZM13.4375 10.3062C13.5148 10.2273 13.5625 10.1192 13.5625 10C13.5625 9.88079 13.5148 9.77272 13.4375 9.69381V10.3062ZM12.0625 10C12.0625 9.4132 12.5382 8.9375 13.125 8.9375C13.7118 8.9375 14.1875 9.4132 14.1875 10C14.1875 10.5868 13.7118 11.0625 13.125 11.0625C12.5382 11.0625 12.0625 10.5868 12.0625 10Z" fill="inherit"/>
</svg>
