<svg viewBox="0 0 20 20" xmlns="http://www.w3.org/2000/svg">
<path fill-rule="evenodd" clip-rule="evenodd" d="M10 3.75C6.54822 3.75 3.75 6.54822 3.75 10C3.75 13.4518 6.54822 16.25 10 16.25C13.4518 16.25 16.25 13.4518 16.25 10C16.25 6.54822 13.4518 3.75 10 3.75ZM2.25 10C2.25 5.71979 5.71979 2.25 10 2.25C14.2802 2.25 17.75 5.71979 17.75 10C17.75 14.2802 14.2802 17.75 10 17.75C5.71979 17.75 2.25 14.2802 2.25 10ZM12.8637 7.91411C13.1566 8.20701 13.1566 8.68188 12.8637 8.97477L9.75255 12.0859C9.45966 12.3788 8.98479 12.3788 8.69189 12.0859L7.13634 10.5303C6.84344 10.2374 6.84344 9.76256 7.13634 9.46967C7.42923 9.17678 7.9041 9.17678 8.197 9.46967L9.22222 10.4949L11.803 7.91411C12.0959 7.62122 12.5708 7.62122 12.8637 7.91411Z" fill="inherit"/>
</svg>
