<svg viewBox="0 0 20 20" xmlns="http://www.w3.org/2000/svg">
<path fill-rule="evenodd" clip-rule="evenodd" d="M4.45171 4.48826C4.73434 4.18545 5.20893 4.16909 5.51174 4.45171L10 8.64076L14.4883 4.45171C14.7911 4.16909 15.2657 4.18545 15.5483 4.48826C15.8309 4.79108 15.8146 5.26567 15.5117 5.54829L10.5117 10.215C10.2236 10.4839 9.77642 10.4839 9.48826 10.215L4.48826 5.54829C4.18545 5.26567 4.16909 4.79108 4.45171 4.48826ZM4.45171 9.8216C4.73434 9.51879 5.20893 9.50242 5.51174 9.78505L10 13.9741L14.4883 9.78505C14.7911 9.50242 15.2657 9.51879 15.5483 9.8216C15.8309 10.1244 15.8146 10.599 15.5117 10.8816L10.5117 15.5483C10.2236 15.8172 9.77642 15.8172 9.48826 15.5483L4.48826 10.8816C4.18545 10.599 4.16909 10.1244 4.45171 9.8216Z" fill="inherit"/>
</svg>
