<svg viewBox="0 0 20 20" xmlns="http://www.w3.org/2000/svg">
<path fill-rule="evenodd" clip-rule="evenodd" d="M10.1784 4.45171C10.4812 4.73434 10.4976 5.20893 10.215 5.51174L6.02591 10L10.215 14.4883C10.4976 14.7911 10.4812 15.2657 10.1784 15.5483C9.87559 15.8309 9.401 15.8146 9.11837 15.5117L4.45171 10.5117C4.18276 10.2236 4.18276 9.77642 4.45171 9.48826L9.11837 4.48826C9.401 4.18545 9.87559 4.16909 10.1784 4.45171ZM15.5117 4.45171C15.8146 4.73434 15.8309 5.20893 15.5483 5.51174L11.3592 10L15.5483 14.4883C15.8309 14.7911 15.8146 15.2657 15.5117 15.5483C15.2089 15.8309 14.7343 15.8146 14.4517 15.5117L9.78504 10.5117C9.5161 10.2236 9.5161 9.77642 9.78504 9.48826L14.4517 4.48826C14.7343 4.18545 15.2089 4.16909 15.5117 4.45171Z" fill="inherit"/>
</svg>
