<svg viewBox="0 0 20 20" xmlns="http://www.w3.org/2000/svg">
<path fill-rule="evenodd" clip-rule="evenodd" d="M9.48826 4.45171C9.77642 4.18276 10.2236 4.18276 10.5117 4.45171L15.5117 9.11837C15.8146 9.401 15.8309 9.87559 15.5483 10.1784C15.2657 10.4812 14.7911 10.4976 14.4883 10.215L10 6.02591L5.51174 10.215C5.20893 10.4976 4.73434 10.4812 4.45171 10.1784C4.16909 9.87559 4.18545 9.401 4.48826 9.11838L9.48826 4.45171ZM10 11.3592L5.51174 15.5483C5.20893 15.8309 4.73434 15.8146 4.45171 15.5117C4.16909 15.2089 4.18545 14.7343 4.48826 14.4517L9.48826 9.78504C9.77642 9.5161 10.2236 9.5161 10.5117 9.78504L15.5117 14.4517C15.8146 14.7343 15.8309 15.2089 15.5483 15.5117C15.2657 15.8146 14.7911 15.8309 14.4883 15.5483L10 11.3592Z" fill="inherit"/>
</svg>
