<svg viewBox="0 0 20 20" xmlns="http://www.w3.org/2000/svg">
<path fill-rule="evenodd" clip-rule="evenodd" d="M9.8216 4.45171C10.1244 4.16909 10.599 4.18545 10.8816 4.48826L15.5483 9.48826C15.8172 9.77642 15.8172 10.2236 15.5483 10.5117L10.8816 15.5117C10.599 15.8146 10.1244 15.8309 9.8216 15.5483C9.51879 15.2657 9.50242 14.7911 9.78505 14.4883L13.9741 10L9.78505 5.51174C9.50242 5.20893 9.51878 4.73434 9.8216 4.45171ZM4.48826 4.45171C4.79108 4.16909 5.26567 4.18545 5.54829 4.48826L10.215 9.48826C10.4839 9.77642 10.4839 10.2236 10.215 10.5117L5.54829 15.5117C5.26567 15.8146 4.79108 15.8309 4.48826 15.5483C4.18545 15.2657 4.16909 14.7911 4.45171 14.4883L8.64076 10L4.45171 5.51174C4.16909 5.20893 4.18545 4.73434 4.48826 4.45171Z" fill="inherit"/>
</svg>
