<svg viewBox="0 0 20 20" xmlns="http://www.w3.org/2000/svg">
<path fill-rule="evenodd" clip-rule="evenodd" d="M7.08333 2.25C7.49755 2.25 7.83333 2.58579 7.83333 3V3.41667H9.25V3C9.25 2.58579 9.58579 2.25 10 2.25C10.4142 2.25 10.75 2.58579 10.75 3V3.41667H12.1667V3C12.1667 2.58579 12.5025 2.25 12.9167 2.25C13.3309 2.25 13.6667 2.58579 13.6667 3V3.41667H14.0833C15.464 3.41667 16.5833 4.53595 16.5833 5.91667V6.33333H17C17.4142 6.33333 17.75 6.66912 17.75 7.08333C17.75 7.49755 17.4142 7.83333 17 7.83333H16.5833V9.25H17C17.4142 9.25 17.75 9.58579 17.75 10C17.75 10.4142 17.4142 10.75 17 10.75H16.5833V12.1667H17C17.4142 12.1667 17.75 12.5025 17.75 12.9167C17.75 13.3309 17.4142 13.6667 17 13.6667H16.5833V14.0833C16.5833 15.464 15.464 16.5833 14.0833 16.5833H13.6667V17C13.6667 17.4142 13.3309 17.75 12.9167 17.75C12.5025 17.75 12.1667 17.4142 12.1667 17V16.5833H10.75V17C10.75 17.4142 10.4142 17.75 10 17.75C9.58579 17.75 9.25 17.4142 9.25 17V16.5833H7.83333V17C7.83333 17.4142 7.49755 17.75 7.08333 17.75C6.66912 17.75 6.33333 17.4142 6.33333 17V16.5833H5.91667C4.53595 16.5833 3.41667 15.464 3.41667 14.0833V13.6667H3C2.58579 13.6667 2.25 13.3309 2.25 12.9167C2.25 12.5025 2.58579 12.1667 3 12.1667H3.41667V10.75H3C2.58579 10.75 2.25 10.4142 2.25 10C2.25 9.58579 2.58579 9.25 3 9.25H3.41667V7.83333H3C2.58579 7.83333 2.25 7.49755 2.25 7.08333C2.25 6.66912 2.58579 6.33333 3 6.33333H3.41667V5.91667C3.41667 4.53595 4.53595 3.41667 5.91667 3.41667H6.33333V3C6.33333 2.58579 6.66912 2.25 7.08333 2.25ZM5.91667 4.91667C5.36438 4.91667 4.91667 5.36438 4.91667 5.91667V14.0833C4.91667 14.6356 5.36438 15.0833 5.91667 15.0833H14.0833C14.6356 15.0833 15.0833 14.6356 15.0833 14.0833V5.91667C15.0833 5.36438 14.6356 4.91667 14.0833 4.91667H5.91667ZM5.75 6.5C5.75 6.08579 6.08579 5.75 6.5 5.75H13.5C13.9142 5.75 14.25 6.08579 14.25 6.5V13.5C14.25 13.9142 13.9142 14.25 13.5 14.25H6.5C6.08579 14.25 5.75 13.9142 5.75 13.5V6.5ZM7.25 7.25V12.75H12.75V7.25H7.25Z" fill="inherit"/>
</svg>
