<svg viewBox="0 0 20 20" xmlns="http://www.w3.org/2000/svg">
<path fill-rule="evenodd" clip-rule="evenodd" d="M8.95338 2.47816C9.40094 1.6716 10.2609 1.125 11.25 1.125H12.5C13.4891 1.125 14.3491 1.6716 14.7966 2.47816C14.9614 2.48984 15.126 2.5025 15.2903 2.51613C16.6411 2.62824 17.625 3.77395 17.625 5.09018V13.125C17.625 14.5747 16.4497 15.75 15 15.75H13.875V17.1875C13.875 18.1195 13.1195 18.875 12.1875 18.875H4.0625C3.13052 18.875 2.375 18.1195 2.375 17.1875V7.1875C2.375 6.25552 3.13052 5.5 4.0625 5.5H5.625C5.79289 5.5 5.9596 5.50501 6.125 5.5149V5.09018C6.125 3.77395 7.10892 2.62824 8.4597 2.51613C8.62399 2.5025 8.78855 2.48984 8.95338 2.47816ZM8.625 4.00759C8.61126 4.00872 8.59751 4.00985 8.58377 4.01099C8.0494 4.05534 7.625 4.51478 7.625 5.09018V5.74409C11.215 6.638 13.875 9.88336 13.875 13.75V14.25H15C15.6213 14.25 16.125 13.7463 16.125 13.125V5.09018C16.125 4.51478 15.7006 4.05534 15.1662 4.01099C15.1525 4.00985 15.1387 4.00872 15.125 4.00759V4.375C15.125 4.78921 14.7892 5.125 14.375 5.125H9.375C8.96079 5.125 8.625 4.78921 8.625 4.375V4.00759ZM13.6182 3.625C13.6103 3.5533 13.5958 3.48408 13.5754 3.4178C13.4335 2.95786 13.0047 2.625 12.5 2.625H11.25C10.7453 2.625 10.3165 2.95786 10.1746 3.4178C10.1542 3.48408 10.1397 3.5533 10.1318 3.625H13.6182ZM12.375 14.0625C12.375 12.9234 11.4516 12 10.3125 12H9.0625C8.13052 12 7.375 11.2445 7.375 10.3125V9.0625C7.375 7.92341 6.45159 7 5.3125 7H4.0625C3.95895 7 3.875 7.08395 3.875 7.1875V17.1875C3.875 17.2911 3.95895 17.375 4.0625 17.375H12.1875C12.2911 17.375 12.375 17.2911 12.375 17.1875V14.0625ZM8.60089 7.68972C8.77747 8.11221 8.875 8.57596 8.875 9.0625V10.3125C8.875 10.4161 8.95895 10.5 9.0625 10.5H10.3125C10.799 10.5 11.2628 10.5975 11.6853 10.7741C11.0271 9.43619 9.93881 8.34795 8.60089 7.68972Z" fill="inherit"/>
</svg>
