<svg viewBox="0 0 20 20" xmlns="http://www.w3.org/2000/svg">
<path fill-rule="evenodd" clip-rule="evenodd" d="M8.4 3.75C7.9889 3.75 7.64038 4.02627 7.53363 4.40472C7.52942 4.41963 7.52559 4.43473 7.52213 4.45H11.4779C11.4744 4.43473 11.4706 4.41963 11.4664 4.40472C11.3596 4.02627 11.0111 3.75 10.6 3.75H8.4ZM6.29832 3.49067C6.70699 2.75125 7.4943 2.25 8.4 2.25H10.6C11.5057 2.25 12.293 2.75125 12.7017 3.49067C13.0318 3.51981 13.3607 3.55342 13.6882 3.59143C14.8921 3.73115 15.75 4.76415 15.75 5.93846V15.65C15.75 16.9755 14.6755 18.05 13.35 18.05H5.65C4.32452 18.05 3.25 16.9755 3.25 15.65V5.93846C3.25 4.76415 4.10788 3.73115 5.31177 3.59143C5.63931 3.55342 5.96818 3.51981 6.29832 3.49067ZM6.05347 5.02019C5.86341 5.03907 5.67382 5.05948 5.48469 5.08143C5.07437 5.12905 4.75 5.48771 4.75 5.93846V15.65C4.75 16.1471 5.15294 16.55 5.65 16.55H13.35C13.8471 16.55 14.25 16.1471 14.25 15.65V5.93846C14.25 5.48771 13.9256 5.12905 13.5153 5.08143C13.3262 5.05948 13.1366 5.03907 12.9465 5.02019C12.7871 5.55782 12.2894 5.95 11.7 5.95H7.3C6.71065 5.95 6.21289 5.55782 6.05347 5.02019Z" fill="inherit"/>
</svg>
