<svg viewBox="0 0 20 20" xmlns="http://www.w3.org/2000/svg">
<path fill-rule="evenodd" clip-rule="evenodd" d="M10.6818 2.75C10.2231 2.75 9.83315 3.05252 9.70421 3.4707C9.68999 3.51683 9.67891 3.56453 9.67128 3.61364H12.8742C12.8665 3.56453 12.8555 3.51683 12.8412 3.4707C12.7123 3.05252 12.3223 2.75 11.8636 2.75H10.6818ZM8.48558 2.53101C8.91864 1.76656 9.73923 1.25 10.6818 1.25H11.8636C12.8062 1.25 13.6268 1.76656 14.0599 2.53101C14.2085 2.54163 14.3569 2.55309 14.5051 2.56539C15.8045 2.67324 16.75 3.77517 16.75 5.03981V13.2273C16.75 14.6205 15.6205 15.75 14.2273 15.75H13.2045V16.4773C13.2045 17.381 12.4719 18.1136 11.5682 18.1136H3.88636C2.98262 18.1136 2.25 17.381 2.25 16.4773V7.61364C2.25 6.7099 2.98262 5.97727 3.88636 5.97727H5.79545V5.03981C5.79545 3.77517 6.74097 2.67324 8.04033 2.56539C8.18851 2.55309 8.33693 2.54163 8.48558 2.53101ZM8.18954 4.05817C8.18116 4.05886 8.17278 4.05956 8.16441 4.06025C7.68144 4.10034 7.29545 4.51599 7.29545 5.03981V5.97727H11.5682C12.4719 5.97727 13.2045 6.7099 13.2045 7.61364V14.25H14.2273C14.7921 14.25 15.25 13.7921 15.25 13.2273V5.03981C15.25 4.51599 14.864 4.10034 14.381 4.06025C14.3727 4.05956 14.3643 4.05886 14.3559 4.05817C14.2251 4.66161 13.6881 5.11364 13.0455 5.11364H9.5C8.85739 5.11364 8.32037 4.66161 8.18954 4.05817ZM3.88636 7.47727C3.81105 7.47727 3.75 7.53832 3.75 7.61364V16.4773C3.75 16.5526 3.81105 16.6136 3.88636 16.6136H11.5682C11.6435 16.6136 11.7045 16.5526 11.7045 16.4773V7.61364C11.7045 7.53832 11.6435 7.47727 11.5682 7.47727H3.88636ZM9.96852 10.278C10.292 10.5367 10.3444 11.0087 10.0857 11.3322L7.72201 14.2867C7.58875 14.4533 7.39084 14.5552 7.17784 14.567C6.96483 14.5788 6.75688 14.4994 6.60603 14.3485L5.42422 13.1667C5.13132 12.8738 5.13132 12.3989 5.42422 12.106C5.71711 11.8131 6.19198 11.8131 6.48488 12.106L7.07417 12.6953L8.91435 10.3951C9.17311 10.0717 9.64507 10.0192 9.96852 10.278Z" fill="inherit"/>
</svg>
