<svg viewBox="0 0 20 20" xmlns="http://www.w3.org/2000/svg">
<path fill-rule="evenodd" clip-rule="evenodd" d="M11.25 2.625C10.7453 2.625 10.3165 2.95786 10.1746 3.4178C10.1542 3.48408 10.1397 3.5533 10.1318 3.625H13.6182C13.6103 3.5533 13.5958 3.48408 13.5754 3.4178C13.4335 2.95786 13.0047 2.625 12.5 2.625H11.25ZM8.95338 2.47816C9.40094 1.6716 10.2609 1.125 11.25 1.125H12.5C13.4891 1.125 14.3491 1.6716 14.7966 2.47816C14.9614 2.48984 15.126 2.5025 15.2903 2.51613C16.6411 2.62824 17.625 3.77395 17.625 5.09018V13.75C17.625 15.1997 16.4497 16.375 15 16.375H13.875V17.1875C13.875 18.1195 13.1195 18.875 12.1875 18.875H4.0625C3.13052 18.875 2.375 18.1195 2.375 17.1875V7.8125C2.375 6.88052 3.13052 6.125 4.0625 6.125H6.125V5.09018C6.125 3.77395 7.10892 2.62824 8.4597 2.51613C8.62399 2.5025 8.78855 2.48984 8.95338 2.47816ZM8.64872 4.00566C8.62707 4.00742 8.60542 4.0092 8.58377 4.01099C8.0494 4.05534 7.625 4.51478 7.625 5.09018V6.125H12.1875C13.1195 6.125 13.875 6.88052 13.875 7.8125V14.875H15C15.6213 14.875 16.125 14.3713 16.125 13.75V5.09018C16.125 4.51478 15.7006 4.05534 15.1662 4.01099C15.1446 4.0092 15.1229 4.00742 15.1013 4.00565C14.9815 4.64288 14.422 5.125 13.75 5.125H10C9.32797 5.125 8.76854 4.64288 8.64872 4.00566ZM12.375 7.8125C12.375 7.70895 12.2911 7.625 12.1875 7.625H4.0625C3.95895 7.625 3.875 7.70895 3.875 7.8125V17.1875C3.875 17.2911 3.95895 17.375 4.0625 17.375H12.1875C12.2911 17.375 12.375 17.2911 12.375 17.1875V7.8125ZM4.875 10C4.875 9.58579 5.21079 9.25 5.625 9.25H5.63125C6.04546 9.25 6.38125 9.58579 6.38125 10V10.0063C6.38125 10.4205 6.04546 10.7563 5.63125 10.7563H5.625C5.21079 10.7563 4.875 10.4205 4.875 10.0063V10ZM6.75 10C6.75 9.58579 7.08579 9.25 7.5 9.25H10.625C11.0392 9.25 11.375 9.58579 11.375 10C11.375 10.4142 11.0392 10.75 10.625 10.75H7.5C7.08579 10.75 6.75 10.4142 6.75 10ZM4.875 12.5C4.875 12.0858 5.21079 11.75 5.625 11.75H5.63125C6.04546 11.75 6.38125 12.0858 6.38125 12.5V12.5063C6.38125 12.9205 6.04546 13.2563 5.63125 13.2563H5.625C5.21079 13.2563 4.875 12.9205 4.875 12.5063V12.5ZM6.75 12.5C6.75 12.0858 7.08579 11.75 7.5 11.75H10.625C11.0392 11.75 11.375 12.0858 11.375 12.5C11.375 12.9142 11.0392 13.25 10.625 13.25H7.5C7.08579 13.25 6.75 12.9142 6.75 12.5ZM4.875 15C4.875 14.5858 5.21079 14.25 5.625 14.25H5.63125C6.04546 14.25 6.38125 14.5858 6.38125 15V15.0063C6.38125 15.4205 6.04546 15.7563 5.63125 15.7563H5.625C5.21079 15.7563 4.875 15.4205 4.875 15.0063V15ZM6.75 15C6.75 14.5858 7.08579 14.25 7.5 14.25H10.625C11.0392 14.25 11.375 14.5858 11.375 15C11.375 15.4142 11.0392 15.75 10.625 15.75H7.5C7.08579 15.75 6.75 15.4142 6.75 15Z" fill="inherit"/>
</svg>
