<svg viewBox="0 0 20 20" xmlns="http://www.w3.org/2000/svg">
<path fill-rule="evenodd" clip-rule="evenodd" d="M11.25 2.625C10.7453 2.625 10.3165 2.95786 10.1746 3.4178C10.1542 3.48408 10.1397 3.5533 10.1318 3.625H13.6182C13.6103 3.5533 13.5958 3.48408 13.5754 3.4178C13.4335 2.95786 13.0047 2.625 12.5 2.625H11.25ZM8.95338 2.47816C9.40094 1.6716 10.2609 1.125 11.25 1.125H12.5C13.4891 1.125 14.3491 1.6716 14.7966 2.47816C14.9614 2.48984 15.126 2.5025 15.2903 2.51613C16.6411 2.62824 17.625 3.77395 17.625 5.09018V13.75C17.625 15.1997 16.4497 16.375 15 16.375H13.875V17.1875C13.875 18.1195 13.1195 18.875 12.1875 18.875H4.0625C3.13052 18.875 2.375 18.1195 2.375 17.1875V7.8125C2.375 6.88052 3.13052 6.125 4.0625 6.125H6.125V5.09018C6.125 3.77395 7.10892 2.62824 8.4597 2.51613C8.62399 2.5025 8.78855 2.48984 8.95338 2.47816ZM8.64872 4.00566C8.62707 4.00742 8.60542 4.0092 8.58377 4.01099C8.0494 4.05534 7.625 4.51478 7.625 5.09018V6.125H12.1875C13.1195 6.125 13.875 6.88052 13.875 7.8125V14.875H15C15.6213 14.875 16.125 14.3713 16.125 13.75V5.09018C16.125 4.51478 15.7006 4.05534 15.1662 4.01099C15.1446 4.0092 15.1229 4.00742 15.1013 4.00565C14.9815 4.64288 14.422 5.125 13.75 5.125H10C9.32797 5.125 8.76854 4.64288 8.64872 4.00566ZM4.0625 7.625C3.95895 7.625 3.875 7.70895 3.875 7.8125V17.1875C3.875 17.2911 3.95895 17.375 4.0625 17.375H12.1875C12.2911 17.375 12.375 17.2911 12.375 17.1875V7.8125C12.375 7.70895 12.2911 7.625 12.1875 7.625H4.0625ZM10.4685 10.6643C10.792 10.9231 10.8444 11.3951 10.5857 11.7185L8.08565 14.8435C7.95238 15.0101 7.75448 15.1121 7.54148 15.1239C7.32847 15.1356 7.12052 15.0562 6.96967 14.9053L5.71967 13.6553C5.42678 13.3624 5.42678 12.8876 5.71967 12.5947C6.01256 12.3018 6.48744 12.3018 6.78033 12.5947L7.43781 13.2522L9.41435 10.7815C9.67311 10.458 10.1451 10.4056 10.4685 10.6643Z" fill="inherit"/>
</svg>
