<svg viewBox="0 0 20 20" xmlns="http://www.w3.org/2000/svg">
<path fill-rule="evenodd" clip-rule="evenodd" d="M10.6818 2.75C10.2231 2.75 9.83315 3.05252 9.70421 3.4707C9.68999 3.51683 9.67891 3.56453 9.67128 3.61364H12.8742C12.8665 3.56453 12.8555 3.51683 12.8412 3.4707C12.7123 3.05252 12.3223 2.75 11.8636 2.75H10.6818ZM8.48558 2.53101C8.91864 1.76656 9.73923 1.25 10.6818 1.25H11.8636C12.8062 1.25 13.6268 1.76656 14.0599 2.53101C14.2085 2.54163 14.3569 2.55309 14.5051 2.56539C15.8045 2.67324 16.75 3.77517 16.75 5.03981V13.2273C16.75 14.6205 15.6205 15.75 14.2273 15.75H13.2045V16.4773C13.2045 17.381 12.4719 18.1136 11.5682 18.1136H3.88636C2.98262 18.1136 2.25 17.381 2.25 16.4773V7.61364C2.25 6.7099 2.98262 5.97727 3.88636 5.97727H5.79545V5.03981C5.79545 3.77517 6.74097 2.67324 8.04033 2.56539C8.18851 2.55309 8.33693 2.54163 8.48558 2.53101ZM8.18954 4.05817C8.18116 4.05886 8.17278 4.05956 8.16441 4.06025C7.68144 4.10034 7.29545 4.51599 7.29545 5.03981V5.97727H11.5682C12.4719 5.97727 13.2045 6.7099 13.2045 7.61364V14.25H14.2273C14.7921 14.25 15.25 13.7921 15.25 13.2273V5.03981C15.25 4.51599 14.864 4.10034 14.381 4.06025C14.3727 4.05956 14.3643 4.05886 14.3559 4.05817C14.2251 4.66161 13.6881 5.11364 13.0455 5.11364H9.5C8.85739 5.11364 8.32037 4.66161 8.18954 4.05817ZM11.7045 7.61364C11.7045 7.53832 11.6435 7.47727 11.5682 7.47727H3.88636C3.81105 7.47727 3.75 7.53832 3.75 7.61364V16.4773C3.75 16.5526 3.81105 16.6136 3.88636 16.6136H11.5682C11.6435 16.6136 11.7045 16.5526 11.7045 16.4773V7.61364ZM4.61364 9.68182C4.61364 9.2676 4.94942 8.93182 5.36364 8.93182H5.36955C5.78376 8.93182 6.11955 9.2676 6.11955 9.68182V9.68773C6.11955 10.1019 5.78376 10.4377 5.36955 10.4377H5.36364C4.94942 10.4377 4.61364 10.1019 4.61364 9.68773V9.68182ZM6.38636 9.68182C6.38636 9.2676 6.72215 8.93182 7.13636 8.93182H10.0909C10.5051 8.93182 10.8409 9.2676 10.8409 9.68182C10.8409 10.096 10.5051 10.4318 10.0909 10.4318H7.13636C6.72215 10.4318 6.38636 10.096 6.38636 9.68182ZM4.61364 12.0455C4.61364 11.6312 4.94942 11.2955 5.36364 11.2955H5.36955C5.78376 11.2955 6.11955 11.6312 6.11955 12.0455V12.0514C6.11955 12.4656 5.78376 12.8014 5.36955 12.8014H5.36364C4.94942 12.8014 4.61364 12.4656 4.61364 12.0514V12.0455ZM6.38636 12.0455C6.38636 11.6312 6.72215 11.2955 7.13636 11.2955H10.0909C10.5051 11.2955 10.8409 11.6312 10.8409 12.0455C10.8409 12.4597 10.5051 12.7955 10.0909 12.7955H7.13636C6.72215 12.7955 6.38636 12.4597 6.38636 12.0455ZM4.61364 14.4091C4.61364 13.9949 4.94942 13.6591 5.36364 13.6591H5.36955C5.78376 13.6591 6.11955 13.9949 6.11955 14.4091V14.415C6.11955 14.8292 5.78376 15.165 5.36955 15.165H5.36364C4.94942 15.165 4.61364 14.8292 4.61364 14.415V14.4091ZM6.38636 14.4091C6.38636 13.9949 6.72215 13.6591 7.13636 13.6591H10.0909C10.5051 13.6591 10.8409 13.9949 10.8409 14.4091C10.8409 14.8233 10.5051 15.1591 10.0909 15.1591H7.13636C6.72215 15.1591 6.38636 14.8233 6.38636 14.4091Z" fill="inherit"/>
</svg>
