<svg viewBox="0 0 20 20" xmlns="http://www.w3.org/2000/svg">
<path fill-rule="evenodd" clip-rule="evenodd" d="M8.76923 4.75C6.80437 4.75 5.21154 6.34283 5.21154 8.30769C5.21154 8.53443 5.23265 8.75555 5.27282 8.96939C5.34221 9.3388 5.12744 9.70252 4.77046 9.82016C3.59609 10.2072 2.75 11.3135 2.75 12.6154C2.75 14.2404 4.06732 15.5577 5.69231 15.5577H14.9231C16.2082 15.5577 17.25 14.5159 17.25 13.2308C17.25 12.2378 16.6277 11.3884 15.7493 11.0546C15.3691 10.9101 15.1734 10.489 15.308 10.1052C15.3699 9.92883 15.4038 9.73842 15.4038 9.53846C15.4038 8.5932 14.6376 7.82692 13.6923 7.82692C13.5066 7.82692 13.3292 7.85624 13.1636 7.90993C12.9678 7.97344 12.7545 7.95366 12.5737 7.85524C12.3929 7.75681 12.2605 7.5884 12.2075 7.38946C11.8027 5.86914 10.4157 4.75 8.76923 4.75ZM3.71154 8.30769C3.71154 5.51441 5.97594 3.25 8.76923 3.25C10.8644 3.25 12.6606 4.52343 13.4286 6.33763C13.5157 6.33054 13.6036 6.32692 13.6923 6.32692C15.466 6.32692 16.9038 7.76478 16.9038 9.53846C16.9038 9.67454 16.8953 9.80886 16.8788 9.94085C17.9986 10.6079 18.75 11.8309 18.75 13.2308C18.75 15.3443 17.0366 17.0577 14.9231 17.0577H5.69231C3.23889 17.0577 1.25 15.0688 1.25 12.6154C1.25 10.8688 2.25763 9.35901 3.72187 8.63313C3.71501 8.52546 3.71154 8.41694 3.71154 8.30769ZM10 7.55769C10.4142 7.55769 10.75 7.89348 10.75 8.30769V12.0355L11.9312 10.8543C12.2241 10.5614 12.699 10.5614 12.9919 10.8543C13.2848 11.1472 13.2848 11.6221 12.9919 11.9149L10.5303 14.3765C10.2374 14.6694 9.76256 14.6694 9.46967 14.3765L7.00813 11.9149C6.71524 11.6221 6.71524 11.1472 7.00813 10.8543C7.30102 10.5614 7.7759 10.5614 8.06879 10.8543L9.25 12.0355V8.30769C9.25 7.89348 9.58579 7.55769 10 7.55769Z" fill="inherit"/>
</svg>
