<svg viewBox="0 0 20 20" xmlns="http://www.w3.org/2000/svg">
<path fill-rule="evenodd" clip-rule="evenodd" d="M8.76923 4.75C6.80437 4.75 5.21154 6.34283 5.21154 8.30769C5.21154 8.53443 5.23265 8.75555 5.27282 8.96939C5.34221 9.3388 5.12744 9.70252 4.77046 9.82016C3.59609 10.2072 2.75 11.3135 2.75 12.6154C2.75 14.2404 4.06732 15.5577 5.69231 15.5577H14.9231C16.2082 15.5577 17.25 14.5159 17.25 13.2308C17.25 12.2378 16.6277 11.3884 15.7493 11.0546C15.3691 10.9101 15.1734 10.489 15.308 10.1052C15.3699 9.92883 15.4038 9.73842 15.4038 9.53846C15.4038 8.5932 14.6376 7.82692 13.6923 7.82692C13.5066 7.82692 13.3292 7.85624 13.1636 7.90993C12.9678 7.97344 12.7545 7.95366 12.5737 7.85524C12.3929 7.75681 12.2605 7.5884 12.2075 7.38946C11.8027 5.86914 10.4157 4.75 8.76923 4.75ZM3.71154 8.30769C3.71154 5.51441 5.97594 3.25 8.76923 3.25C10.8644 3.25 12.6606 4.52343 13.4286 6.33763C13.5157 6.33054 13.6036 6.32692 13.6923 6.32692C15.466 6.32692 16.9038 7.76478 16.9038 9.53846C16.9038 9.67454 16.8953 9.80886 16.8788 9.94085C17.9986 10.6079 18.75 11.8309 18.75 13.2308C18.75 15.3443 17.0366 17.0577 14.9231 17.0577H5.69231C3.23889 17.0577 1.25 15.0688 1.25 12.6154C1.25 10.8688 2.25763 9.35901 3.72187 8.63313C3.71501 8.52546 3.71154 8.41694 3.71154 8.30769ZM9.46967 7.77736C9.76256 7.48447 10.2374 7.48447 10.5303 7.77736L12.9919 10.2389C13.2848 10.5318 13.2848 11.0067 12.9919 11.2996C12.699 11.5925 12.2241 11.5925 11.9312 11.2996L10.75 10.1184L10.75 13.8462C10.75 14.2604 10.4142 14.5962 10 14.5962C9.58579 14.5962 9.25 14.2604 9.25 13.8462L9.25 10.1184L8.06879 11.2996C7.7759 11.5925 7.30102 11.5925 7.00813 11.2996C6.71524 11.0067 6.71524 10.5318 7.00813 10.2389L9.46967 7.77736Z" fill="inherit"/>
</svg>
