<svg viewBox="0 0 20 20" xmlns="http://www.w3.org/2000/svg">
<path fill-rule="evenodd" clip-rule="evenodd" d="M9.22222 5.30554C7.48866 5.30554 6.08333 6.71087 6.08333 8.44443C6.08333 8.68205 6.1096 8.91265 6.15911 9.13379C6.24956 9.53787 5.99541 9.9388 5.59137 10.0294C4.53719 10.2659 3.75 11.2086 3.75 12.3333C3.75 13.6373 4.80711 14.6944 6.11111 14.6944H13.1111C14.8447 14.6944 16.25 13.2891 16.25 11.5555C16.25 9.82198 14.8447 8.41665 13.1111 8.41665C13.0901 8.41665 13.0691 8.41686 13.0482 8.41727C12.6859 8.42436 12.3704 8.17152 12.2984 7.81647C12.0079 6.38374 10.7401 5.30554 9.22222 5.30554ZM4.58333 8.44443C4.58333 5.88244 6.66023 3.80554 9.22222 3.80554C11.2594 3.80554 12.9887 5.11815 13.6127 6.94346C15.9388 7.19353 17.75 9.16302 17.75 11.5555C17.75 14.1175 15.6731 16.1944 13.1111 16.1944H6.11111C3.97868 16.1944 2.25 14.4658 2.25 12.3333C2.25 10.7383 3.21654 9.37046 4.59541 8.78131C4.5874 8.66997 4.58333 8.55763 4.58333 8.44443Z" fill="inherit"/>
</svg>
