<svg viewBox="0 0 20 20" xmlns="http://www.w3.org/2000/svg">
<path fill-rule="evenodd" clip-rule="evenodd" d="M11.9116 3.27643C12.3112 3.38541 12.5468 3.79772 12.4379 4.19734L9.00929 16.7688C8.9003 17.1684 8.48799 17.404 8.08838 17.295C7.68876 17.186 7.45316 16.7737 7.56214 16.3741L10.9907 3.80266C11.0997 3.40304 11.512 3.16744 11.9116 3.27643ZM13.4697 5.75538C13.7626 5.46249 14.2374 5.46249 14.5303 5.75538L18.5303 9.75538C18.671 9.89604 18.75 10.0868 18.75 10.2857C18.75 10.4846 18.671 10.6754 18.5303 10.816L14.5303 14.816C14.2374 15.1089 13.7626 15.1089 13.4697 14.816C13.1768 14.5232 13.1768 14.0483 13.4697 13.7554L16.9393 10.2857L13.4697 6.81604C13.1768 6.52315 13.1768 6.04828 13.4697 5.75538ZM6.53033 5.75538C6.82322 6.04828 6.82322 6.52315 6.53033 6.81604L3.06066 10.2857L6.53033 13.7554C6.82322 14.0483 6.82322 14.5232 6.53033 14.816C6.23744 15.1089 5.76256 15.1089 5.46967 14.816L1.46967 10.816C1.32902 10.6754 1.25 10.4846 1.25 10.2857C1.25 10.0868 1.32902 9.89604 1.46967 9.75538L5.46967 5.75538C5.76256 5.46249 6.23744 5.46249 6.53033 5.75538Z" fill="inherit"/>
</svg>
