<svg viewBox="0 0 20 20" xmlns="http://www.w3.org/2000/svg">
<path fill-rule="evenodd" clip-rule="evenodd" d="M2.375 5C2.375 3.55025 3.55025 2.375 5 2.375H15C16.4497 2.375 17.625 3.55025 17.625 5V15C17.625 16.4497 16.4497 17.625 15 17.625H5C3.55025 17.625 2.375 16.4497 2.375 15V5ZM5 3.875C4.37868 3.875 3.875 4.37868 3.875 5V15C3.875 15.6213 4.37868 16.125 5 16.125H15C15.6213 16.125 16.125 15.6213 16.125 15V5C16.125 4.37868 15.6213 3.875 15 3.875H5ZM11.3447 7.59467C11.6376 7.30178 12.1124 7.30178 12.4053 7.59467L14.2803 9.46967C14.421 9.61032 14.5 9.80109 14.5 10C14.5 10.1989 14.421 10.3897 14.2803 10.5303L12.4053 12.4053C12.1124 12.6982 11.6376 12.6982 11.3447 12.4053C11.0518 12.1124 11.0518 11.6376 11.3447 11.3447L12.6893 10L11.3447 8.65533C11.0518 8.36244 11.0518 7.88756 11.3447 7.59467ZM8.65533 7.59467C8.94822 7.88756 8.94822 8.36244 8.65533 8.65533L7.31066 10L8.65533 11.3447C8.94822 11.6376 8.94822 12.1124 8.65533 12.4053C8.36244 12.6982 7.88756 12.6982 7.59467 12.4053L5.71967 10.5303C5.57902 10.3897 5.5 10.1989 5.5 10C5.5 9.80109 5.57902 9.61032 5.71967 9.46967L7.59467 7.59467C7.88756 7.30178 8.36244 7.30178 8.65533 7.59467Z" fill="inherit"/>
</svg>
