<svg viewBox="0 0 20 20" xmlns="http://www.w3.org/2000/svg">
<path fill-rule="evenodd" clip-rule="evenodd" d="M7.87915 3.16008C8.01477 2.34638 8.71878 1.75 9.54369 1.75H10.4553C11.2802 1.75 11.9843 2.34638 12.1199 3.16008L12.244 3.90492C12.2532 3.96005 12.3067 4.05368 12.4425 4.1101C12.5734 4.16444 12.6734 4.13808 12.7223 4.10318L13.3369 3.66415C14.0082 3.18467 14.9277 3.26077 15.511 3.84408L16.1556 4.4887C16.7389 5.07201 16.815 5.99152 16.3356 6.66278L15.8964 7.27765C15.8615 7.32645 15.8352 7.42633 15.8895 7.55712C15.9459 7.6929 16.0394 7.7463 16.0945 7.75548L16.8394 7.87964C17.6531 8.01526 18.2495 8.71927 18.2495 9.54418V10.4558C18.2495 11.2807 17.6531 11.9847 16.8394 12.1204L16.0946 12.2445C16.0395 12.2537 15.9458 12.3071 15.8894 12.443C15.8351 12.5739 15.8614 12.6739 15.8963 12.7227L16.3353 13.3373C16.8148 14.0085 16.7387 14.928 16.1554 15.5114L15.5107 16.156C14.9274 16.7393 14.0079 16.8154 13.3367 16.3359L12.722 15.8969C12.6732 15.862 12.5732 15.8356 12.4424 15.8899C12.3066 15.9463 12.2532 16.0399 12.244 16.095L12.1199 16.8399C11.9843 17.6536 11.2802 18.25 10.4553 18.25H9.54369C8.71878 18.25 8.01477 17.6536 7.87915 16.8399L7.75501 16.0951C7.74582 16.0399 7.69236 15.9463 7.55649 15.8899C7.42562 15.8356 7.32564 15.8619 7.27677 15.8968L6.66209 16.3359C5.99083 16.8154 5.07131 16.7393 4.48801 16.156L3.84338 15.5113C3.26008 14.928 3.18398 14.0085 3.66345 13.3372L4.10264 12.7224C4.1375 12.6736 4.16385 12.5737 4.10955 12.4429C4.05317 12.3071 3.95962 12.2537 3.90456 12.2445L3.15959 12.1204C2.3459 11.9847 1.74951 11.2807 1.74951 10.4558V9.54418C1.74951 8.71927 2.3459 8.01526 3.15959 7.87964L3.90443 7.7555C3.95956 7.74631 4.05319 7.69285 4.10961 7.55696C4.16395 7.42607 4.1376 7.32608 4.10269 7.27721L3.66378 6.66273C3.18431 5.99147 3.26041 5.07195 3.84371 4.48865L4.48833 3.84402C5.07164 3.26072 5.99116 3.18462 6.66242 3.66409L7.27708 4.10314C7.32589 4.138 7.4258 4.16435 7.5566 4.11005C7.6924 4.05366 7.74582 3.9601 7.75499 3.90503L7.87915 3.16008ZM9.54369 3.25C9.45204 3.25 9.37381 3.31627 9.35875 3.40668L9.23459 4.15163C9.12593 4.80355 8.6579 5.27695 8.13176 5.49539C7.60035 5.71602 6.93987 5.70563 6.40522 5.32374L5.79056 4.88469C5.71598 4.83142 5.61381 4.83987 5.549 4.90468L4.90437 5.54931C4.83956 5.61412 4.8311 5.71629 4.88438 5.79087L5.32329 6.40535C5.70524 6.94008 5.71561 7.60067 5.49495 8.13215C5.27647 8.65834 4.80301 9.12643 4.15103 9.23509L3.40619 9.35923C3.31578 9.3743 3.24951 9.45252 3.24951 9.54418V10.4558C3.24951 10.5475 3.31578 10.6257 3.40619 10.6408L4.15116 10.7649C4.80306 10.8736 5.27647 11.3416 5.4949 11.8677C5.71552 12.3991 5.70512 13.0596 5.32324 13.5942L4.88405 14.2091C4.83078 14.2837 4.83923 14.3859 4.90404 14.4507L5.54867 15.0953C5.61348 15.1601 5.71565 15.1686 5.79023 15.1153L6.40492 14.6762C6.93963 14.2943 7.60021 14.2839 8.13168 14.5046C8.65786 14.723 9.12594 15.1965 9.2346 15.8485L9.35875 16.5933C9.37381 16.6837 9.45204 16.75 9.54369 16.75H10.4553C10.547 16.75 10.6252 16.6837 10.6403 16.5933L10.7644 15.8484C10.8731 15.1965 11.3411 14.723 11.8673 14.5046C12.3987 14.284 13.0592 14.2944 13.5938 14.6763L14.2085 15.1153C14.2831 15.1686 14.3853 15.1601 14.4501 15.0953L15.0947 14.4507C15.1595 14.3859 15.168 14.2837 15.1147 14.2091L14.6757 13.5946C14.2938 13.0599 14.2834 12.3993 14.5041 11.8678C14.7226 11.3416 15.196 10.8736 15.848 10.7649L16.5928 10.6408C16.6832 10.6257 16.7495 10.5475 16.7495 10.4558V9.54418C16.7495 9.45252 16.6832 9.3743 16.5928 9.35923L15.8479 9.23507C15.196 9.12642 14.7226 8.6584 14.5041 8.13227C14.2835 7.60088 14.2939 6.94042 14.6758 6.40579L15.115 5.79093C15.1682 5.71634 15.1598 5.61417 15.095 5.54936L14.4504 4.90474C14.3855 4.83993 14.2834 4.83147 14.2088 4.88475L13.5941 5.32378C13.0594 5.70572 12.3988 5.7161 11.8674 5.49543C11.3412 5.27696 10.8731 4.8035 10.7644 4.15152L10.6403 3.40667C10.6252 3.31627 10.547 3.25 10.4553 3.25H9.54369ZM10.0001 8.25002C9.0336 8.25002 8.25009 9.03352 8.25009 10C8.25009 10.9665 9.0336 11.75 10.0001 11.75C10.9666 11.75 11.7501 10.9665 11.7501 10C11.7501 9.03352 10.9666 8.25002 10.0001 8.25002ZM6.75009 10C6.75009 8.20509 8.20517 6.75002 10.0001 6.75002C11.795 6.75002 13.2501 8.20509 13.2501 10C13.2501 11.7949 11.795 13.25 10.0001 13.25C8.20517 13.25 6.75009 11.7949 6.75009 10Z" fill="inherit"/>
</svg>
