<svg viewBox="0 0 20 20" xmlns="http://www.w3.org/2000/svg">
<path fill-rule="evenodd" clip-rule="evenodd" d="M7.25483 3.16014C7.39045 2.34645 8.09446 1.75006 8.91937 1.75006H11.081C11.9059 1.75006 12.6099 2.34645 12.7456 3.16014L12.9235 4.22768C12.932 4.27883 12.9744 4.35873 13.0836 4.41918C13.1537 4.45797 13.223 4.49803 13.2914 4.53934C13.3981 4.60381 13.4885 4.60066 13.5372 4.58244L14.5512 4.20254C15.3237 3.91314 16.1922 4.22464 16.6047 4.93904L17.6855 6.81107C18.0979 7.52547 17.9335 8.43335 17.2966 8.95764L16.4596 9.64666C16.4195 9.67971 16.3718 9.75616 16.3741 9.87995C16.3748 9.9199 16.3752 9.95994 16.3752 10.0001C16.3752 10.0402 16.3748 10.0802 16.3741 10.1202C16.3718 10.2439 16.4195 10.3204 16.4596 10.3535L17.2966 11.0425C17.9335 11.5668 18.0979 12.4746 17.6855 13.189L16.6047 15.0611C16.1922 15.7755 15.3237 16.087 14.5512 15.7976L13.5372 15.4177C13.4886 15.3995 13.3981 15.3963 13.2914 15.4608C13.223 15.5021 13.1537 15.5422 13.0836 15.5809C12.9744 15.6414 12.932 15.7213 12.9235 15.7724L12.7456 16.84C12.6099 17.6537 11.9059 18.2501 11.081 18.2501H8.91937C8.09446 18.2501 7.39045 17.6537 7.25483 16.84L7.07691 15.7724C7.06838 15.7213 7.02597 15.6414 6.91675 15.5809C6.84668 15.5422 6.77743 15.5021 6.70901 15.4608C6.60225 15.3963 6.51184 15.3995 6.46321 15.4177L5.44915 15.7976C4.67667 16.087 3.80818 15.7755 3.39572 15.0611L2.3149 13.1891C1.90244 12.4747 2.06692 11.5668 2.70379 11.0425L3.54075 10.3535C3.5809 10.3204 3.6286 10.244 3.6263 10.1202C3.62556 10.0802 3.62519 10.0402 3.62519 10.0001C3.62519 9.95995 3.62556 9.91991 3.6263 9.87996C3.62859 9.75618 3.5809 9.67972 3.54075 9.64667L2.70379 8.95766C2.06692 8.43336 1.90244 7.52548 2.3149 6.81108L3.39572 4.93905C3.80818 4.22465 4.67667 3.91316 5.44915 4.20256L6.4632 4.58245C6.51183 4.60067 6.60224 4.60382 6.709 4.53935C6.77742 4.49804 6.84668 4.45797 6.91675 4.41918C7.02597 4.35873 7.06838 4.27883 7.07691 4.22768L7.25483 3.16014ZM8.91937 3.25006C8.82772 3.25006 8.74949 3.31633 8.73442 3.40674L8.5565 4.47428C8.46112 5.04653 8.08692 5.48592 7.64319 5.73154C7.58963 5.76119 7.53669 5.79182 7.48437 5.8234C7.04941 6.08605 6.48094 6.19091 5.93696 5.98711L4.92292 5.60722C4.83709 5.57506 4.74059 5.60967 4.69476 5.68905L3.61394 7.56108C3.56811 7.64046 3.58639 7.74134 3.65715 7.79959L4.49411 8.4886C4.94147 8.85689 5.13544 9.40017 5.12605 9.90773C5.12548 9.93843 5.12519 9.96921 5.12519 10.0001C5.12519 10.0309 5.12548 10.0617 5.12605 10.0924C5.13545 10.6 4.94147 11.1432 4.49411 11.5115L3.65715 12.2005C3.58639 12.2588 3.56811 12.3597 3.61394 12.4391L4.69476 14.3111C4.74059 14.3905 4.83709 14.4251 4.92292 14.3929L5.93697 14.013C6.48095 13.8092 7.04943 13.9141 7.48438 14.1767C7.53669 14.2083 7.58964 14.2389 7.64319 14.2686C8.08692 14.5142 8.46112 14.9536 8.5565 15.5258L8.73442 16.5934C8.74949 16.6838 8.82772 16.7501 8.91937 16.7501H11.081C11.1727 16.7501 11.2509 16.6838 11.266 16.5934L11.4439 15.5258C11.5393 14.9536 11.9135 14.5142 12.3572 14.2686C12.4107 14.2389 12.4637 14.2083 12.516 14.1767C12.951 13.9141 13.5194 13.8092 14.0634 14.013L15.0775 14.3929C15.1633 14.4251 15.2598 14.3904 15.3056 14.3111L16.3864 12.439C16.4323 12.3597 16.414 12.2588 16.3432 12.2005L15.5063 11.5115C15.0589 11.1432 14.8649 10.6 14.8743 10.0924C14.8749 10.0617 14.8752 10.0309 14.8752 10.0001C14.8752 9.96921 14.8749 9.93843 14.8743 9.90772C14.8649 9.40016 15.0589 8.85687 15.5063 8.48859L16.3432 7.79958C16.414 7.74132 16.4323 7.64045 16.3864 7.56107L15.3056 5.68904C15.2598 5.60966 15.1633 5.57505 15.0775 5.60721L14.0634 5.98711C13.5194 6.1909 12.951 6.08605 12.516 5.8234C12.4637 5.79181 12.4107 5.76118 12.3572 5.73154C11.9135 5.48592 11.5393 5.04653 11.4439 4.47428L11.266 3.40674C11.2509 3.31633 11.1727 3.25006 11.081 3.25006H8.91937ZM10 8.24999C9.0335 8.24999 8.25 9.0335 8.25 9.99999C8.25 10.9665 9.0335 11.75 10 11.75C10.9665 11.75 11.75 10.9665 11.75 9.99999C11.75 9.0335 10.9665 8.24999 10 8.24999ZM6.75 9.99999C6.75 8.20507 8.20507 6.74999 10 6.74999C11.7949 6.74999 13.25 8.20507 13.25 9.99999C13.25 11.7949 11.7949 13.25 10 13.25C8.20507 13.25 6.75 11.7949 6.75 9.99999Z" fill="inherit"/>
</svg>
