<svg viewBox="0 0 20 20" xmlns="http://www.w3.org/2000/svg">
<path fill-rule="evenodd" clip-rule="evenodd" d="M18.2506 9.99934C18.2506 10.4136 17.9148 10.7493 17.5006 10.7493L16.9609 10.7493C16.9273 11.0648 16.8727 11.3741 16.7986 11.6756L17.3049 11.8599C17.6941 12.0015 17.8948 12.4319 17.7531 12.8211C17.6114 13.2104 17.1811 13.4111 16.7918 13.2694L16.2855 13.0851C16.1465 13.3676 15.9891 13.6394 15.8147 13.8989L16.2281 14.2457C16.5454 14.512 16.5867 14.985 16.3205 15.3023C16.0542 15.6196 15.5812 15.661 15.2639 15.3948L14.85 15.0475C14.624 15.2646 14.3835 15.4667 14.13 15.6522L14.4001 16.12C14.6072 16.4788 14.4843 16.9375 14.1256 17.1446C13.7668 17.3517 13.3082 17.2288 13.101 16.8701L12.8316 16.4033C12.5465 16.5295 12.2514 16.6372 11.9479 16.7249L12.0415 17.2558C12.1134 17.6637 11.8411 18.0527 11.4331 18.1247C11.0252 18.1966 10.6362 17.9242 10.5643 17.5163L10.4704 16.9838C10.3151 16.9941 10.1585 16.9993 10.0006 16.9993C9.84268 16.9993 9.68598 16.9941 9.53066 16.9838L9.43678 17.5162C9.36485 17.9242 8.97586 18.1965 8.56794 18.1246C8.16002 18.0527 7.88764 17.6637 7.95957 17.2558L8.05318 16.7249C7.74967 16.6372 7.45465 16.5294 7.16963 16.4033L6.90005 16.8702C6.69294 17.2289 6.23425 17.3518 5.87553 17.1447C5.51681 16.9376 5.3939 16.4789 5.60101 16.1202L5.8712 15.6522C5.61783 15.4668 5.37739 15.2648 5.15149 15.0477L4.73726 15.3953C4.41995 15.6615 3.94689 15.6202 3.68064 15.3029C3.41438 14.9856 3.45577 14.5125 3.77308 14.2462L4.1867 13.8992C4.01222 13.6396 3.85467 13.3676 3.71563 13.085L3.20926 13.2693C2.82003 13.4109 2.38964 13.2102 2.24797 12.821C2.1063 12.4318 2.307 12.0014 2.69623 11.8597L3.20255 11.6754C3.12847 11.3739 3.07392 11.0648 3.04032 10.7493L2.50061 10.7493C2.0864 10.7493 1.75061 10.4136 1.75061 9.99934C1.75061 9.58513 2.0864 9.24934 2.50061 9.24934L3.04032 9.24934C3.07391 8.93393 3.12846 8.62477 3.20254 8.3233L2.69644 8.13909C2.3072 7.99742 2.10651 7.56704 2.24818 7.17781C2.38985 6.78857 2.82023 6.58788 3.20947 6.72955L3.71561 6.91377C3.85461 6.63118 4.01211 6.35932 4.18653 6.09979L3.7732 5.75297C3.4559 5.48672 3.41451 5.01365 3.68076 4.69634C3.94701 4.37904 4.42008 4.33765 4.73739 4.6039L5.15126 4.95118C5.3771 4.73418 5.61747 4.53219 5.87077 4.34681L5.60106 3.87969C5.39394 3.52098 5.51683 3.06228 5.87554 2.85516C6.23425 2.64804 6.69295 2.77093 6.90007 3.12964L7.16914 3.59564C7.45425 3.4694 7.74936 3.36163 8.05297 3.27386L7.95957 2.74416C7.88764 2.33624 8.16002 1.94725 8.56794 1.87532C8.97586 1.8034 9.36486 2.07577 9.43678 2.48369L9.53045 3.01488C9.68583 3.00458 9.84261 2.99934 10.0006 2.99934C10.1586 2.99934 10.3153 3.00457 10.4706 3.01487L10.5643 2.48366C10.6362 2.07574 11.0252 1.80336 11.4331 1.87529C11.8411 1.94722 12.1134 2.33621 12.0415 2.74413L11.9481 3.27382C12.2518 3.36159 12.5469 3.46937 12.8321 3.59564L13.101 3.1298C13.3081 2.77108 13.7668 2.64817 14.1255 2.85528C14.4842 3.06238 14.6072 3.52108 14.4 3.8798L14.1304 4.34679C14.3838 4.53224 14.6243 4.73432 14.8502 4.95142L15.2637 4.60442C15.5811 4.33817 16.0541 4.37956 16.3204 4.69686C16.5866 5.01417 16.5452 5.48723 16.2279 5.75349L15.8149 6.10007C15.9892 6.35947 16.1466 6.63118 16.2855 6.91362L16.7916 6.72942C17.1809 6.58775 17.6112 6.78844 17.7529 7.17768C17.8946 7.56691 17.6939 7.99729 17.3046 8.13896L16.7986 8.32313C16.8727 8.62466 16.9273 8.93387 16.9609 9.24934L17.5006 9.24934C17.9148 9.24934 18.2506 9.58513 18.2506 9.99934ZM15.4499 9.24934C15.3987 8.8735 15.3094 8.50973 15.1862 8.16204C15.18 8.14772 15.1742 8.13311 15.1687 8.11823C15.1633 8.10339 15.1584 8.08848 15.154 8.07354C14.9362 7.4908 14.6223 6.95491 14.2317 6.48511C14.2256 6.47839 14.2196 6.47152 14.2137 6.46453C14.208 6.45769 14.2024 6.45078 14.197 6.4438C13.7987 5.97421 13.323 5.57235 12.7896 5.25792C12.7765 5.25132 12.7634 5.2443 12.7505 5.23685C12.7372 5.22918 12.7243 5.22116 12.7116 5.21281C12.1889 4.91609 11.6127 4.70254 11.0012 4.59014C10.986 4.5884 10.9708 4.5862 10.9556 4.58351C10.9409 4.58092 10.9264 4.57791 10.912 4.5745C10.6156 4.52507 10.3111 4.49934 10.0006 4.49934C9.69013 4.49934 9.38566 4.52507 9.08921 4.57451C9.07481 4.57792 9.06023 4.58094 9.04547 4.58354C9.03021 4.58624 9.01497 4.58845 8.99977 4.59018C8.62696 4.65872 8.2673 4.76486 7.92488 4.90451L10.4336 9.24934L15.4499 9.24934ZM9.13457 9.99936L6.62648 5.65561C6.32256 5.89202 6.04411 6.15964 5.79594 6.45363C5.79312 6.45711 5.79027 6.46057 5.78738 6.46401C5.78435 6.46763 5.78128 6.47121 5.77819 6.47476C5.38327 6.94737 5.06621 7.48728 4.84673 8.07479C4.8424 8.08936 4.8376 8.10389 4.83234 8.11836C4.82706 8.13286 4.82138 8.14709 4.81532 8.16105C4.61153 8.73588 4.50061 9.35466 4.50061 9.99934C4.50061 10.6453 4.61197 11.2653 4.81655 11.8411C4.82207 11.854 4.82727 11.8671 4.83213 11.8805C4.83698 11.8938 4.84143 11.9071 4.84548 11.9206C5.20519 12.8854 5.828 13.722 6.62665 14.3432L9.13457 9.99936ZM7.92508 15.0943L10.4336 10.7493L15.4499 10.7493C15.3985 11.1264 15.3089 11.4913 15.1851 11.84C15.1793 11.8533 15.174 11.8668 15.169 11.8806C15.164 11.8943 15.1594 11.9081 15.1552 11.9219C14.9356 12.5106 14.6179 13.0516 14.2221 13.525C14.2194 13.5282 14.2166 13.5314 14.2139 13.5347C14.2113 13.5378 14.2087 13.5408 14.2062 13.5439C13.8018 14.0233 13.317 14.4325 12.7725 14.7508C12.7651 14.7547 12.7578 14.7588 12.7506 14.763C12.7429 14.7674 12.7354 14.7719 12.728 14.7765C12.1938 15.0822 11.6033 15.3008 10.976 15.4131C10.9692 15.4141 10.9624 15.4152 10.9556 15.4164C10.9493 15.4175 10.9431 15.4187 10.9369 15.42C10.6326 15.4722 10.3198 15.4993 10.0006 15.4993C9.68148 15.4993 9.36871 15.4722 9.06447 15.42C9.05817 15.4187 9.05183 15.4175 9.04547 15.4164C9.03858 15.4152 9.0317 15.4141 9.02482 15.413C8.64314 15.3447 8.27511 15.237 7.92508 15.0943Z" fill="inherit"/>
</svg>
