<svg viewBox="0 0 20 20" xmlns="http://www.w3.org/2000/svg">
<path fill-rule="evenodd" clip-rule="evenodd" d="M4.25 5C4.25 3.55025 5.42525 2.375 6.875 2.375H13.125C14.5747 2.375 15.75 3.55025 15.75 5V5.26372C16.4995 5.72546 17 6.55362 17 7.5V7.76372C17.7495 8.22546 18.25 9.05362 18.25 10V15C18.25 16.4497 17.0747 17.625 15.625 17.625H4.375C2.92525 17.625 1.75 16.4497 1.75 15V10C1.75 9.05362 2.25053 8.22546 3 7.76372V7.5C3 6.55362 3.50053 5.72546 4.25 5.26372V5ZM5.75687 4.875H14.2431C14.181 4.31251 13.7041 3.875 13.125 3.875H6.875C6.29593 3.875 5.81905 4.31251 5.75687 4.875ZM4.50687 7.375H15.4931C15.4451 6.94109 15.1502 6.58024 14.7501 6.43882C14.6337 6.3977 14.5078 6.375 14.375 6.375H5.625C5.49217 6.375 5.36626 6.3977 5.24993 6.43882C4.84983 6.58024 4.55487 6.94109 4.50687 7.375ZM4.375 8.875C4.24217 8.875 4.11626 8.8977 3.99993 8.93882C3.56198 9.09362 3.25 9.51134 3.25 10V15C3.25 15.6213 3.75368 16.125 4.375 16.125H15.625C16.2463 16.125 16.75 15.6213 16.75 15V10C16.75 9.51134 16.438 9.09362 16.0001 8.93882C15.8837 8.8977 15.7578 8.875 15.625 8.875H4.375Z" fill="inherit"/>
</svg>
