<svg viewBox="0 0 20 20" xmlns="http://www.w3.org/2000/svg">
<path fill-rule="evenodd" clip-rule="evenodd" d="M1.75 3.4375C1.75 2.50552 2.50552 1.75 3.4375 1.75H7.8125C8.74448 1.75 9.5 2.50552 9.5 3.4375V5.01992L10.6189 3.90098C11.278 3.24197 12.3464 3.24197 13.0054 3.90098L16.099 6.99457C16.758 7.65358 16.758 8.72205 16.099 9.38106L14.9801 10.5H16.5625C17.4945 10.5 18.25 11.2555 18.25 12.1875V16.5625C18.25 17.4945 17.4945 18.25 16.5625 18.25H5.625C5.62306 18.25 5.62113 18.25 5.61919 18.25C4.55787 18.2484 3.59658 17.8202 2.89764 17.1277C2.18896 16.4254 1.75 15.4515 1.75 14.375V3.4375ZM3.95339 16.0621C3.9508 16.0595 3.94821 16.057 3.94562 16.0544C3.51583 15.6246 3.25 15.0308 3.25 14.375V3.4375C3.25 3.33395 3.33395 3.25 3.4375 3.25H7.8125C7.91605 3.25 8 3.33395 8 3.4375V14.375C8 15.3646 7.39469 16.2129 6.53411 16.5698C5.95337 16.8101 5.29663 16.8101 4.71589 16.5698C4.42904 16.4508 4.17056 16.2773 3.95339 16.0621ZM8.73008 16.75H16.5625C16.6661 16.75 16.75 16.6661 16.75 16.5625V12.1875C16.75 12.0839 16.6661 12 16.5625 12H13.4801L8.73008 16.75ZM9.5 13.8588L15.0384 8.3204C15.1116 8.24717 15.1116 8.12846 15.0384 8.05523L11.9448 4.96164C11.8715 4.88842 11.7528 4.88842 11.6796 4.96164L9.5 7.14124V13.8588ZM4.875 14.375C4.875 13.9608 5.21079 13.625 5.625 13.625H5.63125C6.04546 13.625 6.38125 13.9608 6.38125 14.375V14.3813C6.38125 14.7955 6.04546 15.1313 5.63125 15.1313H5.625C5.21079 15.1313 4.875 14.7955 4.875 14.3813V14.375Z" fill="inherit"/>
</svg>
