<svg viewBox="0 0 20 20" xmlns="http://www.w3.org/2000/svg">
<path fill-rule="evenodd" clip-rule="evenodd" d="M1.25 6.66667C1.25 4.77969 2.77969 3.25 4.66667 3.25H15.3333C17.2203 3.25 18.75 4.77969 18.75 6.66667V13.7778C18.75 15.6648 17.2203 17.1944 15.3333 17.1944H4.66667C2.77969 17.1944 1.25 15.6648 1.25 13.7778V6.66667ZM2.75 9.19444V13.7778C2.75 14.8363 3.60812 15.6944 4.66667 15.6944H15.3333C16.3919 15.6944 17.25 14.8363 17.25 13.7778V9.19444H2.75ZM17.25 7.69444H2.75V6.66667C2.75 5.60812 3.60812 4.75 4.66667 4.75H15.3333C16.3919 4.75 17.25 5.60812 17.25 6.66667V7.69444ZM4.80556 12.8889C4.80556 12.4747 5.14134 12.1389 5.55556 12.1389H6.44444C6.85866 12.1389 7.19444 12.4747 7.19444 12.8889C7.19444 13.3031 6.85866 13.6389 6.44444 13.6389H5.55556C5.14134 13.6389 4.80556 13.3031 4.80556 12.8889ZM9.25 12.8889C9.25 12.4747 9.58579 12.1389 10 12.1389H10.8889C11.3031 12.1389 11.6389 12.4747 11.6389 12.8889C11.6389 13.3031 11.3031 13.6389 10.8889 13.6389H10C9.58579 13.6389 9.25 13.3031 9.25 12.8889Z" fill="inherit"/>
</svg>
