<svg viewBox="0 0 20 20" xmlns="http://www.w3.org/2000/svg">
<path fill-rule="evenodd" clip-rule="evenodd" d="M1.125 5.625C1.125 4.17525 2.30025 3 3.75 3H16.25C17.6997 3 18.875 4.17525 18.875 5.625V14.375C18.875 15.8247 17.6997 17 16.25 17H3.75C2.30025 17 1.125 15.8247 1.125 14.375V5.625ZM2.625 8.25V14.375C2.625 14.9963 3.12868 15.5 3.75 15.5H16.25C16.8713 15.5 17.375 14.9963 17.375 14.375V8.25H2.625ZM17.375 6.125H2.625V5.625C2.625 5.00368 3.12868 4.5 3.75 4.5H16.25C16.8713 4.5 17.375 5.00368 17.375 5.625V6.125ZM3.625 11.875C3.625 11.4608 3.96079 11.125 4.375 11.125H9.375C9.78921 11.125 10.125 11.4608 10.125 11.875C10.125 12.2892 9.78921 12.625 9.375 12.625H4.375C3.96079 12.625 3.625 12.2892 3.625 11.875ZM3.625 13.75C3.625 13.3358 3.96079 13 4.375 13H6.875C7.28921 13 7.625 13.3358 7.625 13.75C7.625 14.1642 7.28921 14.5 6.875 14.5H4.375C3.96079 14.5 3.625 14.1642 3.625 13.75Z" fill="inherit"/>
</svg>
