<svg viewBox="0 0 20 20" xmlns="http://www.w3.org/2000/svg">
<path fill-rule="evenodd" clip-rule="evenodd" d="M9.6221 1.22717C9.85562 1.09094 10.1444 1.09094 10.3779 1.22717L12.2529 2.32092C12.6107 2.52963 12.7315 2.98886 12.5228 3.34665C12.3141 3.70444 11.8549 3.82529 11.4971 3.61658L10 2.74328L8.5029 3.61658C8.14511 3.82529 7.68588 3.70444 7.47717 3.34665C7.26846 2.98886 7.38931 2.52963 7.7471 2.32092L9.6221 1.22717ZM5.02283 4.77835C5.23154 5.13614 5.11069 5.59537 4.7529 5.80408L3.98848 6.25L4.7529 6.69592C5.11069 6.90463 5.23154 7.36386 5.02283 7.72165C4.81412 8.07944 4.35489 8.20029 3.9971 7.99158L3.25 7.55578V8.125C3.25 8.53921 2.91421 8.875 2.5 8.875C2.08579 8.875 1.75 8.53921 1.75 8.125V6.25C1.75 5.98325 1.89168 5.73657 2.1221 5.60217L3.9971 4.50842C4.35489 4.29971 4.81412 4.42056 5.02283 4.77835ZM14.9772 4.77835C15.1859 4.42056 15.6451 4.29971 16.0029 4.50842L17.8779 5.60217C18.1083 5.73657 18.25 5.98325 18.25 6.25V8.125C18.25 8.53921 17.9142 8.875 17.5 8.875C17.0858 8.875 16.75 8.53921 16.75 8.125V7.55578L16.0029 7.99158C15.6451 8.20029 15.1859 8.07944 14.9772 7.72165C14.7685 7.36386 14.8893 6.90463 15.2471 6.69592L16.0115 6.25L15.2471 5.80408C14.8893 5.59537 14.7685 5.13614 14.9772 4.77835ZM7.47717 9.15335C7.68588 8.79556 8.14511 8.67471 8.5029 8.88342L10 9.75672L11.4971 8.88342C11.8549 8.67471 12.3141 8.79556 12.5228 9.15335C12.7315 9.51114 12.6107 9.97037 12.2529 10.1791L10.75 11.0558V12.5C10.75 12.9142 10.4142 13.25 10 13.25C9.58579 13.25 9.25 12.9142 9.25 12.5V11.0558L7.7471 10.1791C7.38931 9.97037 7.26846 9.51114 7.47717 9.15335ZM2.5 11.125C2.91421 11.125 3.25 11.4608 3.25 11.875V13.3192L4.7529 14.1959C5.11069 14.4046 5.23154 14.8639 5.02283 15.2217C4.81412 15.5794 4.35489 15.7003 3.9971 15.4916L2.1221 14.3978C1.89168 14.2634 1.75 14.0168 1.75 13.75V11.875C1.75 11.4608 2.08579 11.125 2.5 11.125ZM17.5 11.125C17.9142 11.125 18.25 11.4608 18.25 11.875V13.75C18.25 14.0168 18.1083 14.2634 17.8779 14.3978L16.0029 15.4916C15.6451 15.7003 15.1859 15.5794 14.9772 15.2217C14.7685 14.8639 14.8893 14.4046 15.2471 14.1959L16.75 13.3192V11.875C16.75 11.4608 17.0858 11.125 17.5 11.125ZM10 15.5C10.4142 15.5 10.75 15.8358 10.75 16.25V16.8192L11.4971 16.3834C11.8549 16.1747 12.3141 16.2956 12.5228 16.6533C12.7315 17.0111 12.6107 17.4704 12.2529 17.6791L10.3779 18.7728C10.1444 18.9091 9.85562 18.9091 9.6221 18.7728L7.7471 17.6791C7.38931 17.4704 7.26846 17.0111 7.47717 16.6533C7.68588 16.2956 8.14511 16.1747 8.5029 16.3834L9.25 16.8192V16.25C9.25 15.8358 9.58579 15.5 10 15.5Z" fill="inherit"/>
</svg>
