<svg viewBox="0 0 20 20" xmlns="http://www.w3.org/2000/svg">
<path fill-rule="evenodd" clip-rule="evenodd" d="M10 2.75C5.99594 2.75 2.75 5.99594 2.75 10C2.75 14.0041 5.99594 17.25 10 17.25C14.0041 17.25 17.25 14.0041 17.25 10C17.25 5.99594 14.0041 2.75 10 2.75ZM1.25 10C1.25 5.16751 5.16751 1.25 10 1.25C14.8325 1.25 18.75 5.16751 18.75 10C18.75 14.8325 14.8325 18.75 10 18.75C5.16751 18.75 1.25 14.8325 1.25 10ZM6.91731 5.37596C7.26195 5.1462 7.72761 5.23933 7.95737 5.58397L10 8.64792L12.0426 5.58397C12.2724 5.23933 12.738 5.1462 13.0827 5.37596C13.4273 5.60573 13.5205 6.07138 13.2907 6.41603L11.4014 9.25H12.6667C13.0809 9.25 13.4167 9.58579 13.4167 10C13.4167 10.4142 13.0809 10.75 12.6667 10.75H10.75V11.9167H12.6667C13.0809 11.9167 13.4167 12.2525 13.4167 12.6667C13.4167 13.0809 13.0809 13.4167 12.6667 13.4167H10.75V14.6667C10.75 15.0809 10.4142 15.4167 10 15.4167C9.58579 15.4167 9.25 15.0809 9.25 14.6667V13.4167H7.33333C6.91912 13.4167 6.58333 13.0809 6.58333 12.6667C6.58333 12.2525 6.91912 11.9167 7.33333 11.9167H9.25V10.75H7.33333C6.91912 10.75 6.58333 10.4142 6.58333 10C6.58333 9.58579 6.91912 9.25 7.33333 9.25H8.59861L6.7093 6.41603C6.47953 6.07138 6.57266 5.60573 6.91731 5.37596Z" fill="inherit"/>
</svg>
