<svg viewBox="0 0 20 20" xmlns="http://www.w3.org/2000/svg">
<path fill-rule="evenodd" clip-rule="evenodd" d="M10 2.75C5.99594 2.75 2.75 5.99594 2.75 10C2.75 14.0041 5.99594 17.25 10 17.25C14.0041 17.25 17.25 14.0041 17.25 10C17.25 5.99594 14.0041 2.75 10 2.75ZM1.25 10C1.25 5.16751 5.16751 1.25 10 1.25C14.8325 1.25 18.75 5.16751 18.75 10C18.75 14.8325 14.8325 18.75 10 18.75C5.16751 18.75 1.25 14.8325 1.25 10ZM10 3.91667C10.4142 3.91667 10.75 4.25245 10.75 4.66667V5.32252C11.2953 5.42949 11.8139 5.65484 12.2466 5.99856L12.6154 6.29153C12.9398 6.54917 12.9938 7.02096 12.7362 7.34529C12.4785 7.66962 12.0067 7.72368 11.6824 7.46603L11.3136 7.17306C11.1485 7.04188 10.9564 6.94121 10.75 6.87104V9.31592C11.3169 9.41684 11.8688 9.63562 12.3357 9.98579C13.0156 10.4958 13.4167 11.2175 13.4167 12C13.4167 12.7825 13.0156 13.5042 12.3357 14.0142C11.8688 14.3644 11.3169 14.5832 10.75 14.6841V15.3333C10.75 15.7475 10.4142 16.0833 10 16.0833C9.58579 16.0833 9.25 15.7475 9.25 15.3333V14.684C8.68313 14.5831 8.13137 14.3643 7.66454 14.0142L6.88332 13.4283C6.55196 13.1797 6.48481 12.7096 6.73334 12.3783C6.98188 12.0469 7.45198 11.9797 7.78334 12.2283L8.56457 12.8142C8.75808 12.9594 8.99208 13.072 9.25 13.1464V10.6775C8.71325 10.5724 8.19297 10.3509 7.75313 10.0015C7.10221 9.48441 6.73224 8.76474 6.73224 8.00002C6.73224 7.23531 7.10221 6.51564 7.75313 5.99856C8.18587 5.65479 8.70457 5.42943 9.25 5.32247V4.66667C9.25 4.25245 9.58579 3.91667 10 3.91667ZM9.25 6.87096C9.04348 6.94113 8.85136 7.04183 8.68615 7.17306C8.35387 7.43703 8.23224 7.74105 8.23224 8.00002C8.23224 8.259 8.35387 8.56302 8.68615 8.82698C8.84777 8.95537 9.03946 9.05734 9.25 9.12897V6.87096ZM10.75 10.8535V13.1465C11.008 13.0721 11.2421 12.9594 11.4356 12.8142C11.797 12.5432 11.9167 12.2411 11.9167 12C11.9167 11.7589 11.797 11.4568 11.4356 11.1858C11.2421 11.0406 11.008 10.9279 10.75 10.8535Z" fill="inherit"/>
</svg>
