<svg viewBox="0 0 20 20" xmlns="http://www.w3.org/2000/svg">
<path fill-rule="evenodd" clip-rule="evenodd" d="M10 2.75C5.99594 2.75 2.75 5.99594 2.75 10C2.75 14.0041 5.99594 17.25 10 17.25C14.0041 17.25 17.25 14.0041 17.25 10C17.25 5.99594 14.0041 2.75 10 2.75ZM1.25 10C1.25 5.16751 5.16751 1.25 10 1.25C14.8325 1.25 18.75 5.16751 18.75 10C18.75 14.8325 14.8325 18.75 10 18.75C5.16751 18.75 1.25 14.8325 1.25 10ZM6.58333 6.66667C6.58333 6.25245 6.91912 5.91667 7.33333 5.91667L12.6667 5.91667C13.0809 5.91667 13.4167 6.25245 13.4167 6.66667C13.4167 7.08088 13.0809 7.41667 12.6667 7.41667H11.4955C11.732 7.76498 11.9058 8.15927 12.0008 8.58333H12.6667C13.0809 8.58333 13.4167 8.91912 13.4167 9.33333C13.4167 9.74755 13.0809 10.0833 12.6667 10.0833H12.0008C11.6908 11.4672 10.5413 12.534 9.11486 12.7209L10.5303 14.1363C10.8232 14.4292 10.8232 14.9041 10.5303 15.197C10.2374 15.4899 9.76256 15.4899 9.46967 15.197L6.803 12.5303C6.5885 12.3158 6.52434 11.9932 6.64042 11.713C6.75651 11.4327 7.02999 11.25 7.33333 11.25H8.66667C9.45906 11.25 10.1391 10.7692 10.431 10.0833H7.33333C6.91912 10.0833 6.58333 9.74755 6.58333 9.33333C6.58333 8.91912 6.91912 8.58333 7.33333 8.58333H10.431C10.1391 7.89751 9.45906 7.41667 8.66667 7.41667C8.66642 7.41667 8.66691 7.41667 8.66667 7.41667L7.33333 7.41667C6.91912 7.41667 6.58333 7.08088 6.58333 6.66667Z" fill="inherit"/>
</svg>
