<svg viewBox="0 0 20 20" xmlns="http://www.w3.org/2000/svg">
<path fill-rule="evenodd" clip-rule="evenodd" d="M10 2.75C5.99594 2.75 2.75 5.99594 2.75 10C2.75 14.0041 5.99594 17.25 10 17.25C14.0041 17.25 17.25 14.0041 17.25 10C17.25 5.99594 14.0041 2.75 10 2.75ZM1.25 10C1.25 5.16751 5.16751 1.25 10 1.25C14.8325 1.25 18.75 5.16751 18.75 10C18.75 14.8325 14.8325 18.75 10 18.75C5.16751 18.75 1.25 14.8325 1.25 10ZM8.64471 6.64479C8.32193 6.96758 8.13896 7.3749 8.09418 7.79558C8.08427 7.88867 8.09145 8.00351 8.11601 8.17541L8.26952 9.25H10C10.4142 9.25 10.75 9.58579 10.75 10C10.75 10.4142 10.4142 10.75 10 10.75H8.48381L8.56576 11.3237C8.63654 11.8192 8.62817 12.3198 8.54358 12.8074C9.08545 12.6449 9.665 12.6533 10.203 12.8326L10.7846 13.0265C11.0991 13.1314 11.4424 13.107 11.7389 12.9587L12.3313 12.6625C12.7017 12.4773 13.1522 12.6274 13.3375 12.9979C13.5227 13.3684 13.3726 13.8189 13.0021 14.0042L12.4097 14.3003C11.7574 14.6265 11.0022 14.6802 10.3102 14.4495L9.72862 14.2557C9.47204 14.1701 9.19463 14.1701 8.93805 14.2557L7.5705 14.7115C7.28272 14.8074 6.9655 14.7206 6.76674 14.4914C6.56799 14.2622 6.52685 13.9359 6.66251 13.6646L6.77038 13.4488C7.06602 12.8576 7.17432 12.1902 7.08083 11.5358L6.96858 10.75H6.66667C6.25245 10.75 5.91667 10.4142 5.91667 10C5.91667 9.58579 6.25245 9.25 6.66667 9.25H6.75429L6.63108 8.38754C6.60209 8.18461 6.57244 7.92023 6.60261 7.63682C6.68236 6.8875 7.01005 6.15813 7.58405 5.58413C8.91834 4.24984 11.0817 4.24984 12.4159 5.58413C12.7088 5.87702 12.7088 6.3519 12.4159 6.64479C12.1231 6.93768 11.6482 6.93768 11.3553 6.64479C10.6068 5.89628 9.39322 5.89628 8.64471 6.64479Z" fill="inherit"/>
</svg>
