<svg viewBox="0 0 20 20" xmlns="http://www.w3.org/2000/svg">
<path fill-rule="evenodd" clip-rule="evenodd" d="M10 2.75C5.99594 2.75 2.75 5.99594 2.75 10C2.75 14.0041 5.99594 17.25 10 17.25C14.0041 17.25 17.25 14.0041 17.25 10C17.25 5.99594 14.0041 2.75 10 2.75ZM1.25 10C1.25 5.16751 5.16751 1.25 10 1.25C14.8325 1.25 18.75 5.16751 18.75 10C18.75 14.8325 14.8325 18.75 10 18.75C5.16751 18.75 1.25 14.8325 1.25 10ZM7.25 6.54683L7.00208 6.67079C6.63159 6.85603 6.18109 6.70586 5.99585 6.33538C5.81061 5.9649 5.96077 5.51439 6.33126 5.32915L6.69978 5.14489C7.64172 4.67392 8.75 5.35887 8.75 6.41199V7.91664H13.3333C13.7475 7.91664 14.0833 8.25242 14.0833 8.66664C14.0833 9.08085 13.7475 9.41664 13.3333 9.41664H8.75V13.5007C8.75 13.5464 8.76081 13.5801 8.77034 13.5982C8.77386 13.6049 8.77652 13.6085 8.77795 13.6101C9.14102 13.8055 9.55641 13.9167 10 13.9167C11.1654 13.9167 12.1518 13.1444 12.473 12.0833H12C11.5858 12.0833 11.25 11.7475 11.25 11.3333C11.25 10.9191 11.5858 10.5833 12 10.5833H12.6622C13.3946 10.5833 14.1909 11.2172 14.0017 12.1492C13.6233 14.0133 11.9764 15.4167 10 15.4167C9.30114 15.4167 8.64119 15.2405 8.06439 14.9295C7.49151 14.6206 7.25 14.0246 7.25 13.5007V9.41664H6.66667C6.25245 9.41664 5.91667 9.08085 5.91667 8.66664C5.91667 8.25242 6.25245 7.91664 6.66667 7.91664H7.25V6.54683ZM8.7791 13.6112C8.77907 13.6112 8.77877 13.611 8.77825 13.6104C8.77887 13.6109 8.77914 13.6112 8.7791 13.6112Z" fill="inherit"/>
</svg>
