<svg viewBox="0 0 20 20" xmlns="http://www.w3.org/2000/svg">
<path fill-rule="evenodd" clip-rule="evenodd" d="M10 2.75C5.99594 2.75 2.75 5.99594 2.75 10C2.75 14.0041 5.99594 17.25 10 17.25C14.0041 17.25 17.25 14.0041 17.25 10C17.25 5.99594 14.0041 2.75 10 2.75ZM1.25 10C1.25 5.16751 5.16751 1.25 10 1.25C14.8325 1.25 18.75 5.16751 18.75 10C18.75 14.8325 14.8325 18.75 10 18.75C5.16751 18.75 1.25 14.8325 1.25 10ZM11.7506 6.93508C10.6055 6.53124 9.28219 6.78828 8.36857 7.7019C8.29925 7.77122 8.23371 7.8429 8.17197 7.91667H10.6667C11.0809 7.91667 11.4167 8.25245 11.4167 8.66667C11.4167 9.08088 11.0809 9.41667 10.6667 9.41667H7.46915C7.39917 9.80215 7.39917 10.1978 7.46915 10.5833H10.6667C11.0809 10.5833 11.4167 10.9191 11.4167 11.3333C11.4167 11.7475 11.0809 12.0833 10.6667 12.0833H8.17196C8.23371 12.1571 8.29925 12.2288 8.36857 12.2981C9.28219 13.2117 10.6055 13.4688 11.7506 13.0649C12.1412 12.9272 12.5695 13.1321 12.7073 13.5228C12.8451 13.9134 12.6401 14.3418 12.2494 14.4795C10.5804 15.0682 8.64516 14.696 7.30791 13.3588C6.9251 12.9759 6.62129 12.5441 6.39648 12.0833H6C5.58579 12.0833 5.25 11.7475 5.25 11.3333C5.25 10.935 5.56046 10.6093 5.95259 10.5848C5.90469 10.1965 5.90469 9.80347 5.95259 9.41519C5.56046 9.39073 5.25 9.06496 5.25 8.66667C5.25 8.25245 5.58579 7.91667 6 7.91667H6.39648C6.62129 7.45595 6.9251 7.02405 7.30791 6.64124C8.64516 5.30399 10.5804 4.93184 12.2494 5.52048C12.6401 5.65824 12.8451 6.08659 12.7073 6.47723C12.5695 6.86786 12.1412 7.07285 11.7506 6.93508Z" fill="inherit"/>
</svg>
