<svg viewBox="0 0 20 20" xmlns="http://www.w3.org/2000/svg">
<path fill-rule="evenodd" clip-rule="evenodd" d="M5.47405 3.55264C4.30965 4.13484 3.875 4.80038 3.875 5.3125C3.875 5.82462 4.30965 6.49016 5.47405 7.07236C6.59359 7.63213 8.19271 8 10 8C11.8073 8 13.4064 7.63213 14.5259 7.07236C15.6904 6.49016 16.125 5.82462 16.125 5.3125C16.125 4.80038 15.6904 4.13484 14.5259 3.55264C13.4064 2.99287 11.8073 2.625 10 2.625C8.19271 2.625 6.59359 2.99287 5.47405 3.55264ZM16.125 7.85222C15.8379 8.06281 15.5241 8.25036 15.1968 8.414C13.828 9.09836 11.9897 9.5 10 9.5C8.01033 9.5 6.17195 9.09836 4.80323 8.414C4.47595 8.25036 4.16208 8.06281 3.875 7.85222V8.4375C3.875 8.94962 4.30965 9.61516 5.47405 10.1974C6.59359 10.7571 8.19271 11.125 10 11.125C11.8073 11.125 13.4064 10.7571 14.5259 10.1974C15.6904 9.61516 16.125 8.94962 16.125 8.4375V7.85222ZM16.125 10.9772C15.8379 11.1878 15.5241 11.3754 15.1968 11.539C13.828 12.2234 11.9897 12.625 10 12.625C8.01033 12.625 6.17195 12.2234 4.80323 11.539C4.47595 11.3754 4.16208 11.1878 3.875 10.9772V11.5625C3.875 12.0746 4.30965 12.7402 5.47405 13.3224C6.59359 13.8821 8.19271 14.25 10 14.25C11.8073 14.25 13.4064 13.8821 14.5259 13.3224C15.6904 12.7402 16.125 12.0746 16.125 11.5625V10.9772ZM16.125 14.1022C15.8379 14.3128 15.5241 14.5004 15.1968 14.664C13.828 15.3484 11.9897 15.75 10 15.75C8.01033 15.75 6.17195 15.3484 4.80323 14.664C4.47595 14.5004 4.16208 14.3128 3.875 14.1022V14.6875C3.875 15.1996 4.30965 15.8652 5.47405 16.4474C6.59359 17.0071 8.19271 17.375 10 17.375C11.8073 17.375 13.4064 17.0071 14.5259 16.4474C15.6904 15.8652 16.125 15.1996 16.125 14.6875V14.1022ZM2.375 5.3125C2.375 3.92614 3.47937 2.87293 4.80323 2.211C6.17195 1.52664 8.01033 1.125 10 1.125C11.9897 1.125 13.828 1.52664 15.1968 2.211C16.5206 2.87293 17.625 3.92614 17.625 5.3125V14.6875C17.625 16.0739 16.5206 17.1271 15.1968 17.789C13.828 18.4734 11.9897 18.875 10 18.875C8.01033 18.875 6.17195 18.4734 4.80323 17.789C3.47937 17.1271 2.375 16.0739 2.375 14.6875V5.3125Z" fill="inherit"/>
</svg>
