<svg viewBox="0 0 20 20" xmlns="http://www.w3.org/2000/svg">
<path fill-rule="evenodd" clip-rule="evenodd" d="M1.75 4.375C1.75 2.92525 2.92525 1.75 4.375 1.75H15.625C17.0747 1.75 18.25 2.92525 18.25 4.375V12.5C18.25 13.9497 17.0747 15.125 15.625 15.125H13.25V15.2145C13.25 15.6786 13.4344 16.1237 13.7626 16.4519L14.2803 16.9697C14.4948 17.1842 14.559 17.5068 14.4429 17.787C14.3268 18.0673 14.0533 18.25 13.75 18.25H6.25C5.94665 18.25 5.67318 18.0673 5.55709 17.787C5.441 17.5068 5.50517 17.1842 5.71967 16.9697L6.23744 16.4519C6.56563 16.1237 6.75 15.6786 6.75 15.2145V15.125H4.375C2.92525 15.125 1.75 13.9497 1.75 12.5V4.375ZM3.25 4.375V10C3.25 10.6213 3.75368 11.125 4.375 11.125H15.625C16.2463 11.125 16.75 10.6213 16.75 10V4.375C16.75 3.75368 16.2463 3.25 15.625 3.25H4.375C3.75368 3.25 3.25 3.75368 3.25 4.375ZM16.75 12.3724C16.409 12.5344 16.0276 12.625 15.625 12.625H4.375C3.9724 12.625 3.59097 12.5344 3.25 12.3724V12.5C3.25 13.1213 3.75368 13.625 4.375 13.625H15.625C16.2463 13.625 16.75 13.1213 16.75 12.5V12.3724ZM11.75 15.125H8.25V15.2145C8.25 15.7552 8.11526 16.282 7.86438 16.75H12.1356C11.8847 16.282 11.75 15.7552 11.75 15.2145V15.125Z" fill="inherit"/>
</svg>
