<svg viewBox="0 0 20 20" xmlns="http://www.w3.org/2000/svg">
<path fill-rule="evenodd" clip-rule="evenodd" d="M6.875 2C6.25368 2 5.75 2.50368 5.75 3.125V16.875C5.75 17.4963 6.25368 18 6.875 18H13.125C13.7463 18 14.25 17.4963 14.25 16.875V3.125C14.25 2.50368 13.7463 2 13.125 2H12V2.5C12 2.91421 11.6642 3.25 11.25 3.25H8.75C8.33579 3.25 8 2.91421 8 2.5V2H6.875ZM4.25 3.125C4.25 1.67525 5.42525 0.5 6.875 0.5H13.125C14.5747 0.5 15.75 1.67525 15.75 3.125V16.875C15.75 18.3247 14.5747 19.5 13.125 19.5H6.875C5.42525 19.5 4.25 18.3247 4.25 16.875V3.125ZM8 16.875C8 16.4608 8.33579 16.125 8.75 16.125H11.25C11.6642 16.125 12 16.4608 12 16.875C12 17.2892 11.6642 17.625 11.25 17.625H8.75C8.33579 17.625 8 17.2892 8 16.875Z" fill="inherit"/>
</svg>
