<svg viewBox="0 0 20 20" xmlns="http://www.w3.org/2000/svg">
<path fill-rule="evenodd" clip-rule="evenodd" d="M3 3.75C3 2.30025 4.17525 1.125 5.625 1.125H14.375C15.8247 1.125 17 2.30025 17 3.75V16.25C17 17.6997 15.8247 18.875 14.375 18.875H5.625C4.17525 18.875 3 17.6997 3 16.25V3.75ZM5.625 2.625C5.00368 2.625 4.5 3.12868 4.5 3.75V16.25C4.5 16.8713 5.00368 17.375 5.625 17.375H14.375C14.9963 17.375 15.5 16.8713 15.5 16.25V3.75C15.5 3.12868 14.9963 2.625 14.375 2.625H5.625ZM8 16.25C8 15.8358 8.33579 15.5 8.75 15.5H11.25C11.6642 15.5 12 15.8358 12 16.25C12 16.6642 11.6642 17 11.25 17H8.75C8.33579 17 8 16.6642 8 16.25Z" fill="inherit"/>
</svg>
