<svg viewBox="0 0 20 20" xmlns="http://www.w3.org/2000/svg">
<path fill-rule="evenodd" clip-rule="evenodd" d="M4.84375 3.75C4.79197 3.75 4.75 3.79197 4.75 3.84375V16.7812C4.75 16.833 4.79197 16.875 4.84375 16.875H14.4062C14.458 16.875 14.5 16.833 14.5 16.7812V10.0312C14.5 9.04749 13.7025 8.25 12.7188 8.25H11.5938C10.7135 8.25 10 7.53645 10 6.65625V5.53125C10 4.54749 9.20251 3.75 8.21875 3.75H4.84375ZM4.84375 2.25C3.96355 2.25 3.25 2.96355 3.25 3.84375V16.7812C3.25 17.6615 3.96355 18.375 4.84375 18.375H14.4062C15.2865 18.375 16 17.6615 16 16.7812V9.75C16 5.60786 12.6421 2.25 8.5 2.25H4.84375ZM11.3183 4.45175C11.436 4.78981 11.5 5.15306 11.5 5.53125V6.65625C11.5 6.70803 11.542 6.75 11.5938 6.75H12.7188C13.0969 6.75 13.4602 6.81398 13.7983 6.93171C13.237 5.87884 12.3712 5.01296 11.3183 4.45175ZM9.625 9C10.0392 9 10.375 9.33579 10.375 9.75V11.25H11.875C12.2892 11.25 12.625 11.5858 12.625 12C12.625 12.4142 12.2892 12.75 11.875 12.75H10.375V14.25C10.375 14.6642 10.0392 15 9.625 15C9.21079 15 8.875 14.6642 8.875 14.25V12.75H7.375C6.96079 12.75 6.625 12.4142 6.625 12C6.625 11.5858 6.96079 11.25 7.375 11.25H8.875V9.75C8.875 9.33579 9.21079 9 9.625 9Z" fill="inherit"/>
</svg>
