<svg viewBox="0 0 20 20" xmlns="http://www.w3.org/2000/svg">
<path fill-rule="evenodd" clip-rule="evenodd" d="M4.84375 3.75C4.79197 3.75 4.75 3.79197 4.75 3.84375V16.7812C4.75 16.833 4.79197 16.875 4.84375 16.875H14.4062C14.458 16.875 14.5 16.833 14.5 16.7812V10.0312C14.5 9.04749 13.7025 8.25 12.7188 8.25H11.5938C10.7135 8.25 10 7.53645 10 6.65625V5.53125C10 4.54749 9.20251 3.75 8.21875 3.75H4.84375ZM4.84375 2.25C3.96355 2.25 3.25 2.96355 3.25 3.84375V16.7812C3.25 17.6615 3.96355 18.375 4.84375 18.375H14.4062C15.2865 18.375 16 17.6615 16 16.7812V9.75C16 5.60786 12.6421 2.25 8.5 2.25H4.84375ZM11.3183 4.45175C11.436 4.78981 11.5 5.15306 11.5 5.53125V6.65625C11.5 6.70803 11.542 6.75 11.5938 6.75H12.7188C13.0969 6.75 13.4602 6.81398 13.7983 6.93171C13.237 5.87884 12.3712 5.01296 11.3183 4.45175ZM11.875 9.5625C12.2892 9.5625 12.625 9.89829 12.625 10.3125V14.25C12.625 14.6642 12.2892 15 11.875 15C11.4608 15 11.125 14.6642 11.125 14.25V10.3125C11.125 9.89829 11.4608 9.5625 11.875 9.5625ZM9.625 11.25C10.0392 11.25 10.375 11.5858 10.375 12V14.25C10.375 14.6642 10.0392 15 9.625 15C9.21079 15 8.875 14.6642 8.875 14.25V12C8.875 11.5858 9.21079 11.25 9.625 11.25ZM7.375 12.9375C7.78921 12.9375 8.125 13.2733 8.125 13.6875V14.25C8.125 14.6642 7.78921 15 7.375 15C6.96079 15 6.625 14.6642 6.625 14.25V13.6875C6.625 13.2733 6.96079 12.9375 7.375 12.9375Z" fill="inherit"/>
</svg>
