<svg viewBox="0 0 20 20" xmlns="http://www.w3.org/2000/svg">
<path fill-rule="evenodd" clip-rule="evenodd" d="M4.84375 3.75C4.79197 3.75 4.75 3.79197 4.75 3.84375V16.7812C4.75 16.833 4.79197 16.875 4.84375 16.875H14.4062C14.458 16.875 14.5 16.833 14.5 16.7812V10.0312C14.5 9.04749 13.7025 8.25 12.7188 8.25H11.5938C10.7135 8.25 10 7.53645 10 6.65625V5.53125C10 4.54749 9.20251 3.75 8.21875 3.75H4.84375ZM4.84375 2.25C3.96355 2.25 3.25 2.96355 3.25 3.84375V16.7812C3.25 17.6615 3.96355 18.375 4.84375 18.375H14.4062C15.2865 18.375 16 17.6615 16 16.7812V9.75C16 5.60786 12.6421 2.25 8.5 2.25H4.84375ZM11.3183 4.45175C11.436 4.78981 11.5 5.15306 11.5 5.53125V6.65625C11.5 6.70803 11.542 6.75 11.5938 6.75H12.7188C13.0969 6.75 13.4602 6.81398 13.7983 6.93171C13.237 5.87884 12.3712 5.01296 11.3183 4.45175ZM6.0625 12.5625C6.0625 12.1483 6.39829 11.8125 6.8125 11.8125H12.4375C12.8517 11.8125 13.1875 12.1483 13.1875 12.5625C13.1875 12.9767 12.8517 13.3125 12.4375 13.3125H6.8125C6.39829 13.3125 6.0625 12.9767 6.0625 12.5625ZM6.0625 14.8125C6.0625 14.3983 6.39829 14.0625 6.8125 14.0625H9.625C10.0392 14.0625 10.375 14.3983 10.375 14.8125C10.375 15.2267 10.0392 15.5625 9.625 15.5625H6.8125C6.39829 15.5625 6.0625 15.2267 6.0625 14.8125Z" fill="inherit"/>
</svg>
