<svg viewBox="0 0 20 20" xmlns="http://www.w3.org/2000/svg">
<path fill-rule="evenodd" clip-rule="evenodd" d="M4.84375 3.75C4.79197 3.75 4.75 3.79197 4.75 3.84375V16.7812C4.75 16.833 4.79197 16.875 4.84375 16.875H14.4062C14.458 16.875 14.5 16.833 14.5 16.7812V10.0312C14.5 9.04749 13.7025 8.25 12.7188 8.25H11.5938C10.7135 8.25 10 7.53645 10 6.65625V5.53125C10 4.54749 9.20251 3.75 8.21875 3.75H4.84375ZM11.3183 4.45175C11.436 4.78981 11.5 5.15306 11.5 5.53125V6.65625C11.5 6.70803 11.542 6.75 11.5938 6.75H12.7188C13.0969 6.75 13.4602 6.81398 13.7983 6.93171C13.237 5.87884 12.3712 5.01296 11.3183 4.45175ZM16 16.7812C16 17.6615 15.2865 18.375 14.4062 18.375H4.84375C3.96355 18.375 3.25 17.6615 3.25 16.7812V3.84375C3.25 2.96355 3.96355 2.25 4.84375 2.25H8.5C12.6421 2.25 16 5.60786 16 9.75V16.7812ZM12.3109 9.7022C12.648 9.94296 12.7261 10.4114 12.4853 10.7484L9.6728 14.6859C9.54466 14.8653 9.34407 14.9793 9.12436 14.9974C8.90465 15.0156 8.68806 14.9362 8.53217 14.7803L6.84467 13.0928C6.55178 12.7999 6.55178 12.3251 6.84467 12.0322C7.13756 11.7393 7.61244 11.7393 7.90533 12.0322L8.9668 13.0936L11.2647 9.87657C11.5055 9.53951 11.9739 9.46144 12.3109 9.7022Z" fill="inherit"/>
</svg>
