<svg viewBox="0 0 20 20" xmlns="http://www.w3.org/2000/svg">
<path fill-rule="evenodd" clip-rule="evenodd" d="M4.84375 3.75C4.79197 3.75 4.75 3.79197 4.75 3.84375V16.2188C4.75 16.2705 4.79197 16.3125 4.84375 16.3125H14.4062C14.458 16.3125 14.5 16.2705 14.5 16.2188V10.0312C14.5 9.04749 13.7025 8.25 12.7188 8.25H11.5938C10.7135 8.25 10 7.53645 10 6.65625V5.53125C10 4.54749 9.20251 3.75 8.21875 3.75H4.84375ZM4.84375 2.25C3.96355 2.25 3.25 2.96355 3.25 3.84375V16.2188C3.25 17.099 3.96355 17.8125 4.84375 17.8125H14.4062C15.2865 17.8125 16 17.099 16 16.2188V9.75C16 5.60786 12.6421 2.25 8.5 2.25H4.84375ZM11.3183 4.45175C11.436 4.78981 11.5 5.15306 11.5 5.53125V6.65625C11.5 6.70803 11.542 6.75 11.5938 6.75H12.7188C13.0969 6.75 13.4602 6.81398 13.7983 6.93171C13.237 5.87884 12.3712 5.01296 11.3183 4.45175ZM9.34375 10.5C8.67065 10.5 8.125 11.0457 8.125 11.7188C8.125 12.3918 8.67065 12.9375 9.34375 12.9375C9.68027 12.9375 9.98493 12.8011 10.2055 12.5806C10.4261 12.36 10.5625 12.0553 10.5625 11.7188C10.5625 11.0457 10.0168 10.5 9.34375 10.5ZM11.7223 13.0366C11.9391 12.6463 12.0625 12.1969 12.0625 11.7188C12.0625 10.2172 10.8453 9 9.34375 9C7.84223 9 6.625 10.2172 6.625 11.7188C6.625 13.2203 7.84223 14.4375 9.34375 14.4375C9.82192 14.4375 10.2713 14.3141 10.6616 14.0973L11.3447 14.7803C11.6376 15.0732 12.1124 15.0732 12.4053 14.7803C12.6982 14.4874 12.6982 14.0126 12.4053 13.7197L11.7223 13.0366Z" fill="inherit"/>
</svg>
