<svg viewBox="0 0 20 20" xmlns="http://www.w3.org/2000/svg">
<path fill-rule="evenodd" clip-rule="evenodd" d="M8.21875 3.75C8.16697 3.75 8.125 3.79197 8.125 3.84375V13.4062C8.125 13.458 8.16697 13.5 8.21875 13.5H15.5312C15.583 13.5 15.625 13.458 15.625 13.4062V10.0312C15.625 9.04749 14.8275 8.25 13.8438 8.25H12.7188C11.8385 8.25 11.125 7.53645 11.125 6.65625V5.53125C11.125 4.54749 10.3275 3.75 9.34375 3.75H8.21875ZM9.625 2.25C10.05 2.25 10.4674 2.28543 10.8741 2.35367C14.4218 2.94886 17.125 6.03301 17.125 9.75V13.4062C17.125 14.2865 16.4115 15 15.5312 15H13.75V16.7812C13.75 17.6615 13.0365 18.375 12.1562 18.375H4.84375C3.96355 18.375 3.25 17.6615 3.25 16.7812V7.21875C3.25 6.33855 3.96355 5.625 4.84375 5.625H6.25C6.3757 5.625 6.50072 5.6281 6.625 5.63423V3.84375C6.625 2.96355 7.33855 2.25 8.21875 2.25H9.625ZM6.625 7.1365C6.50105 7.12887 6.37602 7.125 6.25 7.125H4.84375C4.79197 7.125 4.75 7.16697 4.75 7.21875V16.7812C4.75 16.833 4.79197 16.875 4.84375 16.875H12.1562C12.208 16.875 12.25 16.833 12.25 16.7812V15H8.21875C7.33855 15 6.625 14.2865 6.625 13.4062V7.1365ZM14.9232 6.93169C14.3619 5.87874 13.4961 5.01271 12.4432 4.45148C12.561 4.78962 12.625 5.15296 12.625 5.53125V6.65625C12.625 6.70803 12.667 6.75 12.7188 6.75H13.8438C14.2219 6.75 14.5851 6.81398 14.9232 6.93169Z" fill="inherit"/>
</svg>
