<svg viewBox="0 0 20 20" xmlns="http://www.w3.org/2000/svg">
<path fill-rule="evenodd" clip-rule="evenodd" d="M4.84375 3.75C4.79197 3.75 4.75 3.79197 4.75 3.84375V16.7812C4.75 16.833 4.79197 16.875 4.84375 16.875H14.4062C14.458 16.875 14.5 16.833 14.5 16.7812V10.0312C14.5 9.04749 13.7025 8.25 12.7188 8.25H11.5938C10.7135 8.25 10 7.53645 10 6.65625V5.53125C10 4.54749 9.20251 3.75 8.21875 3.75H4.84375ZM4.84375 2.25C3.96355 2.25 3.25 2.96355 3.25 3.84375V16.7812C3.25 17.6615 3.96355 18.375 4.84375 18.375H14.4062C15.2865 18.375 16 17.6615 16 16.7812V9.75C16 5.60786 12.6421 2.25 8.5 2.25H4.84375ZM11.3183 4.45175C11.436 4.78981 11.5 5.15306 11.5 5.53125V6.65625C11.5 6.70803 11.542 6.75 11.5938 6.75H12.7188C13.0969 6.75 13.4602 6.81398 13.7983 6.93171C13.237 5.87884 12.3712 5.01296 11.3183 4.45175ZM9.625 9C10.0392 9 10.375 9.33579 10.375 9.75L10.375 12.4393L11.3447 11.4697C11.6376 11.1768 12.1124 11.1768 12.4053 11.4697C12.6982 11.7626 12.6982 12.2374 12.4053 12.5303L10.1553 14.7803C10.0147 14.921 9.82391 15 9.625 15C9.42609 15 9.23532 14.921 9.09467 14.7803L6.84467 12.5303C6.55178 12.2374 6.55178 11.7626 6.84467 11.4697C7.13756 11.1768 7.61244 11.1768 7.90533 11.4697L8.875 12.4393L8.875 9.75C8.875 9.33579 9.21079 9 9.625 9Z" fill="inherit"/>
</svg>
