<svg viewBox="0 0 20 20" xmlns="http://www.w3.org/2000/svg">
<path fill-rule="evenodd" clip-rule="evenodd" d="M10 17.75C9.10254 17.75 8.375 17.0225 8.375 16.125C8.375 15.2275 9.10254 14.5 10 14.5C10.8975 14.5 11.625 15.2275 11.625 16.125C11.625 17.0225 10.8975 17.75 10 17.75ZM10 11.625C9.10254 11.625 8.375 10.8975 8.375 10C8.375 9.10254 9.10254 8.375 10 8.375C10.8975 8.375 11.625 9.10254 11.625 10C11.625 10.8975 10.8975 11.625 10 11.625ZM10 5.5C9.10254 5.5 8.375 4.77246 8.375 3.875C8.375 2.97754 9.10254 2.25 10 2.25C10.8975 2.25 11.625 2.97754 11.625 3.875C11.625 4.77246 10.8975 5.5 10 5.5Z" fill="inherit"/>
</svg>
