<svg viewBox="0 0 20 20" xmlns="http://www.w3.org/2000/svg">
<path fill-rule="evenodd" clip-rule="evenodd" d="M2.25 10C2.25 9.10254 2.97754 8.375 3.875 8.375C4.77246 8.375 5.5 9.10254 5.5 10C5.5 10.8975 4.77246 11.625 3.875 11.625C2.97754 11.625 2.25 10.8975 2.25 10ZM8.375 10C8.375 9.10254 9.10254 8.375 10 8.375C10.8975 8.375 11.625 9.10254 11.625 10C11.625 10.8975 10.8975 11.625 10 11.625C9.10254 11.625 8.375 10.8975 8.375 10ZM14.5 10C14.5 9.10254 15.2275 8.375 16.125 8.375C17.0225 8.375 17.75 9.10254 17.75 10C17.75 10.8975 17.0225 11.625 16.125 11.625C15.2275 11.625 14.5 10.8975 14.5 10Z" fill="inherit"/>
</svg>
