<svg viewBox="0 0 20 20" xmlns="http://www.w3.org/2000/svg">
<path fill-rule="evenodd" clip-rule="evenodd" d="M10 3.75C6.54822 3.75 3.75 6.54822 3.75 10C3.75 13.4518 6.54822 16.25 10 16.25C13.4518 16.25 16.25 13.4518 16.25 10C16.25 6.54822 13.4518 3.75 10 3.75ZM2.25 10C2.25 5.71979 5.71979 2.25 10 2.25C14.2802 2.25 17.75 5.71979 17.75 10C17.75 14.2802 14.2802 17.75 10 17.75C5.71979 17.75 2.25 14.2802 2.25 10ZM6.13889 10C6.13889 9.58579 6.47468 9.25 6.88889 9.25H6.89667C7.31088 9.25 7.64667 9.58579 7.64667 10C7.64667 10.4142 7.31088 10.75 6.89667 10.75H6.88889C6.47468 10.75 6.13889 10.4142 6.13889 10ZM9.25 10C9.25 9.58579 9.58579 9.25 10 9.25H10.0078C10.422 9.25 10.7578 9.58579 10.7578 10C10.7578 10.4142 10.422 10.75 10.0078 10.75H10C9.58579 10.75 9.25 10.4142 9.25 10ZM12.3611 10C12.3611 9.58579 12.6969 9.25 13.1111 9.25H13.1189C13.5331 9.25 13.8689 9.58579 13.8689 10C13.8689 10.4142 13.5331 10.75 13.1189 10.75H13.1111C12.6969 10.75 12.3611 10.4142 12.3611 10Z" fill="inherit"/>
</svg>
