<svg viewBox="0 0 20 20" xmlns="http://www.w3.org/2000/svg">
<path fill-rule="evenodd" clip-rule="evenodd" d="M3.75005 14.375C3.75005 15.4106 4.58951 16.25 5.62505 16.25L14.375 16.25C15.4106 16.25 16.25 15.4106 16.25 14.375L16.25 13.5C16.25 13.0858 16.5858 12.75 17 12.75C17.4143 12.75 17.75 13.0858 17.75 13.5L17.75 14.375C17.75 16.239 16.239 17.75 14.375 17.75L5.62505 17.75C3.76108 17.75 2.25005 16.239 2.25005 14.375L2.25005 13.5C2.25005 13.0858 2.58583 12.75 3.00005 12.75C3.41426 12.75 3.75005 13.0858 3.75005 13.5L3.75005 14.375ZM5.96972 9.4697C6.26261 9.17681 6.73748 9.17681 7.03038 9.4697L9.25005 11.6894L9.25004 3.00003C9.25004 2.58582 9.58583 2.25003 10 2.25003C10.4143 2.25003 10.75 2.58582 10.75 3.00003L10.75 11.6894L12.9697 9.4697C13.2626 9.17681 13.7375 9.17681 14.0304 9.4697C14.3233 9.76259 14.3233 10.2375 14.0304 10.5304L10.5304 14.0304C10.2375 14.3233 9.76261 14.3233 9.46972 14.0304L5.96972 10.5304C5.67682 10.2375 5.67682 9.76259 5.96972 9.4697Z" fill="inherit"/>
</svg>
