<svg viewBox="0 0 20 20" xmlns="http://www.w3.org/2000/svg">
<path fill-rule="evenodd" clip-rule="evenodd" d="M2.375 5C2.375 3.55025 3.55025 2.375 5 2.375H11.875C13.3247 2.375 14.5 3.55025 14.5 5V6.125H15C16.4497 6.125 17.625 7.30025 17.625 8.75V15C17.625 16.4497 16.4497 17.625 15 17.625H8.75C7.30025 17.625 6.125 16.4497 6.125 15V14.5H5C3.55025 14.5 2.375 13.3247 2.375 11.875V5ZM6.125 13V8.75C6.125 7.30025 7.30025 6.125 8.75 6.125H13V5C13 4.37868 12.4963 3.875 11.875 3.875H5C4.37868 3.875 3.875 4.37868 3.875 5V11.875C3.875 12.4963 4.37868 13 5 13H6.125ZM8.75 7.625C8.12868 7.625 7.625 8.12868 7.625 8.75V15C7.625 15.6213 8.12868 16.125 8.75 16.125H15C15.6213 16.125 16.125 15.6213 16.125 15V8.75C16.125 8.12868 15.6213 7.625 15 7.625H8.75Z" fill="inherit"/>
</svg>
