<svg viewBox="0 0 20 20" xmlns="http://www.w3.org/2000/svg">
<path fill-rule="evenodd" clip-rule="evenodd" d="M10 3.25C6.27208 3.25 3.25 6.27208 3.25 10C3.25 13.7279 6.27208 16.75 10 16.75C13.7279 16.75 16.75 13.7279 16.75 10C16.75 6.27208 13.7279 3.25 10 3.25ZM1.75 10C1.75 5.44365 5.44365 1.75 10 1.75C14.5563 1.75 18.25 5.44365 18.25 10C18.25 14.5563 14.5563 18.25 10 18.25C5.44365 18.25 1.75 14.5563 1.75 10ZM7.1875 10.3062C7.26482 10.2273 7.3125 10.1192 7.3125 10C7.3125 9.88079 7.26482 9.77272 7.1875 9.69381V10.3062ZM5.8125 10C5.8125 9.4132 6.2882 8.9375 6.875 8.9375C7.4618 8.9375 7.9375 9.4132 7.9375 10C7.9375 10.5868 7.4618 11.0625 6.875 11.0625C6.2882 11.0625 5.8125 10.5868 5.8125 10ZM10.3125 10.3062C10.3898 10.2273 10.4375 10.1192 10.4375 10C10.4375 9.88079 10.3898 9.77272 10.3125 9.69381V10.3062ZM8.9375 10C8.9375 9.4132 9.4132 8.9375 10 8.9375C10.5868 8.9375 11.0625 9.4132 11.0625 10C11.0625 10.5868 10.5868 11.0625 10 11.0625C9.4132 11.0625 8.9375 10.5868 8.9375 10ZM13.4375 10.3062C13.5148 10.2273 13.5625 10.1192 13.5625 10C13.5625 9.88079 13.5148 9.77272 13.4375 9.69381V10.3062ZM12.0625 10C12.0625 9.4132 12.5382 8.9375 13.125 8.9375C13.7118 8.9375 14.1875 9.4132 14.1875 10C14.1875 10.5868 13.7118 11.0625 13.125 11.0625C12.5382 11.0625 12.0625 10.5868 12.0625 10Z" fill="inherit"/>
</svg>
