<svg viewBox="0 0 20 20" xmlns="http://www.w3.org/2000/svg">
<path fill-rule="evenodd" clip-rule="evenodd" d="M9.5 2.75C5.77208 2.75 2.75 5.77208 2.75 9.5C2.75 13.2279 5.77208 16.25 9.5 16.25C13.2279 16.25 16.25 13.2279 16.25 9.5C16.25 5.77208 13.2279 2.75 9.5 2.75ZM1.25 9.5C1.25 4.94365 4.94365 1.25 9.5 1.25C14.0563 1.25 17.75 4.94365 17.75 9.5C17.75 14.0563 14.0563 17.75 9.5 17.75C4.94365 17.75 1.25 14.0563 1.25 9.5ZM6.42071 6.84765C6.51712 6.65482 6.78908 6.25 7.3125 6.25C7.83592 6.25 8.10788 6.65482 8.20429 6.84765C8.32314 7.08534 8.375 7.36122 8.375 7.625C8.375 7.88878 8.32314 8.16466 8.20429 8.40235C8.10788 8.59518 7.83592 9 7.3125 9C6.78908 9 6.51712 8.59518 6.42071 8.40235C6.30186 8.16466 6.25 7.88878 6.25 7.625C6.25 7.36122 6.30186 7.08534 6.42071 6.84765ZM10.7957 6.84765C10.8921 6.65482 11.1641 6.25 11.6875 6.25C12.2109 6.25 12.4829 6.65482 12.5793 6.84765C12.6981 7.08534 12.75 7.36122 12.75 7.625C12.75 7.88878 12.6981 8.16466 12.5793 8.40235C12.4829 8.59518 12.2109 9 11.6875 9C11.1641 9 10.8921 8.59518 10.7957 8.40235C10.6769 8.16466 10.625 7.88878 10.625 7.625C10.625 7.36122 10.6769 7.08534 10.7957 6.84765ZM6.31802 11.6213C6.61091 11.3284 7.08579 11.3284 7.37868 11.6213C8.55025 12.7929 10.4497 12.7929 11.6213 11.6213C11.9142 11.3284 12.3891 11.3284 12.682 11.6213C12.9749 11.9142 12.9749 12.3891 12.682 12.682C10.9246 14.4393 8.07538 14.4393 6.31802 12.682C6.02513 12.3891 6.02513 11.9142 6.31802 11.6213Z" fill="inherit"/>
</svg>
