<svg viewBox="0 0 20 20" xmlns="http://www.w3.org/2000/svg">
<path fill-rule="evenodd" clip-rule="evenodd" d="M10.7703 5.1949C10.4281 4.6017 9.57192 4.6017 9.22969 5.1949L3.87144 14.4825C3.5294 15.0754 3.95729 15.8162 4.64175 15.8162H15.3582C16.0427 15.8162 16.4706 15.0754 16.1285 14.4825L10.7703 5.1949ZM7.93041 4.44532C8.84988 2.85156 11.1501 2.85156 12.0696 4.44532L17.4278 13.7329C18.3468 15.3258 17.1972 17.3162 15.3582 17.3162H4.64175C2.8028 17.3162 1.6532 15.3258 2.57217 13.7329L7.93041 4.44532ZM10 8.16612C10.4142 8.16612 10.75 8.50191 10.75 8.91612V11.6483C10.75 12.0625 10.4142 12.3983 10 12.3983C9.58578 12.3983 9.25 12.0625 9.25 11.6483V8.91612C9.25 8.50191 9.58578 8.16612 10 8.16612ZM9.25 13.8341C9.25 13.4198 9.58578 13.0841 10 13.0841H10.0055C10.4197 13.0841 10.7555 13.4198 10.7555 13.8341V13.8395C10.7555 14.2537 10.4197 14.5895 10.0055 14.5895H10C9.58578 14.5895 9.25 14.2537 9.25 13.8395V13.8341Z" fill="inherit"/>
</svg>
