<svg viewBox="0 0 20 20" xmlns="http://www.w3.org/2000/svg">
<path fill-rule="evenodd" clip-rule="evenodd" d="M10 3.75C6.54822 3.75 3.75 6.54822 3.75 10C3.75 13.4518 6.54822 16.25 10 16.25C13.4518 16.25 16.25 13.4518 16.25 10C16.25 6.54822 13.4518 3.75 10 3.75ZM2.25 10C2.25 5.71979 5.71979 2.25 10 2.25C14.2802 2.25 17.75 5.71979 17.75 10C17.75 14.2802 14.2802 17.75 10 17.75C5.71979 17.75 2.25 14.2802 2.25 10ZM10 6.91667C10.4142 6.91667 10.75 7.25245 10.75 7.66667V10.5833C10.75 10.9975 10.4142 11.3333 10 11.3333C9.58579 11.3333 9.25 10.9975 9.25 10.5833V7.66667C9.25 7.25245 9.58579 6.91667 10 6.91667ZM9.25 12.9167C9.25 12.5025 9.58579 12.1667 10 12.1667H10.0058C10.42 12.1667 10.7558 12.5025 10.7558 12.9167V12.9225C10.7558 13.3367 10.42 13.6725 10.0058 13.6725H10C9.58579 13.6725 9.25 13.3367 9.25 12.9225V12.9167Z" fill="inherit"/>
</svg>
