<svg viewBox="0 0 20 20" xmlns="http://www.w3.org/2000/svg">
<path fill-rule="evenodd" clip-rule="evenodd" d="M11.5 4.75C11.0858 4.75 10.75 4.41421 10.75 4C10.75 3.58579 11.0858 3.25 11.5 3.25H16C16.4142 3.25 16.75 3.58579 16.75 4V8.5C16.75 8.91421 16.4142 9.25 16 9.25C15.5858 9.25 15.25 8.91421 15.25 8.5V5.81066L9.03033 12.0303C8.73744 12.3232 8.26256 12.3232 7.96967 12.0303C7.67678 11.7374 7.67678 11.2626 7.96967 10.9697L14.1893 4.75H11.5ZM5.5 6.25C5.08579 6.25 4.75 6.58579 4.75 7V14.5C4.75 14.9142 5.08579 15.25 5.5 15.25H13C13.4142 15.25 13.75 14.9142 13.75 14.5V11.5C13.75 11.0858 14.0858 10.75 14.5 10.75C14.9142 10.75 15.25 11.0858 15.25 11.5V14.5C15.25 15.7426 14.2426 16.75 13 16.75H5.5C4.25736 16.75 3.25 15.7426 3.25 14.5V7C3.25 5.75736 4.25736 4.75 5.5 4.75H8.5C8.91421 4.75 9.25 5.08579 9.25 5.5C9.25 5.91421 8.91421 6.25 8.5 6.25H5.5Z" fill="inherit"/>
</svg>
