<svg viewBox="0 0 20 20" xmlns="http://www.w3.org/2000/svg">
<path fill-rule="evenodd" clip-rule="evenodd" d="M16.8623 3.13756C16.1789 2.45415 15.0709 2.45415 14.3875 3.13756C14.1612 3.36385 14.0108 3.63471 13.9343 3.92118L13.4258 5.8191C13.3379 6.14699 13.0408 6.37499 12.7013 6.37499H10.5607L13.625 9.43933V7.29832C13.625 6.95886 13.853 6.66173 14.1809 6.57387L16.0779 6.06557C16.3646 5.98903 16.6362 5.83858 16.8623 5.61244C17.5458 4.92902 17.5458 3.82098 16.8623 3.13756ZM13.3268 2.0769C14.596 0.807698 16.6538 0.8077 17.923 2.0769C19.1922 3.34611 19.1922 5.40389 17.923 6.6731C17.5051 7.09099 16.9999 7.37194 16.4657 7.51458M15.125 7.87381V7.29832H14.375L14.5691 8.02276L15.125 7.87381ZM13.3268 2.0769C12.9092 2.49447 12.628 2.99937 12.4853 3.53359L13.3268 2.0769ZM12.4853 3.53359L12.1258 4.87499H10C9.80109 4.87499 9.61032 4.95401 9.46967 5.09466L8.84467 5.71966C8.55178 6.01255 8.55178 6.48742 8.84467 6.78032L9.56435 7.49999L3.03661 14.0277C2.61299 14.4514 2.375 15.0259 2.375 15.625C2.375 15.8263 2.29505 16.0193 2.15273 16.1616L1.34467 16.9697C1.20402 17.1103 1.125 17.3011 1.125 17.5C1.125 17.6989 1.20402 17.8897 1.34467 18.0303L1.96967 18.6553C2.11032 18.796 2.30109 18.875 2.5 18.875C2.69891 18.875 2.88968 18.796 3.03033 18.6553L3.83839 17.8473C3.98071 17.705 4.17373 17.625 4.375 17.625C4.97409 17.625 5.54865 17.387 5.97227 16.9634L12.5 10.4357L13.0303 9.90532L11.9697 8.84466L11.4393 9.37499L12.5 10.4357M3.80081 16.1992C3.69993 16.583 3.49879 16.9369 3.21339 17.2223L2.93566 17.5L2.5 17.0643L2.77773 16.7866C3.06313 16.5012 3.41704 16.3001 3.80081 16.1992ZM1.96967 17.5947L1.875 17.5L2.40533 16.9697L2.5 17.0643L1.96967 17.5947ZM2.40533 18.0303L2.5 18.125L3.03033 17.5947L2.93566 17.5L2.40533 18.0303Z" fill="inherit"/>
</svg>
