<svg viewBox="0 0 20 20" xmlns="http://www.w3.org/2000/svg">
<path fill-rule="evenodd" clip-rule="evenodd" d="M3.21058 3.46967C3.50347 3.17678 3.97834 3.17678 4.27124 3.46967L6.10049 5.29892C7.25628 4.65808 8.58643 4.2932 10.0001 4.2932C13.6485 4.2932 16.7285 6.71904 17.7186 10.0441C17.7602 10.1837 17.7602 10.3324 17.7187 10.472C17.2611 12.0103 16.3571 13.3548 15.1578 14.3563L16.7896 15.9881C17.0825 16.281 17.0825 16.7558 16.7896 17.0487C16.4967 17.3416 16.0219 17.3416 15.729 17.0487L3.21058 4.53033C2.91768 4.23744 2.91768 3.76256 3.21058 3.46967ZM14.0919 13.2904C15.0641 12.5118 15.8092 11.4625 16.2132 10.2583C15.3415 7.66225 12.8882 5.7932 10.0001 5.7932C9.00315 5.7932 8.05939 6.0154 7.21446 6.4129L8.59594 7.79438C9.00994 7.55813 9.48952 7.4228 10.0001 7.4228C11.5666 7.4228 12.8365 8.6927 12.8365 10.2592C12.8365 10.7698 12.7012 11.2494 12.4649 11.6634L14.0919 13.2904ZM11.3129 10.5113C11.3284 10.4297 11.3365 10.3454 11.3365 10.2592C11.3365 9.52113 10.7382 8.9228 10.0001 8.9228C9.91387 8.9228 9.82961 8.93091 9.74801 8.94644L11.3129 10.5113ZM4.90679 7.05952C5.22303 7.32703 5.26254 7.80026 4.99502 8.1165C4.46582 8.7421 4.05221 9.46758 3.78634 10.2601C4.65803 12.8561 7.11141 14.7252 9.99948 14.7252C10.6201 14.7252 11.2194 14.6391 11.7866 14.4787C12.1852 14.366 12.5997 14.5978 12.7124 14.9963C12.8251 15.3949 12.5934 15.8094 12.1948 15.9221C11.496 16.1197 10.7595 16.2252 9.99948 16.2252C6.35102 16.2252 3.27111 13.7994 2.28098 10.4743C2.23941 10.3347 2.23939 10.186 2.28091 10.0464C2.60182 8.96757 3.1423 7.98413 3.84981 7.14775C4.11732 6.83151 4.59055 6.792 4.90679 7.05952Z" fill="inherit"/>
</svg>
