<svg viewBox="0 0 20 20" xmlns="http://www.w3.org/2000/svg">
<path fill-rule="evenodd" clip-rule="evenodd" d="M3.79063 9.99999C4.69642 12.5558 7.13551 14.3851 10 14.3851C12.8645 14.3851 15.3036 12.5558 16.2094 10C15.3036 7.44423 12.8645 5.61493 9.99999 5.61493C7.13551 5.61493 4.69643 7.4442 3.79063 9.99999ZM2.28446 9.77525C3.31461 6.49543 6.37832 4.11493 9.99999 4.11493C13.6217 4.11493 16.6854 6.49546 17.7155 9.77531C17.7615 9.92161 17.7615 10.0785 17.7155 10.2248C16.6854 13.5046 13.6217 15.8851 10 15.8851C6.37832 15.8851 3.31459 13.5046 2.28446 10.2247C2.23851 10.0784 2.23851 9.92155 2.28446 9.77525ZM9.99967 8.54926C9.19844 8.54926 8.54892 9.19879 8.54892 10C8.54892 10.8012 9.19844 11.4508 9.99967 11.4508C10.8009 11.4508 11.4504 10.8012 11.4504 10C11.4504 9.19879 10.8009 8.54926 9.99967 8.54926ZM7.04892 10C7.04892 8.37036 8.37002 7.04926 9.99967 7.04926C11.6293 7.04926 12.9504 8.37036 12.9504 10C12.9504 11.6297 11.6293 12.9508 9.99967 12.9508C8.37002 12.9508 7.04892 11.6297 7.04892 10Z" fill="inherit"/>
</svg>
