<svg viewBox="0 0 20 20" xmlns="http://www.w3.org/2000/svg">
<path fill-rule="evenodd" clip-rule="evenodd" d="M2.25 6.34783C2.25 4.9774 3.81453 4.19514 4.91087 5.01739L9.55435 8.5L9.55435 6.34783C9.55435 4.9774 11.1189 4.19514 12.2152 5.01739L17.0848 8.66956C17.9717 9.33478 17.9717 10.6652 17.0848 11.3304L12.2152 14.9826C11.1189 15.8049 9.55435 15.0226 9.55435 13.6522L9.55435 11.5L4.91087 14.9826C3.81453 15.8049 2.25 15.0226 2.25 13.6522L2.25 6.34783ZM4.01087 6.21739C3.90339 6.13678 3.75 6.21347 3.75 6.34783L3.75 13.6522C3.75 13.7865 3.90339 13.8632 4.01087 13.7826L8.88043 10.1304C8.96739 10.0652 8.96739 9.93478 8.88043 9.86956L4.01087 6.21739ZM11.3152 6.21739C11.2077 6.13678 11.0543 6.21347 11.0543 6.34783L11.0543 13.6522C11.0543 13.7865 11.2077 13.8632 11.3152 13.7826L16.1848 10.1304C16.2717 10.0652 16.2717 9.93478 16.1848 9.86956L11.3152 6.21739Z" fill="inherit"/>
</svg>
