<svg viewBox="0 0 20 20" xmlns="http://www.w3.org/2000/svg">
<path fill-rule="evenodd" clip-rule="evenodd" d="M1.125 4.6875C1.125 3.75552 1.88052 3 2.8125 3H17.1875C18.1195 3 18.875 3.75552 18.875 4.6875V15.3125C18.875 16.2445 18.1195 17 17.1875 17H2.8125C1.88052 17 1.125 16.2445 1.125 15.3125V4.6875ZM2.625 4.6875V5.9375C2.625 6.04105 2.70895 6.125 2.8125 6.125H4.0625C4.16605 6.125 4.25 6.04105 4.25 5.9375V4.6875C4.25 4.58395 4.16605 4.5 4.0625 4.5H2.8125C2.70895 4.5 2.625 4.58395 2.625 4.6875ZM5.9375 4.5C5.83395 4.5 5.75 4.58395 5.75 4.6875V9.0625C5.75 9.16605 5.83395 9.25 5.9375 9.25H14.0625C14.1661 9.25 14.25 9.16605 14.25 9.0625V4.6875C14.25 4.58395 14.1661 4.5 14.0625 4.5H5.9375ZM15.9375 4.5C15.8339 4.5 15.75 4.58395 15.75 4.6875V5.9375C15.75 6.04105 15.8339 6.125 15.9375 6.125H17.1875C17.2911 6.125 17.375 6.04105 17.375 5.9375V4.6875C17.375 4.58395 17.2911 4.5 17.1875 4.5H15.9375ZM17.375 7.8125C17.375 7.70895 17.2911 7.625 17.1875 7.625H15.9375C15.8339 7.625 15.75 7.70895 15.75 7.8125V9.0625C15.75 9.16605 15.8339 9.25 15.9375 9.25H17.1875C17.2911 9.25 17.375 9.16605 17.375 9.0625V7.8125ZM17.375 10.9375C17.375 10.8339 17.2911 10.75 17.1875 10.75H15.9375C15.8339 10.75 15.75 10.8339 15.75 10.9375V12.1875C15.75 12.2911 15.8339 12.375 15.9375 12.375H17.1875C17.2911 12.375 17.375 12.2911 17.375 12.1875V10.9375ZM17.375 14.0625C17.375 13.9589 17.2911 13.875 17.1875 13.875H15.9375C15.8339 13.875 15.75 13.9589 15.75 14.0625V15.3125C15.75 15.4161 15.8339 15.5 15.9375 15.5H17.1875C17.2911 15.5 17.375 15.4161 17.375 15.3125V14.0625ZM14.0625 15.5C14.1661 15.5 14.25 15.4161 14.25 15.3125V10.9375C14.25 10.8339 14.1661 10.75 14.0625 10.75H5.9375C5.83395 10.75 5.75 10.8339 5.75 10.9375V15.3125C5.75 15.4161 5.83395 15.5 5.9375 15.5H14.0625ZM4.0625 15.5C4.16605 15.5 4.25 15.4161 4.25 15.3125V14.0625C4.25 13.9589 4.16605 13.875 4.0625 13.875H2.8125C2.70895 13.875 2.625 13.9589 2.625 14.0625V15.3125C2.625 15.4161 2.70895 15.5 2.8125 15.5H4.0625ZM2.8125 12.375H4.0625C4.16605 12.375 4.25 12.2911 4.25 12.1875V10.9375C4.25 10.8339 4.16605 10.75 4.0625 10.75H2.8125C2.70895 10.75 2.625 10.8339 2.625 10.9375V12.1875C2.625 12.2911 2.70895 12.375 2.8125 12.375ZM2.8125 9.25H4.0625C4.16605 9.25 4.25 9.16605 4.25 9.0625V7.8125C4.25 7.70895 4.16605 7.625 4.0625 7.625H2.8125C2.70895 7.625 2.625 7.70895 2.625 7.8125V9.0625C2.625 9.16605 2.70895 9.25 2.8125 9.25Z" fill="inherit"/>
</svg>
