<svg viewBox="0 0 20 20" xmlns="http://www.w3.org/2000/svg">
<path fill-rule="evenodd" clip-rule="evenodd" d="M3.13872 2.3253C5.36986 1.94694 7.66225 1.75 10.0001 1.75C12.3378 1.75 14.6302 1.94693 16.8613 2.32528C17.6748 2.46324 18.25 3.17117 18.25 3.97835V4.84835C18.25 5.54454 17.9734 6.21222 17.4812 6.7045L12.9545 11.2312C12.7435 11.4421 12.625 11.7283 12.625 12.0267V14.4662C12.625 15.4605 12.0632 16.3694 11.1739 16.8141L8.46041 18.1708C8.22792 18.2871 7.95181 18.2746 7.7307 18.138C7.50959 18.0013 7.375 17.7599 7.375 17.5V12.0267C7.375 11.7283 7.25647 11.4421 7.0455 11.2312L2.51884 6.7045C2.02656 6.21222 1.75 5.54454 1.75 4.84835V3.97837C1.75 3.17119 2.32516 2.46326 3.13872 2.3253ZM10.0001 3.25C7.74664 3.25 5.53813 3.43982 3.38951 3.80418C3.31497 3.81682 3.25 3.88477 3.25 3.97837V4.84835C3.25 5.14672 3.36853 5.43287 3.5795 5.64384L8.10616 10.1705C8.59844 10.6628 8.875 11.3305 8.875 12.0267V16.2865L10.5031 15.4724C10.8842 15.2819 11.125 14.8923 11.125 14.4662V12.0267C11.125 11.3305 11.4016 10.6628 11.8938 10.1705L16.4205 5.64384C16.6315 5.43287 16.75 5.14672 16.75 4.84835V3.97835C16.75 3.88475 16.685 3.81681 16.6105 3.80417C14.4619 3.43981 12.2534 3.25 10.0001 3.25Z" fill="inherit"/>
</svg>
