<svg viewBox="0 0 20 20" xmlns="http://www.w3.org/2000/svg">
<path fill-rule="evenodd" clip-rule="evenodd" d="M10 3.25C8.87794 3.25 7.83644 3.58521 6.96741 4.16078C6.62207 4.38951 6.1567 4.29497 5.92798 3.94964C5.69926 3.6043 5.79379 3.13893 6.13913 2.91021C7.24618 2.17698 8.57437 1.75 10 1.75C13.866 1.75 17 4.88401 17 8.75C17 11.2787 16.5186 13.6968 15.6412 15.9161C15.4889 16.3013 15.0532 16.4902 14.6679 16.3379C14.2827 16.1856 14.0939 15.7499 14.2462 15.3647C15.0553 13.3181 15.5 11.0869 15.5 8.75C15.5 5.71243 13.0376 3.25 10 3.25ZM5.19964 4.67797C5.54498 4.9067 5.63952 5.37207 5.41079 5.7174C4.83522 6.58643 4.50001 7.62793 4.50001 8.75C4.50001 10.1186 4.10677 11.3976 3.42627 12.4775C3.20543 12.8279 2.74233 12.933 2.39189 12.7121C2.04146 12.4913 1.9364 12.0282 2.15724 11.6777C2.69116 10.8305 3.00001 9.82755 3.00001 8.75C3.00001 7.32436 3.42699 5.99617 4.16021 4.88912C4.38894 4.54378 4.85431 4.44925 5.19964 4.67797ZM10 6.375C8.68833 6.375 7.62501 7.43832 7.62501 8.75C7.62501 11.3653 6.63268 13.7506 5.00483 15.547C4.72668 15.8539 4.25238 15.8772 3.94545 15.5991C3.63852 15.3209 3.61519 14.8466 3.89333 14.5397C5.28085 13.0086 6.12501 10.9788 6.12501 8.75C6.12501 6.6099 7.8599 4.875 10 4.875C12.1401 4.875 13.875 6.6099 13.875 8.75C13.875 9.20942 13.8563 9.66488 13.8191 10.1156C13.785 10.5284 13.4227 10.8354 13.0099 10.8013C12.5971 10.7672 12.2901 10.4049 12.3242 9.99212C12.358 9.58301 12.375 9.16876 12.375 8.75C12.375 7.43832 11.3117 6.375 10 6.375ZM10.0003 8C10.4145 8 10.7503 8.33579 10.7503 8.75C10.7503 12.0377 9.55187 15.0475 7.56901 17.3633C7.29962 17.6779 6.82616 17.7146 6.51152 17.4452C6.19688 17.1758 6.16021 16.7024 6.4296 16.3877C8.18856 14.3334 9.25027 11.6666 9.25027 8.75C9.25027 8.33579 9.58605 8 10.0003 8ZM12.7332 12.324C13.1316 12.4377 13.3623 12.8527 13.2487 13.251C12.7701 14.9286 12.0309 16.4958 11.078 17.9062C10.8462 18.2494 10.3799 18.3397 10.0367 18.1078C9.6935 17.8759 9.60324 17.4097 9.83513 17.0665C10.7009 15.7851 11.3719 14.362 11.8063 12.8395C11.9199 12.4412 12.3349 12.2104 12.7332 12.324Z" fill="inherit"/>
</svg>
