<svg viewBox="0 0 20 20" xmlns="http://www.w3.org/2000/svg">
<path fill-rule="evenodd" clip-rule="evenodd" d="M10.3962 1.53441C10.5983 1.56006 10.7812 1.6668 10.903 1.8301C11.4671 2.58656 12.2143 3.22291 13.1195 3.66517C15.7739 4.85661 17.625 7.52367 17.625 10.6247C17.625 14.8359 14.2112 18.2497 10 18.2497C5.78883 18.2497 2.375 14.8359 2.375 10.6247C2.375 8.58056 3.18037 6.72294 4.48957 5.35443C4.64387 5.19314 4.86199 5.10895 5.08465 5.12477C5.3073 5.14058 5.51134 5.25475 5.64129 5.43623C5.98726 5.91938 6.40168 6.3501 6.8702 6.71419C7.2184 4.6941 8.30118 2.92554 9.83159 1.69412C9.99029 1.56642 10.1941 1.50877 10.3962 1.53441ZM10.2239 3.355C9.02783 4.55249 8.28045 6.19533 8.25091 8.01273C8.2467 8.27162 8.10925 8.51004 7.8873 8.64341C7.66536 8.77677 7.39032 8.78622 7.15974 8.6684C6.35482 8.25709 5.633 7.70721 5.02551 7.05026C4.30111 8.05635 3.875 9.29025 3.875 10.6247C3.875 14.0075 6.61726 16.7497 10 16.7497C13.3827 16.7497 16.125 14.0075 16.125 10.6247C16.125 8.13214 14.636 5.98571 12.4959 5.02943C12.4885 5.02612 12.4811 5.0227 12.4738 5.01915C11.6032 4.59575 10.8477 4.02668 10.2239 3.355ZM9.91159 8.21873C10.0746 8.07251 10.2933 8.00483 10.5104 8.03345C12.4096 8.28383 13.875 9.9077 13.875 11.875C13.875 14.0151 12.1401 15.75 10 15.75C7.8599 15.75 6.125 14.0151 6.125 11.875C6.125 11.4534 6.19263 11.046 6.3182 10.664C6.39338 10.4354 6.57375 10.2567 6.80312 10.1836C7.03248 10.1106 7.28297 10.1521 7.47653 10.2952C7.72197 10.4766 7.9874 10.6321 8.26886 10.7578C8.5833 9.76777 9.15811 8.89466 9.91159 8.21873ZM10.6521 9.59049C10.0777 10.2017 9.68314 10.9816 9.54984 11.8465C9.51782 12.0542 9.40007 12.239 9.22528 12.3558C9.05049 12.4726 8.83471 12.5107 8.6305 12.4608C8.28615 12.3766 7.95405 12.2615 7.63733 12.1186C7.75927 13.3158 8.77054 14.25 10 14.25C11.3117 14.25 12.375 13.1867 12.375 11.875C12.375 10.7898 11.6465 9.87365 10.6521 9.59049Z" fill="inherit"/>
</svg>
