<svg viewBox="0 0 20 20" xmlns="http://www.w3.org/2000/svg">
<path fill-rule="evenodd" clip-rule="evenodd" d="M1 1.25C1.41421 1.25 1.75 1.58579 1.75 2V2.43392L3.39336 2.02308C5.50472 1.49524 7.73524 1.74009 9.68181 2.71338L9.78196 2.76345C11.3757 3.56034 13.1985 3.77324 14.933 3.36512L17.8239 2.68491C18.0608 2.62917 18.31 2.69184 18.4923 2.853C18.6747 3.01417 18.7675 3.25379 18.7413 3.49574C18.5713 5.06532 18.484 6.65996 18.484 8.27526C18.484 9.90402 18.5727 11.5118 18.7456 13.094C18.7867 13.4706 18.5405 13.8188 18.1718 13.9055L15.2765 14.5868C13.2004 15.0753 11.0188 14.8204 9.11115 13.8666L9.01099 13.8165C7.38469 13.0034 5.52114 12.7988 3.75717 13.2398L1.75 13.7416V18.734C1.75 19.1482 1.41421 19.484 1 19.484C0.585786 19.484 0.25 19.1482 0.25 18.734V2C0.25 1.58579 0.585786 1.25 1 1.25ZM1.75 12.1954L3.39336 11.7846C5.50472 11.2568 7.73524 11.5016 9.68181 12.4749L9.78196 12.525C11.3757 13.3219 13.1985 13.5348 14.933 13.1266L17.1871 12.5962C17.0527 11.1738 16.984 9.73246 16.984 8.27526C16.984 6.96487 17.0396 5.66729 17.1485 4.38478L15.2765 4.82524C13.2004 5.31374 11.0188 5.05891 9.11115 4.10509L9.011 4.05502C7.38469 3.24187 5.52114 3.0373 3.75717 3.47829L1.75 3.98008V12.1954Z" fill="inherit"/>
</svg>
