<svg viewBox="0 0 20 20" xmlns="http://www.w3.org/2000/svg">
<path fill-rule="evenodd" clip-rule="evenodd" d="M5.2739 4.75C4.70929 4.75 4.25157 5.20771 4.25157 5.77233V7.9762H15.7363C15.6598 7.48721 15.2368 7.1131 14.7263 7.1131H11.6711C11.1588 7.1131 10.6675 6.9096 10.3053 6.54736L8.63429 4.8764C8.55336 4.79547 8.44359 4.75 8.32914 4.75H5.2739ZM17.2486 8.19129V8.13543C17.2486 6.74238 16.1193 5.6131 14.7263 5.6131H11.6711C11.5566 5.6131 11.4468 5.56763 11.3659 5.4867L9.69495 3.81574C9.33271 3.4535 8.84142 3.25 8.32914 3.25H5.2739C3.88086 3.25 2.75157 4.37928 2.75157 5.77233V8.19129C1.75559 8.63267 1.11029 9.69677 1.27578 10.8552L1.95095 15.5814C2.12847 16.8241 3.19269 17.7471 4.44793 17.7471H15.5523C16.8075 17.7471 17.8717 16.8241 18.0492 15.5814L18.7244 10.8552C18.8899 9.69677 18.2446 8.63267 17.2486 8.19129ZM3.77276 9.4762C3.71837 9.4762 3.6657 9.48032 3.61488 9.48809C3.07247 9.57098 2.68041 10.081 2.76071 10.6431L3.43588 15.3693C3.50783 15.873 3.93917 16.2471 4.44793 16.2471H15.5523C16.061 16.2471 16.4924 15.873 16.5643 15.3693L17.2395 10.6431C17.3198 10.081 16.9277 9.57098 16.3853 9.48809C16.3345 9.48032 16.2818 9.4762 16.2274 9.4762H3.77276Z" fill="inherit"/>
</svg>
