<svg viewBox="0 0 20 20" xmlns="http://www.w3.org/2000/svg">
<path fill-rule="evenodd" clip-rule="evenodd" d="M3.84615 3.75C3.24076 3.75 2.75 4.24076 2.75 4.84615V14.6923C2.75 15.2977 3.24076 15.7885 3.84615 15.7885H16.1538C16.7592 15.7885 17.25 15.2977 17.25 14.6923V7.30769C17.25 6.7023 16.7592 6.21154 16.1538 6.21154H11.7406C11.2152 6.21154 10.7114 6.00285 10.34 5.63139L8.59939 3.89081C8.50922 3.80065 8.38694 3.75 8.25943 3.75H3.84615ZM1.25 4.84615C1.25 3.41234 2.41234 2.25 3.84615 2.25H8.25943C8.78476 2.25 9.28858 2.45869 9.66005 2.83015L11.4006 4.57072C11.4908 4.66089 11.6131 4.71154 11.7406 4.71154H16.1538C17.5877 4.71154 18.75 5.87388 18.75 7.30769V14.6923C18.75 16.1261 17.5877 17.2885 16.1538 17.2885H3.84615C2.41234 17.2885 1.25 16.1261 1.25 14.6923V4.84615ZM10 7.78846C10.4142 7.78846 10.75 8.12425 10.75 8.53846L10.75 11.6509L11.9312 10.4697C12.2241 10.1768 12.699 10.1768 12.9919 10.4697C13.2848 10.7626 13.2848 11.2374 12.9919 11.5303L10.5303 13.9919C10.3897 14.1325 10.1989 14.2115 10 14.2115C9.80109 14.2115 9.61032 14.1325 9.46967 13.9919L7.00813 11.5303C6.71524 11.2374 6.71524 10.7626 7.00813 10.4697C7.30103 10.1768 7.7759 10.1768 8.06879 10.4697L9.25 11.6509L9.25 8.53846C9.25 8.12425 9.58579 7.78846 10 7.78846Z" fill="inherit"/>
</svg>
