<svg viewBox="0 0 20 20" xmlns="http://www.w3.org/2000/svg">
<path fill-rule="evenodd" clip-rule="evenodd" d="M1.125 5.625C1.125 4.17525 2.30025 3 3.75 3H16.25C17.6997 3 18.875 4.17525 18.875 5.625V14.375C18.875 15.8247 17.6997 17 16.25 17H3.75C2.30025 17 1.125 15.8247 1.125 14.375V5.625ZM3.75 4.5C3.12868 4.5 2.625 5.00368 2.625 5.625V14.375C2.625 14.9963 3.12868 15.5 3.75 15.5H16.25C16.8713 15.5 17.375 14.9963 17.375 14.375V5.625C17.375 5.00368 16.8713 4.5 16.25 4.5H3.75ZM6.5717 7.625C6.3014 7.625 5.95031 7.76873 5.63197 8.2216C5.30832 8.68202 5.125 9.32321 5.125 10C5.125 10.6768 5.30832 11.318 5.63197 11.7784C5.95031 12.2313 6.3014 12.375 6.5717 12.375C6.80385 12.375 7.09559 12.269 7.375 11.9521V10.75H6.875C6.46079 10.75 6.125 10.4142 6.125 10C6.125 9.58579 6.46079 9.25 6.875 9.25H8.125C8.53921 9.25 8.875 9.58579 8.875 10V12.2097C8.875 12.3641 8.82736 12.5147 8.73857 12.641C8.19905 13.4085 7.42577 13.875 6.5717 13.875C5.71763 13.875 4.94435 13.4085 4.40482 12.641C3.87061 11.881 3.625 10.9227 3.625 10C3.625 9.07727 3.87061 8.11895 4.40482 7.35898C4.94435 6.59147 5.71763 6.125 6.5717 6.125C7.42577 6.125 8.19905 6.59147 8.73857 7.35898C8.97678 7.69785 8.89518 8.16566 8.55631 8.40387C8.21744 8.64207 7.74963 8.56047 7.51143 8.2216C7.19308 7.76873 6.842 7.625 6.5717 7.625ZM10.625 6.125C11.0392 6.125 11.375 6.46079 11.375 6.875V13.125C11.375 13.5392 11.0392 13.875 10.625 13.875C10.2108 13.875 9.875 13.5392 9.875 13.125V6.875C9.875 6.46079 10.2108 6.125 10.625 6.125ZM12.375 6.875C12.375 6.46079 12.7108 6.125 13.125 6.125H15.625C16.0392 6.125 16.375 6.46079 16.375 6.875C16.375 7.28921 16.0392 7.625 15.625 7.625H13.875V9.25H15C15.4142 9.25 15.75 9.58579 15.75 10C15.75 10.4142 15.4142 10.75 15 10.75H13.875V13.125C13.875 13.5392 13.5392 13.875 13.125 13.875C12.7108 13.875 12.375 13.5392 12.375 13.125V6.875Z" fill="inherit"/>
</svg>
