<svg viewBox="0 0 20 20" xmlns="http://www.w3.org/2000/svg">
<path fill-rule="evenodd" clip-rule="evenodd" d="M7.8125 2.625C7.01859 2.625 6.375 3.26859 6.375 4.0625C6.375 4.85641 7.01859 5.5 7.8125 5.5H9.24982L9.25 4.0625C9.25 3.26859 8.60641 2.625 7.8125 2.625ZM10 2.10191C9.46219 1.50226 8.6814 1.125 7.8125 1.125C6.19016 1.125 4.875 2.44016 4.875 4.0625C4.875 4.5847 5.01126 5.07507 5.25016 5.5H2.8125C1.88052 5.5 1.125 6.25552 1.125 7.1875V8.4375C1.125 9.21817 1.65511 9.87502 2.375 10.0677V16.25C2.375 17.3546 3.27043 18.25 4.375 18.25H16.25C17.3546 18.25 18.25 17.3546 18.25 16.25V10.0677C18.9699 9.87503 19.5 9.21817 19.5 8.4375V7.1875C19.5 6.25552 18.7445 5.5 17.8125 5.5H14.7498C14.9887 5.07507 15.125 4.5847 15.125 4.0625C15.125 2.44016 13.8098 1.125 12.1875 1.125C11.3186 1.125 10.5378 1.50226 10 2.10191ZM10.7502 7L10.75 8.625H17.8125C17.9161 8.625 18 8.54105 18 8.4375V7.1875C18 7.08395 17.9161 7 17.8125 7H10.7502ZM16.75 10.125H10.75V16.75H16.25C16.5261 16.75 16.75 16.5261 16.75 16.25V10.125ZM9.25 16.75V10.125H3.875V16.25C3.875 16.5261 4.09886 16.75 4.375 16.75H9.25ZM9.25 8.625V7H2.8125C2.70895 7 2.625 7.08395 2.625 7.1875V8.4375C2.625 8.54105 2.70895 8.625 2.8125 8.625H9.25ZM10.7502 5.5H12.1875C12.9814 5.5 13.625 4.85641 13.625 4.0625C13.625 3.26859 12.9814 2.625 12.1875 2.625C11.3936 2.625 10.75 3.26859 10.75 4.0625L10.7502 5.5Z" fill="inherit"/>
</svg>
