<svg viewBox="0 0 20 20" xmlns="http://www.w3.org/2000/svg">
<path fill-rule="evenodd" clip-rule="evenodd" d="M3.95281 5.65285C4.37445 5.96936 4.82394 6.25064 5.29696 6.49237C5.499 5.51191 5.79844 4.61948 6.17753 3.86129C6.23443 3.74748 6.29392 3.63533 6.35597 3.52527C5.39444 4.03226 4.56995 4.76472 3.95281 5.65285ZM9.5 1.25C6.41427 1.25 3.72526 2.94444 2.31097 5.45004C1.63529 6.64708 1.25 8.02968 1.25 9.5C1.25 10.212 1.34037 10.904 1.51065 11.5646C2.42739 15.1214 5.65578 17.75 9.5 17.75C13.3442 17.75 16.5726 15.1214 17.4893 11.5646C17.6596 10.904 17.75 10.212 17.75 9.5C17.75 8.02968 17.3647 6.64708 16.689 5.45004C15.2747 2.94444 12.5857 1.25 9.5 1.25ZM9.5 2.75C8.90159 2.75 8.15792 3.2546 7.51917 4.53211C7.17042 5.22962 6.89002 6.0945 6.71229 7.07272C7.59185 7.35033 8.52828 7.5 9.5 7.5C10.4717 7.5 11.4082 7.35033 12.2877 7.07272C12.11 6.0945 11.8296 5.22962 11.4808 4.53211C10.8421 3.2546 10.0984 2.75 9.5 2.75ZM13.703 6.49237C13.501 5.51191 13.2016 4.61948 12.8225 3.86129C12.7656 3.74748 12.7061 3.63533 12.644 3.52527C13.6056 4.03226 14.4301 4.76472 15.0472 5.65285C14.6255 5.96936 14.1761 6.25064 13.703 6.49237ZM12.4709 8.58404C11.5272 8.85488 10.5304 9 9.5 9C8.4696 9 7.47282 8.85488 6.52913 8.58404C6.50996 8.88304 6.5 9.18874 6.5 9.5C6.5 10.4803 6.59876 11.4055 6.77329 12.2395C7.65563 12.4105 8.5672 12.5 9.5 12.5C10.4328 12.5 11.3444 12.4105 12.2267 12.2395C12.4012 11.4055 12.5 10.4803 12.5 9.5C12.5 9.18874 12.49 8.88304 12.4709 8.58404ZM13.8246 11.8322C13.9392 11.0901 14 10.3067 14 9.5C14 9.00521 13.9771 8.5192 13.933 8.0461C14.581 7.7524 15.1947 7.39635 15.7664 6.98563C16.0783 7.76215 16.25 8.6104 16.25 9.5C16.25 9.97285 16.2015 10.4337 16.1094 10.878C15.3825 11.2592 14.6187 11.5796 13.8246 11.8322ZM11.7588 13.8391C11.021 13.9452 10.2668 14 9.5 14C8.73319 14 7.97901 13.9452 7.24123 13.8391C7.32793 14.0612 7.42083 14.2712 7.51917 14.4679C8.15792 15.7454 8.90159 16.25 9.5 16.25C10.0984 16.25 10.8421 15.7454 11.4808 14.4679C11.5792 14.2712 11.6721 14.0612 11.7588 13.8391ZM12.6442 15.4745C12.7062 15.3645 12.7656 15.2524 12.8225 15.1387C13.0695 14.6447 13.2826 14.0937 13.4571 13.4986C14.1032 13.3314 14.7332 13.1242 15.3444 12.8798C14.7077 13.9784 13.7699 14.8809 12.6442 15.4745ZM6.35585 15.4745C6.29384 15.3645 6.23439 15.2524 6.17753 15.1387C5.93053 14.6447 5.71736 14.0937 5.5429 13.4986C4.89682 13.3314 4.26677 13.1242 3.65556 12.8798C4.29233 13.9784 5.23009 14.8809 6.35585 15.4745ZM2.89061 10.878C3.61745 11.2592 4.3813 11.5796 5.17545 11.8322C5.06077 11.0901 5 10.3067 5 9.5C5 9.00521 5.02286 8.5192 5.067 8.0461C4.41898 7.7524 3.80528 7.39635 3.23363 6.98563C2.92173 7.76215 2.75 8.6104 2.75 9.5C2.75 9.97285 2.79851 10.4337 2.89061 10.878Z" fill="inherit"/>
</svg>
