<svg viewBox="0 0 20 20" xmlns="http://www.w3.org/2000/svg">
<path fill-rule="evenodd" clip-rule="evenodd" d="M5.90731 4.63178L6.10137 5.79618C6.247 6.66992 6.66199 7.47633 7.28835 8.10268L8.65533 9.46967C8.8836 9.69794 8.94019 10.0467 8.79582 10.3354L8.47301 10.981C8.43691 11.0532 8.45106 11.1404 8.50813 11.1975L9.63074 12.3201C9.94721 12.6365 10.125 13.0658 10.125 13.5133V14.4206C10.125 14.4916 10.1651 14.5565 10.2286 14.5883L9.90566 15.2343L10.2287 14.5883L10.356 14.652C10.4282 14.6881 10.5154 14.6739 10.5725 14.6169L11.1747 14.0146C12.0077 13.1816 12.5987 12.1378 12.8844 10.9949C12.899 10.9368 12.8789 10.8754 12.8329 10.837L11.7251 9.91388C11.6832 9.87893 11.6281 9.86399 11.5743 9.87297L10.5992 10.0355L10.4759 9.29569L10.5992 10.0355C10.0616 10.1251 9.51388 9.94954 9.12852 9.56418L8.88258 9.31824C8.22357 8.65923 8.22357 7.59077 8.88258 6.93176L8.99187 6.82247C9.50548 6.30886 10.2901 6.18153 10.9398 6.50637L11.2396 6.65628L11.2042 6.58541C11.035 6.2471 11.1443 5.83577 11.459 5.62596L12.5054 4.92837C12.8274 4.71366 13.1038 4.4394 13.3204 4.12161C12.3403 3.56669 11.2079 3.25 10 3.25C8.46055 3.25 7.04285 3.76454 5.90731 4.63178ZM14.536 5.00112C14.2148 5.46303 13.8087 5.86225 13.3374 6.17645L12.804 6.53205C12.9873 7.38533 12.3418 8.25 11.4092 8.25C11.1881 8.25 10.97 8.19852 10.7722 8.09965L10.269 7.84801C10.1968 7.81191 10.1096 7.82606 10.0525 7.88313L9.94324 7.99242C9.87002 8.06564 9.87002 8.18436 9.94324 8.25758L10.1892 8.50352C10.232 8.54634 10.2929 8.56584 10.3526 8.55589L11.3277 8.39338C11.8123 8.31261 12.308 8.44704 12.6854 8.76155L13.7932 9.68468C14.2815 10.0916 14.4938 10.7421 14.3396 11.3587C13.988 12.7654 13.2606 14.05 12.2354 15.0753L11.6331 15.6775C11.1195 16.1911 10.3349 16.3185 9.68521 15.9936L10.0206 15.3228L9.68521 15.9936L9.55783 15.9299C8.98613 15.6441 8.625 15.0598 8.625 14.4206V13.5133C8.625 13.4636 8.60525 13.4159 8.57008 13.3807L7.44747 12.2581C6.93386 11.7445 6.80653 10.9599 7.13137 10.3102L7.21243 10.1481L6.22768 9.16335C5.38027 8.31593 4.8188 7.2249 4.62178 6.04278L4.60506 5.94246C3.75387 7.07219 3.25 8.47702 3.25 10C3.25 13.7279 6.27208 16.75 10 16.75C13.7279 16.75 16.75 13.7279 16.75 10C16.75 8.01878 15.897 6.23675 14.536 5.00112ZM4.60524 3.75812C6.05122 2.50738 7.9381 1.75 10 1.75C11.7669 1.75 13.4061 2.30629 14.7491 3.25323C16.8652 4.74528 18.25 7.21089 18.25 10C18.25 14.5563 14.5563 18.25 10 18.25C5.44365 18.25 1.75 14.5563 1.75 10C1.75 7.50595 2.85763 5.26976 4.60524 3.75812Z" fill="inherit"/>
</svg>
