<svg viewBox="0 0 20 20" xmlns="http://www.w3.org/2000/svg">
<path fill-rule="evenodd" clip-rule="evenodd" d="M3.75006 9.97222C3.75002 9.98148 3.75 9.99074 3.75 10C3.75 12.9247 5.75895 15.3803 8.47222 16.0619V14.6667C8.47222 14.2218 8.11156 13.8611 7.66667 13.8611C6.39334 13.8611 5.36111 12.8289 5.36111 11.5556V10.7778C5.36111 10.3329 5.00045 9.97222 4.55556 9.97222H3.75006ZM3.93807 8.47222H4.55556C5.82888 8.47222 6.86111 9.50445 6.86111 10.7778V11.5556C6.86111 12.0005 7.22177 12.3611 7.66667 12.3611C8.93999 12.3611 9.97222 13.3933 9.97222 14.6667V16.2499C9.98148 16.25 9.99074 16.25 10 16.25C10.547 16.25 11.0777 16.1797 11.5833 16.0477V14.6667C11.5833 13.3933 12.6156 12.3611 13.8889 12.3611H15.7886C16.0861 11.6326 16.25 10.8355 16.25 10C16.25 9.16454 16.0861 8.36737 15.7886 7.63889L15.4444 7.63889C14.9995 7.63889 14.6389 7.99955 14.6389 8.44444C14.6389 9.71777 13.6067 10.75 12.3333 10.75C11.06 10.75 10.0278 9.71777 10.0278 8.44444C10.0278 7.99955 9.66712 7.63889 9.22222 7.63889H8.83333C7.39144 7.63889 6.21408 6.50631 6.14235 5.08224C5.07031 5.92435 4.28045 7.10945 3.93807 8.47222ZM7.63889 4.21137V4.94444C7.63889 5.60412 8.17366 6.13889 8.83333 6.13889H9.22222C10.4955 6.13889 11.5278 7.17112 11.5278 8.44444C11.5278 8.88934 11.8884 9.25 12.3333 9.25C12.7782 9.25 13.1389 8.88934 13.1389 8.44444C13.1389 7.3389 13.917 6.4151 14.9555 6.19085C13.8128 4.70648 12.0181 3.75 10 3.75C9.16454 3.75 8.36737 3.91393 7.63889 4.21137ZM16.944 6.55481C15.6757 4.00337 13.0426 2.25 10 2.25C5.71979 2.25 2.25 5.71979 2.25 10C2.25 14.2802 5.71979 17.75 10 17.75C14.2802 17.75 17.75 14.2802 17.75 10C17.75 8.76301 17.4602 7.59372 16.9448 6.5563C16.9445 6.5558 16.9443 6.55531 16.944 6.55481ZM14.915 13.8611H13.8889C13.444 13.8611 13.0833 14.2218 13.0833 14.6667V15.4378C13.7919 15.0351 14.414 14.498 14.915 13.8611Z" fill="inherit"/>
</svg>
