<svg viewBox="0 0 20 20" xmlns="http://www.w3.org/2000/svg">
<path fill-rule="evenodd" clip-rule="evenodd" d="M9.89397 3.25082C6.21495 3.30747 3.25 6.30748 3.25 10C3.25 10.6618 3.34504 11.3006 3.52203 11.9039L3.6508 11.6464C4.21181 10.5243 5.75747 10.385 6.51014 11.3885L7.07618 12.1432C7.08965 12.1612 7.11404 12.167 7.13412 12.1569C7.15572 12.1461 7.16544 12.1205 7.15647 12.0981L6.80364 11.216C6.65878 10.8539 6.8157 10.4411 7.16459 10.2667L9.35463 9.17166C9.44759 9.12518 9.47878 9.00775 9.42113 8.92127C8.8093 8.00353 9.2376 6.75523 10.284 6.40644L10.5099 7.08407L10.284 6.40643L10.4025 6.36693C10.6399 6.28781 10.844 6.13185 10.9828 5.92369L11.4087 5.28491C11.4618 5.20518 11.4463 5.09821 11.3727 5.03686L10.4822 4.29477C10.1628 4.02864 9.95528 3.65616 9.89397 3.25082ZM11.8949 3.51946L12.333 3.88453L11.8528 4.4607L12.333 3.88453C12.9955 4.43662 13.1351 5.39941 12.6567 6.11696L12.0327 5.70094L12.6567 6.11696L12.2309 6.75575C11.9071 7.24144 11.4306 7.60536 10.8769 7.78995L10.7583 7.82946C10.6502 7.86549 10.606 7.99443 10.6692 8.08922C11.2273 8.92641 10.9254 10.0633 10.0255 10.5133L8.45265 11.2997L8.54919 11.541C8.84789 12.2878 8.52432 13.1389 7.80494 13.4986C7.13646 13.8328 6.32461 13.6411 5.87618 13.0432L5.31014 12.2885C5.22651 12.177 5.05477 12.1925 4.99244 12.3172L4.42082 13.4604C4.39016 13.5217 4.3516 13.5779 4.30656 13.6277C5.50602 15.5062 7.60834 16.75 10 16.75C10.2579 16.75 10.5122 16.7356 10.7621 16.7075C10.5968 16.5015 10.344 16.375 10.069 16.375C9.3019 16.375 8.64722 15.8204 8.52111 15.0637L8.46031 14.6989C8.31921 13.8523 8.83602 13.0347 9.66125 12.7989L9.8673 13.5201L9.66125 12.7989L10.4852 12.5635C10.6391 12.5195 10.7675 12.413 10.8391 12.2698L10.8695 12.209C11.2017 11.5446 11.8807 11.125 12.6234 11.125C13.1435 11.125 13.6423 11.3316 14.01 11.6993L14.0607 11.75H14.2736C15.0337 11.75 15.7365 12.0772 16.2238 12.6178C16.5627 11.8132 16.75 10.929 16.75 10C16.75 6.93005 14.7002 4.33828 11.8949 3.51946ZM15.3662 14.0953L15.3408 14.0192C15.1877 13.5599 14.7578 13.25 14.2736 13.25H13.75C13.5511 13.25 13.3603 13.171 13.2197 13.0303L12.9493 12.76C12.8629 12.6736 12.7457 12.625 12.6234 12.625C12.4488 12.625 12.2892 12.7236 12.2111 12.8798L12.1807 12.9406C11.9211 13.4599 11.4555 13.8463 10.8973 14.0058L10.0733 14.2412C9.98164 14.2674 9.92422 14.3582 9.9399 14.4523L10.0007 14.8171C10.0063 14.8505 10.0352 14.875 10.069 14.875C11.0427 14.875 11.9129 15.465 12.2785 16.356C13.5134 15.9132 14.5829 15.1201 15.3662 14.0953ZM1.75 10C1.75 5.44365 5.44365 1.75 10 1.75C10.2311 1.75 10.4601 1.75952 10.6867 1.77821C14.9221 2.12763 18.25 5.67479 18.25 10C18.25 11.7216 17.7219 13.3221 16.8187 14.6454C15.6925 16.2956 13.9819 17.5169 11.982 18.0102C11.3463 18.167 10.6823 18.25 10 18.25C6.72441 18.25 3.89615 16.341 2.56442 13.5781C2.04226 12.4949 1.75 11.2805 1.75 10ZM11.7821 8.8127C12.1467 8.49093 12.3748 8.02257 12.3748 7.5C12.3748 7.08579 12.7106 6.75 13.1248 6.75C13.539 6.75 13.8748 7.08579 13.8748 7.5C13.8748 8.47079 13.4482 9.34288 12.7747 9.9373C12.4642 10.2114 11.9902 10.1819 11.7161 9.8713C11.442 9.56075 11.4716 9.08679 11.7821 8.8127Z" fill="inherit"/>
</svg>
