<svg viewBox="0 0 20 20" xmlns="http://www.w3.org/2000/svg">
<path fill-rule="evenodd" clip-rule="evenodd" d="M7.62064 1.61583C7.90635 0.819552 8.66792 0.25 9.56252 0.25C10.4571 0.25 11.2187 0.819552 11.5044 1.61583C11.7182 1.5408 11.9481 1.5 12.1875 1.5C13.3266 1.5 14.25 2.42341 14.25 3.5625V7.93799C15.0486 7.42444 16.1239 7.51703 16.8226 8.21576C17.6094 9.00251 17.6276 10.2667 16.8774 11.0757L16.875 12.6816C16.875 12.6814 16.875 12.6817 16.875 12.6816M7.50001 3.5625C7.50001 3.25184 7.24817 3 6.93751 3C6.62685 3 6.37501 3.25184 6.37501 3.5625L6.375 6.0615C6.375 6.06117 6.375 6.06184 6.375 6.0615M7.50001 3.5625L7.56256 8.50949C7.5678 8.92367 7.90781 9.25518 8.32199 9.24994C8.73617 9.2447 9.06768 8.90469 9.06244 8.49051L9.00001 3.55776L9.00002 2.3125C9.00002 2.00184 9.25186 1.75 9.56252 1.75C9.87318 1.75 10.125 2.00184 10.125 2.3125L10.125 9.125C10.125 9.53921 10.4608 9.875 10.875 9.875C11.2892 9.875 11.625 9.53921 11.625 9.125" fill="inherit"/>
</svg>
