<svg viewBox="0 0 20 20" xmlns="http://www.w3.org/2000/svg">
<path fill-rule="evenodd" clip-rule="evenodd" d="M9.27233 1.13959C9.6785 1.22082 9.94191 1.61594 9.86068 2.02211L9.0401 6.12502H12.5101L13.3896 1.72794C13.4708 1.32177 13.8659 1.05835 14.2721 1.13959C14.6783 1.22082 14.9417 1.61594 14.8604 2.02211L14.0399 6.12502H16.875C17.2892 6.12502 17.625 6.46081 17.625 6.87502C17.625 7.28924 17.2892 7.62502 16.875 7.62502H13.7399L12.7899 12.375H15.625C16.0392 12.375 16.375 12.7108 16.375 13.125C16.375 13.5392 16.0392 13.875 15.625 13.875H12.4899L11.6104 18.2721C11.5292 18.6783 11.1341 18.9417 10.7279 18.8605C10.3217 18.7792 10.0583 18.3841 10.1396 17.9779L10.9601 13.875H7.4901L6.61068 18.2721C6.52945 18.6783 6.13433 18.9417 5.72816 18.8605C5.32199 18.7792 5.05857 18.3841 5.13981 17.9779L5.96039 13.875H3.125C2.71079 13.875 2.375 13.5392 2.375 13.125C2.375 12.7108 2.71079 12.375 3.125 12.375H6.26039L7.21039 7.62502H4.375C3.96079 7.62502 3.625 7.28924 3.625 6.87502C3.625 6.46081 3.96079 6.12502 4.375 6.12502H7.51039L8.38981 1.72794C8.47104 1.32177 8.86616 1.05835 9.27233 1.13959ZM8.7401 7.62502L7.7901 12.375H11.2601L12.2101 7.62502H8.7401Z" fill="inherit"/>
</svg>
