<svg viewBox="0 0 20 20" xmlns="http://www.w3.org/2000/svg">
<path fill-rule="evenodd" clip-rule="evenodd" d="M5.90625 3.75C4.13395 3.75 2.75 5.12171 2.75 6.75C2.75 9.44375 4.43719 11.7573 6.2614 13.4578C7.16128 14.2967 8.06426 14.9577 8.74333 15.4091C9.04982 15.6128 9.30917 15.7729 9.5 15.8863C9.69083 15.7729 9.95018 15.6128 10.2567 15.4091C10.9357 14.9577 11.8387 14.2967 12.7386 13.4578C14.5628 11.7573 16.25 9.44375 16.25 6.75C16.25 5.12171 14.866 3.75 13.0938 3.75C11.7741 3.75 10.6596 4.51681 10.1852 5.58281C10.0647 5.85346 9.79625 6.02785 9.5 6.02785C9.20375 6.02785 8.93526 5.85346 8.8148 5.58281C8.34036 4.51681 7.2259 3.75 5.90625 3.75ZM9.5 16.75C9.14824 17.4124 9.14801 17.4123 9.14775 17.4121L9.14708 17.4118L9.14524 17.4108L9.13952 17.4077L9.12009 17.3972C9.10364 17.3883 9.08026 17.3754 9.05042 17.3588C8.99075 17.3255 8.90518 17.2769 8.79741 17.2135C8.58197 17.0868 8.27724 16.9004 7.91292 16.6582C7.18574 16.1748 6.21372 15.464 5.2386 14.555C3.31281 12.7598 1.25 10.0734 1.25 6.75C1.25 4.23616 3.36382 2.25 5.90625 2.25C7.34612 2.25 8.64251 2.8834 9.5 3.88819C10.3575 2.8834 11.6539 2.25 13.0938 2.25C15.6362 2.25 17.75 4.23616 17.75 6.75C17.75 10.0734 15.6872 12.7598 13.7614 14.555C12.7863 15.464 11.8143 16.1748 11.0871 16.6582C10.7228 16.9004 10.418 17.0868 10.2026 17.2135C10.0948 17.2769 10.0092 17.3255 9.94958 17.3588C9.91974 17.3754 9.89636 17.3883 9.87991 17.3972L9.86048 17.4077L9.85476 17.4108L9.85292 17.4118L9.85225 17.4121C9.85199 17.4123 9.85176 17.4124 9.5 16.75ZM9.5 16.75L9.85176 17.4124C9.6318 17.5292 9.3682 17.5292 9.14824 17.4124L9.5 16.75Z" fill="inherit"/>
</svg>
