<svg viewBox="0 0 20 20" xmlns="http://www.w3.org/2000/svg">
<path fill-rule="evenodd" clip-rule="evenodd" d="M3.68707 3.25256C4.10129 3.25256 4.43707 3.58835 4.43707 4.00256V5.77781H6.21234C6.62655 5.77781 6.96234 6.1136 6.96234 6.52781C6.96234 6.94202 6.62655 7.27781 6.21234 7.27781H3.68707C3.27286 7.27781 2.93707 6.94202 2.93707 6.52781V4.00256C2.93707 3.58835 3.27286 3.25256 3.68707 3.25256Z" fill="inherit"/>
<path fill-rule="evenodd" clip-rule="evenodd" d="M3.33583 6.15149C4.66519 3.85396 7.15135 2.30554 10 2.30554C14.2495 2.30554 17.6944 5.75046 17.6944 9.99999C17.6944 14.2495 14.2495 17.6944 10 17.6944C5.75048 17.6944 2.30556 14.2495 2.30556 9.99999C2.30556 9.58577 2.64134 9.24999 3.05556 9.24999C3.46977 9.24999 3.80556 9.58577 3.80556 9.99999C3.80556 13.4211 6.5789 16.1944 10 16.1944C13.4211 16.1944 16.1944 13.4211 16.1944 9.99999C16.1944 6.57889 13.4211 3.80554 10 3.80554C7.70838 3.80554 5.70641 5.04956 4.63416 6.90272C4.42671 7.26124 3.9679 7.38371 3.60938 7.17627C3.25086 6.96883 3.12838 6.51002 3.33583 6.15149Z" fill="inherit"/>
<path fill-rule="evenodd" clip-rule="evenodd" d="M10.0016 5.08331C10.4158 5.08335 10.7515 5.41917 10.7515 5.83339L10.7511 9.69241L13.4756 12.4169C13.7685 12.7098 13.7685 13.1847 13.4756 13.4776C13.1828 13.7705 12.7079 13.7705 12.415 13.4776L9.47075 10.5334C9.33008 10.3927 9.25106 10.2019 9.25108 10.003L9.2515 5.83324C9.25154 5.41902 9.58736 5.08327 10.0016 5.08331Z" fill="inherit"/>
</svg>
