<svg viewBox="0 0 20 20" xmlns="http://www.w3.org/2000/svg">
<path fill-rule="evenodd" clip-rule="evenodd" d="M16.3299 2.2437C16.4714 2.63297 16.2706 3.0633 15.8813 3.20485L15.125 3.47987V7.58444L18.3622 8.66349C18.7551 8.79448 18.9675 9.21922 18.8365 9.61218C18.7055 10.0051 18.2808 10.2175 17.8878 10.0865L17.625 9.99891V16.75H18.125C18.5392 16.75 18.875 17.0858 18.875 17.5C18.875 17.9142 18.5392 18.25 18.125 18.25H1.87501C1.46079 18.25 1.12501 17.9142 1.12501 17.5C1.12501 17.0858 1.46079 16.75 1.87501 16.75H2.37501V8.11624L2.13131 8.20485C1.74204 8.34641 1.31172 8.14559 1.17016 7.75631C1.02861 7.36704 1.22942 6.93672 1.6187 6.79516L2.37501 6.52014V2.50001C2.37501 2.08579 2.71079 1.75001 3.12501 1.75001H5.62501C6.03922 1.75001 6.37501 2.08579 6.37501 2.50001V5.06559L15.3687 1.79516C15.758 1.65361 16.1883 1.85442 16.3299 2.2437ZM4.87501 5.61105V3.25001H3.87501V5.97469L4.87501 5.61105ZM3.87501 7.57078V16.75H6.12501V13.4375C6.12501 12.5055 6.88052 11.75 7.81251 11.75H9.68751C10.6195 11.75 11.375 12.5055 11.375 13.4375V16.75H13.625V8.1425C13.6247 8.13094 13.6247 8.11934 13.625 8.10772V4.02533L3.87501 7.57078ZM15.125 9.16558V16.75H16.125V9.49891L15.125 9.16558ZM7.62501 16.75H9.87501V13.4375C9.87501 13.334 9.79106 13.25 9.68751 13.25H7.81251C7.70895 13.25 7.62501 13.334 7.62501 13.4375V16.75Z" fill="inherit"/>
</svg>
