<svg viewBox="0 0 20 20" xmlns="http://www.w3.org/2000/svg">
<path fill-rule="evenodd" clip-rule="evenodd" d="M10.1326 3.0681C10.0594 2.99488 9.94064 2.99488 9.86742 3.0681L4.5 8.43552V16.5624C4.5 16.6659 4.58395 16.7499 4.6875 16.7499H7.375V13.4374C7.375 12.5054 8.13052 11.7499 9.0625 11.7499H10.9375C11.8695 11.7499 12.625 12.5054 12.625 13.4374V16.7499H15.3125C15.4161 16.7499 15.5 16.6659 15.5 16.5624V8.43552L10.1326 3.0681ZM17 9.93552L17.5947 10.5302C17.8876 10.8231 18.3624 10.8231 18.6553 10.5302C18.9482 10.2373 18.9482 9.76242 18.6553 9.46953L11.1932 2.00744C10.5342 1.34843 9.46577 1.34843 8.80676 2.00744L3.22002 7.59418C3.21979 7.59441 3.22025 7.59395 3.22002 7.59418L1.34467 9.46953C1.05178 9.76242 1.05178 10.2373 1.34467 10.5302C1.63756 10.8231 2.11244 10.8231 2.40533 10.5302L3 9.93552V16.5624C3 17.4943 3.75552 18.2499 4.6875 18.2499H15.3125C16.2445 18.2499 17 17.4943 17 16.5624V9.93552ZM11.125 16.7499H8.875V13.4374C8.875 13.3338 8.95895 13.2499 9.0625 13.2499H10.9375C11.0411 13.2499 11.125 13.3338 11.125 13.4374V16.7499Z" fill="inherit"/>
</svg>
