<svg viewBox="0 0 20 20" xmlns="http://www.w3.org/2000/svg">
<path fill-rule="evenodd" clip-rule="evenodd" d="M8.64575 3.25C7.50666 3.25 6.58325 4.17341 6.58325 5.3125C6.58325 6.45159 7.50666 7.375 8.64575 7.375C9.78484 7.375 10.7083 6.45159 10.7083 5.3125C10.7083 4.17341 9.78484 3.25 8.64575 3.25ZM5.08325 5.3125C5.08325 3.34499 6.67824 1.75 8.64575 1.75C10.6133 1.75 12.2083 3.34499 12.2083 5.3125C12.2083 7.28001 10.6133 8.875 8.64575 8.875C6.67824 8.875 5.08325 7.28001 5.08325 5.3125ZM12.5833 8.75C12.5833 8.33579 12.919 8 13.3333 8H18.3333C18.7475 8 19.0833 8.33579 19.0833 8.75C19.0833 9.16421 18.7475 9.5 18.3333 9.5H13.3333C12.919 9.5 12.5833 9.16421 12.5833 8.75ZM4.09553 15.6003C5.44804 16.3335 6.9973 16.75 8.64575 16.75C10.2942 16.75 11.8435 16.3335 13.196 15.6003C13.0234 13.2379 11.0521 11.375 8.64575 11.375C6.23938 11.375 4.26812 13.2379 4.09553 15.6003ZM2.58325 15.9375C2.58325 12.5893 5.29753 9.875 8.64575 9.875C11.994 9.875 14.7083 12.5893 14.7083 15.9375V15.9396L14.7083 15.9399C14.7082 15.9738 14.7079 16.0076 14.7074 16.0412C14.703 16.2997 14.5658 16.5378 14.3443 16.6711C12.6794 17.6736 10.7287 18.25 8.64575 18.25C6.56276 18.25 4.61211 17.6736 2.94716 16.6711C2.72566 16.5378 2.58847 16.2997 2.58412 16.0412C2.58355 16.0067 2.58325 15.9722 2.58325 15.9375Z" fill="inherit"/>
</svg>
