<svg viewBox="0 0 20 20" xmlns="http://www.w3.org/2000/svg">
<path fill-rule="evenodd" clip-rule="evenodd" d="M1.125 5.625C1.125 4.17525 2.30025 3 3.75 3H16.25C17.6997 3 18.875 4.17525 18.875 5.625V14.375C18.875 15.8247 17.6997 17 16.25 17H3.75C2.30025 17 1.125 15.8247 1.125 14.375V5.625ZM3.75 4.5C3.12868 4.5 2.625 5.00368 2.625 5.625V14.375C2.625 14.9963 3.12868 15.5 3.75 15.5H16.25C16.8713 15.5 17.375 14.9963 17.375 14.375V5.625C17.375 5.00368 16.8713 4.5 16.25 4.5H3.75ZM7.1875 7C6.73877 7 6.375 7.36377 6.375 7.8125C6.375 8.26123 6.73877 8.625 7.1875 8.625C7.63623 8.625 8 8.26123 8 7.8125C8 7.36377 7.63623 7 7.1875 7ZM4.875 7.8125C4.875 6.53534 5.91034 5.5 7.1875 5.5C8.46466 5.5 9.5 6.53534 9.5 7.8125C9.5 9.08966 8.46466 10.125 7.1875 10.125C5.91034 10.125 4.875 9.08966 4.875 7.8125ZM11.75 7.5C11.75 7.08579 12.0858 6.75 12.5 6.75H15.625C16.0392 6.75 16.375 7.08579 16.375 7.5C16.375 7.91421 16.0392 8.25 15.625 8.25H12.5C12.0858 8.25 11.75 7.91421 11.75 7.5ZM11.75 10C11.75 9.58579 12.0858 9.25 12.5 9.25H15.625C16.0392 9.25 16.375 9.58579 16.375 10C16.375 10.4142 16.0392 10.75 15.625 10.75H12.5C12.0858 10.75 11.75 10.4142 11.75 10ZM5.60607 12.738C6.1014 12.9078 6.63312 13 7.18737 13C7.74162 13 8.27334 12.9078 8.76867 12.738C8.38996 12.2865 7.82164 12 7.18737 12C6.5531 12 5.98478 12.2865 5.60607 12.738ZM3.8425 12.8342C4.34247 11.473 5.65034 10.5 7.18737 10.5C8.7244 10.5 10.0323 11.473 10.5322 12.8342C10.6614 13.1858 10.5114 13.5787 10.1808 13.7547C9.28751 14.2306 8.26779 14.5 7.18737 14.5C6.10695 14.5 5.08723 14.2306 4.19389 13.7547C3.86336 13.5787 3.71338 13.1858 3.8425 12.8342ZM11.75 12.5C11.75 12.0858 12.0858 11.75 12.5 11.75H15.625C16.0392 11.75 16.375 12.0858 16.375 12.5C16.375 12.9142 16.0392 13.25 15.625 13.25H12.5C12.0858 13.25 11.75 12.9142 11.75 12.5Z" fill="inherit"/>
</svg>
