<svg viewBox="0 0 20 20" xmlns="http://www.w3.org/2000/svg">
<path fill-rule="evenodd" clip-rule="evenodd" d="M7.69444 5.33333C7.69444 4.06 8.72668 3.02777 10 3.02777C11.2733 3.02777 12.3056 4.06 12.3056 5.33333V5.3611H15.4444C16.7178 5.3611 17.75 6.39334 17.75 7.66666V14.6667C17.75 15.94 16.7178 16.9722 15.4444 16.9722H4.55556C3.28223 16.9722 2.25 15.94 2.25 14.6667V7.66666C2.25 6.39334 3.28223 5.3611 4.55556 5.3611H7.69444V5.33333ZM7.81918 6.8611H4.55556C4.11066 6.8611 3.75 7.22176 3.75 7.66666V14.6667C3.75 15.1116 4.11066 15.4722 4.55556 15.4722H15.4444C15.8893 15.4722 16.25 15.1116 16.25 14.6667V7.66666C16.25 7.22176 15.8893 6.8611 15.4444 6.8611H12.1808C11.8696 7.76624 11.0108 8.41666 10 8.41666C8.98924 8.41666 8.13039 7.76624 7.81918 6.8611ZM10 4.52777C9.5551 4.52777 9.19444 4.88843 9.19444 5.33333V6.1111C9.19444 6.556 9.5551 6.91666 10 6.91666C10.4449 6.91666 10.8056 6.556 10.8056 6.1111V5.33333C10.8056 4.88843 10.4449 4.52777 10 4.52777ZM7.66667 9.97222C7.22177 9.97222 6.86111 10.3329 6.86111 10.7778C6.86111 11.2227 7.22177 11.5833 7.66667 11.5833C8.11156 11.5833 8.47222 11.2227 8.47222 10.7778C8.47222 10.3329 8.11156 9.97222 7.66667 9.97222ZM9.4944 12.1833C9.79404 11.7942 9.97222 11.3068 9.97222 10.7778C9.97222 9.50445 8.93999 8.47222 7.66667 8.47222C6.39334 8.47222 5.36111 9.50445 5.36111 10.7778C5.36111 11.3068 5.53929 11.7942 5.83891 12.1833C5.34668 12.5462 4.96639 13.052 4.75893 13.6389C4.6209 14.0295 4.82559 14.458 5.21613 14.596C5.60667 14.734 6.03516 14.5294 6.17319 14.1388C6.3909 13.5229 6.97843 13.0833 7.66667 13.0833C8.35487 13.0833 8.94234 13.5228 9.16006 14.1388C9.29809 14.5294 9.72659 14.734 10.1171 14.596C10.5077 14.458 10.7124 14.0295 10.5743 13.6389C10.3669 13.052 9.98661 12.5463 9.4944 12.1833ZM11.5833 9.99999C11.5833 9.58578 11.9191 9.24999 12.3333 9.24999H14.6667C15.0809 9.24999 15.4167 9.58578 15.4167 9.99999C15.4167 10.4142 15.0809 10.75 14.6667 10.75H12.3333C11.9191 10.75 11.5833 10.4142 11.5833 9.99999ZM11.5833 13.1111C11.5833 12.6969 11.9191 12.3611 12.3333 12.3611H13.8889C14.3031 12.3611 14.6389 12.6969 14.6389 13.1111C14.6389 13.5253 14.3031 13.8611 13.8889 13.8611H12.3333C11.9191 13.8611 11.5833 13.5253 11.5833 13.1111Z" fill="inherit"/>
</svg>
