<svg viewBox="0 0 20 20" xmlns="http://www.w3.org/2000/svg">
<path fill-rule="evenodd" clip-rule="evenodd" d="M10 1.75C10.4142 1.75 10.75 2.08579 10.75 2.5V7.56434L11.9697 6.34467C12.2626 6.05178 12.7374 6.05178 13.0303 6.34467C13.3232 6.63756 13.3232 7.11244 13.0303 7.40533L10.5303 9.90533C10.2374 10.1982 9.76256 10.1982 9.46967 9.90533L6.96967 7.40533C6.67678 7.11244 6.67678 6.63756 6.96967 6.34467C7.26256 6.05178 7.73744 6.05178 8.03033 6.34467L9.25 7.56434V2.5C9.25 2.08579 9.58579 1.75 10 1.75ZM5.75983 3.875C5.26595 3.875 4.82982 4.19711 4.68458 4.66915L2.89047 10.5H5.09119C6.08546 10.5 6.9944 11.0618 7.43906 11.9511L7.65258 12.3781C7.84315 12.7592 8.2327 13 8.65881 13H11.3412C11.7673 13 12.1569 12.7592 12.3474 12.3781L12.5609 11.9511C13.0056 11.0618 13.9145 10.5 14.9088 10.5H17.1095L15.3154 4.66915C15.1702 4.19711 14.7341 3.875 14.2402 3.875H12.5C12.0858 3.875 11.75 3.53921 11.75 3.125C11.75 2.71079 12.0858 2.375 12.5 2.375H14.2402C15.3926 2.375 16.4102 3.1266 16.7491 4.22802L18.7589 10.76C18.7769 10.8184 18.7928 10.8773 18.8066 10.9367C18.8505 11.032 18.875 11.1381 18.875 11.25C18.875 11.2834 18.8728 11.3163 18.8686 11.3485C18.8729 11.4095 18.875 11.4707 18.875 11.5319V15C18.875 16.4497 17.6997 17.625 16.25 17.625H3.75C2.30025 17.625 1.125 16.4497 1.125 15V11.5319C1.125 11.4707 1.12714 11.4095 1.13141 11.3485C1.12718 11.3163 1.125 11.2834 1.125 11.25C1.125 11.1382 1.14948 11.032 1.19338 10.9367C1.20721 10.8773 1.22311 10.8184 1.24108 10.76L3.25091 4.22802C3.58981 3.1266 4.60744 2.375 5.75983 2.375H7.5C7.91421 2.375 8.25 2.71079 8.25 3.125C8.25 3.53921 7.91421 3.875 7.5 3.875H5.75983ZM2.625 12V15C2.625 15.6213 3.12868 16.125 3.75 16.125H16.25C16.8713 16.125 17.375 15.6213 17.375 15V12H14.9088C14.4827 12 14.0931 12.2408 13.9026 12.6219L13.6891 13.0489C13.2444 13.9382 12.3355 14.5 11.3412 14.5H8.65881C7.66454 14.5 6.7556 13.9382 6.31094 13.0489L6.09742 12.6219C5.90685 12.2408 5.5173 12 5.09119 12H2.625Z" fill="inherit"/>
</svg>
