<svg viewBox="0 0 20 20" xmlns="http://www.w3.org/2000/svg">
<path fill-rule="evenodd" clip-rule="evenodd" d="M3.25091 4.22802C3.58981 3.1266 4.60744 2.375 5.75983 2.375H14.2402C15.3926 2.375 16.4102 3.1266 16.7491 4.22802L18.7589 10.76C18.7769 10.8184 18.7928 10.8773 18.8066 10.9367C18.8505 11.032 18.875 11.1381 18.875 11.25C18.875 11.2834 18.8728 11.3163 18.8686 11.3485C18.8729 11.4095 18.875 11.4707 18.875 11.5319V15C18.875 16.4497 17.6997 17.625 16.25 17.625H3.75C2.30025 17.625 1.125 16.4497 1.125 15V11.5319C1.125 11.4707 1.12714 11.4095 1.13141 11.3485C1.12718 11.3163 1.125 11.2834 1.125 11.25C1.125 11.1382 1.14948 11.032 1.19338 10.9367C1.20721 10.8773 1.22311 10.8184 1.24108 10.76L3.25091 4.22802ZM2.625 12V15C2.625 15.6213 3.12868 16.125 3.75 16.125H16.25C16.8713 16.125 17.375 15.6213 17.375 15V12H14.9088C14.4827 12 14.0931 12.2408 13.9026 12.6219L13.6891 13.0489C13.2444 13.9382 12.3355 14.5 11.3412 14.5H8.65881C7.66454 14.5 6.7556 13.9382 6.31094 13.0489L6.09742 12.6219C5.90685 12.2408 5.5173 12 5.09119 12H2.625ZM17.1095 10.5H14.9088C13.9145 10.5 13.0056 11.0618 12.5609 11.9511L12.3474 12.3781C12.1569 12.7592 11.7673 13 11.3412 13H8.65881C8.2327 13 7.84315 12.7592 7.65258 12.3781L7.43906 11.9511C6.9944 11.0618 6.08546 10.5 5.09119 10.5H2.89047L4.68458 4.66915C4.82982 4.19711 5.26595 3.875 5.75983 3.875H14.2402C14.7341 3.875 15.1702 4.19711 15.3154 4.66915L17.1095 10.5Z" fill="inherit"/>
</svg>
