<svg viewBox="0 0 20 20" xmlns="http://www.w3.org/2000/svg">
<path fill-rule="evenodd" clip-rule="evenodd" d="M6.48738 3.875C6.15896 3.875 5.84694 4.01851 5.63321 4.26786L3.50567 6.75H5.87153C6.74921 6.75 7.56881 7.18864 8.05566 7.91891L8.19241 8.12404C8.40106 8.43701 8.75232 8.625 9.12847 8.625H10.8715C11.2477 8.625 11.5989 8.43701 11.8076 8.12404L11.9443 7.91891C12.4312 7.18864 13.2508 6.75 14.1285 6.75H16.4943L14.3668 4.26786C14.1531 4.01851 13.841 3.875 13.5126 3.875H6.48738ZM17.375 8.25H14.1285C13.7523 8.25 13.4011 8.43799 13.1924 8.75096L13.0557 8.95609C12.5688 9.68636 11.7492 10.125 10.8715 10.125H9.12847C8.25079 10.125 7.43119 9.68636 6.94434 8.95609L6.80759 8.75096C6.59894 8.43799 6.24768 8.25 5.87153 8.25H2.625V10C2.625 10.6213 3.12868 11.125 3.75 11.125H6.54951C6.5577 11.1249 6.56589 11.1249 6.57407 11.125H13.4259C13.4341 11.1249 13.4423 11.1249 13.4505 11.125H16.25C16.8713 11.125 17.375 10.6213 17.375 10V8.25ZM18.3438 11.5834C18.6772 11.1433 18.875 10.5947 18.875 10V8.19361C18.875 7.85842 18.8109 7.52913 18.6888 7.22256C18.5827 6.956 18.4327 6.70654 18.243 6.48528L15.5057 3.29167C15.007 2.70985 14.2789 2.375 13.5126 2.375H6.48738C5.72108 2.375 4.99303 2.70985 4.49433 3.29167L1.75695 6.48528C1.5673 6.70654 1.41735 6.956 1.31121 7.22256C1.18915 7.52913 1.125 7.85842 1.125 8.19361V10C1.125 10.5947 1.32279 11.1433 1.65618 11.5834C1.32918 11.8912 1.125 12.328 1.125 12.8125V15C1.125 16.4497 2.30025 17.625 3.75 17.625H16.25C17.6997 17.625 18.875 16.4497 18.875 15V12.8125C18.875 12.328 18.6708 11.8912 18.3438 11.5834ZM2.8125 12.625C2.70895 12.625 2.625 12.7089 2.625 12.8125V15C2.625 15.6213 3.12868 16.125 3.75 16.125H16.25C16.8713 16.125 17.375 15.6213 17.375 15V12.8125C17.375 12.7089 17.2911 12.625 17.1875 12.625H13.8532L13.0618 13.8912C12.5821 14.6587 11.7409 15.125 10.8358 15.125H9.16421C8.25914 15.125 7.41791 14.6587 6.93822 13.8912L6.14681 12.625H2.8125ZM7.91569 12.625L8.21022 13.0962C8.4158 13.4252 8.77633 13.625 9.16421 13.625H10.8358C11.2237 13.625 11.5842 13.4252 11.7898 13.0962L12.0843 12.625H7.91569Z" fill="inherit"/>
</svg>
