<svg viewBox="0 0 20 20" xmlns="http://www.w3.org/2000/svg">
<path fill-rule="evenodd" clip-rule="evenodd" d="M10 3.75C6.54822 3.75 3.75 6.54822 3.75 10C3.75 13.4518 6.54822 16.25 10 16.25C13.4518 16.25 16.25 13.4518 16.25 10C16.25 6.54822 13.4518 3.75 10 3.75ZM2.25 10C2.25 5.71979 5.71979 2.25 10 2.25C14.2802 2.25 17.75 5.71979 17.75 10C17.75 14.2802 14.2802 17.75 10 17.75C5.71979 17.75 2.25 14.2802 2.25 10ZM9.25 6.88889C9.25 6.47468 9.58579 6.13889 10 6.13889H10.0078C10.422 6.13889 10.7578 6.47468 10.7578 6.88889C10.7578 7.3031 10.422 7.63889 10.0078 7.63889H10C9.58579 7.63889 9.25 7.3031 9.25 6.88889ZM8.47222 10C8.47222 9.58579 8.80801 9.25 9.22222 9.25H10C10.4142 9.25 10.75 9.58579 10.75 10V12.3611H10.7778C11.192 12.3611 11.5278 12.6969 11.5278 13.1111C11.5278 13.5253 11.192 13.8611 10.7778 13.8611H10C9.58579 13.8611 9.25 13.5253 9.25 13.1111V10.75H9.22222C8.80801 10.75 8.47222 10.4142 8.47222 10Z" fill="inherit"/>
</svg>
