<svg viewBox="0 0 20 20" xmlns="http://www.w3.org/2000/svg">
<path fill-rule="evenodd" clip-rule="evenodd" d="M13.0769 2.75C10.7722 2.75 8.90385 4.61835 8.90385 6.92308C8.90385 7.16789 8.92485 7.40719 8.96497 7.63945C9.07488 8.27556 8.94996 9.03377 8.40356 9.58017L3.07106 14.9127C2.86549 15.1182 2.75 15.3971 2.75 15.6878V17.25H4.32692V16.1538C4.32692 15.7396 4.66271 15.4038 5.07692 15.4038H6.17308V14.3077C6.17308 13.8935 6.50886 13.5577 6.92308 13.5577H8.45857L10.4198 11.5964C10.9662 11.05 11.7244 10.9251 12.3605 11.035C12.5928 11.0752 12.8321 11.0962 13.0769 11.0962C15.3816 11.0962 17.25 9.2278 17.25 6.92308C17.25 4.61835 15.3816 2.75 13.0769 2.75ZM7.40385 6.92308C7.40385 3.78992 9.94377 1.25 13.0769 1.25C16.2101 1.25 18.75 3.78992 18.75 6.92308C18.75 10.0562 16.2101 12.5962 13.0769 12.5962C12.7462 12.5962 12.4214 12.5678 12.1052 12.5131C11.8173 12.4634 11.5971 12.5405 11.4805 12.6571L9.29956 14.838C9.15891 14.9787 8.96814 15.0577 8.76923 15.0577H7.67308V16.1538C7.67308 16.5681 7.33729 16.9038 6.92308 16.9038H5.82692V18C5.82692 18.4142 5.49114 18.75 5.07692 18.75H2C1.58579 18.75 1.25 18.4142 1.25 18V15.6878C1.25 14.9992 1.52352 14.3389 2.0104 13.852L7.3429 8.51951C7.4595 8.40292 7.5366 8.18266 7.48687 7.89483C7.43223 7.57859 7.40385 7.25385 7.40385 6.92308ZM12.3269 4.46154C12.3269 4.04732 12.6627 3.71154 13.0769 3.71154C14.8506 3.71154 16.2885 5.14939 16.2885 6.92308C16.2885 7.33729 15.9527 7.67308 15.5385 7.67308C15.1242 7.67308 14.7885 7.33729 14.7885 6.92308C14.7885 5.97782 14.0222 5.21154 13.0769 5.21154C12.6627 5.21154 12.3269 4.87575 12.3269 4.46154Z" fill="inherit"/>
</svg>
