<svg viewBox="0 0 20 20" xmlns="http://www.w3.org/2000/svg">
<path fill-rule="evenodd" clip-rule="evenodd" d="M9.58398 1.87596C9.8359 1.70801 10.1641 1.70801 10.416 1.87596L17.916 6.87596C18.2607 7.10573 18.3538 7.57138 18.124 7.91603C17.8943 8.26067 17.4286 8.3538 17.084 8.12404L10 3.40139L2.91603 8.12404C2.57138 8.3538 2.10573 8.26067 1.87597 7.91603C1.6462 7.57138 1.73933 7.10573 2.08398 6.87596L9.58398 1.87596ZM9.25 5.625C9.25 5.21079 9.58579 4.875 10 4.875H10.0063C10.4205 4.875 10.7563 5.21079 10.7563 5.625V5.63125C10.7563 6.04546 10.4205 6.38125 10.0063 6.38125H10C9.58579 6.38125 9.25 6.04546 9.25 5.63125V5.625ZM4.5 9.25722V16.75H6.125V10.625C6.125 10.2108 6.46079 9.875 6.875 9.875C7.28922 9.875 7.625 10.2108 7.625 10.625V16.75H9.25V10.625C9.25 10.2108 9.58579 9.875 10 9.875C10.4142 9.875 10.75 10.2108 10.75 10.625V16.75H12.375V10.625C12.375 10.2108 12.7108 9.875 13.125 9.875C13.5392 9.875 13.875 10.2108 13.875 10.625V16.75H15.5V9.25722C13.7032 9.0053 11.867 8.875 10 8.875C8.13299 8.875 6.29682 9.0053 4.5 9.25722ZM17 16.75V8.61042C17 8.24109 16.7311 7.92673 16.3663 7.86948C14.2915 7.54394 12.1652 7.375 10 7.375C7.83478 7.375 5.7085 7.54394 3.63374 7.86948C3.26888 7.92673 3 8.24109 3 8.61042V16.75H2.5C2.08579 16.75 1.75 17.0858 1.75 17.5C1.75 17.9142 2.08579 18.25 2.5 18.25H17.5C17.9142 18.25 18.25 17.9142 18.25 17.5C18.25 17.0858 17.9142 16.75 17.5 16.75H17Z" fill="inherit"/>
</svg>
