<svg viewBox="0 0 20 20" xmlns="http://www.w3.org/2000/svg">
<path fill-rule="evenodd" clip-rule="evenodd" d="M10 2.75C7.10051 2.75 4.75 5.10051 4.75 8C4.75 9.93986 5.80171 11.635 7.36963 12.5447C8.19691 13.0247 8.95 13.9082 8.95 15.0467V15.2C8.95 15.6142 8.61421 15.95 8.2 15.95C7.78579 15.95 7.45 15.6142 7.45 15.2V15.0467C7.45 14.6125 7.14986 14.1514 6.61685 13.8421L6.99324 13.1934L6.61685 13.8421C4.60542 12.6751 3.25 10.4963 3.25 8C3.25 4.27208 6.27208 1.25 10 1.25C13.7279 1.25 16.75 4.27208 16.75 8C16.75 10.4963 15.3946 12.6751 13.3832 13.8421C12.8501 14.1514 12.55 14.6125 12.55 15.0467V15.2C12.55 15.6142 12.2142 15.95 11.8 15.95C11.3858 15.95 11.05 15.6142 11.05 15.2V15.0467C11.05 13.9082 11.8031 13.0247 12.6304 12.5447C14.1983 11.635 15.25 9.93986 15.25 8C15.25 5.10051 12.8995 2.75 10 2.75ZM8.07367 10.6619C8.17692 10.2607 8.5858 10.0193 8.98694 10.1225C9.30987 10.2056 9.64917 10.25 10 10.25C10.3508 10.25 10.6901 10.2056 11.0131 10.1225C11.4142 10.0193 11.8231 10.2607 11.9263 10.6619C12.0296 11.063 11.7881 11.4719 11.3869 11.5752C11.1789 11.6287 10.9663 11.6704 10.75 11.6997V15.2C10.75 15.6142 10.4142 15.95 10 15.95C9.58579 15.95 9.25 15.6142 9.25 15.2V11.6997C9.03367 11.6704 8.82109 11.6287 8.61306 11.5752C8.21192 11.4719 7.97043 11.063 8.07367 10.6619ZM7.46314 16.6918C7.54034 16.2848 7.93282 16.0175 8.33978 16.0947C8.87698 16.1966 9.4319 16.25 10 16.25C10.5681 16.25 11.123 16.1966 11.6602 16.0947C12.0672 16.0175 12.4597 16.2848 12.5369 16.6918C12.6141 17.0987 12.3467 17.4912 11.9398 17.5684C11.3109 17.6877 10.6624 17.75 10 17.75C9.33763 17.75 8.68912 17.6877 8.06022 17.5684C7.65327 17.4912 7.38594 17.0987 7.46314 16.6918ZM8.05407 18.6596C8.09717 18.2476 8.46607 17.9486 8.87803 17.9917C9.24652 18.0302 9.62082 18.05 10 18.05C10.3792 18.05 10.7535 18.0302 11.122 17.9917C11.5339 17.9486 11.9028 18.2476 11.9459 18.6596C11.989 19.0715 11.69 19.4404 11.278 19.4835C10.8578 19.5275 10.4314 19.55 10 19.55C9.5686 19.55 9.14221 19.5275 8.72197 19.4835C8.31 19.4404 8.01097 19.0715 8.05407 18.6596Z" fill="inherit"/>
</svg>
