<svg viewBox="0 0 20 20" xmlns="http://www.w3.org/2000/svg">
<path fill-rule="evenodd" clip-rule="evenodd" d="M12.2402 1.21993C12.5414 1.38787 12.6893 1.7396 12.5986 2.07234L10.9819 8H16.875C17.1736 8 17.4438 8.17718 17.5629 8.45109C17.6819 8.72499 17.6271 9.04341 17.4233 9.26174L8.67329 18.6367C8.43797 18.8889 8.06103 18.948 7.75979 18.7801C7.45855 18.6121 7.31068 18.2604 7.40143 17.9277L9.01806 12H3.125C2.82635 12 2.55617 11.8228 2.43714 11.5489C2.31811 11.275 2.37294 10.9566 2.57671 10.7383L11.3267 1.36326C11.562 1.11113 11.939 1.05198 12.2402 1.21993ZM4.85091 10.5H10C10.2338 10.5 10.4541 10.609 10.596 10.7948C10.7379 10.9805 10.7851 11.2218 10.7236 11.4473L9.64688 15.3952L15.1491 9.5H10C9.76625 9.5 9.54586 9.39101 9.40397 9.20525C9.26208 9.01948 9.21492 8.77818 9.27643 8.55266L10.3531 4.60478L4.85091 10.5Z" fill="inherit"/>
</svg>
