<svg viewBox="0 0 20 20" xmlns="http://www.w3.org/2000/svg">
<path fill-rule="evenodd" clip-rule="evenodd" d="M16.4963 3.50368C15.3247 2.33211 13.4253 2.33211 12.2537 3.50368L8.50368 7.25368C7.33211 8.42525 7.33211 10.3247 8.50368 11.4963C8.75256 11.7452 9.03299 11.9403 9.3314 12.0829C9.70516 12.2615 9.86341 12.7092 9.68486 13.0829C9.50632 13.4567 9.05859 13.6149 8.68483 13.4364C8.2349 13.2215 7.81398 12.9279 7.44302 12.557C5.68566 10.7996 5.68566 7.95038 7.44302 6.19302L11.193 2.44302C12.9504 0.68566 15.7996 0.68566 17.557 2.44302C19.3143 4.20038 19.3143 7.04962 17.557 8.80698L16.0928 10.2711C15.7999 10.564 15.3251 10.564 15.0322 10.2711C14.7393 9.97823 14.7393 9.50336 15.0322 9.21046L16.4963 7.74632C17.6679 6.57475 17.6679 4.67525 16.4963 3.50368ZM10.3151 6.91706C10.4937 6.54331 10.9414 6.38506 11.3152 6.5636C11.7651 6.77854 12.186 7.07206 12.557 7.44302C14.3143 9.20038 14.3143 12.0496 12.557 13.807L8.80698 17.557C7.04962 19.3143 4.20038 19.3143 2.44302 17.557C0.68566 15.7996 0.68566 12.9504 2.44302 11.193L3.90716 9.72888C4.20005 9.43598 4.67493 9.43598 4.96782 9.72888C5.26072 10.0218 5.26072 10.4966 4.96782 10.7895L3.50368 12.2537C2.33211 13.4253 2.33211 15.3247 3.50368 16.4963C4.67525 17.6679 6.57475 17.6679 7.74632 16.4963L11.4963 12.7463C12.6679 11.5747 12.6679 9.67525 11.4963 8.50368C11.2474 8.25479 10.967 8.05965 10.6686 7.9171C10.2948 7.73855 10.1366 7.29082 10.3151 6.91706Z" fill="inherit"/>
</svg>
