<svg viewBox="0 0 20 20" xmlns="http://www.w3.org/2000/svg">
<path fill-rule="evenodd" clip-rule="evenodd" d="M13.5702 5.22882C11.5984 3.25706 8.40158 3.25706 6.42983 5.22882C4.45807 7.20057 4.45807 10.3974 6.42983 12.3692L9.1165 15.0558C9.60473 15.5441 10.3953 15.5441 10.8834 15.056L12.8417 13.0976C12.8588 13.0805 12.8438 13.0955 12.8438 13.0955L13.5702 12.3692C15.5419 10.3974 15.5419 7.20057 13.5702 5.22882ZM5.36917 4.16815C7.92671 1.61062 12.0733 1.61062 14.6308 4.16815C17.1884 6.72569 17.1884 10.8723 14.6308 13.4298L11.944 16.1167C10.87 17.1907 9.12971 17.1904 8.05584 16.1165L5.36917 13.4298C2.81163 10.8723 2.81163 6.72569 5.36917 4.16815ZM10 7.37437C9.21321 7.37437 8.57538 8.01219 8.57538 8.79899C8.57538 9.58579 9.21321 10.2236 10 10.2236C10.7868 10.2236 11.4246 9.58579 11.4246 8.79899C11.4246 8.01219 10.7868 7.37437 10 7.37437ZM7.07538 8.79899C7.07538 7.18377 8.38478 5.87437 10 5.87437C11.6152 5.87437 12.9246 7.18377 12.9246 8.79899C12.9246 10.4142 11.6152 11.7236 10 11.7236C8.38478 11.7236 7.07538 10.4142 7.07538 8.79899Z" fill="inherit"/>
</svg>
