<svg viewBox="0 0 20 20" xmlns="http://www.w3.org/2000/svg">
<path fill-rule="evenodd" clip-rule="evenodd" d="M6.13889 6.11111C6.13889 3.97868 7.86757 2.25 10 2.25C12.1324 2.25 13.8611 3.97868 13.8611 6.11111C13.8611 6.52532 13.5253 6.86111 13.1111 6.86111C12.6969 6.86111 12.3611 6.52532 12.3611 6.11111C12.3611 4.80711 11.304 3.75 10 3.75C8.696 3.75 7.63889 4.80711 7.63889 6.11111V8.47222H14.6667C15.94 8.47222 16.9722 9.50445 16.9722 10.7778V15.4444C16.9722 16.7178 15.94 17.75 14.6667 17.75H5.33333C4.06001 17.75 3.02778 16.7178 3.02778 15.4444V10.7778C3.02778 9.50445 4.06001 8.47222 5.33333 8.47222H6.13889V6.11111ZM5.33333 9.97222C4.88844 9.97222 4.52778 10.3329 4.52778 10.7778V15.4444C4.52778 15.8893 4.88844 16.25 5.33333 16.25H14.6667C15.1116 16.25 15.4722 15.8893 15.4722 15.4444V10.7778C15.4722 10.3329 15.1116 9.97222 14.6667 9.97222H5.33333ZM10 11.5833C10.4142 11.5833 10.75 11.9191 10.75 12.3333V13.8889C10.75 14.3031 10.4142 14.6389 10 14.6389C9.58579 14.6389 9.25 14.3031 9.25 13.8889V12.3333C9.25 11.9191 9.58579 11.5833 10 11.5833Z" fill="inherit"/>
</svg>
