<svg viewBox="0 0 20 20" xmlns="http://www.w3.org/2000/svg">
<path fill-rule="evenodd" clip-rule="evenodd" d="M6.13888 6.11111C6.13888 3.97868 7.86756 2.25 9.99999 2.25C12.1324 2.25 13.8611 3.97868 13.8611 6.11111V8.47222H14.6667C15.94 8.47222 16.9722 9.50445 16.9722 10.7778V15.4444C16.9722 16.7178 15.94 17.75 14.6667 17.75H5.33333C4.06 17.75 3.02777 16.7178 3.02777 15.4444V10.7778C3.02777 9.50445 4.06 8.47222 5.33333 8.47222H6.13888V6.11111ZM7.63888 8.47222H12.3611V6.11111C12.3611 4.80711 11.304 3.75 9.99999 3.75C8.69599 3.75 7.63888 4.80711 7.63888 6.11111V8.47222ZM5.33333 9.97222C4.88843 9.97222 4.52777 10.3329 4.52777 10.7778V15.4444C4.52777 15.8893 4.88843 16.25 5.33333 16.25H14.6667C15.1116 16.25 15.4722 15.8893 15.4722 15.4444V10.7778C15.4722 10.3329 15.1116 9.97222 14.6667 9.97222H5.33333ZM9.99999 11.5833C10.4142 11.5833 10.75 11.9191 10.75 12.3333V13.8889C10.75 14.3031 10.4142 14.6389 9.99999 14.6389C9.58578 14.6389 9.24999 14.3031 9.24999 13.8889V12.3333C9.24999 11.9191 9.58578 11.5833 9.99999 11.5833Z" fill="inherit"/>
</svg>
