<svg viewBox="0 0 20 20" xmlns="http://www.w3.org/2000/svg">
<path fill-rule="evenodd" clip-rule="evenodd" d="M4.90909 2.75C4.26894 2.75 3.75 3.26894 3.75 3.90909L3.75 15.3636C3.75 16.0038 4.26894 16.5227 4.90909 16.5227H10C10.6401 16.5227 11.1591 16.0038 11.1591 15.3636V12.1818C11.1591 11.7676 11.4949 11.4318 11.9091 11.4318C12.3233 11.4318 12.6591 11.7676 12.6591 12.1818V15.3636C12.6591 16.8322 11.4686 18.0227 10 18.0227H4.90909C3.44052 18.0227 2.25 16.8322 2.25 15.3636L2.25 3.90909C2.25 2.44052 3.44052 1.25 4.90909 1.25L10 1.25C11.4686 1.25 12.6591 2.44052 12.6591 3.90909V7.09091C12.6591 7.50512 12.3233 7.84091 11.9091 7.84091C11.4949 7.84091 11.1591 7.50512 11.1591 7.09091V3.90909C11.1591 3.26894 10.6401 2.75 10 2.75L4.90909 2.75ZM9.2576 6.56058C9.5505 6.85347 9.5505 7.32835 9.2576 7.62124L7.99248 8.88636L17 8.88637C17.4142 8.88637 17.75 9.22215 17.75 9.63637C17.75 10.0506 17.4142 10.3864 17 10.3864L7.99248 10.3864L9.2576 11.6515C9.5505 11.9444 9.5505 12.4193 9.2576 12.7121C8.96471 13.005 8.48983 13.005 8.19694 12.7121L5.65149 10.1667C5.3586 9.8738 5.3586 9.39893 5.65149 9.10603L8.19694 6.56058C8.48984 6.26769 8.96471 6.26769 9.2576 6.56058Z" fill="inherit"/>
</svg>
