<svg viewBox="0 0 20 20" xmlns="http://www.w3.org/2000/svg">
<path fill-rule="evenodd" clip-rule="evenodd" d="M4.90909 2.75C4.26894 2.75 3.75 3.26894 3.75 3.90909L3.75 15.3636C3.75 16.0038 4.26894 16.5227 4.90909 16.5227H10C10.6401 16.5227 11.1591 16.0038 11.1591 15.3636V12.1818C11.1591 11.7676 11.4949 11.4318 11.9091 11.4318C12.3233 11.4318 12.6591 11.7676 12.6591 12.1818V15.3636C12.6591 16.8322 11.4686 18.0227 10 18.0227H4.90909C3.44052 18.0227 2.25 16.8322 2.25 15.3636L2.25 3.90909C2.25 2.44052 3.44052 1.25 4.90909 1.25L10 1.25C11.4686 1.25 12.6591 2.44052 12.6591 3.90909V7.09091C12.6591 7.50512 12.3233 7.84091 11.9091 7.84091C11.4949 7.84091 11.1591 7.50512 11.1591 7.09091V3.90909C11.1591 3.26894 10.6401 2.75 10 2.75L4.90909 2.75ZM13.9242 6.56058C14.2171 6.26769 14.692 6.26769 14.9849 6.56058L17.5303 9.10604C17.8232 9.39893 17.8232 9.8738 17.5303 10.1667L14.9849 12.7121C14.692 13.005 14.2171 13.005 13.9242 12.7121C13.6313 12.4193 13.6313 11.9444 13.9242 11.6515L15.1893 10.3864L6.18182 10.3864C5.76761 10.3864 5.43182 10.0506 5.43182 9.63636C5.43182 9.22215 5.76761 8.88636 6.18182 8.88636L15.1893 8.88636L13.9242 7.62124C13.6313 7.32835 13.6313 6.85347 13.9242 6.56058Z" fill="inherit"/>
</svg>
