<svg viewBox="0 0 20 20" xmlns="http://www.w3.org/2000/svg">
<path fill-rule="evenodd" clip-rule="evenodd" d="M8.75549 1.69328C9.53243 1.27493 10.4676 1.27493 11.2445 1.69328L17.4945 5.05867C18.3448 5.5165 18.875 6.40421 18.875 7.3699V16.25C18.875 17.6997 17.6997 18.875 16.25 18.875H3.75C2.30025 18.875 1.125 17.6997 1.125 16.25L1.125 8.25558C1.125 8.2554 1.125 8.25576 1.125 8.25558L1.125 7.49998C1.125 7.49988 1.125 7.50008 1.125 7.49998L1.125 7.3699C1.125 6.40421 1.65522 5.5165 2.50549 5.05866L8.75549 1.69328ZM2.625 10.6306V16.25C2.625 16.8713 3.12868 17.375 3.75 17.375H16.25C16.8713 17.375 17.375 16.8713 17.375 16.25V10.6306L13.323 12.8125L15.9806 14.2435C16.3453 14.4399 16.4817 14.8947 16.2854 15.2594C16.089 15.6241 15.6341 15.7606 15.2694 15.5642L10.5334 13.014C10.2004 12.8347 9.79961 12.8347 9.46664 13.014L4.73057 15.5642C4.36587 15.7606 3.91102 15.6241 3.71465 15.2594C3.51827 14.8947 3.65472 14.4399 4.01942 14.2435L6.677 12.8125L2.625 10.6306ZM8.25895 11.9607L8.75549 11.6933C9.53243 11.275 10.4676 11.275 11.2445 11.6933L11.7411 11.9607L16.7834 9.24558C17.1478 9.04936 17.375 8.66892 17.375 8.25505V7.3699C17.375 6.95603 17.1478 6.57559 16.7834 6.37937L10.5334 3.01399C10.2004 2.83469 9.79961 2.83469 9.46664 3.01399L3.21664 6.37937C2.85224 6.57558 2.625 6.95603 2.625 7.3699V8.25505C2.625 8.25493 2.625 8.25516 2.625 8.25505C2.62513 8.66878 2.85234 9.04942 3.21664 9.24558L8.25895 11.9607Z" fill="inherit"/>
</svg>
