<svg viewBox="0 0 20 20" xmlns="http://www.w3.org/2000/svg">
<path fill-rule="evenodd" clip-rule="evenodd" d="M1.125 5.625C1.125 4.17525 2.30025 3 3.75 3H16.25C17.6997 3 18.875 4.17525 18.875 5.625V14.375C18.875 15.8247 17.6997 17 16.25 17H3.75C2.30025 17 1.125 15.8247 1.125 14.375V5.625ZM2.625 5.625V5.82726C2.625 6.21793 2.82767 6.58063 3.16039 6.78537L9.41039 10.6315C9.77197 10.854 10.228 10.854 10.5896 10.6315L16.8396 6.78537C17.1723 6.58063 17.375 6.21793 17.375 5.82726V5.625C17.375 5.00368 16.8713 4.5 16.25 4.5H3.75C3.12868 4.5 2.625 5.00368 2.625 5.625ZM17.375 8.21717L11.3758 11.909C10.5321 12.4282 9.46794 12.4282 8.62424 11.909L2.625 8.21717V14.375C2.625 14.9963 3.12868 15.5 3.75 15.5H16.25C16.8713 15.5 17.375 14.9963 17.375 14.375V8.21717Z" fill="inherit"/>
</svg>
