<svg viewBox="0 0 20 20" xmlns="http://www.w3.org/2000/svg">
<path fill-rule="evenodd" clip-rule="evenodd" d="M11.9979 3.10695C12.2091 3.00138 12.4576 3.00138 12.6687 3.10695L16.9055 5.22531C17.4231 5.48411 17.75 6.01312 17.75 6.5918V14.9637C17.75 16.0995 16.5548 16.8381 15.539 16.3302L12.3333 14.7274L8.00208 16.893C7.79093 16.9986 7.5424 16.9986 7.33126 16.893L3.09453 14.7747C2.57695 14.5159 2.25 13.9869 2.25 13.4082V5.03624C2.25 3.90052 3.4452 3.16184 4.46102 3.66976L7.66667 5.27258L11.9979 3.10695ZM6.91667 6.57463L3.7902 5.0114C3.78474 5.00867 3.7816 5.00793 3.78052 5.00772C3.77931 5.00747 3.77836 5.00742 3.77729 5.00749C3.77479 5.00764 3.76949 5.00871 3.76317 5.01261C3.75686 5.01652 3.75353 5.02078 3.75227 5.02295C3.75174 5.02387 3.75136 5.02475 3.75104 5.02594C3.75075 5.027 3.75 5.03014 3.75 5.03624V13.4082C3.75 13.4187 3.75594 13.4283 3.76536 13.433L6.91667 15.0087V6.57463ZM8.41667 15.0087L11.5833 13.4254V4.9913L8.41667 6.57463V15.0087ZM13.0833 4.9913V13.4254L16.2098 14.9886C16.2124 14.9899 16.2144 14.9907 16.216 14.9913C16.2178 14.9919 16.2189 14.9922 16.2195 14.9923C16.2207 14.9925 16.2216 14.9926 16.2227 14.9925C16.2252 14.9923 16.2305 14.9913 16.2368 14.9874C16.2431 14.9835 16.2465 14.9792 16.2477 14.977C16.2483 14.9761 16.2486 14.9752 16.249 14.974C16.2493 14.973 16.25 14.9698 16.25 14.9637V6.5918C16.25 6.58128 16.2441 6.57166 16.2346 6.56695L13.0833 4.9913Z" fill="inherit"/>
</svg>
