<svg viewBox="0 0 20 20" xmlns="http://www.w3.org/2000/svg">
<path fill-rule="evenodd" clip-rule="evenodd" d="M1.25 5C1.25 4.58579 1.58579 4.25 2 4.25H18C18.4142 4.25 18.75 4.58579 18.75 5C18.75 5.41421 18.4142 5.75 18 5.75H2C1.58579 5.75 1.25 5.41421 1.25 5ZM1.25 10.0909C1.25 9.6767 1.58579 9.34091 2 9.34091H10C10.4142 9.34091 10.75 9.6767 10.75 10.0909C10.75 10.5051 10.4142 10.8409 10 10.8409H2C1.58579 10.8409 1.25 10.5051 1.25 10.0909ZM1.25 15.1818C1.25 14.7676 1.58579 14.4318 2 14.4318H18C18.4142 14.4318 18.75 14.7676 18.75 15.1818C18.75 15.596 18.4142 15.9318 18 15.9318H2C1.58579 15.9318 1.25 15.596 1.25 15.1818Z" fill="inherit"/>
</svg>
