<svg viewBox="0 0 20 20" xmlns="http://www.w3.org/2000/svg">
<path fill-rule="evenodd" clip-rule="evenodd" d="M2.25 4.75C2.25 4.33579 2.58579 4 3 4H17C17.4142 4 17.75 4.33579 17.75 4.75C17.75 5.16421 17.4142 5.5 17 5.5H3C2.58579 5.5 2.25 5.16421 2.25 4.75ZM2.25 10C2.25 9.58579 2.58579 9.25 3 9.25H17C17.4142 9.25 17.75 9.58579 17.75 10C17.75 10.4142 17.4142 10.75 17 10.75H3C2.58579 10.75 2.25 10.4142 2.25 10ZM10.125 15.25C10.125 14.8358 10.4608 14.5 10.875 14.5H17C17.4142 14.5 17.75 14.8358 17.75 15.25C17.75 15.6642 17.4142 16 17 16H10.875C10.4608 16 10.125 15.6642 10.125 15.25Z" fill="inherit"/>
</svg>
