<svg viewBox="0 0 20 20" xmlns="http://www.w3.org/2000/svg">
<path fill-rule="evenodd" clip-rule="evenodd" d="M6.75 3.5C6.75 1.70507 8.20507 0.25 10 0.25C11.7949 0.25 13.25 1.70507 13.25 3.5V10.375C13.25 12.1699 11.7949 13.625 10 13.625C8.20507 13.625 6.75 12.1699 6.75 10.375V3.5ZM10 1.75C9.0335 1.75 8.25 2.5335 8.25 3.5V10.375C8.25 11.3415 9.0335 12.125 10 12.125C10.9665 12.125 11.75 11.3415 11.75 10.375V3.5C11.75 2.5335 10.9665 1.75 10 1.75ZM5 8.375C5.41421 8.375 5.75 8.71079 5.75 9.125V10.375C5.75 12.7222 7.65279 14.625 10 14.625C12.3472 14.625 14.25 12.7222 14.25 10.375V9.125C14.25 8.71079 14.5858 8.375 15 8.375C15.4142 8.375 15.75 8.71079 15.75 9.125V10.375C15.75 13.2964 13.5713 15.709 10.75 16.0765V17.75H13.125C13.5392 17.75 13.875 18.0858 13.875 18.5C13.875 18.9142 13.5392 19.25 13.125 19.25H6.875C6.46079 19.25 6.125 18.9142 6.125 18.5C6.125 18.0858 6.46079 17.75 6.875 17.75H9.25V16.0765C6.42873 15.709 4.25 13.2964 4.25 10.375V9.125C4.25 8.71079 4.58579 8.375 5 8.375Z" fill="inherit"/>
</svg>
