<svg viewBox="0 0 20 20" xmlns="http://www.w3.org/2000/svg">
<path fill-rule="evenodd" clip-rule="evenodd" d="M10 3.75C6.54822 3.75 3.75 6.54822 3.75 10C3.75 13.4518 6.54822 16.25 10 16.25C13.4518 16.25 16.25 13.4518 16.25 10C16.25 6.54822 13.4518 3.75 10 3.75ZM2.25 10C2.25 5.71979 5.71979 2.25 10 2.25C14.2802 2.25 17.75 5.71979 17.75 10C17.75 14.2802 14.2802 17.75 10 17.75C5.71979 17.75 2.25 14.2802 2.25 10ZM6.91667 10C6.91667 9.58579 7.25245 9.25 7.66667 9.25H12.3333C12.7475 9.25 13.0833 9.58579 13.0833 10C13.0833 10.4142 12.7475 10.75 12.3333 10.75H7.66667C7.25245 10.75 6.91667 10.4142 6.91667 10Z" fill="inherit"/>
</svg>
