<svg viewBox="0 0 20 20" xmlns="http://www.w3.org/2000/svg">
<path fill-rule="evenodd" clip-rule="evenodd" d="M8.08493 2.46967C8.29739 2.68213 8.36255 3.00087 8.25051 3.27966C7.94958 4.02848 7.78361 4.84689 7.78361 5.7059C7.78361 9.30154 10.6985 12.2164 14.2941 12.2164C15.1531 12.2164 15.9715 12.0504 16.7203 11.7495C16.9991 11.6375 17.3179 11.7026 17.5303 11.9151C17.7428 12.1275 17.8079 12.4463 17.6959 12.7251C16.5127 15.6692 13.6305 17.75 10.2605 17.75C5.83642 17.75 2.25 14.1636 2.25 9.7395C2.25 6.36947 4.33081 3.48725 7.27493 2.30409C7.55373 2.19205 7.87247 2.25721 8.08493 2.46967ZM6.37123 4.51768C4.77966 5.7051 3.75 7.60261 3.75 9.7395C3.75 13.3352 6.66485 16.25 10.2605 16.25C12.3974 16.25 14.2949 15.2203 15.4823 13.6288C15.0944 13.6865 14.6976 13.7164 14.2941 13.7164C9.87003 13.7164 6.28361 10.13 6.28361 5.7059C6.28361 5.30239 6.3135 4.9056 6.37123 4.51768Z" fill="inherit"/>
</svg>
