<svg viewBox="0 0 20 20" xmlns="http://www.w3.org/2000/svg">
<path fill-rule="evenodd" clip-rule="evenodd" d="M17.4516 0.401245C17.6395 0.542967 17.75 0.764663 17.75 1.00001V4.31674C17.7503 4.32808 17.7503 4.3394 17.75 4.35068V13.4914C17.75 14.7192 16.9361 15.7983 15.7555 16.1356L14.5822 16.4708C13.0793 16.9002 11.5833 15.7718 11.5833 14.2088C11.5833 13.1584 12.2796 12.2353 13.2896 11.9468L15.3434 11.36C15.88 11.2067 16.25 10.7162 16.25 10.1581V5.32764L8.41667 7.56573V16.1581C8.41667 17.3859 7.60273 18.465 6.42215 18.8023L5.24883 19.1375C3.74599 19.5669 2.25 18.4384 2.25 16.8755C2.25 15.8251 2.9463 14.902 3.95625 14.6134L6.01007 14.0266C6.54669 13.8733 6.91667 13.3828 6.91667 12.8247V7.01659C6.91641 7.00526 6.91641 6.99395 6.91667 6.98268V3.66667C6.91667 3.33181 7.13865 3.03752 7.46063 2.94553L16.794 0.278864C17.0202 0.21421 17.2638 0.259522 17.4516 0.401245ZM8.41667 6.00571L16.25 3.76761V1.9943L8.41667 4.2324V6.00571ZM6.91667 15.2744C6.76066 15.354 6.59535 15.4194 6.42215 15.4689L4.36833 16.0557C4.00233 16.1603 3.75 16.4948 3.75 16.8755C3.75 17.4419 4.29213 17.8508 4.83675 17.6952L6.01007 17.36C6.54669 17.2067 6.91667 16.7162 6.91667 16.1581V15.2744ZM16.25 12.6078C16.094 12.6873 15.9287 12.7528 15.7555 12.8023L13.7017 13.3891C13.3357 13.4936 13.0833 13.8282 13.0833 14.2088C13.0833 14.7752 13.6255 15.1841 14.1701 15.0285L15.3434 14.6933C15.88 14.54 16.25 14.0495 16.25 13.4914V12.6078Z" fill="inherit"/>
</svg>
