<svg viewBox="0 0 20 20" xmlns="http://www.w3.org/2000/svg">
<path fill-rule="evenodd" clip-rule="evenodd" d="M1.75 4.0625C1.75 3.13052 2.50552 2.375 3.4375 2.375H12.8125C13.7445 2.375 14.5 3.13052 14.5 4.0625V5.5H16.5625C17.4945 5.5 18.25 6.25552 18.25 7.1875V15C18.25 16.4497 17.0747 17.625 15.625 17.625H4.375C2.92525 17.625 1.75 16.4497 1.75 15V4.0625ZM13.2526 16.125H4.375C3.75368 16.125 3.25 15.6213 3.25 15V4.0625C3.25 3.95895 3.33395 3.875 3.4375 3.875H12.8125C12.9161 3.875 13 3.95895 13 4.0625V15C13 15.4026 13.0906 15.784 13.2526 16.125ZM15.625 16.125C16.2463 16.125 16.75 15.6213 16.75 15V7.1875C16.75 7.08395 16.6661 7 16.5625 7H14.5V15C14.5 15.6213 15.0037 16.125 15.625 16.125ZM4.25 6.25C4.25 5.83579 4.58579 5.5 5 5.5H7.5C7.91421 5.5 8.25 5.83579 8.25 6.25V8.75C8.25 9.16421 7.91421 9.5 7.5 9.5H5C4.58579 9.5 4.25 9.16421 4.25 8.75V6.25ZM5.75 7V8H6.75V7H5.75ZM9.25 6.25C9.25 5.83579 9.58579 5.5 10 5.5H11.25C11.6642 5.5 12 5.83579 12 6.25C12 6.66421 11.6642 7 11.25 7H10C9.58579 7 9.25 6.66421 9.25 6.25ZM9.25 8.75C9.25 8.33579 9.58579 8 10 8H11.25C11.6642 8 12 8.33579 12 8.75C12 9.16421 11.6642 9.5 11.25 9.5H10C9.58579 9.5 9.25 9.16421 9.25 8.75ZM4.25 11.25C4.25 10.8358 4.58579 10.5 5 10.5H11.25C11.6642 10.5 12 10.8358 12 11.25C12 11.6642 11.6642 12 11.25 12H5C4.58579 12 4.25 11.6642 4.25 11.25ZM4.25 13.75C4.25 13.3358 4.58579 13 5 13H11.25C11.6642 13 12 13.3358 12 13.75C12 14.1642 11.6642 14.5 11.25 14.5H5C4.58579 14.5 4.25 14.1642 4.25 13.75Z" fill="inherit"/>
</svg>
