<svg viewBox="0 0 20 20" xmlns="http://www.w3.org/2000/svg">
<path fill-rule="evenodd" clip-rule="evenodd" d="M4.39724 5.79736C4.32906 5.7632 4.25329 5.74705 4.17711 5.75044C4.10093 5.75384 4.02689 5.77666 3.96203 5.81674C3.89716 5.85682 3.84363 5.91283 3.80651 5.97945C3.7694 6.04606 3.74995 6.12105 3.75 6.1973L3.75 14.308C3.74995 14.3843 3.7694 14.4598 3.80651 14.5264C3.84363 14.593 3.89716 14.649 3.96203 14.6891C4.02689 14.7292 4.10093 14.752 4.17711 14.7554C4.25329 14.7588 4.32906 14.7426 4.39724 14.7085L12.5021 10.6512C12.5765 10.6139 12.6392 10.5566 12.683 10.4858C12.7267 10.415 12.7499 10.3334 12.7499 10.2501C12.7499 10.1669 12.7267 10.0853 12.683 10.0144C12.6392 9.94362 12.5766 9.88637 12.5022 9.84912L4.39724 5.79736ZM5.06888 4.45613C4.77201 4.30745 4.44205 4.23715 4.11036 4.25193C3.77856 4.26671 3.45606 4.36612 3.17352 4.54071C2.89099 4.7153 2.65781 4.95926 2.49616 5.2494C2.3346 5.53938 2.24986 5.86586 2.25 6.19781C2.25 6.19774 2.25 6.19789 2.25 6.19781V14.3078M5.06888 4.45613C5.06878 4.45608 5.06898 4.45618 5.06888 4.45613L13.1732 8.50757C13.4967 8.66945 13.769 8.91832 13.9591 9.22606C14.1492 9.5338 14.2499 9.88839 14.2499 10.2501C14.2499 10.6118 14.1492 10.9664 13.9591 11.2742C13.769 11.5819 13.497 11.8306 13.1735 11.9925M13.1735 11.9925L5.06917 16.0496C5.06909 16.0496 5.06924 16.0495 5.06917 16.0496C4.77228 16.1983 4.44207 16.2687 4.11036 16.2539C3.77856 16.2391 3.45606 16.1397 3.17352 15.9651C2.89099 15.7905 2.65781 15.5466 2.49616 15.2564C2.3346 14.9664 2.24986 14.6398 2.25 14.3078" fill="inherit"/>
<path fill-rule="evenodd" clip-rule="evenodd" d="M14.5 4.25C14.9142 4.25 15.25 4.58579 15.25 5V15.5C15.25 15.9142 14.9142 16.25 14.5 16.25C14.0858 16.25 13.75 15.9142 13.75 15.5V5C13.75 4.58579 14.0858 4.25 14.5 4.25Z" fill="inherit"/>
</svg>
