<svg viewBox="0 0 20 20" xmlns="http://www.w3.org/2000/svg">
<path fill-rule="evenodd" clip-rule="evenodd" d="M3.80556 4.55556C3.80556 3.28223 4.83779 2.25 6.11111 2.25H13.8889C15.1622 2.25 16.1944 3.28223 16.1944 4.55556V16.25L17 16.25C17.4142 16.25 17.75 16.5858 17.75 17C17.75 17.4142 17.4142 17.75 17 17.75H2.99999C2.58578 17.75 2.24999 17.4142 2.25 17C2.25001 16.5858 2.5858 16.25 3.00001 16.25L3.80556 16.25V4.55556ZM5.30556 16.25H7.69444V13.1111C7.69444 12.2673 8.37845 11.5833 9.22222 11.5833H10.7778C11.6215 11.5833 12.3056 12.2673 12.3056 13.1111V16.25H14.6944V4.55556C14.6944 4.11066 14.3338 3.75 13.8889 3.75H6.11111C5.66622 3.75 5.30556 4.11066 5.30556 4.55556V16.25ZM10.8056 16.25V13.1111C10.8056 13.0958 10.7931 13.0833 10.7778 13.0833H9.22222C9.20688 13.0833 9.19444 13.0958 9.19444 13.1111V16.25H10.8056ZM6.91667 6.11109C6.91667 5.69688 7.25245 5.36109 7.66667 5.36109H8.44444C8.85866 5.36109 9.19444 5.69688 9.19444 6.11109C9.19444 6.52531 8.85866 6.86109 8.44444 6.86109H7.66667C7.25245 6.86109 6.91667 6.52531 6.91667 6.11109ZM10.8056 6.11109C10.8056 5.69688 11.1413 5.36109 11.5556 5.36109H12.3333C12.7475 5.36109 13.0833 5.69688 13.0833 6.11109C13.0833 6.52531 12.7475 6.86109 12.3333 6.86109H11.5556C11.1413 6.86109 10.8056 6.52531 10.8056 6.11109ZM6.91667 9.2222C6.91667 8.80799 7.25245 8.4722 7.66667 8.4722H8.44444C8.85866 8.4722 9.19444 8.80799 9.19444 9.2222C9.19444 9.63642 8.85866 9.9722 8.44444 9.9722H7.66667C7.25245 9.9722 6.91667 9.63642 6.91667 9.2222ZM10.8056 9.2222C10.8056 8.80799 11.1413 8.4722 11.5556 8.4722H12.3333C12.7475 8.4722 13.0833 8.80799 13.0833 9.2222C13.0833 9.63642 12.7475 9.9722 12.3333 9.9722H11.5556C11.1413 9.9722 10.8056 9.63642 10.8056 9.2222Z" fill="inherit"/>
</svg>
