<svg viewBox="0 0 20 20" xmlns="http://www.w3.org/2000/svg">
<path fill-rule="evenodd" clip-rule="evenodd" d="M16.2173 1.41211C16.4981 1.2249 16.828 1.125 17.1655 1.125C18.1096 1.125 18.875 1.89037 18.875 2.83449C18.875 3.17199 18.7751 3.50193 18.5879 3.78274L15.3579 8.62774C14.2534 10.2844 12.8205 11.6733 11.1653 12.7196C10.4312 13.1837 9.65326 13.5803 8.84089 13.9031C8.86337 14.0574 8.875 14.2149 8.875 14.375L8.87493 14.3961M6.09696 11.159C6.4197 10.3467 6.81636 9.56881 7.28041 8.8347C8.32667 7.1795 9.71557 5.74657 11.3723 4.6421L16.2173 1.41211M6.2044 12.7232C6.02296 12.6596 5.82795 12.625 5.625 12.625C4.6585 12.625 3.875 13.4085 3.875 14.375C3.875 15.3822 3.30771 16.2569 2.47523 16.6971C2.99293 17.1212 3.6545 17.375 4.37498 17.375C6.02711 17.375 7.36736 16.0395 7.37495 14.3892L7.37496 14.3874L7.375 14.375C7.375 14.141 7.32946 13.9194 7.24745 13.7174C7.0801 13.3051 6.76064 12.9718 6.35937 12.786C6.34653 12.7824 6.33371 12.7784 6.32093 12.7741C6.28004 12.7602 6.24114 12.7431 6.2044 12.7232ZM7.49067 11.7136C7.79981 11.9308 8.06932 12.2004 8.28632 12.5094C8.79661 12.3067 9.29169 12.0713 9.76867 11.8053C9.37219 11.1676 8.83242 10.6278 8.19466 10.2313C7.9287 10.7083 7.69336 11.2033 7.49067 11.7136ZM9.00201 8.96704C9.82341 9.48092 10.5191 10.1766 11.033 10.998C12.2303 10.1287 13.2751 9.04782 14.1098 7.79569L17.3398 2.9507C17.3628 2.91628 17.375 2.87585 17.375 2.83449C17.375 2.71879 17.2812 2.625 17.1655 2.625C17.1242 2.625 17.0837 2.63724 17.0493 2.66018L16.6364 2.04084L17.0493 2.66018L12.2043 5.89018C10.9522 6.72493 9.87127 7.76967 9.00201 8.96704Z" fill="inherit"/>
</svg>
