<svg viewBox="0 0 20 20" xmlns="http://www.w3.org/2000/svg">
<path fill-rule="evenodd" clip-rule="evenodd" d="M2.1895 2.07765C2.3829 1.88118 2.66848 1.80665 2.93322 1.88355C8.52932 3.50918 13.7261 6.07217 18.3423 9.39084C18.5383 9.53175 18.6545 9.75839 18.6545 9.9998C18.6545 10.2412 18.5384 10.4678 18.3423 10.6088C13.7261 13.9275 8.52938 16.4905 2.93331 18.1162C2.66857 18.1931 2.38298 18.1186 2.18958 17.9221C1.99619 17.7257 1.92617 17.4389 2.00724 17.1754L4.21507 10L2.00717 2.82434C1.92609 2.56085 1.99611 2.27412 2.1895 2.07765ZM5.5537 10.75L3.8568 16.2649C8.43297 14.7917 12.7172 12.667 16.6002 9.99981C12.7172 7.33263 8.43291 5.20797 3.85671 3.73482L5.5537 9.25002L11.25 9.25002C11.6642 9.25002 12 9.58581 12 10C12 10.4142 11.6642 10.75 11.25 10.75L5.5537 10.75Z" fill="inherit"/>
</svg>
