<svg viewBox="0 0 20 20" xmlns="http://www.w3.org/2000/svg">
<path fill-rule="evenodd" clip-rule="evenodd" d="M15.7196 3.13756C15.0362 2.45414 13.9281 2.45414 13.2447 3.13756L4.12868 12.2537C2.95711 13.4252 2.95711 15.3247 4.12868 16.4963C5.30025 17.6679 7.19975 17.6679 8.37132 16.4963L14.7821 10.0855C15.075 9.79259 15.5499 9.79259 15.8428 10.0855C16.1357 10.3784 16.1357 10.8533 15.8428 11.1461L9.43198 17.557C7.67462 19.3143 4.82538 19.3143 3.06802 17.557C1.31066 15.7996 1.31066 12.9504 3.06802 11.193L12.1841 2.0769C13.4533 0.8077 15.5111 0.807698 16.7803 2.0769C18.0495 3.34611 18.0495 5.40389 16.7803 6.6731L7.67002 15.7833C7.6681 15.7853 7.66616 15.7873 7.66421 15.7892L7.6522 15.8011C6.87013 16.5702 5.61284 16.5663 4.83579 15.7892C4.05474 15.0082 4.05474 13.7418 4.83578 12.9608C4.83578 12.9608 4.83578 12.9608 4.83578 12.9608L11.3445 6.45188C11.6374 6.15899 12.1123 6.15898 12.4052 6.45187C12.6981 6.74476 12.6981 7.21964 12.4052 7.51253L5.89645 14.0214C5.70119 14.2167 5.70119 14.5333 5.89645 14.7285C6.09011 14.9222 6.40321 14.9238 6.59872 14.7333L15.7196 5.61244C16.403 4.92902 16.403 3.82098 15.7196 3.13756Z" fill="inherit"/>
</svg>
