<svg viewBox="0 0 20 20" xmlns="http://www.w3.org/2000/svg">
<path fill-rule="evenodd" clip-rule="evenodd" d="M10 2.25C10.2841 2.25 10.5438 2.4105 10.6708 2.66459L17.6708 16.6646C17.8002 16.9234 17.7692 17.2335 17.5912 17.4616C17.4131 17.6896 17.1197 17.7949 16.8373 17.7321L10 16.2127L3.1627 17.7321C2.88026 17.7949 2.5869 17.6896 2.40884 17.4616C2.23079 17.2335 2.19979 16.9234 2.32918 16.6646L9.32918 2.66459C9.45622 2.4105 9.71592 2.25 10 2.25ZM10.75 14.8428L15.6245 15.926L10 4.67705L4.37551 15.926L9.25 14.8428V9.22222C9.25 8.80801 9.58578 8.47222 10 8.47222C10.4142 8.47222 10.75 8.80801 10.75 9.22222V14.8428Z" fill="inherit"/>
</svg>
