<svg viewBox="0 0 20 20" xmlns="http://www.w3.org/2000/svg">
<path fill-rule="evenodd" clip-rule="evenodd" d="M10 3.75C6.54822 3.75 3.75 6.54822 3.75 10C3.75 13.4518 6.54822 16.25 10 16.25C13.4518 16.25 16.25 13.4518 16.25 10C16.25 6.54822 13.4518 3.75 10 3.75ZM2.25 10C2.25 5.71979 5.71979 2.25 10 2.25C14.2802 2.25 17.75 5.71979 17.75 10C17.75 14.2802 14.2802 17.75 10 17.75C5.71979 17.75 2.25 14.2802 2.25 10ZM8.44444 6.91667C8.85866 6.91667 9.19444 7.25245 9.19444 7.66667V12.3333C9.19444 12.7475 8.85866 13.0833 8.44444 13.0833C8.03023 13.0833 7.69444 12.7475 7.69444 12.3333V7.66667C7.69444 7.25245 8.03023 6.91667 8.44444 6.91667ZM11.5556 6.91667C11.9698 6.91667 12.3056 7.25245 12.3056 7.66667V12.3333C12.3056 12.7475 11.9698 13.0833 11.5556 13.0833C11.1413 13.0833 10.8056 12.7475 10.8056 12.3333V7.66667C10.8056 7.25245 11.1413 6.91667 11.5556 6.91667Z" fill="inherit"/>
</svg>
