<svg viewBox="0 0 20 20" xmlns="http://www.w3.org/2000/svg">
<path fill-rule="evenodd" clip-rule="evenodd" d="M17.137 2.86298C16.8197 2.54567 16.3053 2.54567 15.988 2.86298L15.1121 3.73889L16.2611 4.88794L17.137 4.01202C17.4543 3.69472 17.4543 3.18028 17.137 2.86298ZM15.2005 5.9486L14.0514 4.79955L4.0141 14.8369C3.66165 15.1893 3.40257 15.624 3.26027 16.1017L2.98959 17.0104L3.8983 16.7397C4.37599 16.5974 4.81071 16.3383 5.16316 15.9859L15.2005 5.9486ZM14.9273 1.80232C15.8304 0.899228 17.2946 0.899228 18.1977 1.80232C19.1008 2.7054 19.1008 4.1696 18.1977 5.07269L6.22382 17.0466C5.69514 17.5752 5.04307 17.9639 4.32653 18.1773L2.08912 18.8438C1.82519 18.9224 1.5394 18.8501 1.34467 18.6553C1.14994 18.4606 1.0776 18.1748 1.15622 17.9109L1.8227 15.6735C2.03615 14.9569 2.42477 14.3049 2.95344 13.7762L14.9273 1.80232Z" fill="inherit"/>
</svg>
