<svg viewBox="0 0 20 20" xmlns="http://www.w3.org/2000/svg">
<path fill-rule="evenodd" clip-rule="evenodd" d="M17.137 2.86298C16.8197 2.54567 16.3053 2.54567 15.988 2.86298L15.1121 3.73889L16.2611 4.88794L17.137 4.01202C17.4543 3.69472 17.4543 3.18028 17.137 2.86298ZM15.2004 5.9486L14.0514 4.79955L7.1391 11.7119C6.78665 12.0643 6.52757 12.499 6.38527 12.9767L6.11458 13.8854L7.02329 13.6147C7.50099 13.4724 7.93571 13.2133 8.28816 12.8609L15.2004 5.9486ZM14.9273 1.80232C15.8304 0.899228 17.2946 0.899228 18.1977 1.80232C19.1008 2.7054 19.1008 4.1696 18.1977 5.07268L9.34882 13.9216C8.82014 14.4502 8.16807 14.8388 7.45152 15.0523L5.21411 15.7188C4.95019 15.7974 4.6644 15.7251 4.46967 15.5303C4.27494 15.3356 4.20259 15.0498 4.28121 14.7859L4.9477 12.5485C5.16114 11.8319 5.54976 11.1799 6.07844 10.6512L14.9273 1.80232ZM4.375 5.74999C3.75368 5.74999 3.25 6.25367 3.25 6.87499V15.625C3.25 16.2463 3.75368 16.75 4.375 16.75H13.125C13.7463 16.75 14.25 16.2463 14.25 15.625V11.6667C14.25 11.2524 14.5858 10.9167 15 10.9167C15.4142 10.9167 15.75 11.2524 15.75 11.6667V15.625C15.75 17.0747 14.5747 18.25 13.125 18.25H4.375C2.92525 18.25 1.75 17.0747 1.75 15.625V6.87499C1.75 5.42525 2.92525 4.24999 4.375 4.24999H8.33333C8.74755 4.24999 9.08333 4.58578 9.08333 4.99999C9.08333 5.41421 8.74755 5.74999 8.33333 5.74999H4.375Z" fill="inherit"/>
</svg>
