<svg viewBox="0 0 20 20" xmlns="http://www.w3.org/2000/svg">
<path fill-rule="evenodd" clip-rule="evenodd" d="M1.125 3.75C1.125 2.30025 2.30025 1.125 3.75 1.125H4.89302C5.66736 1.125 6.34233 1.652 6.53014 2.40322L7.45163 6.08921C7.6163 6.74789 7.37018 7.44111 6.82702 7.84849L5.749 8.657C5.67724 8.71082 5.67571 8.77718 5.68654 8.80674C6.62015 11.3554 8.64462 13.3798 11.1933 14.3135C11.2228 14.3243 11.2892 14.3228 11.343 14.251L12.1515 13.173C12.5589 12.6298 13.2521 12.3837 13.9108 12.5484L17.5968 13.4699C18.348 13.6577 18.875 14.3326 18.875 15.107V16.25C18.875 17.6997 17.6997 18.875 16.25 18.875H14.375C7.05723 18.875 1.125 12.9428 1.125 5.625V3.75ZM3.75 2.625C3.12868 2.625 2.625 3.12868 2.625 3.75V5.625C2.625 12.1143 7.88565 17.375 14.375 17.375H16.25C16.8713 17.375 17.375 16.8713 17.375 16.25V15.107C17.375 15.0209 17.3164 14.9459 17.233 14.9251L13.547 14.0036C13.4738 13.9853 13.3968 14.0126 13.3515 14.073L12.543 15.151C12.1275 15.705 11.3822 15.9801 10.6773 15.7219L10.8775 15.1755L10.6773 15.7219C7.71437 14.6366 5.36344 12.2856 4.27807 9.32269C4.01985 8.61781 4.29502 7.87248 4.849 7.457L5.92702 6.64849C5.98737 6.60322 6.01472 6.5262 5.99642 6.45301L5.07492 2.76702C5.05406 2.68356 4.97906 2.625 4.89302 2.625H3.75Z" fill="inherit"/>
</svg>
