<svg viewBox="0 0 20 20" xmlns="http://www.w3.org/2000/svg">
<path fill-rule="evenodd" clip-rule="evenodd" d="M1.25 3.84615C1.25 2.41234 2.41234 1.25 3.84615 1.25H4.97159C5.73931 1.25 6.40851 1.7725 6.59471 2.5173L7.50203 6.14658C7.6653 6.79963 7.42128 7.48693 6.88276 7.89082L5.82133 8.68689C5.79056 8.70996 5.77225 8.73868 5.76414 8.76387C5.75657 8.78739 5.75807 8.80567 5.76373 8.82113C6.68182 11.3274 8.67262 13.3182 11.1789 14.2363C11.1943 14.2419 11.2126 14.2434 11.2361 14.2359C11.2613 14.2277 11.29 14.2094 11.3131 14.1787L12.1092 13.1172C12.5131 12.5787 13.2004 12.3347 13.8534 12.498L17.4827 13.4053C18.2275 13.5915 18.75 14.2607 18.75 15.0284V16.1538C18.75 17.5877 17.5877 18.75 16.1538 18.75H14.3077C7.09613 18.75 1.25 12.9039 1.25 5.69231V3.84615ZM3.84615 2.75C3.24076 2.75 2.75 3.24076 2.75 3.84615V5.69231C2.75 12.0754 7.92456 17.25 14.3077 17.25H16.1538C16.7592 17.25 17.25 16.7592 17.25 16.1538V15.0284C17.25 14.949 17.1959 14.8798 17.1189 14.8605L13.4896 13.9532C13.4221 13.9363 13.351 13.9615 13.3092 14.0172L12.5131 15.0787C12.1012 15.6278 11.3622 15.9009 10.6629 15.6447C7.74238 14.5749 5.42511 12.2576 4.35526 9.33708C4.09912 8.63784 4.37216 7.89877 4.92133 7.48689L5.98276 6.69082C6.03847 6.64904 6.06371 6.57794 6.04682 6.51038L5.1395 2.8811C5.12024 2.80405 5.05101 2.75 4.97159 2.75H3.84615ZM12.3269 3.23077C12.3269 2.81656 12.6627 2.48077 13.0769 2.48077H16.7692C17.1834 2.48077 17.5192 2.81656 17.5192 3.23077V6.92308C17.5192 7.33729 17.1834 7.67308 16.7692 7.67308C16.355 7.67308 16.0192 7.33729 16.0192 6.92308V5.04143L12.3765 8.68418C12.0836 8.97707 11.6087 8.97707 11.3158 8.68418C11.0229 8.39128 11.0229 7.91641 11.3158 7.62352L14.9586 3.98077H13.0769C12.6627 3.98077 12.3269 3.64498 12.3269 3.23077Z" fill="inherit"/>
</svg>
