<svg viewBox="0 0 20 20" xmlns="http://www.w3.org/2000/svg">
<path fill-rule="evenodd" clip-rule="evenodd" d="M1.125 5C1.125 3.89543 2.02043 3 3.125 3H16.875C17.9796 3 18.875 3.89543 18.875 5V15C18.875 16.1046 17.9796 17 16.875 17H3.125C2.02043 17 1.125 16.1046 1.125 15V5ZM2.625 13.4357V15C2.625 15.2761 2.84886 15.5 3.125 15.5H16.875C17.1511 15.5 17.375 15.2761 17.375 15V13.4357L15.1705 11.2312C14.7312 10.7918 14.0188 10.7918 13.5795 11.2312L12.9357 11.875L13.6553 12.5947C13.9482 12.8876 13.9482 13.3624 13.6553 13.6553C13.3624 13.9482 12.8876 13.9482 12.5947 13.6553L8.2955 9.35616C7.85615 8.91681 7.14385 8.91681 6.70451 9.35615L2.625 13.4357ZM11.875 10.8143L9.35616 8.2955C8.33103 7.27037 6.66897 7.27037 5.64385 8.29549L2.625 11.3143V5C2.625 4.72386 2.84886 4.5 3.125 4.5H16.875C17.1511 4.5 17.375 4.72386 17.375 5V11.3143L16.2312 10.1705C15.206 9.14537 13.544 9.14537 12.5188 10.1705L11.875 10.8143ZM10.8125 6.875C10.8125 6.2882 11.2882 5.8125 11.875 5.8125C12.4618 5.8125 12.9375 6.2882 12.9375 6.875C12.9375 7.4618 12.4618 7.9375 11.875 7.9375C11.2882 7.9375 10.8125 7.4618 10.8125 6.875Z" fill="inherit"/>
</svg>
