<svg viewBox="0 0 20 20" xmlns="http://www.w3.org/2000/svg">
<path fill-rule="evenodd" clip-rule="evenodd" d="M12.5 5.5C12.9142 5.5 13.25 5.83579 13.25 6.25V15C13.25 15.4142 12.9142 15.75 12.5 15.75C12.0858 15.75 11.75 15.4142 11.75 15V6.25C11.75 5.83579 12.0858 5.5 12.5 5.5ZM17.5 5.5C17.9142 5.5 18.25 5.83579 18.25 6.25V15C18.25 15.4142 17.9142 15.75 17.5 15.75C17.0858 15.75 16.75 15.4142 16.75 15L16.75 6.25C16.75 5.83579 17.0858 5.5 17.5 5.5ZM1.75 7.24048C1.75 5.94478 3.14975 5.13247 4.27473 5.77532L10.1976 9.15984C11.3313 9.80766 11.3313 11.4423 10.1976 12.0902L4.27473 15.4747C3.14975 16.1175 1.75 15.3052 1.75 14.0095V7.24048ZM3.53053 7.07769C3.40553 7.00626 3.25 7.09651 3.25 7.24048V14.0095C3.25 14.1535 3.40553 14.2437 3.53053 14.1723L9.45343 10.7878C9.5794 10.7158 9.5794 10.5342 9.45344 10.4622L3.53053 7.07769Z" fill="inherit"/>
</svg>
