<svg viewBox="0 0 20 20" xmlns="http://www.w3.org/2000/svg">
<path fill-rule="evenodd" clip-rule="evenodd" d="M10 3.75C6.54822 3.75 3.75 6.54822 3.75 10C3.75 13.4518 6.54822 16.25 10 16.25C13.4518 16.25 16.25 13.4518 16.25 10C16.25 6.54822 13.4518 3.75 10 3.75ZM2.25 10C2.25 5.71979 5.71979 2.25 10 2.25C14.2802 2.25 17.75 5.71979 17.75 10C17.75 14.2802 14.2802 17.75 10 17.75C5.71979 17.75 2.25 14.2802 2.25 10ZM7.69444 8.34218C7.69444 7.12195 9.05439 6.39413 10.0697 7.07099L12.5564 8.72881C13.4635 9.33354 13.4635 10.6665 12.5564 11.2712L10.0697 12.929C9.05439 13.6059 7.69444 12.878 7.69444 11.6578V8.34218ZM9.19565 8.33036C9.19542 8.33116 9.19444 8.33469 9.19444 8.34218V11.6578C9.19444 11.6653 9.19542 11.6688 9.19565 11.6696C9.19592 11.6706 9.19619 11.6712 9.1966 11.6718C9.19769 11.6736 9.20143 11.6782 9.20912 11.6823C9.2168 11.6864 9.22274 11.687 9.22479 11.6869C9.2253 11.6869 9.22574 11.6868 9.22625 11.6867C9.22652 11.6867 9.22681 11.6866 9.22713 11.6865C9.22792 11.6862 9.2314 11.6851 9.23763 11.6809L11.7244 10.0231C11.7289 10.0201 11.731 10.0179 11.7318 10.017C11.7327 10.016 11.7333 10.0151 11.7338 10.0141C11.7351 10.0117 11.7367 10.0068 11.7367 10C11.7367 9.99318 11.7351 9.98834 11.7338 9.98595C11.7333 9.98489 11.7327 9.98398 11.7318 9.98299C11.731 9.98208 11.7289 9.97991 11.7244 9.97689L9.23763 8.31907C9.2314 8.31491 9.22792 8.31376 9.22713 8.31351C9.22618 8.31321 9.22556 8.31312 9.22479 8.3131C9.22274 8.31304 9.2168 8.31358 9.20912 8.31769C9.20143 8.3218 9.19769 8.32644 9.1966 8.32819C9.19619 8.32884 9.19592 8.3294 9.19565 8.33036Z" fill="inherit"/>
</svg>
