<svg viewBox="0 0 20 20" xmlns="http://www.w3.org/2000/svg">
<path fill-rule="evenodd" clip-rule="evenodd" d="M10 1.75C10.4142 1.75 10.75 2.08579 10.75 2.5V10C10.75 10.4142 10.4142 10.75 10 10.75C9.58579 10.75 9.25 10.4142 9.25 10V2.5C9.25 2.08579 9.58579 1.75 10 1.75ZM5.22703 4.16637C5.51992 4.45926 5.51992 4.93414 5.22703 5.22703C2.59099 7.86307 2.59099 12.1369 5.22703 14.773C7.86307 17.409 12.1369 17.409 14.773 14.773C17.409 12.1369 17.409 7.86307 14.773 5.22703C14.4801 4.93414 14.4801 4.45926 14.773 4.16637C15.0659 3.87348 15.5407 3.87348 15.8336 4.16637C19.0555 7.38819 19.0555 12.6118 15.8336 15.8336C12.6118 19.0555 7.38819 19.0555 4.16637 15.8336C0.944543 12.6118 0.944544 7.38819 4.16637 4.16637C4.45926 3.87348 4.93414 3.87348 5.22703 4.16637Z" fill="inherit"/>
</svg>
