<svg viewBox="0 0 20 20" xmlns="http://www.w3.org/2000/svg">
<path fill-rule="evenodd" clip-rule="evenodd" d="M1.125 2.5C1.125 2.08579 1.46079 1.75 1.875 1.75H18.125C18.5392 1.75 18.875 2.08579 18.875 2.5C18.875 2.91421 18.5392 3.25 18.125 3.25H17.625V11.875C17.625 13.3247 16.4497 14.5 15 14.5H14.1656L15.0865 17.2628C15.2175 17.6558 15.0051 18.0805 14.6122 18.2115C14.2192 18.3425 13.7945 18.1301 13.6635 17.7372L13.4178 17H6.58224L6.33651 17.7372C6.20553 18.1301 5.78079 18.3425 5.38783 18.2115C4.99487 18.0805 4.7825 17.6558 4.91349 17.2628L5.83443 14.5H5C3.55025 14.5 2.375 13.3247 2.375 11.875V3.25H1.875C1.46079 3.25 1.125 2.91421 1.125 2.5ZM3.875 3.25V11.875C3.875 12.4963 4.37868 13 5 13H15C15.6213 13 16.125 12.4963 16.125 11.875V3.25H3.875ZM7.41557 14.5L7.08224 15.5H12.9178L12.5844 14.5H7.41557ZM14.3992 5.96228C14.6066 6.32082 14.4841 6.77962 14.1255 6.98703C12.9463 7.66916 11.9313 8.60442 11.155 9.71844C11.0281 9.90058 10.827 10.0171 10.6059 10.0367C10.3848 10.0563 10.1663 9.97696 10.0093 9.81999L8.75 8.56066L6.78033 10.5303C6.48744 10.8232 6.01256 10.8232 5.71967 10.5303C5.42678 10.2374 5.42678 9.76256 5.71967 9.46967L8.21967 6.96967C8.51256 6.67678 8.98744 6.67678 9.28033 6.96967L10.4629 8.15222C11.2767 7.16835 12.2625 6.33185 13.3745 5.68862C13.733 5.48121 14.1918 5.60373 14.3992 5.96228Z" fill="inherit"/>
</svg>
