<svg viewBox="0 0 20 20" xmlns="http://www.w3.org/2000/svg">
<path fill-rule="evenodd" clip-rule="evenodd" d="M1.125 2.5C1.125 2.08579 1.46079 1.75 1.875 1.75H18.125C18.5392 1.75 18.875 2.08579 18.875 2.5C18.875 2.91421 18.5392 3.25 18.125 3.25H17.625V11.875C17.625 13.3247 16.4497 14.5 15 14.5H14.1656L15.0865 17.2628C15.2175 17.6558 15.0051 18.0805 14.6122 18.2115C14.2192 18.3425 13.7945 18.1301 13.6635 17.7372L13.4178 17H6.58224L6.33651 17.7372C6.20553 18.1301 5.78079 18.3425 5.38783 18.2115C4.99487 18.0805 4.7825 17.6558 4.91349 17.2628L5.83443 14.5H5C3.55025 14.5 2.375 13.3247 2.375 11.875V3.25H1.875C1.46079 3.25 1.125 2.91421 1.125 2.5ZM3.875 3.25V11.875C3.875 12.4963 4.37868 13 5 13H15C15.6213 13 16.125 12.4963 16.125 11.875V3.25H3.875ZM7.41557 14.5L7.08224 15.5H12.9178L12.5844 14.5H7.41557ZM12.5 4.875C12.9142 4.875 13.25 5.21079 13.25 5.625V10.625C13.25 11.0392 12.9142 11.375 12.5 11.375C12.0858 11.375 11.75 11.0392 11.75 10.625V5.625C11.75 5.21079 12.0858 4.875 12.5 4.875ZM10 6.75C10.4142 6.75 10.75 7.08579 10.75 7.5V10.625C10.75 11.0392 10.4142 11.375 10 11.375C9.58579 11.375 9.25 11.0392 9.25 10.625V7.5C9.25 7.08579 9.58579 6.75 10 6.75ZM7.5 8.625C7.91421 8.625 8.25 8.96079 8.25 9.375V10.625C8.25 11.0392 7.91421 11.375 7.5 11.375C7.08579 11.375 6.75 11.0392 6.75 10.625V9.375C6.75 8.96079 7.08579 8.625 7.5 8.625Z" fill="inherit"/>
</svg>
