<svg viewBox="0 0 20 20" xmlns="http://www.w3.org/2000/svg">
<path fill-rule="evenodd" clip-rule="evenodd" d="M14.1028 5.79736C14.1709 5.7632 14.2467 5.74705 14.3229 5.75044C14.3991 5.75384 14.4731 5.77666 14.538 5.81674C14.6028 5.85682 14.6564 5.91283 14.6935 5.97945C14.7306 6.04606 14.7501 6.12105 14.75 6.1973L14.75 14.308C14.7501 14.3843 14.7306 14.4598 14.6935 14.5264C14.6564 14.593 14.6028 14.649 14.538 14.6891C14.4731 14.7292 14.3991 14.752 14.3229 14.7554C14.2467 14.7588 14.1709 14.7426 14.1028 14.7085L5.99793 10.6512C5.92349 10.6139 5.86079 10.5566 5.81703 10.4858C5.77328 10.415 5.7501 10.3334 5.7501 10.2501C5.7501 10.1669 5.77328 10.0853 5.81703 10.0144C5.86079 9.94362 5.92339 9.88637 5.99784 9.84912L14.1028 5.79736ZM13.4311 4.45613C13.728 4.30745 14.0579 4.23715 14.3896 4.25193C14.7214 4.26671 15.0439 4.36612 15.3265 4.54071C15.609 4.7153 15.8422 4.95926 16.0038 5.2494C16.1654 5.53938 16.2501 5.86586 16.25 6.19781C16.25 6.19774 16.25 6.19789 16.25 6.19781V14.3078M13.4311 4.45613C13.4312 4.45608 13.431 4.45618 13.4311 4.45613L5.32684 8.50757C5.00335 8.66945 4.73104 8.91832 4.54092 9.22606C4.3508 9.5338 4.2501 9.88839 4.2501 10.2501C4.2501 10.6118 4.3508 10.9664 4.54092 11.2742C4.73102 11.5819 5.00302 11.8306 5.32646 11.9925M5.32646 11.9925L13.4308 16.0496C13.4309 16.0496 13.4308 16.0495 13.4308 16.0496C13.7277 16.1983 14.0579 16.2687 14.3896 16.2539C14.7214 16.2391 15.0439 16.1397 15.3265 15.9651C15.609 15.7905 15.8422 15.5466 16.0038 15.2564C16.1654 14.9664 16.2501 14.6398 16.25 14.3078" fill="inherit"/>
<path fill-rule="evenodd" clip-rule="evenodd" d="M4 4.25C3.58579 4.25 3.25 4.58579 3.25 5V15.5C3.25 15.9142 3.58579 16.25 4 16.25C4.41421 16.25 4.75 15.9142 4.75 15.5V5C4.75 4.58579 4.41421 4.25 4 4.25Z" fill="inherit"/>
</svg>
