<svg viewBox="0 0 20 20" xmlns="http://www.w3.org/2000/svg">
<path fill-rule="evenodd" clip-rule="evenodd" d="M4.58333 2C4.58333 1.0335 5.36684 0.25 6.33333 0.25H13.6667C14.6332 0.25 15.4167 1.0335 15.4167 2V4.58468C15.7718 4.62889 16.1257 4.67739 16.4781 4.73013C17.8134 4.92992 18.75 6.0911 18.75 7.40506V13C18.75 14.5188 17.5188 15.75 16 15.75H15.8516L15.9811 17.1749C16.0743 18.1997 15.2674 19.0833 14.2383 19.0833H5.7617C4.73265 19.0833 3.92572 18.1997 4.01889 17.1749L4.14842 15.75H4C2.48122 15.75 1.25 14.5188 1.25 13V7.40506C1.25 6.09111 2.18658 4.92992 3.52185 4.73013C3.87432 4.67739 4.22817 4.62889 4.58333 4.58468V2ZM6.08333 4.42432C7.37364 4.30893 8.68003 4.25 10 4.25C11.32 4.25 12.6264 4.30893 13.9167 4.42432V2C13.9167 1.86193 13.8047 1.75 13.6667 1.75H6.33333C6.19526 1.75 6.08333 1.86193 6.08333 2V4.42432ZM4.28479 14.25L4.47982 12.1046C4.19521 12.0313 3.96843 11.7934 3.92422 11.4843C3.86557 11.0742 4.15043 10.6943 4.56047 10.6356C4.77754 10.6046 4.9952 10.5754 5.21344 10.548C6.78161 10.3513 8.37915 10.25 10 10.25C11.6208 10.25 13.2184 10.3513 14.7866 10.548C15.0048 10.5754 15.2225 10.6046 15.4395 10.6356C15.8496 10.6943 16.1344 11.0742 16.0758 11.4843C16.0316 11.7934 15.8048 12.0313 15.5202 12.1046L15.7152 14.25H16C16.6904 14.25 17.25 13.6904 17.25 13V7.40506C17.25 6.79734 16.8214 6.29819 16.2562 6.21362C15.7028 6.13082 15.1458 6.05883 14.5856 5.99788C13.0798 5.83408 11.5499 5.75 10 5.75C8.45015 5.75 6.9202 5.83408 5.41444 5.99788C4.85416 6.05883 4.29721 6.13082 3.74382 6.21362C3.17858 6.29819 2.75 6.79734 2.75 7.40506V13C2.75 13.6904 3.30964 14.25 4 14.25H4.28479ZM14.0014 11.9663C12.6875 11.8234 11.3524 11.75 10 11.75C8.64756 11.75 7.31251 11.8234 5.99858 11.9663L5.51273 17.3107C5.49942 17.4571 5.61469 17.5833 5.7617 17.5833H14.2383C14.3853 17.5833 14.5006 17.4571 14.4873 17.3107L14.0014 11.9663ZM11.9167 8.33333C11.9167 7.91912 12.2525 7.58333 12.6667 7.58333H12.6733C13.0875 7.58333 13.4233 7.91912 13.4233 8.33333V8.34C13.4233 8.75421 13.0875 9.09 12.6733 9.09H12.6667C12.2525 9.09 11.9167 8.75421 11.9167 8.34V8.33333ZM14.5833 8.33333C14.5833 7.91912 14.9191 7.58333 15.3333 7.58333H15.34C15.7542 7.58333 16.09 7.91912 16.09 8.33333V8.34C16.09 8.75421 15.7542 9.09 15.34 9.09H15.3333C14.9191 9.09 14.5833 8.75421 14.5833 8.34V8.33333Z" fill="inherit"/>
</svg>
