<svg viewBox="0 0 20 20" xmlns="http://www.w3.org/2000/svg">
<path fill-rule="evenodd" clip-rule="evenodd" d="M10.9598 2.75C10.1798 2.75 9.78987 3.25277 9.78987 3.59997C9.78987 3.73553 9.83557 3.87211 9.93421 4.00166C10.1399 4.27186 10.4299 4.71366 10.4299 5.27412C10.4299 5.99842 9.83494 6.59341 9.09766 6.57218C8.19387 6.54615 7.29721 6.49135 6.40857 6.40867C6.5109 7.5088 6.57049 8.62119 6.58569 9.74417C6.59566 10.4812 5.99801 11.0698 5.27421 11.0698L5.27412 10.3208V11.0698C4.71366 11.0698 4.27186 10.7799 4.00166 10.5742C3.87211 10.4756 3.73553 10.4299 3.59997 10.4299C3.25277 10.4299 2.75 10.8198 2.75 11.5998C2.75 12.3798 3.25277 12.7698 3.59997 12.7698C3.73553 12.7698 3.87211 12.7241 4.00166 12.6254C4.27186 12.4197 4.71366 12.1298 5.27412 12.1298C5.9679 12.1298 6.52777 12.7167 6.47604 13.4204C6.38658 14.6374 6.24489 15.84 6.05318 17.026C6.97536 17.1232 7.90692 17.1893 8.8468 17.2232C8.81904 17.1775 8.78407 17.1269 8.74089 17.0702L9.30351 16.6418L8.74089 17.0702C8.46256 16.7046 8.28996 16.254 8.28996 15.7598C8.28996 14.3397 9.61919 13.4098 10.9599 13.4098C12.3007 13.4098 13.6299 14.3397 13.6299 15.7598C13.6299 16.254 13.4573 16.7046 13.179 17.0702C13.1565 17.0997 13.1363 17.1275 13.1181 17.1538C14.3415 17.0698 15.5497 16.931 16.7403 16.74C16.896 15.7696 17.017 14.7876 17.1019 13.7951C17.0916 13.8028 17.081 13.8107 17.0702 13.8189L16.6159 13.2222L17.0702 13.8189C16.7047 14.0972 16.254 14.2698 15.7598 14.2698C14.3398 14.2698 13.4099 12.9406 13.4099 11.5999C13.4099 10.2591 14.3398 8.92989 15.7598 8.92989C16.254 8.92989 16.7047 9.10249 17.0702 9.38082C17.1347 9.42994 17.1914 9.46843 17.2418 9.49777C17.2185 8.33678 17.146 7.18799 17.0264 6.05343C15.6406 6.27743 14.2322 6.43313 12.8045 6.517C12.084 6.55934 11.4898 5.98335 11.4898 5.27412C11.4898 4.71366 11.7797 4.27186 11.9854 4.00166C12.0841 3.87211 12.1298 3.73553 12.1298 3.59997C12.1298 3.25277 11.7398 2.75 10.9598 2.75ZM5.08134 9.4974C5.05532 8.19973 4.96784 6.91732 4.82173 5.65296C4.79545 5.42547 4.87452 5.19845 5.03645 5.03653C5.19838 4.8746 5.4254 4.79553 5.65289 4.82182C6.7055 4.94348 7.77062 5.02451 8.84664 5.06326C8.8189 5.01766 8.78394 4.96704 8.74079 4.91037C8.46246 4.54483 8.28987 4.09415 8.28987 3.59997C8.28987 2.17989 9.61909 1.25 10.9598 1.25C12.3006 1.25 13.6298 2.17989 13.6298 3.59997C13.6298 4.09415 13.4572 4.54483 13.1789 4.91037C13.1564 4.93983 13.1362 4.96766 13.1181 4.994C14.6186 4.89091 16.0963 4.70552 17.5468 4.44234C17.7495 4.40555 17.9585 4.45381 18.1246 4.57577C18.2907 4.69773 18.3993 4.88266 18.4249 5.08713C18.6162 6.61537 18.7248 8.16916 18.7461 9.74371C18.7561 10.481 18.1581 11.0699 17.434 11.0699C16.8735 11.0699 16.4317 10.78 16.1615 10.5742C16.032 10.4756 15.8954 10.4299 15.7598 10.4299C15.4126 10.4299 14.9099 10.8199 14.9099 11.5999C14.9099 12.3799 15.4126 12.7698 15.7598 12.7698C15.8954 12.7698 16.032 12.7241 16.1615 12.6255C16.4317 12.4197 16.8735 12.1298 17.434 12.1298C18.1281 12.1298 18.6882 12.717 18.6364 13.421C18.5345 14.8072 18.3648 16.1746 18.1307 17.52C18.0764 17.8319 17.8322 18.0761 17.5204 18.1303C15.9758 18.3991 14.4022 18.583 12.8047 18.6768C12.0841 18.7192 11.4899 18.1432 11.4899 17.4339C11.4899 16.8735 11.7798 16.4317 11.9855 16.1615L12.5823 16.6158L11.9855 16.1615C12.0842 16.0319 12.1299 15.8953 12.1299 15.7598C12.1299 15.4126 11.7399 14.9098 10.9599 14.9098C10.1799 14.9098 9.78996 15.4126 9.78996 15.7598C9.78996 15.8953 9.83566 16.0319 9.93431 16.1615L9.3376 16.6158L9.93431 16.1615C10.14 16.4317 10.43 16.8735 10.43 17.4339C10.43 18.1583 9.83502 18.7533 9.09769 18.7321C7.74376 18.6931 6.40582 18.5896 5.08686 18.4244C4.8824 18.3988 4.69747 18.2902 4.57551 18.1241C4.45355 17.958 4.4053 17.7491 4.44209 17.5463C4.66555 16.3148 4.83294 15.0636 4.94149 13.7955C4.93132 13.803 4.92095 13.8108 4.91037 13.8189L4.45601 13.2221L4.91037 13.8189C4.54483 14.0972 4.09415 14.2698 3.59997 14.2698C2.17989 14.2698 1.25 12.9406 1.25 11.5998C1.25 10.2591 2.17989 8.92985 3.59997 8.92985C4.09415 8.92985 4.54483 9.10245 4.91037 9.38078C4.97464 9.42972 5.03112 9.46811 5.08134 9.4974Z" fill="inherit"/>
</svg>
