<svg viewBox="0 0 20 20" xmlns="http://www.w3.org/2000/svg">
<path fill-rule="evenodd" clip-rule="evenodd" d="M2.375 4.0625C2.375 3.13052 3.13052 2.375 4.0625 2.375H7.8125C8.74448 2.375 9.5 3.13052 9.5 4.0625V7.8125C9.5 8.74448 8.74448 9.5 7.8125 9.5H4.0625C3.13052 9.5 2.375 8.74448 2.375 7.8125V4.0625ZM4.0625 3.875C3.95895 3.875 3.875 3.95895 3.875 4.0625V7.8125C3.875 7.91605 3.95895 8 4.0625 8H7.8125C7.91605 8 8 7.91605 8 7.8125V4.0625C8 3.95895 7.91605 3.875 7.8125 3.875H4.0625ZM10.5 4.0625C10.5 3.13052 11.2555 2.375 12.1875 2.375H15.9375C16.8695 2.375 17.625 3.13052 17.625 4.0625V7.8125C17.625 8.74448 16.8695 9.5 15.9375 9.5H12.1875C11.2555 9.5 10.5 8.74448 10.5 7.8125V4.0625ZM12.1875 3.875C12.0839 3.875 12 3.95895 12 4.0625V7.8125C12 7.91605 12.0839 8 12.1875 8H15.9375C16.0411 8 16.125 7.91605 16.125 7.8125V4.0625C16.125 3.95895 16.0411 3.875 15.9375 3.875H12.1875ZM4.875 5.625C4.875 5.21079 5.21079 4.875 5.625 4.875H6.25C6.66421 4.875 7 5.21079 7 5.625V6.25C7 6.66421 6.66421 7 6.25 7H5.625C5.21079 7 4.875 6.66421 4.875 6.25V5.625ZM13 5.625C13 5.21079 13.3358 4.875 13.75 4.875H14.375C14.7892 4.875 15.125 5.21079 15.125 5.625V6.25C15.125 6.66421 14.7892 7 14.375 7H13.75C13.3358 7 13 6.66421 13 6.25V5.625ZM2.375 12.1875C2.375 11.2555 3.13052 10.5 4.0625 10.5H7.8125C8.74448 10.5 9.5 11.2555 9.5 12.1875V15.9375C9.5 16.8695 8.74448 17.625 7.8125 17.625H4.0625C3.13052 17.625 2.375 16.8695 2.375 15.9375V12.1875ZM4.0625 12C3.95895 12 3.875 12.0839 3.875 12.1875V15.9375C3.875 16.0411 3.95895 16.125 4.0625 16.125H7.8125C7.91605 16.125 8 16.0411 8 15.9375V12.1875C8 12.0839 7.91605 12 7.8125 12H4.0625ZM10.5 11.25C10.5 10.8358 10.8358 10.5 11.25 10.5H11.875C12.2892 10.5 12.625 10.8358 12.625 11.25V11.875C12.625 12.2892 12.2892 12.625 11.875 12.625H11.25C10.8358 12.625 10.5 12.2892 10.5 11.875V11.25ZM15.5 11.25C15.5 10.8358 15.8358 10.5 16.25 10.5H16.875C17.2892 10.5 17.625 10.8358 17.625 11.25V11.875C17.625 12.2892 17.2892 12.625 16.875 12.625H16.25C15.8358 12.625 15.5 12.2892 15.5 11.875V11.25ZM4.875 13.75C4.875 13.3358 5.21079 13 5.625 13H6.25C6.66421 13 7 13.3358 7 13.75V14.375C7 14.7892 6.66421 15.125 6.25 15.125H5.625C5.21079 15.125 4.875 14.7892 4.875 14.375V13.75ZM13 13.75C13 13.3358 13.3358 13 13.75 13H14.375C14.7892 13 15.125 13.3358 15.125 13.75V14.375C15.125 14.7892 14.7892 15.125 14.375 15.125H13.75C13.3358 15.125 13 14.7892 13 14.375V13.75ZM10.5 16.25C10.5 15.8358 10.8358 15.5 11.25 15.5H11.875C12.2892 15.5 12.625 15.8358 12.625 16.25V16.875C12.625 17.2892 12.2892 17.625 11.875 17.625H11.25C10.8358 17.625 10.5 17.2892 10.5 16.875V16.25ZM15.5 16.25C15.5 15.8358 15.8358 15.5 16.25 15.5H16.875C17.2892 15.5 17.625 15.8358 17.625 16.25V16.875C17.625 17.2892 17.2892 17.625 16.875 17.625H16.25C15.8358 17.625 15.5 17.2892 15.5 16.875V16.25Z" fill="inherit"/>
</svg>
