<svg viewBox="0 0 20 20" xmlns="http://www.w3.org/2000/svg">
<path fill-rule="evenodd" clip-rule="evenodd" d="M2.25 3.87883C2.25 2.98166 2.97729 2.25437 3.87445 2.25437H5.62336C6.52052 2.25437 7.24781 2.98166 7.24781 3.87883V5.62773C7.24781 6.52489 6.52052 7.25219 5.62336 7.25219H3.87445C2.97729 7.25219 2.25 6.52489 2.25 5.62773V3.87883ZM3.87445 3.75437C3.80572 3.75437 3.75 3.81009 3.75 3.87883V5.62773C3.75 5.69647 3.80572 5.75219 3.87445 5.75219H5.62336C5.69209 5.75219 5.74781 5.69647 5.74781 5.62773V3.87883C5.74781 3.81009 5.69209 3.75437 5.62336 3.75437H3.87445ZM9.99563 2.25437C10.4098 2.25437 10.7456 2.59016 10.7456 3.00437V3.87883C10.7456 4.29304 10.4098 4.62883 9.99563 4.62883C9.58141 4.62883 9.24563 4.29304 9.24563 3.87883V3.00437C9.24563 2.59016 9.58141 2.25437 9.99563 2.25437ZM12.7434 3.87883C12.7434 2.98166 13.4707 2.25437 14.3679 2.25437H16.1168C17.014 2.25437 17.7413 2.98166 17.7413 3.87883V5.62773C17.7413 6.52489 17.014 7.25219 16.1168 7.25219H14.3679C13.4707 7.25219 12.7434 6.52489 12.7434 5.62773V3.87883ZM14.3679 3.75437C14.2992 3.75437 14.2434 3.81009 14.2434 3.87883V5.62773C14.2434 5.69647 14.2992 5.75219 14.3679 5.75219H16.1168C16.1855 5.75219 16.2413 5.69647 16.2413 5.62773V3.87883C16.2413 3.81009 16.1855 3.75437 16.1168 3.75437H14.3679ZM9.99563 6.62664C10.4098 6.62664 10.7456 6.96243 10.7456 7.37664V9.25H13.5022C13.9164 9.25 14.2522 9.58579 14.2522 10C14.2522 10.4142 13.9164 10.75 13.5022 10.75H9.99563C9.58141 10.75 9.24563 10.4142 9.24563 10V7.37664C9.24563 6.96243 9.58141 6.62664 9.99563 6.62664ZM2.25 10C2.25 9.58579 2.58579 9.25 3 9.25H6.49781C6.91203 9.25 7.24781 9.58579 7.24781 10C7.24781 10.4142 6.91203 10.75 6.49781 10.75H3C2.58579 10.75 2.25 10.4142 2.25 10ZM16.2413 10C16.2413 9.58579 16.577 9.25 16.9913 9.25H17C17.4142 9.25 17.75 9.58579 17.75 10C17.75 10.4142 17.4142 10.75 17 10.75H16.9913C16.577 10.75 16.2413 10.4142 16.2413 10ZM2.25 14.3723C2.25 13.4751 2.97729 12.7478 3.87445 12.7478H5.62336C6.52052 12.7478 7.24781 13.4751 7.24781 14.3723V16.1212C7.24781 17.0183 6.52052 17.7456 5.62336 17.7456H3.87445C2.97729 17.7456 2.25 17.0183 2.25 16.1212V14.3723ZM3.87445 14.2478C3.80572 14.2478 3.75 14.3035 3.75 14.3723V16.1212C3.75 16.1899 3.80572 16.2456 3.87445 16.2456H5.62336C5.69209 16.2456 5.74781 16.1899 5.74781 16.1212V14.3723C5.74781 14.3035 5.69209 14.2478 5.62336 14.2478H3.87445ZM9.24563 13.4978C9.24563 13.0836 9.58141 12.7478 9.99563 12.7478H11.7445C12.1587 12.7478 12.4945 13.0836 12.4945 13.4978C12.4945 13.912 12.1587 14.2478 11.7445 14.2478H10.7456V16.9956C10.7456 17.4098 10.4098 17.7456 9.99563 17.7456C9.58141 17.7456 9.24563 17.4098 9.24563 16.9956V13.4978ZM14.4923 13.4978C14.4923 13.0836 14.8281 12.7478 15.2423 12.7478H16.9913C17.4055 12.7478 17.7413 13.0836 17.7413 13.4978C17.7413 13.912 17.4055 14.2478 16.9913 14.2478H15.2423C14.8281 14.2478 14.4923 13.912 14.4923 13.4978ZM12.7434 16.9956C12.7434 16.5814 13.0792 16.2456 13.4934 16.2456H16.9913C17.4055 16.2456 17.7413 16.5814 17.7413 16.9956C17.7413 17.4098 17.4055 17.7456 16.9913 17.7456H13.4934C13.0792 17.7456 12.7434 17.4098 12.7434 16.9956Z" fill="inherit"/>
</svg>
