<svg viewBox="0 0 20 20" xmlns="http://www.w3.org/2000/svg">
<path fill-rule="evenodd" clip-rule="evenodd" d="M10 3.75C6.54822 3.75 3.75 6.54822 3.75 10C3.75 13.4518 6.54822 16.25 10 16.25C13.4518 16.25 16.25 13.4518 16.25 10C16.25 6.54822 13.4518 3.75 10 3.75ZM2.25 10C2.25 5.71979 5.71979 2.25 10 2.25C14.2802 2.25 17.75 5.71979 17.75 10C17.75 14.2802 14.2802 17.75 10 17.75C5.71979 17.75 2.25 14.2802 2.25 10ZM11.1562 7.07909C10.5278 6.52919 9.47259 6.52919 8.84414 7.07909C8.53241 7.35185 8.05859 7.32026 7.78583 7.00854C7.51307 6.69681 7.54465 6.22299 7.85638 5.95022C9.05037 4.90548 10.95 4.90548 12.144 5.95022C13.3967 7.04635 13.3967 8.87031 12.144 9.96644C11.9326 10.1514 11.7002 10.3026 11.4555 10.421C10.945 10.6681 10.7502 10.9729 10.7502 11.1667V11.75C10.7502 12.1642 10.4144 12.5 10.0002 12.5C9.58596 12.5 9.25018 12.1642 9.25018 11.75V11.1667C9.25018 10.0717 10.1527 9.38506 10.8021 9.07077C10.9313 9.00823 11.0504 8.9302 11.1562 8.83758C11.7259 8.33907 11.7259 7.5776 11.1562 7.07909ZM9.25 14.0833C9.25 13.6691 9.58579 13.3333 10 13.3333H10.0058C10.42 13.3333 10.7558 13.6691 10.7558 14.0833V14.0892C10.7558 14.5034 10.42 14.8392 10.0058 14.8392H10C9.58579 14.8392 9.25 14.5034 9.25 14.0892V14.0833Z" fill="inherit"/>
</svg>
