<svg viewBox="0 0 20 20" xmlns="http://www.w3.org/2000/svg">
<path fill-rule="evenodd" clip-rule="evenodd" d="M2.375 5.3125C2.375 4.03534 3.41034 3 4.6875 3H15.3125C16.5897 3 17.625 4.03534 17.625 5.3125C17.625 6.58966 16.5897 7.625 15.3125 7.625H4.6875C3.41034 7.625 2.375 6.58966 2.375 5.3125ZM4.6875 4.5C4.23877 4.5 3.875 4.86377 3.875 5.3125C3.875 5.76123 4.23877 6.125 4.6875 6.125H15.3125C15.7612 6.125 16.125 5.76123 16.125 5.3125C16.125 4.86377 15.7612 4.5 15.3125 4.5H4.6875ZM2.375 10C2.375 9.58579 2.71079 9.25 3.125 9.25H16.875C17.2892 9.25 17.625 9.58579 17.625 10C17.625 10.4142 17.2892 10.75 16.875 10.75H3.125C2.71079 10.75 2.375 10.4142 2.375 10ZM2.375 13.125C2.375 12.7108 2.71079 12.375 3.125 12.375H16.875C17.2892 12.375 17.625 12.7108 17.625 13.125C17.625 13.5392 17.2892 13.875 16.875 13.875H3.125C2.71079 13.875 2.375 13.5392 2.375 13.125ZM2.375 16.25C2.375 15.8358 2.71079 15.5 3.125 15.5H16.875C17.2892 15.5 17.625 15.8358 17.625 16.25C17.625 16.6642 17.2892 17 16.875 17H3.125C2.71079 17 2.375 16.6642 2.375 16.25Z" fill="inherit"/>
</svg>
