<svg viewBox="0 0 20 20" xmlns="http://www.w3.org/2000/svg">
<path fill-rule="evenodd" clip-rule="evenodd" d="M17.6026 2.63059C17.7031 3.03244 17.4587 3.43964 17.0569 3.5401L11.5948 4.90564C13.3422 4.97291 15.0618 5.15025 16.7466 5.43101C18.003 5.64036 18.875 6.74007 18.875 7.97835V15.625C18.875 17.0747 17.6997 18.25 16.25 18.25H3.75C2.30025 18.25 1.125 17.0747 1.125 15.625V7.97835C1.125 6.74007 1.997 5.64036 3.25338 5.43101C3.30723 5.42204 3.3611 5.41317 3.41502 5.40441L16.6931 2.08489C17.0949 1.98443 17.5021 2.22875 17.6026 2.63059ZM3.2391 6.99131C2.87586 7.16009 2.625 7.537 2.625 7.97835V15.625C2.625 16.2463 3.12868 16.75 3.75 16.75H16.25C16.8713 16.75 17.375 16.2463 17.375 15.625V7.97835C17.375 7.43764 16.9985 6.99366 16.5001 6.9106C14.3862 6.55837 12.2148 6.37499 10 6.37499C7.86098 6.37499 5.76244 6.54603 3.71717 6.87503L3.3069 6.9776C3.2843 6.98325 3.26168 6.98781 3.2391 6.99131ZM6.95615 8.74999C6.95615 8.33578 7.29194 7.99999 7.70615 7.99999H7.7124C8.12662 7.99999 8.4624 8.33578 8.4624 8.74999V8.75624C8.4624 9.17046 8.12662 9.50624 7.7124 9.50624H7.70615C7.29194 9.50624 6.95615 9.17046 6.95615 8.75624V8.74999ZM5.77291 8.51797C6.13163 8.31086 6.59032 8.43376 6.79743 8.79248L6.80056 8.79789C7.00767 9.15661 6.88477 9.6153 6.52605 9.82241L6.52063 9.82554C6.16192 10.0326 5.70322 9.90974 5.49611 9.55102L5.49299 9.54561C5.28588 9.18689 5.40878 8.7282 5.7675 8.52109L5.77291 8.51797ZM8.62119 8.79255C8.8283 8.43383 9.287 8.31093 9.64571 8.51804L9.65113 8.52116C10.0098 8.72827 10.1327 9.18697 9.92564 9.54568L9.92251 9.5511C9.71541 9.90981 9.25671 10.0327 8.89799 9.82561L8.89258 9.82248C8.53386 9.61537 8.41096 9.15668 8.61807 8.79796L8.62119 8.79255ZM14.375 10.125C14.444 10.125 14.5 10.069 14.5 9.99999C14.5 9.93096 14.444 9.87499 14.375 9.87499C14.306 9.87499 14.25 9.93096 14.25 9.99999C14.25 10.069 14.306 10.125 14.375 10.125ZM13 9.99999C13 9.2406 13.6156 8.62499 14.375 8.62499C15.1344 8.62499 15.75 9.2406 15.75 9.99999C15.75 10.7594 15.1344 11.375 14.375 11.375C13.6156 11.375 13 10.7594 13 9.99999ZM4.35247 9.93628C4.55958 9.57756 5.01827 9.45466 5.37699 9.66176L5.3824 9.66489C5.74112 9.872 5.86402 10.3307 5.65691 10.6894L5.65379 10.6948C5.44668 11.0535 4.98799 11.1764 4.62927 10.9693L4.62386 10.9662C4.26514 10.7591 4.14223 10.3004 4.34934 9.94169L4.35247 9.93628ZM10.0418 9.66184C10.4005 9.45473 10.8592 9.57763 11.0663 9.93635L11.0694 9.94176C11.2765 10.3005 11.1536 10.7592 10.7949 10.9663L10.7895 10.9694C10.4308 11.1765 9.9721 11.0536 9.76499 10.6949L9.76187 10.6895C9.55476 10.3308 9.67766 9.87207 10.0364 9.66496L10.0418 9.66184ZM6.29525 10.4593C6.58814 10.1665 7.06298 10.1665 7.35587 10.4593L7.36029 10.4638C7.50095 10.6044 7.57997 10.7952 7.57998 10.9941C7.57999 11.193 7.50098 11.3838 7.36033 11.5244L7.35591 11.5288C7.21526 11.6695 7.02448 11.7485 6.82556 11.7485C6.62664 11.7485 6.43587 11.6695 6.29521 11.5288L6.29079 11.5244C6.15015 11.3838 6.07114 11.193 6.07114 10.9941C6.07115 10.7952 6.15017 10.6044 6.29083 10.4638L6.29525 10.4593ZM8.59297 10.2398C8.79189 10.2398 8.98266 10.3188 9.12332 10.4595L9.12774 10.4639C9.42064 10.7568 9.42064 11.2317 9.12774 11.5246L9.12332 11.529C8.98266 11.6697 8.79189 11.7487 8.59297 11.7487C8.39405 11.7487 8.20328 11.6696 8.06263 11.529L8.05821 11.5246C7.76536 11.2317 7.76536 10.7568 8.05821 10.464L8.06263 10.4595C8.20328 10.3189 8.39405 10.2398 8.59297 10.2398ZM3.83115 11.8748C3.83115 11.4606 4.16694 11.1248 4.58115 11.1248H4.5874C5.00162 11.1248 5.3374 11.4606 5.3374 11.8748V11.8811C5.3374 12.2953 5.00162 12.6311 4.5874 12.6311H4.58115C4.16694 12.6311 3.83115 12.2953 3.83115 11.8811V11.8748ZM10.0812 11.8748C10.0812 11.4606 10.4169 11.1248 10.8312 11.1248H10.8374C11.2516 11.1248 11.5874 11.4606 11.5874 11.8748V11.8811C11.5874 12.2953 11.2516 12.6311 10.8374 12.6311H10.8312C10.4169 12.6311 10.0812 12.2953 10.0812 11.8811V11.8748ZM8.06285 12.2271C8.35573 11.9342 8.83055 11.9342 9.12343 12.2271L9.12785 12.2315C9.26852 12.3721 9.34755 12.5629 9.34756 12.7618C9.34757 12.9607 9.26855 13.1515 9.12789 13.2922L9.12347 13.2966C8.83058 13.5895 8.3557 13.5895 8.06281 13.2966L8.05839 13.2922C7.91773 13.1515 7.83871 12.9607 7.83872 12.7618C7.83873 12.5629 7.91776 12.3721 8.05843 12.2315L8.06285 12.2271ZM6.82543 12.0076C7.02434 12.0076 7.21511 12.0866 7.35576 12.2273L7.36018 12.2317C7.65305 12.5246 7.65305 12.9994 7.36018 13.2923L7.35576 13.2967C7.21511 13.4374 7.02434 13.5164 6.82543 13.5164C6.62651 13.5164 6.43574 13.4374 6.29508 13.2967L6.29066 13.2923C5.99777 12.9994 5.99777 12.5246 6.29066 12.2317L6.29508 12.2272C6.43574 12.0866 6.62651 12.0076 6.82543 12.0076ZM14.375 13.875C14.444 13.875 14.5 13.819 14.5 13.75C14.5 13.681 14.444 13.625 14.375 13.625C14.306 13.625 14.25 13.681 14.25 13.75C14.25 13.819 14.306 13.875 14.375 13.875ZM13 13.75C13 12.9906 13.6156 12.375 14.375 12.375C15.1344 12.375 15.75 12.9906 15.75 13.75C15.75 14.5094 15.1344 15.125 14.375 15.125C13.6156 15.125 13 14.5094 13 13.75ZM9.76508 13.0612C9.97219 12.7026 10.4308 12.5797 10.7895 12.7867L10.7949 12.7899C10.9672 12.8893 11.0929 13.0531 11.1444 13.2452C11.1959 13.4374 11.169 13.6421 11.0695 13.8144L11.0664 13.8198C10.9669 13.9921 10.8031 14.1178 10.611 14.1693C10.4188 14.2207 10.2141 14.1938 10.0418 14.0943L10.0364 14.0912C9.67771 13.884 9.55484 13.4254 9.76196 13.0667L9.76508 13.0612ZM5.1983 12.7119C5.39045 12.7634 5.55428 12.8891 5.65373 13.0614L5.65686 13.0668C5.75631 13.2391 5.78325 13.4438 5.73176 13.6359C5.68026 13.8281 5.55455 13.9919 5.38227 14.0913L5.37686 14.0944C5.01816 14.3015 4.55952 14.1786 4.35241 13.8199L4.34929 13.8145C4.14217 13.4558 4.26504 12.9971 4.62373 12.79L4.62914 12.7869C4.80141 12.6874 5.00614 12.6604 5.1983 12.7119ZM8.89797 13.9305C9.25669 13.7235 9.71536 13.8464 9.92245 14.2051L9.92558 14.2105C10.025 14.3828 10.052 14.5875 10.0005 14.7796C9.94898 14.9718 9.82327 15.1356 9.65099 15.235L9.64558 15.2382C9.28685 15.4452 8.82818 15.3223 8.6211 14.9636L8.61797 14.9582C8.51852 14.7859 8.49158 14.5812 8.54307 14.389C8.59457 14.1969 8.72028 14.0331 8.89255 13.9337L8.89797 13.9305ZM5.95161 13.8557C6.14377 13.8042 6.3485 13.8312 6.52077 13.9307L6.52618 13.9338C6.88485 14.1409 7.00773 14.5996 6.80066 14.9583L6.79753 14.9637C6.69807 15.1359 6.53425 15.2617 6.34209 15.3131C6.14994 15.3646 5.94521 15.3377 5.77294 15.2382L5.76753 15.2351C5.40886 15.0279 5.28598 14.5693 5.49305 14.2106L5.49618 14.2052C5.59563 14.0329 5.75946 13.9072 5.95161 13.8557ZM6.95615 15C6.95615 14.5858 7.29194 14.25 7.70615 14.25H7.7124C8.12662 14.25 8.4624 14.5858 8.4624 15V15.0062C8.4624 15.4205 8.12662 15.7562 7.7124 15.7562H7.70615C7.29194 15.7562 6.95615 15.4205 6.95615 15.0062V15Z" fill="inherit"/>
</svg>
