<svg viewBox="0 0 20 20" xmlns="http://www.w3.org/2000/svg">
<path fill-rule="evenodd" clip-rule="evenodd" d="M10 2.625C8.45228 2.625 6.92579 2.71454 5.42536 2.88867C4.90498 2.94907 4.5 3.40261 4.5 3.96416V17.0172L6.59646 16.1786C6.77527 16.1071 6.97473 16.1071 7.15354 16.1786L10 17.3172L12.8465 16.1786C13.0253 16.1071 13.2247 16.1071 13.4035 16.1786L15.5 17.0172V3.96416C15.5 3.40261 15.095 2.94907 14.5746 2.88867C13.0742 2.71454 11.5477 2.625 10 2.625ZM5.25244 1.39867C6.81015 1.2179 8.39438 1.125 10 1.125C11.6056 1.125 13.1899 1.2179 14.7476 1.39867C16.0615 1.55116 17 2.67905 17 3.96416V18.125C17 18.3739 16.8766 18.6065 16.6705 18.746C16.4644 18.8856 16.2025 18.9138 15.9715 18.8214L13.125 17.6828L10.2785 18.8214C10.0997 18.8929 9.90027 18.8929 9.72146 18.8214L6.875 17.6828L4.02854 18.8214C3.79747 18.9138 3.53561 18.8856 3.32953 18.746C3.12345 18.6065 3 18.3739 3 18.125V3.96416C3 2.67905 3.93849 1.55116 5.25244 1.39867ZM13.0303 6.34467C13.3232 6.63756 13.3232 7.11244 13.0303 7.40533L8.03033 12.4053C7.73744 12.6982 7.26256 12.6982 6.96967 12.4053C6.67678 12.1124 6.67678 11.6376 6.96967 11.3447L11.9697 6.34467C12.2626 6.05178 12.7374 6.05178 13.0303 6.34467ZM7.0625 7.5C7.0625 6.9132 7.5382 6.4375 8.125 6.4375C8.7118 6.4375 9.1875 6.9132 9.1875 7.5C9.1875 8.0868 8.7118 8.5625 8.125 8.5625C7.5382 8.5625 7.0625 8.0868 7.0625 7.5ZM10.8125 11.25C10.8125 10.6632 11.2882 10.1875 11.875 10.1875C12.4618 10.1875 12.9375 10.6632 12.9375 11.25C12.9375 11.8368 12.4618 12.3125 11.875 12.3125C11.2882 12.3125 10.8125 11.8368 10.8125 11.25Z" fill="inherit"/>
</svg>
