<svg viewBox="0 0 20 20" xmlns="http://www.w3.org/2000/svg">
<path fill-rule="evenodd" clip-rule="evenodd" d="M10 2.625C8.45228 2.625 6.92579 2.71454 5.42536 2.88867C4.90498 2.94907 4.5 3.40261 4.5 3.96416V17.0172L6.59646 16.1786C6.77527 16.1071 6.97473 16.1071 7.15354 16.1786L10 17.3172L12.8465 16.1786C13.0253 16.1071 13.2247 16.1071 13.4035 16.1786L15.5 17.0172V3.96416C15.5 3.40261 15.095 2.94907 14.5746 2.88867C13.0742 2.71454 11.5477 2.625 10 2.625ZM5.25244 1.39867C6.81015 1.2179 8.39438 1.125 10 1.125C11.6056 1.125 13.1899 1.2179 14.7476 1.39867C16.0615 1.55116 17 2.67905 17 3.96416V18.125C17 18.3739 16.8766 18.6065 16.6705 18.746C16.4644 18.8856 16.2025 18.9138 15.9715 18.8214L13.125 17.6828L10.2785 18.8214C10.0997 18.8929 9.90027 18.8929 9.72146 18.8214L6.875 17.6828L4.02854 18.8214C3.79747 18.9138 3.53561 18.8856 3.32953 18.746C3.12345 18.6065 3 18.3739 3 18.125V3.96416C3 2.67905 3.93849 1.55116 5.25244 1.39867ZM9.28033 5.71967C9.57322 6.01256 9.57322 6.48744 9.28033 6.78033L8.68566 7.375H10.9375C12.5598 7.375 13.875 8.69016 13.875 10.3125C13.875 11.9348 12.5598 13.25 10.9375 13.25H10C9.58579 13.25 9.25 12.9142 9.25 12.5C9.25 12.0858 9.58579 11.75 10 11.75H10.9375C11.7314 11.75 12.375 11.1064 12.375 10.3125C12.375 9.51859 11.7314 8.875 10.9375 8.875H8.68566L9.28033 9.46967C9.57322 9.76256 9.57322 10.2374 9.28033 10.5303C8.98744 10.8232 8.51256 10.8232 8.21967 10.5303L6.34467 8.65533C6.05178 8.36244 6.05178 7.88756 6.34467 7.59467L8.21967 5.71967C8.51256 5.42678 8.98744 5.42678 9.28033 5.71967Z" fill="inherit"/>
</svg>
