<svg viewBox="0 0 20 20" xmlns="http://www.w3.org/2000/svg">
<path fill-rule="evenodd" clip-rule="evenodd" d="M1.125 5.9375C1.125 5.00552 1.88052 4.25 2.8125 4.25H7.8125C8.74448 4.25 9.5 5.00552 9.5 5.9375V9.0625C9.5 9.99448 8.74448 10.75 7.8125 10.75H2.8125C1.88052 10.75 1.125 9.99448 1.125 9.0625V5.9375ZM2.8125 5.75C2.70895 5.75 2.625 5.83395 2.625 5.9375V9.0625C2.625 9.16605 2.70895 9.25 2.8125 9.25H7.8125C7.91605 9.25 8 9.16605 8 9.0625V5.9375C8 5.83395 7.91605 5.75 7.8125 5.75H2.8125ZM11.125 7.1875C11.125 6.25552 11.8805 5.5 12.8125 5.5H17.1875C18.1195 5.5 18.875 6.25552 18.875 7.1875V14.0625C18.875 14.9945 18.1195 15.75 17.1875 15.75H12.8125C11.8805 15.75 11.125 14.9945 11.125 14.0625V7.1875ZM12.8125 7C12.7089 7 12.625 7.08395 12.625 7.1875V14.0625C12.625 14.1661 12.7089 14.25 12.8125 14.25H17.1875C17.2911 14.25 17.375 14.1661 17.375 14.0625V7.1875C17.375 7.08395 17.2911 7 17.1875 7H12.8125ZM2.375 13.4375C2.375 12.5055 3.13052 11.75 4.0625 11.75H8.4375C9.36948 11.75 10.125 12.5055 10.125 13.4375V15.3125C10.125 16.2445 9.36948 17 8.4375 17H4.0625C3.13052 17 2.375 16.2445 2.375 15.3125V13.4375ZM4.0625 13.25C3.95895 13.25 3.875 13.3339 3.875 13.4375V15.3125C3.875 15.4161 3.95895 15.5 4.0625 15.5H8.4375C8.54105 15.5 8.625 15.4161 8.625 15.3125V13.4375C8.625 13.3339 8.54105 13.25 8.4375 13.25H4.0625Z" fill="inherit"/>
</svg>
