<svg viewBox="0 0 20 20" xmlns="http://www.w3.org/2000/svg">
<path fill-rule="evenodd" clip-rule="evenodd" d="M2.21876 8.31842C3.38874 3.95199 7.87689 1.36076 12.2433 2.53074C13.6824 2.91633 14.9304 3.66352 15.9138 4.64862C15.9137 4.64855 15.9138 4.64868 15.9138 4.64862L17.5 6.23486V3.54772C17.5 3.13351 17.8358 2.79772 18.25 2.79772C18.6642 2.79772 19 3.13351 19 3.54772V8.04712C19 8.46134 18.6642 8.79712 18.25 8.79712H13.7506C13.3364 8.79712 13.0006 8.46134 13.0006 8.04712C13.0006 7.63291 13.3364 7.29712 13.7506 7.29712H16.4409L14.8528 5.70898C14.0508 4.90547 13.0327 4.29516 11.8551 3.97963C8.28886 3.02406 4.62322 5.14042 3.66765 8.70665C3.56044 9.10675 3.14919 9.34419 2.74909 9.23698C2.34899 9.12978 2.11156 8.71852 2.21876 8.31842ZM17.5007 11.6367C17.9008 11.7439 18.1382 12.1552 18.031 12.5553C16.861 16.9217 12.3729 19.513 8.00644 18.343C6.56749 17.9574 5.31946 17.2103 4.33616 16.2253C4.33606 16.2252 4.33627 16.2254 4.33616 16.2253L2.75 14.6381V17.326C2.75 17.7402 2.41421 18.076 2 18.076C1.58579 18.076 1.25 17.7402 1.25 17.326V12.8266C1.25 12.4124 1.58579 12.0766 2 12.0766L6.49944 12.0766C6.91365 12.0766 7.24944 12.4124 7.24944 12.8266C7.24944 13.2408 6.91365 13.5766 6.49944 13.5766L3.80983 13.5766L5.39717 15.1649C6.19917 15.9684 7.21711 16.5786 8.39467 16.8941C11.9609 17.8497 15.6265 15.7333 16.5821 12.1671C16.6893 11.767 17.1006 11.5295 17.5007 11.6367Z" fill="inherit"/>
</svg>
