<svg viewBox="0 0 20 20" xmlns="http://www.w3.org/2000/svg">
<path fill-rule="evenodd" clip-rule="evenodd" d="M13.668 3.00859C13.6032 2.94711 13.5263 2.89625 13.4389 2.86C11.7428 2.15685 9.85655 2.05841 8.09653 2.5812C6.33651 3.104 4.80983 4.21621 3.77267 5.73122C2.7355 7.24624 2.25094 9.07188 2.40031 10.9018C2.44632 11.4656 2.55163 12.0192 2.71245 12.5541C2.91891 13.2427 3.21777 13.9011 3.6013 14.5108H2C1.58579 14.5108 1.25 14.8466 1.25 15.2608C1.25 15.675 1.58579 16.0108 2 16.0108H5.07707C5.11565 16.0137 5.15443 16.0138 5.19304 16.0108H5.34555C5.75977 16.0108 6.09555 15.675 6.09555 15.2608V11.9152C6.09555 11.501 5.75977 11.1652 5.34555 11.1652C4.93134 11.1652 4.59555 11.501 4.59555 11.9152V13.2281C4.41337 12.8744 4.26386 12.5045 4.14911 12.1228C3.98794 11.5851 3.89615 11.0247 3.8793 10.4549C3.83195 8.85351 4.37982 7.29143 5.41704 6.07045C6.45427 4.84948 7.90722 4.05628 9.49518 3.84411C11.0831 3.63195 12.6934 4.01588 14.0148 4.92172C15.3361 5.82756 16.2749 7.19101 16.6496 8.74864C17.0243 10.3063 16.8084 11.9475 16.0436 13.3552C15.2788 14.7629 14.0194 15.8372 12.5087 16.3705C10.998 16.9038 9.34324 16.8582 7.86418 16.2426C7.48177 16.0834 7.04273 16.2644 6.88356 16.6468C6.72439 17.0292 6.90537 17.4683 7.28778 17.6274C9.1094 18.3857 11.1474 18.4418 13.008 17.785C14.8686 17.1282 16.4197 15.8051 17.3617 14.0713C18.3036 12.3375 18.5695 10.3162 18.108 8.39779C17.6465 6.4794 16.4903 4.80016 14.8629 3.68451C14.4824 3.42368 14.0825 3.19799 13.668 3.00859Z" fill="inherit"/>
</svg>
