<svg viewBox="0 0 20 20" xmlns="http://www.w3.org/2000/svg">
<path fill-rule="evenodd" clip-rule="evenodd" d="M8.197 3.24745C8.48989 3.54034 8.48989 4.01522 8.197 4.30811L4.81066 7.69445H10.7778C14.6284 7.69445 17.75 10.816 17.75 14.6667V16.2222C17.75 16.6364 17.4142 16.9722 17 16.9722C16.5858 16.9722 16.25 16.6364 16.25 16.2222V14.6667C16.25 11.6444 13.8 9.19445 10.7778 9.19445H4.81066L8.197 12.5808C8.48989 12.8737 8.48989 13.3485 8.197 13.6414C7.9041 13.9343 7.42923 13.9343 7.13634 13.6414L2.46967 8.97478C2.17678 8.68188 2.17678 8.20701 2.46967 7.91412L7.13634 3.24745C7.42923 2.95456 7.9041 2.95456 8.197 3.24745Z" fill="inherit"/>
</svg>
