<svg viewBox="0 0 20 20" xmlns="http://www.w3.org/2000/svg">
<path fill-rule="evenodd" clip-rule="evenodd" d="M8.94565 6.34783C8.94565 6.21347 8.79227 6.13678 8.68478 6.21739L3.81522 9.86957C3.72826 9.93478 3.72826 10.0652 3.81522 10.1304L8.68478 13.7826C8.79227 13.8632 8.94565 13.7865 8.94565 13.6522V6.34783ZM7.78478 5.01739C8.88112 4.19514 10.4457 4.9774 10.4457 6.34783V8.5L15.0891 5.01739C16.1855 4.19514 17.75 4.9774 17.75 6.34783V13.6522C17.75 15.0226 16.1855 15.8049 15.0891 14.9826L10.4457 11.5V13.6522C10.4457 15.0226 8.88112 15.8049 7.78478 14.9826L2.91522 11.3304C2.02826 10.6652 2.02826 9.33478 2.91522 8.66956L7.78478 5.01739ZM16.25 6.34783C16.25 6.21347 16.0966 6.13678 15.9891 6.21739L11.1196 9.86957C11.0326 9.93478 11.0326 10.0652 11.1196 10.1304L15.9891 13.7826C16.0966 13.8632 16.25 13.7865 16.25 13.6522V6.34783Z" fill="inherit"/>
</svg>
