<svg viewBox="0 0 20 20" xmlns="http://www.w3.org/2000/svg">
<path fill-rule="evenodd" clip-rule="evenodd" d="M7.70909 6.18516C10.134 3.10511 13.8983 1.12518 18.125 1.125C18.3239 1.12499 18.5147 1.20401 18.6553 1.34466C18.796 1.48531 18.875 1.67608 18.875 1.875C18.875 6.10187 16.8951 9.86651 13.8149 12.2916C13.8545 12.564 13.875 12.8423 13.875 13.125C13.875 16.3006 11.3006 18.875 8.125 18.875C7.71079 18.875 7.375 18.5392 7.375 18.125V14.7432C6.59177 14.1192 5.8809 13.4083 5.2569 12.625H1.875C1.46079 12.625 1.125 12.2892 1.125 11.875C1.125 8.69936 3.69936 6.125 6.875 6.125C7.15794 6.125 7.43647 6.14549 7.70909 6.18516ZM6.71989 7.62778C4.69822 7.70031 3.0364 9.18489 2.69097 11.125H5.27725C5.59136 9.87958 6.08166 8.70446 6.71989 7.62778ZM6.62935 11.9337C7.06633 12.4532 7.54748 12.9344 8.067 13.3714C9.71457 13.0232 11.2351 12.3296 12.5495 11.3691C15.2807 9.37336 17.1168 6.23028 17.3499 2.65019C13.7699 2.88342 10.6272 4.71946 8.63159 7.4506C7.67107 8.76516 6.97743 10.2859 6.62935 11.9337ZM8.875 14.7236V17.309C10.8148 16.9636 12.2993 15.3022 12.3722 13.281C11.2955 13.9192 10.1204 14.4095 8.875 14.7236ZM12.5 7C12.2239 7 12 7.22386 12 7.5C12 7.77614 12.2239 8 12.5 8C12.7761 8 13 7.77614 13 7.5C13 7.22386 12.7761 7 12.5 7ZM10.5 7.5C10.5 6.39543 11.3954 5.5 12.5 5.5C13.6046 5.5 14.5 6.39543 14.5 7.5C14.5 8.60457 13.6046 9.5 12.5 9.5C11.3954 9.5 10.5 8.60457 10.5 7.5ZM4.61108 13.4188C4.85875 13.7508 4.79039 14.2208 4.45838 14.4684C3.75542 14.9929 3.29163 15.8151 3.25266 16.7473C4.18485 16.7084 5.00714 16.2446 5.53155 15.5416C5.77922 15.2096 6.24915 15.1412 6.58116 15.3889C6.91317 15.6366 6.98153 16.1065 6.73386 16.4385C5.91471 17.5366 4.60308 18.25 3.125 18.25C2.88893 18.25 2.65661 18.2318 2.4295 18.1965C2.10682 18.1463 1.85366 17.8932 1.80353 17.5705C1.76824 17.3434 1.75 17.1111 1.75 16.875C1.75 15.3969 2.4634 14.0853 3.56147 13.2661C3.89348 13.0185 4.3634 13.0868 4.61108 13.4188Z" fill="inherit"/>
</svg>
