<svg viewBox="0 0 20 20" xmlns="http://www.w3.org/2000/svg">
<path fill-rule="evenodd" clip-rule="evenodd" d="M3.25 3C3.25 2.58579 3.58579 2.25 4 2.25C11.5939 2.25 17.75 8.40608 17.75 16C17.75 16.4142 17.4142 16.75 17 16.75C16.5858 16.75 16.25 16.4142 16.25 16C16.25 9.23451 10.7655 3.75 4 3.75C3.58579 3.75 3.25 3.41421 3.25 3ZM3.25 9C3.25 8.58579 3.58579 8.25 4 8.25C8.28021 8.25 11.75 11.7198 11.75 16C11.75 16.4142 11.4142 16.75 11 16.75C10.5858 16.75 10.25 16.4142 10.25 16C10.25 12.5482 7.45178 9.75 4 9.75C3.58579 9.75 3.25 9.41421 3.25 9ZM4 15.75C3.86193 15.75 3.75 15.8619 3.75 16C3.75 16.1381 3.86193 16.25 4 16.25C4.13807 16.25 4.25 16.1381 4.25 16C4.25 15.8619 4.13807 15.75 4 15.75ZM2.25 16C2.25 15.0335 3.0335 14.25 4 14.25C4.9665 14.25 5.75 15.0335 5.75 16C5.75 16.9665 4.9665 17.75 4 17.75C3.0335 17.75 2.25 16.9665 2.25 16Z" fill="inherit"/>
</svg>
