<svg viewBox="0 0 20 20" xmlns="http://www.w3.org/2000/svg">
<path fill-rule="evenodd" clip-rule="evenodd" d="M10 0.25C10.4142 0.25 10.75 0.585787 10.75 1L10.75 10.5227L12.1363 9.13634C12.4292 8.84344 12.9041 8.84344 13.197 9.13634C13.4899 9.42923 13.4899 9.9041 13.197 10.197L10.5303 12.8637C10.3897 13.0043 10.1989 13.0833 10 13.0833C9.80109 13.0833 9.61032 13.0043 9.46967 12.8637L6.803 10.197C6.51011 9.9041 6.51011 9.42923 6.803 9.13634C7.0959 8.84344 7.57077 8.84344 7.86366 9.13634L9.25 10.5227L9.25 1C9.25 0.585786 9.58579 0.25 10 0.25ZM6 7.08333C5.30964 7.08333 4.75 7.64298 4.75 8.33333V16.3333C4.75 17.0237 5.30964 17.5833 6 17.5833H14C14.6904 17.5833 15.25 17.0237 15.25 16.3333V8.33333C15.25 7.64298 14.6904 7.08333 14 7.08333H12.6667C12.2525 7.08333 11.9167 6.74755 11.9167 6.33333C11.9167 5.91912 12.2525 5.58333 12.6667 5.58333H14C15.5188 5.58333 16.75 6.81455 16.75 8.33333V16.3333C16.75 17.8521 15.5188 19.0833 14 19.0833H6C4.48122 19.0833 3.25 17.8521 3.25 16.3333V8.33333C3.25 6.81455 4.48122 5.58333 6 5.58333H7.33333C7.74755 5.58333 8.08333 5.91912 8.08333 6.33333C8.08333 6.74755 7.74755 7.08333 7.33333 7.08333H6Z" fill="inherit"/>
</svg>
