<svg viewBox="0 0 20 20" xmlns="http://www.w3.org/2000/svg">
<path fill-rule="evenodd" clip-rule="evenodd" d="M8.8 1.25C9.21421 1.25 9.55 1.58579 9.55 2L9.55 10.3893L10.6697 9.26967C10.9626 8.97678 11.4374 8.97678 11.7303 9.26967C12.0232 9.56256 12.0232 10.0374 11.7303 10.3303L9.33033 12.7303C9.18968 12.871 8.99891 12.95 8.8 12.95C8.60109 12.95 8.41032 12.871 8.26967 12.7303L5.86967 10.3303C5.57678 10.0374 5.57678 9.56256 5.86967 9.26967C6.16256 8.97678 6.63744 8.97678 6.93033 9.26967L8.05 10.3893L8.05 2C8.05 1.58579 8.38579 1.25 8.8 1.25ZM5.8 7.55C5.2201 7.55 4.75 8.0201 4.75 8.6V14.6C4.75 15.1799 5.2201 15.65 5.8 15.65H11.8C12.3799 15.65 12.85 15.1799 12.85 14.6V8.6C12.85 8.0201 12.3799 7.55 11.8 7.55H11.2C10.7858 7.55 10.45 7.21421 10.45 6.8C10.45 6.38579 10.7858 6.05 11.2 6.05H11.8C13.1594 6.05 14.2703 7.11367 14.3459 8.45411C15.6863 8.52971 16.75 9.64064 16.75 11V17C16.75 18.4083 15.6083 19.55 14.2 19.55H8.2C6.84064 19.55 5.72971 18.4863 5.65411 17.1459C4.31366 17.0703 3.25 15.9594 3.25 14.6V8.6C3.25 7.19167 4.39167 6.05 5.8 6.05H6.4C6.81421 6.05 7.15 6.38579 7.15 6.8C7.15 7.21421 6.81421 7.55 6.4 7.55H5.8ZM7.16063 17.15C7.23342 17.6588 7.67103 18.05 8.2 18.05H14.2C14.7799 18.05 15.25 17.5799 15.25 17V11C15.25 10.471 14.8588 10.0334 14.35 9.96063V14.6C14.35 16.0083 13.2083 17.15 11.8 17.15H7.16063Z" fill="inherit"/>
</svg>
