<svg viewBox="0 0 20 20" xmlns="http://www.w3.org/2000/svg">
<path fill-rule="evenodd" clip-rule="evenodd" d="M10 2.25C10.4142 2.25 10.75 2.58579 10.75 3V3.48764C12.4072 3.51802 14.0402 3.64888 15.643 3.87446C16.4879 3.99337 17.3243 4.13859 18.1516 4.30927C18.5572 4.39297 18.8182 4.78968 18.7345 5.19535C18.6508 5.60102 18.2541 5.86202 17.8484 5.77832C17.4129 5.68845 16.9746 5.6059 16.5338 5.53083L18.4171 13.2393C18.5911 13.9517 18.2797 14.8135 17.4589 15.1088C16.8581 15.3249 16.2112 15.4423 15.5385 15.4423C14.8657 15.4423 14.2188 15.3249 13.618 15.1088C12.7972 14.8135 12.4858 13.9517 12.6598 13.2393L14.611 5.25301C13.3421 5.10212 12.054 5.01272 10.75 4.9879V16.43C11.7785 16.502 12.7675 16.7209 13.6956 17.0663C14.0838 17.2108 14.2814 17.6426 14.1369 18.0308C13.9924 18.419 13.5606 18.6166 13.1724 18.4721C12.1856 18.1049 11.1172 17.9038 10 17.9038C8.88285 17.9038 7.81436 18.1049 6.82761 18.4721C6.43941 18.6166 6.00759 18.419 5.86311 18.0308C5.71864 17.6426 5.91622 17.2108 6.30442 17.0663C7.23245 16.7209 8.22146 16.502 9.25 16.43V4.9879C7.94595 5.01272 6.65793 5.10212 5.38895 5.25301L7.34015 13.2393C7.5142 13.9517 7.20277 14.8135 6.38197 15.1088C5.78122 15.3249 5.13427 15.4423 4.46154 15.4423C3.78881 15.4423 3.14186 15.3249 2.54111 15.1088C1.72031 14.8135 1.40888 13.9517 1.58293 13.2393L3.46625 5.53083C3.02542 5.6059 2.58714 5.68845 2.15156 5.77832C1.74589 5.86202 1.34917 5.60102 1.26547 5.19535C1.18177 4.78968 1.44278 4.39297 1.84844 4.30927C2.67566 4.13859 3.51213 3.99337 4.35702 3.87446C5.95985 3.64888 7.5928 3.51802 9.25 3.48764V3C9.25 2.58579 9.58579 2.25 10 2.25ZM4.46154 7.77721L3.04007 13.5953C3.02966 13.638 3.03702 13.6724 3.04527 13.6899C3.04713 13.6938 3.04872 13.6963 3.04973 13.6977C3.48969 13.8558 3.96469 13.9423 4.46154 13.9423C4.95839 13.9423 5.43339 13.8558 5.87335 13.6977C5.87435 13.6963 5.87595 13.6938 5.87781 13.6899C5.88605 13.6724 5.89342 13.638 5.88301 13.5953L4.46154 7.77721ZM15.5385 7.77721L14.117 13.5953C14.1066 13.638 14.1139 13.6724 14.1222 13.6899C14.1241 13.6938 14.1256 13.6963 14.1267 13.6977C14.5666 13.8558 15.0416 13.9423 15.5385 13.9423C16.0353 13.9423 16.5103 13.8558 16.9503 13.6977C16.9513 13.6963 16.9529 13.6938 16.9547 13.6899C16.963 13.6724 16.9703 13.638 16.9599 13.5953L15.5385 7.77721Z" fill="inherit"/>
</svg>
