<svg viewBox="0 0 20 20" xmlns="http://www.w3.org/2000/svg">
<path fill-rule="evenodd" clip-rule="evenodd" d="M5.25017 4.10939C4.41316 3.62614 3.34288 3.91292 2.85963 4.74993C2.37638 5.58694 2.66316 6.65723 3.50017 7.14048C4.33717 7.62372 5.40717 7.337 5.89042 6.49998C6.37376 5.66282 6.08704 4.59256 5.25017 4.10939ZM1.56059 3.99993C2.45805 2.44548 4.44572 1.91289 6.00017 2.81035C7.33118 3.57881 7.91264 5.14645 7.48916 6.55698L9.41871 7.67101C9.88033 7.25648 10.4348 6.93665 11.0552 6.7469L15.4925 5.38984C16.299 5.14318 17.1586 5.12813 17.9732 5.34642L18.6419 5.52559C18.9349 5.6041 19.1518 5.85139 19.1914 6.15214C19.231 6.45289 19.0855 6.74788 18.8228 6.89956L13.4527 10L18.8228 13.1005C19.0855 13.2521 19.231 13.5471 19.1914 13.8479C19.1518 14.1486 18.9349 14.3959 18.6419 14.4744L17.9732 14.6536C17.1586 14.8719 16.299 14.8568 15.4925 14.6102L11.0552 13.2531C10.4348 13.0634 9.88033 12.7435 9.41871 12.329L7.48916 13.443C7.91265 14.8535 7.33116 16.4211 6.00017 17.1895C4.44572 18.087 2.45805 17.5544 1.56059 15.9999C0.663128 14.4455 1.19572 12.4578 2.75017 11.5603C4.08114 10.7919 5.72936 11.072 6.73916 12.144L7.44542 11.7362C7.76606 11.5511 7.96607 11.2113 7.97229 10.8411C7.97711 10.5546 8.00991 10.2732 8.06846 10C8.00991 9.72686 7.97711 9.44543 7.97229 9.15888C7.96607 8.78868 7.76606 8.4489 7.44542 8.26378L6.73916 7.85602C5.72933 8.92802 4.08108 9.20791 2.75017 8.43951C1.19572 7.54205 0.663128 5.55438 1.56059 3.99993ZM10.8261 11.5164C11.0314 11.6434 11.2551 11.7457 11.4939 11.8187L15.9311 13.1758C15.9463 13.1804 15.9615 13.1849 15.9766 13.1893L11.9527 10.866L10.8261 11.5164ZM9.49448 10.5532C9.51015 10.4297 9.53373 10.3085 9.56475 10.19C9.67101 9.78421 9.86493 9.40986 10.1285 9.09153C10.4767 8.67088 10.9456 8.34899 11.4939 8.18132L15.9311 6.82425C15.9463 6.81962 15.9615 6.81511 15.9766 6.81073L9.49448 10.5532ZM5.89042 13.5C5.40713 12.6629 4.3371 12.3762 3.50017 12.8594C2.66316 13.3426 2.37638 14.4129 2.85963 15.2499C3.34288 16.0869 4.41316 16.3737 5.25017 15.8905C6.08706 15.4073 6.37374 14.3372 5.89042 13.5Z" fill="inherit"/>
</svg>
