<svg viewBox="0 0 20 20" xmlns="http://www.w3.org/2000/svg">
<path fill-rule="evenodd" clip-rule="evenodd" d="M10 3.25C6.27208 3.25 3.25 6.27208 3.25 10C3.25 13.7279 6.27208 16.75 10 16.75C13.7279 16.75 16.75 13.7279 16.75 10C16.75 6.27208 13.7279 3.25 10 3.25ZM1.75 10C1.75 5.44365 5.44365 1.75 10 1.75C14.5563 1.75 18.25 5.44365 18.25 10C18.25 14.5563 14.5563 18.25 10 18.25C5.44365 18.25 1.75 14.5563 1.75 10ZM9.0625 7C7.92341 7 7 7.92341 7 9.0625C7 10.2016 7.92341 11.125 9.0625 11.125C9.63225 11.125 10.1468 10.895 10.5209 10.5209C10.895 10.1468 11.125 9.63225 11.125 9.0625C11.125 7.92341 10.2016 7 9.0625 7ZM5.5 9.0625C5.5 7.09499 7.09499 5.5 9.0625 5.5C11.03 5.5 12.625 7.09499 12.625 9.0625C12.625 9.77455 12.4156 10.4384 12.0557 10.995L13.6553 12.5947C13.9482 12.8876 13.9482 13.3624 13.6553 13.6553C13.3624 13.9482 12.8876 13.9482 12.5947 13.6553L10.995 12.0557C10.4384 12.4156 9.77455 12.625 9.0625 12.625C7.09499 12.625 5.5 11.03 5.5 9.0625Z" fill="inherit"/>
</svg>
