<svg viewBox="0 0 20 20" xmlns="http://www.w3.org/2000/svg">
<path fill-rule="evenodd" clip-rule="evenodd" d="M8.44444 3.75C5.85177 3.75 3.75 5.85177 3.75 8.44444C3.75 11.0371 5.85177 13.1389 8.44444 13.1389C11.0371 13.1389 13.1389 11.0371 13.1389 8.44444C13.1389 5.85177 11.0371 3.75 8.44444 3.75ZM2.25 8.44444C2.25 5.02335 5.02335 2.25 8.44444 2.25C11.8655 2.25 14.6389 5.02335 14.6389 8.44444C14.6389 9.88471 14.1474 11.2102 13.3229 12.2622L17.5303 16.4697C17.8232 16.7626 17.8232 17.2374 17.5303 17.5303C17.2374 17.8232 16.7626 17.8232 16.4697 17.5303L12.2622 13.3229C11.2102 14.1474 9.88471 14.6389 8.44444 14.6389C5.02335 14.6389 2.25 11.8655 2.25 8.44444Z" fill="inherit"/>
</svg>
