<svg viewBox="0 0 20 20" xmlns="http://www.w3.org/2000/svg">
<path fill-rule="evenodd" clip-rule="evenodd" d="M7.03125 3.875C6.38206 3.875 5.77076 4.18065 5.38125 4.7L4.31205 6.1256C4.33299 6.1252 4.35397 6.125 4.375 6.125H15.625C15.646 6.125 15.667 6.1252 15.6879 6.1256L14.6188 4.7C14.2292 4.18065 13.6179 3.875 12.9688 3.875H7.03125ZM17.375 9.375C17.375 8.4085 16.5915 7.625 15.625 7.625H4.375C3.4085 7.625 2.625 8.4085 2.625 9.375C2.625 10.3415 3.4085 11.125 4.375 11.125H15.625C16.5915 11.125 17.375 10.3415 17.375 9.375ZM17.7018 11.875C18.4186 11.2788 18.875 10.3802 18.875 9.375C18.875 8.40133 18.5592 7.45393 17.975 6.675L15.8188 3.8C15.146 2.90294 14.0901 2.375 12.9688 2.375H7.03125C5.90993 2.375 4.85404 2.90294 4.18125 3.8L2.025 6.675C1.4408 7.45393 1.125 8.40133 1.125 9.375C1.125 10.3802 1.58137 11.2788 2.29822 11.875C1.58137 12.4712 1.125 13.3698 1.125 14.375C1.125 16.1699 2.58007 17.625 4.375 17.625H15.625C17.4199 17.625 18.875 16.1699 18.875 14.375C18.875 13.3698 18.4186 12.4712 17.7018 11.875ZM4.375 12.625C3.4085 12.625 2.625 13.4085 2.625 14.375C2.625 15.3415 3.4085 16.125 4.375 16.125H15.625C16.5915 16.125 17.375 15.3415 17.375 14.375C17.375 13.4085 16.5915 12.625 15.625 12.625H4.375ZM12.375 9.375C12.375 8.96079 12.7108 8.625 13.125 8.625H13.1313C13.5455 8.625 13.8813 8.96079 13.8813 9.375V9.38125C13.8813 9.79546 13.5455 10.1313 13.1313 10.1313H13.125C12.7108 10.1313 12.375 9.79546 12.375 9.38125V9.375ZM14.875 9.375C14.875 8.96079 15.2108 8.625 15.625 8.625H15.6313C16.0455 8.625 16.3813 8.96079 16.3813 9.375V9.38125C16.3813 9.79546 16.0455 10.1313 15.6313 10.1313H15.625C15.2108 10.1313 14.875 9.79546 14.875 9.38125V9.375ZM12.375 14.375C12.375 13.9608 12.7108 13.625 13.125 13.625H13.1313C13.5455 13.625 13.8813 13.9608 13.8813 14.375V14.3813C13.8813 14.7955 13.5455 15.1313 13.1313 15.1313H13.125C12.7108 15.1313 12.375 14.7955 12.375 14.3813V14.375ZM14.875 14.375C14.875 13.9608 15.2108 13.625 15.625 13.625H15.6313C16.0455 13.625 16.3813 13.9608 16.3813 14.375V14.3813C16.3813 14.7955 16.0455 15.1313 15.6313 15.1313H15.625C15.2108 15.1313 14.875 14.7955 14.875 14.3813V14.375Z" fill="inherit"/>
</svg>
