<svg viewBox="0 0 20 20" xmlns="http://www.w3.org/2000/svg">
<path fill-rule="evenodd" clip-rule="evenodd" d="M6.60254 3.875C5.64544 3.875 4.81408 4.53344 4.59487 5.46511L3.21278 11.339C3.57367 11.2007 3.96549 11.125 4.375 11.125H15.625C16.0345 11.125 16.4263 11.2007 16.7872 11.339L15.4051 5.46511C15.1859 4.53344 14.3546 3.875 13.3975 3.875H6.60254ZM17.375 14.375C17.375 13.4085 16.5915 12.625 15.625 12.625H4.375C3.4085 12.625 2.625 13.4085 2.625 14.375C2.625 15.3415 3.4085 16.125 4.375 16.125H15.625C16.5915 16.125 17.375 15.3415 17.375 14.375ZM1.125 14.375C1.125 16.1699 2.58007 17.625 4.375 17.625H15.625C17.4199 17.625 18.875 16.1699 18.875 14.375V14.1852C18.875 13.8382 18.8349 13.4924 18.7554 13.1546L18.6482 13.1798L18.7554 13.1546L16.8653 5.12155C16.4866 3.51231 15.0506 2.375 13.3975 2.375H6.60254C4.94936 2.375 3.51339 3.51231 3.13474 5.12155L1.24462 13.1546C1.16514 13.4924 1.125 13.8382 1.125 14.1852V14.375ZM12.375 14.375C12.375 13.9608 12.7108 13.625 13.125 13.625H13.1313C13.5455 13.625 13.8813 13.9608 13.8813 14.375V14.3813C13.8813 14.7955 13.5455 15.1313 13.1313 15.1313H13.125C12.7108 15.1313 12.375 14.7955 12.375 14.3813V14.375ZM14.875 14.375C14.875 13.9608 15.2108 13.625 15.625 13.625H15.6313C16.0455 13.625 16.3813 13.9608 16.3813 14.375V14.3813C16.3813 14.7955 16.0455 15.1313 15.6313 15.1313H15.625C15.2108 15.1313 14.875 14.7955 14.875 14.3813V14.375Z" fill="inherit"/>
</svg>
