<svg viewBox="0 0 20 20" xmlns="http://www.w3.org/2000/svg">
<path fill-rule="evenodd" clip-rule="evenodd" d="M15.25 2.75C14.6977 2.75 14.25 3.19772 14.25 3.75C14.25 3.92756 14.2956 4.09222 14.3752 4.2352C14.5471 4.5439 14.875 4.75 15.25 4.75C15.8023 4.75 16.25 4.30228 16.25 3.75C16.25 3.19772 15.8023 2.75 15.25 2.75ZM12.75 3.75C12.75 2.36929 13.8693 1.25 15.25 1.25C16.6307 1.25 17.75 2.36929 17.75 3.75C17.75 5.13071 16.6307 6.25 15.25 6.25C14.5829 6.25 13.9773 5.98853 13.5296 5.56375L7.19928 9.08059C7.23255 9.24323 7.25 9.41142 7.25 9.58333C7.25 9.75525 7.23255 9.92344 7.19928 10.0861L13.5296 13.6029C13.9773 13.1781 14.5829 12.9167 15.25 12.9167C16.6307 12.9167 17.75 14.036 17.75 15.4167C17.75 16.7974 16.6307 17.9167 15.25 17.9167C13.8693 17.9167 12.75 16.7974 12.75 15.4167C12.75 15.2448 12.7675 15.0766 12.8007 14.9139L6.4704 11.3971C6.02268 11.8219 5.41713 12.0833 4.75 12.0833C3.36929 12.0833 2.25 10.964 2.25 9.58333C2.25 8.20262 3.36929 7.08333 4.75 7.08333C5.41713 7.08333 6.02268 7.34481 6.4704 7.76958L12.8007 4.25274C12.7675 4.0901 12.75 3.92192 12.75 3.75ZM4.75 8.58333C4.19772 8.58333 3.75 9.03105 3.75 9.58333C3.75 10.1356 4.19772 10.5833 4.75 10.5833C5.12501 10.5833 5.4529 10.3772 5.62477 10.0685C5.70437 9.92555 5.75 9.7609 5.75 9.58333C5.75 9.40577 5.70437 9.24112 5.62477 9.09813C5.4529 8.78944 5.12501 8.58333 4.75 8.58333ZM15.25 14.4167C14.875 14.4167 14.5471 14.6228 14.3752 14.9315C14.2956 15.0745 14.25 15.2391 14.25 15.4167C14.25 15.969 14.6977 16.4167 15.25 16.4167C15.8023 16.4167 16.25 15.969 16.25 15.4167C16.25 14.8644 15.8023 14.4167 15.25 14.4167Z" fill="inherit"/>
</svg>
