<svg viewBox="0 0 20 20" xmlns="http://www.w3.org/2000/svg">
<path fill-rule="evenodd" clip-rule="evenodd" d="M9.48428 1.71741C9.77353 1.44348 10.2265 1.44348 10.5157 1.71741C12.1741 3.28794 14.4114 4.25009 16.875 4.25009C16.9142 4.25009 16.9534 4.24984 16.9924 4.24936C17.3198 4.24529 17.612 4.45404 17.7142 4.76505C18.0621 5.82313 18.25 6.95293 18.25 8.12513C18.25 13.1352 14.8233 17.3431 10.1869 18.5364C10.0643 18.568 9.93569 18.568 9.81306 18.5364C5.17667 17.3431 1.75 13.1352 1.75 8.12513C1.75 6.95293 1.93789 5.82313 2.28577 4.76505C2.38802 4.45404 2.68019 4.24529 3.00756 4.24936C3.04665 4.24984 3.08579 4.25009 3.125 4.25009C5.58864 4.25009 7.82594 3.28794 9.48428 1.71741ZM3.55985 5.74145C3.35783 6.50126 3.25 7.3001 3.25 8.12513C3.25 12.3666 6.10548 15.9431 10 17.0335C13.8945 15.9431 16.75 12.3666 16.75 8.12513C16.75 7.3001 16.6422 6.50126 16.4402 5.74145C13.9952 5.6441 11.7594 4.72961 10 3.2646C8.24062 4.72961 6.00479 5.6441 3.55985 5.74145ZM10 6.75008C10.4142 6.75008 10.75 7.08586 10.75 7.50008V10.6251C10.75 11.0393 10.4142 11.3751 10 11.3751C9.58579 11.3751 9.25 11.0393 9.25 10.6251V7.50008C9.25 7.08586 9.58579 6.75008 10 6.75008ZM9.25 13.1251C9.25 12.7109 9.58579 12.3751 10 12.3751H10.0063C10.4205 12.3751 10.7563 12.7109 10.7563 13.1251V13.1313C10.7563 13.5455 10.4205 13.8813 10.0063 13.8813H10C9.58579 13.8813 9.25 13.5455 9.25 13.1313V13.1251Z" fill="inherit"/>
</svg>
