<svg viewBox="0 0 20 20" xmlns="http://www.w3.org/2000/svg">
<path fill-rule="evenodd" clip-rule="evenodd" d="M9.48428 1.71717C9.77353 1.44324 10.2265 1.44324 10.5157 1.71717C12.1741 3.2877 14.4114 4.24984 16.875 4.24984C16.9142 4.24984 16.9534 4.2496 16.9924 4.24912C17.3198 4.24505 17.612 4.4538 17.7142 4.76481C18.0621 5.82289 18.25 6.95269 18.25 8.12488C18.25 13.135 14.8233 17.3428 10.1869 18.5362C10.0643 18.5677 9.93569 18.5677 9.81306 18.5362C5.17667 17.3428 1.75 13.135 1.75 8.12488C1.75 6.95269 1.93789 5.82289 2.28577 4.76481C2.38802 4.4538 2.68019 4.24505 3.00756 4.24912C3.04665 4.2496 3.08579 4.24984 3.125 4.24984C5.58864 4.24984 7.82594 3.2877 9.48428 1.71717ZM3.55985 5.7412C3.35783 6.50101 3.25 7.29986 3.25 8.12488C3.25 12.3664 6.10548 15.9428 10 17.0333C13.8945 15.9428 16.75 12.3664 16.75 8.12488C16.75 7.29986 16.6422 6.50101 16.4402 5.7412C13.9952 5.64386 11.7594 4.72937 10 3.26436C8.24062 4.72937 6.00479 5.64386 3.55985 5.7412ZM12.9359 7.51453C13.273 7.75529 13.3511 8.2237 13.1103 8.56076L9.9853 12.9358C9.85716 13.1152 9.65657 13.2291 9.43686 13.2473C9.21715 13.2655 9.00056 13.1861 8.84467 13.0302L6.96967 11.1552C6.67678 10.8623 6.67678 10.3874 6.96967 10.0945C7.26256 9.80161 7.73744 9.80161 8.03033 10.0945L9.2793 11.3435L11.8897 7.6889C12.1305 7.35185 12.5989 7.27378 12.9359 7.51453Z" fill="inherit"/>
</svg>
