<svg viewBox="0 0 20 20" xmlns="http://www.w3.org/2000/svg">
<path fill-rule="evenodd" clip-rule="evenodd" d="M1.125 2.5C1.125 2.08579 1.46079 1.75 1.875 1.75H3.02974C3.79426 1.75 4.46327 2.26398 4.66026 3.00269L4.82785 3.63114C5.09308 3.62705 5.3588 3.625 5.625 3.625C9.97187 3.625 14.1921 4.17168 18.2204 5.20041C18.4224 5.25201 18.5939 5.38541 18.6935 5.56858C18.7932 5.75175 18.8121 5.96815 18.7458 6.16584C18.0487 8.24164 17.2211 10.2575 16.2728 12.2035C16.1471 12.4614 15.8854 12.625 15.5985 12.625H6.25C5.5519 12.625 4.94927 13.0338 4.66841 13.625H16.875C17.2892 13.625 17.625 13.9608 17.625 14.375C17.625 14.7892 17.2892 15.125 16.875 15.125H3.75C3.33579 15.125 3 14.7892 3 14.375C3 12.9067 3.97367 11.6659 5.31055 11.2628L3.53024 4.58666L3.53024 4.58666L3.21091 3.38919L3.21091 3.38919C3.18902 3.30711 3.11469 3.25 3.02974 3.25H1.875C1.46079 3.25 1.125 2.91421 1.125 2.5ZM5.22663 5.12658L6.82621 11.125H15.1272C15.8475 9.61051 16.4926 8.05348 17.0579 6.4587C13.3896 5.58674 9.5617 5.125 5.625 5.125C5.49209 5.125 5.3593 5.12553 5.22663 5.12658ZM3 16.875C3 16.1156 3.61561 15.5 4.375 15.5C5.13439 15.5 5.75 16.1156 5.75 16.875C5.75 17.6344 5.13439 18.25 4.375 18.25C3.61561 18.25 3 17.6344 3 16.875ZM4.375 17C4.44404 17 4.5 16.944 4.5 16.875C4.5 16.806 4.44404 16.75 4.375 16.75C4.30596 16.75 4.25 16.806 4.25 16.875C4.25 16.944 4.30596 17 4.375 17ZM15 17C15.069 17 15.125 16.944 15.125 16.875C15.125 16.806 15.069 16.75 15 16.75C14.931 16.75 14.875 16.806 14.875 16.875C14.875 16.944 14.931 17 15 17ZM13.625 16.875C13.625 16.1156 14.2406 15.5 15 15.5C15.7594 15.5 16.375 16.1156 16.375 16.875C16.375 17.6344 15.7594 18.25 15 18.25C14.2406 18.25 13.625 17.6344 13.625 16.875Z" fill="inherit"/>
</svg>
