<svg viewBox="0 0 20 20" xmlns="http://www.w3.org/2000/svg">
<path fill-rule="evenodd" clip-rule="evenodd" d="M10 2.625C8.68832 2.625 7.625 3.68832 7.625 5V5.5H12.375V5C12.375 3.68832 11.3117 2.625 10 2.625ZM13.875 5.5V5C13.875 2.8599 12.1401 1.125 10 1.125C7.8599 1.125 6.125 2.8599 6.125 5V5.5H4.594C3.7304 5.5 3.00617 6.152 2.91577 7.01084L1.86314 17.0108C1.75826 18.0072 2.53949 18.875 3.54136 18.875H16.4586C17.4605 18.875 18.2417 18.0072 18.1369 17.0108L17.0842 7.01084C16.9938 6.152 16.2696 5.5 15.406 5.5H13.875ZM12.375 7H7.625V7.9974C7.81804 8.18978 7.9375 8.45594 7.9375 8.75C7.9375 9.3368 7.4618 9.8125 6.875 9.8125C6.2882 9.8125 5.8125 9.3368 5.8125 8.75C5.8125 8.45594 5.93196 8.18978 6.125 7.9974V7H4.594C4.49804 7 4.41757 7.07244 4.40753 7.16787L3.35489 17.1679C3.34324 17.2786 3.43005 17.375 3.54136 17.375H16.4586C16.57 17.375 16.6568 17.2786 16.6451 17.1679L15.5925 7.16787C15.5824 7.07244 15.502 7 15.406 7H13.875V7.9974C14.068 8.18978 14.1875 8.45594 14.1875 8.75C14.1875 9.3368 13.7118 9.8125 13.125 9.8125C12.5382 9.8125 12.0625 9.3368 12.0625 8.75C12.0625 8.45594 12.182 8.18978 12.375 7.9974V7Z" fill="inherit"/>
</svg>
