<svg viewBox="0 0 20 20" xmlns="http://www.w3.org/2000/svg">
<path fill-rule="evenodd" clip-rule="evenodd" d="M2.375 5C2.375 3.55025 3.55025 2.375 5 2.375H6.875C8.32475 2.375 9.5 3.55025 9.5 5V6.875C9.5 8.32475 8.32475 9.5 6.875 9.5H5C3.55025 9.5 2.375 8.32475 2.375 6.875V5ZM5 3.875C4.37868 3.875 3.875 4.37868 3.875 5V6.875C3.875 7.49632 4.37868 8 5 8H6.875C7.49632 8 8 7.49632 8 6.875V5C8 4.37868 7.49632 3.875 6.875 3.875H5ZM10.5 5C10.5 3.55025 11.6753 2.375 13.125 2.375H15C16.4497 2.375 17.625 3.55025 17.625 5V6.875C17.625 8.32475 16.4497 9.5 15 9.5H13.125C11.6753 9.5 10.5 8.32475 10.5 6.875V5ZM13.125 3.875C12.5037 3.875 12 4.37868 12 5V6.875C12 7.49632 12.5037 8 13.125 8H15C15.6213 8 16.125 7.49632 16.125 6.875V5C16.125 4.37868 15.6213 3.875 15 3.875H13.125ZM2.375 13.125C2.375 11.6753 3.55025 10.5 5 10.5H6.875C8.32475 10.5 9.5 11.6753 9.5 13.125V15C9.5 16.4497 8.32475 17.625 6.875 17.625H5C3.55025 17.625 2.375 16.4497 2.375 15V13.125ZM5 12C4.37868 12 3.875 12.5037 3.875 13.125V15C3.875 15.6213 4.37868 16.125 5 16.125H6.875C7.49632 16.125 8 15.6213 8 15V13.125C8 12.5037 7.49632 12 6.875 12H5ZM14.0625 10.5C14.4767 10.5 14.8125 10.8358 14.8125 11.25V13.3125H16.875C17.2892 13.3125 17.625 13.6483 17.625 14.0625C17.625 14.4767 17.2892 14.8125 16.875 14.8125H14.8125V16.875C14.8125 17.2892 14.4767 17.625 14.0625 17.625C13.6483 17.625 13.3125 17.2892 13.3125 16.875V14.8125H11.25C10.8358 14.8125 10.5 14.4767 10.5 14.0625C10.5 13.6483 10.8358 13.3125 11.25 13.3125H13.3125V11.25C13.3125 10.8358 13.6483 10.5 14.0625 10.5Z" fill="inherit"/>
</svg>
