<svg viewBox="0 0 20 20" xmlns="http://www.w3.org/2000/svg">
<path fill-rule="evenodd" clip-rule="evenodd" d="M1.75 3.75C1.75 3.33579 2.08579 3 2.5 3H14.375C14.7892 3 15.125 3.33579 15.125 3.75C15.125 4.16421 14.7892 4.5 14.375 4.5H2.5C2.08579 4.5 1.75 4.16421 1.75 3.75ZM1.75 7.5C1.75 7.08579 2.08579 6.75 2.5 6.75H10.625C11.0392 6.75 11.375 7.08579 11.375 7.5C11.375 7.91421 11.0392 8.25 10.625 8.25H2.5C2.08579 8.25 1.75 7.91421 1.75 7.5ZM14.375 6.75C14.7892 6.75 15.125 7.08579 15.125 7.5V15.6893L16.9697 13.8447C17.2626 13.5518 17.7374 13.5518 18.0303 13.8447C18.3232 14.1376 18.3232 14.6124 18.0303 14.9053L14.9053 18.0303C14.6124 18.3232 14.1376 18.3232 13.8447 18.0303L10.7197 14.9053C10.4268 14.6124 10.4268 14.1376 10.7197 13.8447C11.0126 13.5518 11.4874 13.5518 11.7803 13.8447L13.625 15.6893V7.5C13.625 7.08579 13.9608 6.75 14.375 6.75ZM1.75 11.25C1.75 10.8358 2.08579 10.5 2.5 10.5H10.625C11.0392 10.5 11.375 10.8358 11.375 11.25C11.375 11.6642 11.0392 12 10.625 12H2.5C2.08579 12 1.75 11.6642 1.75 11.25Z" fill="inherit"/>
</svg>
