<svg viewBox="0 0 20 20" xmlns="http://www.w3.org/2000/svg">
<path fill-rule="evenodd" clip-rule="evenodd" d="M1.75 3.75C1.75 3.33579 2.08579 3 2.5 3H14.375C14.7892 3 15.125 3.33579 15.125 3.75C15.125 4.16421 14.7892 4.5 14.375 4.5H2.5C2.08579 4.5 1.75 4.16421 1.75 3.75ZM1.75 7.5C1.75 7.08579 2.08579 6.75 2.5 6.75H10.625C11.0392 6.75 11.375 7.08579 11.375 7.5C11.375 7.91421 11.0392 8.25 10.625 8.25H2.5C2.08579 8.25 1.75 7.91421 1.75 7.5ZM13.625 9.31066L11.7803 11.1553C11.4874 11.4482 11.0126 11.4482 10.7197 11.1553C10.4268 10.8624 10.4268 10.3876 10.7197 10.0947L13.8447 6.96967C14.1376 6.67678 14.6124 6.67678 14.9053 6.96967L18.0303 10.0947C18.3232 10.3876 18.3232 10.8624 18.0303 11.1553C17.7374 11.4482 17.2626 11.4482 16.9697 11.1553L15.125 9.31066V17.5C15.125 17.9142 14.7892 18.25 14.375 18.25C13.9608 18.25 13.625 17.9142 13.625 17.5V9.31066ZM1.75 11.25C1.75 10.8358 2.08579 10.5 2.5 10.5H6.875C7.28921 10.5 7.625 10.8358 7.625 11.25C7.625 11.6642 7.28921 12 6.875 12H2.5C2.08579 12 1.75 11.6642 1.75 11.25Z" fill="inherit"/>
</svg>
