<svg viewBox="0 0 20 20" xmlns="http://www.w3.org/2000/svg">
<path fill-rule="evenodd" clip-rule="evenodd" d="M15.4042 1.79571C15.7932 1.65332 16.2239 1.85323 16.3663 2.2422C16.4837 2.5629 16.5934 2.88731 16.6952 3.21521C17.1301 4.61593 17.4205 6.07992 17.5492 7.58954C17.9834 8.05738 18.25 8.68529 18.25 9.375C18.25 10.0647 17.9834 10.6926 17.5492 11.1605C17.4205 12.6701 17.1301 14.1341 16.6952 15.5348C16.5934 15.8627 16.4837 16.1871 16.3663 16.5078C16.2239 16.8968 15.7932 17.0967 15.4042 16.9543C15.0152 16.8119 14.8153 16.3812 14.9577 15.9922C14.9935 15.8945 15.0285 15.7963 15.0627 15.6979C13.3834 14.9074 11.5712 14.3526 9.66846 14.0761C9.80347 14.4626 9.95466 14.8415 10.1212 15.212C10.4736 15.9957 10.2193 16.9704 9.42634 17.4283L8.87941 17.744C8.06283 18.2155 6.97078 17.9327 6.55124 17.0253C6.07608 15.9975 5.69365 14.9181 5.41473 13.7976C3.32855 13.4061 1.75 11.5749 1.75 9.375C1.75 6.88972 3.76472 4.875 6.25 4.875H6.875C7.44038 4.875 7.99989 4.85065 8.55256 4.80297C10.864 4.60353 13.058 3.99575 15.0627 3.05216C15.0285 2.95367 14.9935 2.85556 14.9577 2.75781C14.8153 2.36884 15.0152 1.93809 15.4042 1.79571ZM15.5029 4.50153C13.552 5.39463 11.4387 5.99426 9.21992 6.24391C8.99422 7.25082 8.875 8.29858 8.875 9.375C8.875 10.4514 8.99422 11.4992 9.21992 12.5061C11.4387 12.7558 13.552 13.3554 15.5029 14.2485C15.7963 13.1238 15.9906 11.9589 16.0757 10.7635C16.1084 10.305 16.125 9.84201 16.125 9.375C16.125 8.908 16.1084 8.445 16.0757 7.98656C15.9906 6.79109 15.7963 5.62617 15.5029 4.50153ZM7.66336 12.3897C7.47406 11.4135 7.375 10.4055 7.375 9.375C7.375 8.34452 7.47407 7.33654 7.66336 6.36029C7.40175 6.37007 7.13893 6.375 6.875 6.375H6.25C4.59315 6.375 3.25 7.71815 3.25 9.375C3.25 11.0319 4.59315 12.375 6.25 12.375H6.875C7.13893 12.375 7.40175 12.3799 7.66336 12.3897ZM6.98627 13.8753C7.22855 14.7461 7.53944 15.5883 7.91277 16.3958C7.9285 16.4298 7.95447 16.4523 7.99236 16.4635C8.03256 16.4754 8.08193 16.4724 8.12941 16.445L8.67634 16.1292C8.75437 16.0842 8.81322 15.9607 8.75315 15.8271C8.47487 15.2081 8.23536 14.5679 8.03775 13.9095C7.68973 13.8888 7.33916 13.8773 6.98627 13.8753Z" fill="inherit"/>
</svg>
