<svg viewBox="0 0 20 20" xmlns="http://www.w3.org/2000/svg">
<path fill-rule="evenodd" clip-rule="evenodd" d="M8.84585 2.82193C9.27285 1.79532 10.7272 1.79532 11.1542 2.82193L12.8971 7.01248L17.4211 7.37517C18.5295 7.46402 18.9789 8.84716 18.1345 9.5705L14.6876 12.5231L15.7407 16.9378C15.9987 18.0193 14.8221 18.8741 13.8732 18.2946L10 15.9288L6.12679 18.2946C5.17791 18.8741 4.00135 18.0193 4.25933 16.9378L5.3124 12.5231L1.86555 9.5705C1.02113 8.84716 1.47054 7.46402 2.57886 7.37517L7.1029 7.01248L8.84585 2.82193ZM10 3.95296L8.42924 7.72952C8.24923 8.16231 7.84222 8.45802 7.37498 8.49548L3.29788 8.82234L6.4042 11.4832C6.76019 11.7882 6.91565 12.2667 6.80689 12.7226L5.85786 16.7012L9.34843 14.5691C9.74845 14.3248 10.2515 14.3248 10.6516 14.5691L14.1421 16.7012L13.1931 12.7226C13.0843 12.2667 13.2398 11.7882 13.5958 11.4832L16.7021 8.82234L12.625 8.49548C12.1578 8.45802 11.7508 8.16231 11.5708 7.72952L10 3.95296Z" fill="inherit"/>
</svg>
