<svg viewBox="0 0 20 20" xmlns="http://www.w3.org/2000/svg">
<path fill-rule="evenodd" clip-rule="evenodd" d="M5.58058 4.5199C5.87348 4.8128 5.87348 5.28767 5.58058 5.58056C3.13981 8.02134 3.13981 11.9786 5.58058 14.4194C5.87348 14.7123 5.87348 15.1872 5.58058 15.4801C5.28769 15.7729 4.81282 15.7729 4.51992 15.4801C1.49336 12.4535 1.49336 7.54647 4.51992 4.5199C4.81282 4.22701 5.28769 4.22701 5.58058 4.5199ZM14.4194 4.5199C14.7123 4.22701 15.1872 4.22701 15.4801 4.5199C18.5066 7.54646 18.5066 12.4535 15.4801 15.4801C15.1872 15.7729 14.7123 15.7729 14.4194 15.4801C14.1265 15.1872 14.1265 14.7123 14.4194 14.4194C16.8602 11.9786 16.8602 8.02134 14.4194 5.58056C14.1265 5.28767 14.1265 4.8128 14.4194 4.5199ZM7.78047 6.71979C8.07336 7.01268 8.07336 7.48756 7.78047 7.78045C6.55466 9.00626 6.55466 10.9937 7.78047 12.2195C8.07336 12.5124 8.07336 12.9873 7.78047 13.2802C7.48758 13.5731 7.0127 13.5731 6.71981 13.2802C4.90821 11.4686 4.90821 8.53139 6.71981 6.71979C7.0127 6.4269 7.48758 6.4269 7.78047 6.71979ZM12.2195 6.71979C12.5124 6.4269 12.9873 6.4269 13.2802 6.71979C15.0918 8.53139 15.0918 11.4686 13.2802 13.2802C12.9873 13.5731 12.5124 13.5731 12.2195 13.2802C11.9266 12.9873 11.9266 12.5124 12.2195 12.2195C13.4453 10.9937 13.4453 9.00626 12.2195 7.78045C11.9266 7.48756 11.9266 7.01268 12.2195 6.71979ZM10 9.9722C9.98466 9.9722 9.97222 9.98464 9.97222 9.99998C9.97222 10.0153 9.98466 10.0278 10 10.0278C10.0153 10.0278 10.0278 10.0153 10.0278 9.99998C10.0278 9.98464 10.0153 9.9722 10 9.9722ZM8.47222 9.99998C8.47222 9.15621 9.15623 8.4722 10 8.4722C10.8438 8.4722 11.5278 9.15621 11.5278 9.99998C11.5278 10.8437 10.8438 11.5278 10 11.5278C9.15623 11.5278 8.47222 10.8437 8.47222 9.99998Z" fill="inherit"/>
</svg>
