<svg viewBox="0 0 20 20" xmlns="http://www.w3.org/2000/svg">
<path fill-rule="evenodd" clip-rule="evenodd" d="M2.46967 2.46967C2.76256 2.17678 3.23744 2.17678 3.53033 2.46967L9.58897 8.52831C9.71982 8.49179 9.8577 8.47223 10 8.47223C10.8438 8.47223 11.5278 9.15624 11.5278 10C11.5278 10.1423 11.5082 10.2802 11.4717 10.411L12.6861 11.6254C13.4181 10.418 13.2626 8.82351 12.2195 7.78048C11.9266 7.48758 11.9266 7.01271 12.2195 6.71982C12.5124 6.42692 12.9873 6.42692 13.2802 6.71982C14.9112 8.35086 15.0738 10.8943 13.7679 12.7072L14.9183 13.8576C16.847 11.4049 16.6807 7.84189 14.4194 5.58059C14.1265 5.2877 14.1265 4.81282 14.4194 4.51993C14.7123 4.22704 15.1872 4.22704 15.4801 4.51993C18.3277 7.36758 18.4961 11.88 15.9851 14.9244L17.5303 16.4697C17.8232 16.7626 17.8232 17.2374 17.5303 17.5303C17.2374 17.8232 16.7626 17.8232 16.4697 17.5303L2.46967 3.53033C2.17678 3.23744 2.17678 2.76256 2.46967 2.46967ZM3.60378 7.05372C3.99642 7.18566 4.20775 7.61092 4.07581 8.00356C3.34314 10.1838 3.84614 12.685 5.58058 14.4194C5.87348 14.7123 5.87348 15.1872 5.58058 15.4801C5.28769 15.773 4.81282 15.773 4.51992 15.4801C2.36747 13.3276 1.74688 10.225 2.65394 7.52575C2.78589 7.13311 3.21114 6.92178 3.60378 7.05372ZM6.04449 9.80715C6.45459 9.74892 6.83425 10.0342 6.89248 10.4443C6.98472 11.0939 7.2801 11.7192 7.78047 12.2195C8.07336 12.5124 8.07336 12.9873 7.78047 13.2802C7.48758 13.5731 7.0127 13.5731 6.71981 13.2802C5.98183 12.5422 5.54373 11.6154 5.40738 10.6551C5.34914 10.245 5.63439 9.86538 6.04449 9.80715Z" fill="inherit"/>
</svg>
