<svg viewBox="0 0 20 20" xmlns="http://www.w3.org/2000/svg">
<path fill-rule="evenodd" clip-rule="evenodd" d="M10 3.75C6.54822 3.75 3.75 6.54822 3.75 10C3.75 13.4518 6.54822 16.25 10 16.25C13.4518 16.25 16.25 13.4518 16.25 10C16.25 6.54822 13.4518 3.75 10 3.75ZM2.25 10C2.25 5.71979 5.71979 2.25 10 2.25C14.2802 2.25 17.75 5.71979 17.75 10C17.75 14.2802 14.2802 17.75 10 17.75C5.71979 17.75 2.25 14.2802 2.25 10ZM6.91667 8.44444C6.91667 7.60068 7.60068 6.91667 8.44444 6.91667H11.5556C12.3993 6.91667 13.0833 7.60068 13.0833 8.44444V11.5556C13.0833 12.3993 12.3993 13.0833 11.5556 13.0833H8.44444C7.60068 13.0833 6.91667 12.3993 6.91667 11.5556V8.44444ZM8.44444 8.41667C8.4291 8.41667 8.41667 8.4291 8.41667 8.44444V11.5556C8.41667 11.5709 8.4291 11.5833 8.44444 11.5833H11.5556C11.5709 11.5833 11.5833 11.5709 11.5833 11.5556V8.44444C11.5833 8.4291 11.5709 8.41667 11.5556 8.41667H8.44444Z" fill="inherit"/>
</svg>
