<svg viewBox="0 0 20 20" xmlns="http://www.w3.org/2000/svg">
<path fill-rule="evenodd" clip-rule="evenodd" d="M3.625 6.25C3.625 4.80025 4.80025 3.625 6.25 3.625H13.75C15.1997 3.625 16.375 4.80025 16.375 6.25V13.75C16.375 15.1997 15.1997 16.375 13.75 16.375H6.25C4.80025 16.375 3.625 15.1997 3.625 13.75V6.25ZM6.25 5.125C5.62868 5.125 5.125 5.62868 5.125 6.25V13.75C5.125 14.3713 5.62868 14.875 6.25 14.875H13.75C14.3713 14.875 14.875 14.3713 14.875 13.75V6.25C14.875 5.62868 14.3713 5.125 13.75 5.125H6.25Z" fill="inherit"/>
</svg>
