<svg viewBox="0 0 20 20" xmlns="http://www.w3.org/2000/svg">
<path fill-rule="evenodd" clip-rule="evenodd" d="M10 1.75C10.4142 1.75 10.75 2.08579 10.75 2.5V4.375C10.75 4.78921 10.4142 5.125 10 5.125C9.58579 5.125 9.25 4.78921 9.25 4.375V2.5C9.25 2.08579 9.58579 1.75 10 1.75ZM4.16637 4.16637C4.45926 3.87348 4.93414 3.87348 5.22703 4.16637L6.55285 5.49219C6.84575 5.78509 6.84575 6.25996 6.55285 6.55285C6.25996 6.84575 5.78509 6.84575 5.49219 6.55285L4.16637 5.22703C3.87348 4.93414 3.87348 4.45926 4.16637 4.16637ZM15.8336 4.16637C16.1265 4.45926 16.1265 4.93414 15.8336 5.22703L14.5078 6.55285C14.2149 6.84575 13.74 6.84575 13.4471 6.55285C13.1543 6.25996 13.1543 5.78509 13.4471 5.49219L14.773 4.16637C15.0659 3.87348 15.5407 3.87348 15.8336 4.16637ZM10 7.625C8.68832 7.625 7.625 8.68832 7.625 10C7.625 11.3117 8.68832 12.375 10 12.375C11.3117 12.375 12.375 11.3117 12.375 10C12.375 8.68832 11.3117 7.625 10 7.625ZM6.125 10C6.125 7.8599 7.8599 6.125 10 6.125C12.1401 6.125 13.875 7.8599 13.875 10C13.875 12.1401 12.1401 13.875 10 13.875C7.8599 13.875 6.125 12.1401 6.125 10ZM1.75 10C1.75 9.58579 2.08579 9.25 2.5 9.25H4.375C4.78921 9.25 5.125 9.58579 5.125 10C5.125 10.4142 4.78921 10.75 4.375 10.75H2.5C2.08579 10.75 1.75 10.4142 1.75 10ZM14.875 10C14.875 9.58579 15.2108 9.25 15.625 9.25H17.5C17.9142 9.25 18.25 9.58579 18.25 10C18.25 10.4142 17.9142 10.75 17.5 10.75H15.625C15.2108 10.75 14.875 10.4142 14.875 10ZM6.55285 13.4471C6.84575 13.74 6.84575 14.2149 6.55285 14.5078L5.22703 15.8336C4.93414 16.1265 4.45926 16.1265 4.16637 15.8336C3.87348 15.5407 3.87348 15.0659 4.16637 14.773L5.49219 13.4471C5.78509 13.1543 6.25996 13.1543 6.55285 13.4471ZM13.4471 13.4471C13.74 13.1543 14.2149 13.1543 14.5078 13.4471L15.8336 14.773C16.1265 15.0659 16.1265 15.5407 15.8336 15.8336C15.5407 16.1265 15.0659 16.1265 14.773 15.8336L13.4471 14.5078C13.1543 14.2149 13.1543 13.74 13.4471 13.4471ZM10 14.875C10.4142 14.875 10.75 15.2108 10.75 15.625V17.5C10.75 17.9142 10.4142 18.25 10 18.25C9.58579 18.25 9.25 17.9142 9.25 17.5V15.625C9.25 15.2108 9.58579 14.875 10 14.875Z" fill="inherit"/>
</svg>
