<svg viewBox="0 0 20 20" xmlns="http://www.w3.org/2000/svg">
<path fill-rule="evenodd" clip-rule="evenodd" d="M6.97604 3.40838L9.14192 6.00743C9.70715 5.88641 10.2929 5.88641 10.8581 6.00744L13.024 3.40838C11.1096 2.53054 8.89036 2.53054 6.97604 3.40838ZM14.3302 4.18392L12.2973 6.62346C12.5054 6.76533 12.7031 6.92844 12.8874 7.11265C13.0716 7.29685 13.2347 7.49459 13.3765 7.70271L15.8161 5.66977C15.6089 5.39228 15.3791 5.12603 15.1265 4.87348C14.874 4.62092 14.6077 4.39111 14.3302 4.18392ZM16.5916 6.97604L13.9926 9.14192C14.1136 9.70715 14.1136 10.2929 13.9926 10.8581L16.5916 13.024C17.4695 11.1096 17.4695 8.89036 16.5916 6.97604ZM15.8161 14.3302L13.3765 12.2973C13.2347 12.5054 13.0716 12.7031 12.8874 12.8874C12.7031 13.0716 12.5054 13.2347 12.2973 13.3765L14.3302 15.8161C14.6077 15.6089 14.874 15.3791 15.1265 15.1265C15.3791 14.874 15.6089 14.6077 15.8161 14.3302ZM13.024 16.5916L10.8581 13.9926C10.2929 14.1136 9.70715 14.1136 9.14192 13.9926L6.97604 16.5916C8.89036 17.4695 11.1096 17.4695 13.024 16.5916ZM5.66977 15.8161L7.70271 13.3765C7.49459 13.2347 7.29685 13.0716 7.11265 12.8874C6.92844 12.7031 6.76533 12.5054 6.62346 12.2973L4.18392 14.3302C4.39111 14.6077 4.62092 14.874 4.87348 15.1265C5.12603 15.3791 5.39228 15.6089 5.66977 15.8161ZM3.40838 13.024L6.00744 10.8581C5.88641 10.2929 5.88641 9.70715 6.00744 9.14192L3.40838 6.97604C2.53054 8.89036 2.53054 11.1096 3.40838 13.024ZM4.18392 5.66977L6.62346 7.70271C6.76533 7.49459 6.92844 7.29685 7.11265 7.11265C7.29685 6.92844 7.49459 6.76533 7.70271 6.62346L5.66977 4.18392C5.39228 4.39111 5.12603 4.62092 4.87348 4.87348C4.62092 5.12603 4.39111 5.39228 4.18392 5.66977ZM5.41808 2.54343C8.21982 0.818856 11.7802 0.818856 14.5819 2.54343C15.1536 2.89531 15.693 3.3186 16.1872 3.81282C16.6814 4.30703 17.1047 4.84643 17.4566 5.41808C19.1811 8.21982 19.1811 11.7802 17.4566 14.5819C17.1047 15.1536 16.6814 15.693 16.1872 16.1872C15.693 16.6814 15.1536 17.1047 14.5819 17.4566C11.7802 19.1811 8.21982 19.1811 5.41808 17.4566C4.84643 17.1047 4.30703 16.6814 3.81282 16.1872C3.3186 15.693 2.89531 15.1536 2.54343 14.5819C0.818856 11.7802 0.818856 8.21982 2.54343 5.41808C2.8953 4.84643 3.3186 4.30703 3.81282 3.81282C4.30703 3.3186 4.84643 2.89531 5.41808 2.54343ZM10.871 7.56711C10.3092 7.36652 9.69079 7.36652 9.12895 7.56711C8.78094 7.69137 8.45378 7.89284 8.17331 8.17331C7.89284 8.45378 7.69137 8.78094 7.56711 9.12895C7.36652 9.69079 7.36652 10.3092 7.56711 10.871C7.69137 11.2191 7.89284 11.5462 8.17331 11.8267C8.45378 12.1072 8.78094 12.3086 9.12895 12.4329C9.69079 12.6335 10.3092 12.6335 10.871 12.4329C11.2191 12.3086 11.5462 12.1072 11.8267 11.8267C12.1072 11.5462 12.3086 11.2191 12.4329 10.871C12.6335 10.3092 12.6335 9.69079 12.4329 9.12895C12.3086 8.78094 12.1072 8.45378 11.8267 8.17331C11.5462 7.89284 11.2191 7.69137 10.871 7.56711Z" fill="inherit"/>
</svg>
