<svg viewBox="0 0 20 20" xmlns="http://www.w3.org/2000/svg">
<path fill-rule="evenodd" clip-rule="evenodd" d="M5.58078 3.24744C5.87367 2.95455 6.34855 2.95455 6.64144 3.24744L9.75255 6.35855C10.0454 6.65145 10.0454 7.12632 9.75255 7.41921C9.45966 7.71211 8.98479 7.71211 8.69189 7.41921L6.86111 5.58843V13.1111C6.86111 13.5253 6.52532 13.8611 6.11111 13.8611C5.6969 13.8611 5.36111 13.5253 5.36111 13.1111V5.58843L3.53033 7.41921C3.23744 7.71211 2.76256 7.71211 2.46967 7.41921C2.17678 7.12632 2.17678 6.65145 2.46967 6.35855L5.58078 3.24744ZM13.8889 6.13888C14.3031 6.13888 14.6389 6.47467 14.6389 6.88888V14.4116L16.4697 12.5808C16.7626 12.2879 17.2374 12.2879 17.5303 12.5808C17.8232 12.8737 17.8232 13.3485 17.5303 13.6414L14.4192 16.7525C14.1263 17.0454 13.6515 17.0454 13.3586 16.7525L10.2474 13.6414C9.95455 13.3485 9.95455 12.8737 10.2474 12.5808C10.5403 12.2879 11.0152 12.2879 11.3081 12.5808L13.1389 14.4116V6.88888C13.1389 6.47467 13.4747 6.13888 13.8889 6.13888Z" fill="inherit"/>
</svg>
