<svg viewBox="0 0 20 20" xmlns="http://www.w3.org/2000/svg">
<path fill-rule="evenodd" clip-rule="evenodd" d="M16.7526 5.58078C17.0455 5.87367 17.0455 6.34855 16.7526 6.64144L13.6415 9.75255C13.3486 10.0454 12.8737 10.0454 12.5808 9.75255C12.2879 9.45966 12.2879 8.98479 12.5808 8.69189L14.4116 6.86111L6.88894 6.86111C6.47473 6.86111 6.13894 6.52532 6.13894 6.11111C6.13894 5.6969 6.47473 5.36111 6.88894 5.36111H14.4116L12.5808 3.53033C12.2879 3.23744 12.2879 2.76256 12.5808 2.46967C12.8737 2.17678 13.3486 2.17678 13.6415 2.46967L16.7526 5.58078ZM13.8612 13.8889C13.8612 14.3031 13.5254 14.6389 13.1112 14.6389H5.58849L7.41927 16.4697C7.71216 16.7626 7.71216 17.2374 7.41927 17.5303C7.12638 17.8232 6.6515 17.8232 6.35861 17.5303L3.2475 14.4192C2.95461 14.1263 2.95461 13.6515 3.2475 13.3586L6.35861 10.2474C6.6515 9.95455 7.12638 9.95455 7.41927 10.2474C7.71216 10.5403 7.71216 11.0152 7.41927 11.3081L5.58849 13.1389H13.1112C13.5254 13.1389 13.8612 13.4747 13.8612 13.8889Z" fill="inherit"/>
</svg>
