<svg viewBox="0 0 20 20" xmlns="http://www.w3.org/2000/svg">
<path fill-rule="evenodd" clip-rule="evenodd" d="M2.25 6.88887C2.25 5.61555 3.28223 4.58331 4.55556 4.58331H15.4444C16.7178 4.58331 17.75 5.61555 17.75 6.88887V13.1111C17.75 14.3844 16.7178 15.4166 15.4444 15.4166H4.55556C3.28223 15.4166 2.25 14.3844 2.25 13.1111V6.88887ZM4.55556 6.08331C4.11066 6.08331 3.75 6.44397 3.75 6.88887V7.69442H16.25V6.88887C16.25 6.44397 15.8893 6.08331 15.4444 6.08331H4.55556ZM16.25 9.19442H10.75V10.8055H16.25V9.19442ZM16.25 12.3055H10.75V13.9166H15.4444C15.8893 13.9166 16.25 13.556 16.25 13.1111V12.3055ZM9.25 13.9166V12.3055H3.75V13.1111C3.75 13.556 4.11066 13.9166 4.55556 13.9166H9.25ZM3.75 10.8055H9.25V9.19442H3.75V10.8055Z" fill="inherit"/>
</svg>
