<svg viewBox="0 0 20 20" xmlns="http://www.w3.org/2000/svg">
<path fill-rule="evenodd" clip-rule="evenodd" d="M1.75 4.375C1.75 2.92525 2.92525 1.75 4.375 1.75H7.97335C8.66954 1.75 9.33722 2.02656 9.8295 2.51884L17.8138 10.5031C18.6166 11.306 18.8545 12.5956 18.1862 13.6163C16.9946 15.4364 15.4364 16.9946 13.6163 18.1862C12.5956 18.8544 11.306 18.6166 10.5031 17.8138L2.51884 9.8295C2.02656 9.33722 1.75 8.66954 1.75 7.97335V4.375ZM4.375 3.25C3.75368 3.25 3.25 3.75368 3.25 4.375V7.97335C3.25 8.27172 3.36853 8.55787 3.5795 8.76884L11.5638 16.7531C11.9253 17.1147 12.4375 17.1651 12.7946 16.9313C14.442 15.8527 15.8527 14.442 16.9313 12.7946C17.1651 12.4375 17.1147 11.9253 16.7531 11.5638L8.76884 3.5795L9.29917 3.04917L8.76884 3.5795C8.55787 3.36853 8.27172 3.25 7.97335 3.25H4.375ZM4.25 5C4.25 4.58579 4.58579 4.25 5 4.25H5.00625C5.42046 4.25 5.75625 4.58579 5.75625 5V5.00625C5.75625 5.42046 5.42046 5.75625 5.00625 5.75625H5C4.58579 5.75625 4.25 5.42046 4.25 5.00625V5Z" fill="inherit"/>
</svg>
