<svg viewBox="0 0 20 20" xmlns="http://www.w3.org/2000/svg">
<path fill-rule="evenodd" clip-rule="evenodd" d="M2.25 3.875C2.25 2.97754 2.97754 2.25 3.875 2.25H16.125C17.0225 2.25 17.75 2.97754 17.75 3.875V5.625C17.75 6.52246 17.0225 7.25 16.125 7.25H3.875C2.97754 7.25 2.25 6.52246 2.25 5.625V3.875ZM3.875 3.75C3.80596 3.75 3.75 3.80596 3.75 3.875V5.625C3.75 5.69404 3.80596 5.75 3.875 5.75H16.125C16.194 5.75 16.25 5.69404 16.25 5.625V3.875C16.25 3.80596 16.194 3.75 16.125 3.75H3.875ZM2.25 10.875C2.25 9.97754 2.97754 9.25 3.875 9.25H9.125C10.0225 9.25 10.75 9.97754 10.75 10.875V16.125C10.75 17.0225 10.0225 17.75 9.125 17.75H3.875C2.97754 17.75 2.25 17.0225 2.25 16.125V10.875ZM3.875 10.75C3.80596 10.75 3.75 10.806 3.75 10.875V16.125C3.75 16.194 3.80596 16.25 3.875 16.25H9.125C9.19404 16.25 9.25 16.194 9.25 16.125V10.875C9.25 10.806 9.19404 10.75 9.125 10.75H3.875ZM12.75 10.875C12.75 9.97754 13.4775 9.25 14.375 9.25H16.125C17.0225 9.25 17.75 9.97754 17.75 10.875V16.125C17.75 17.0225 17.0225 17.75 16.125 17.75H14.375C13.4775 17.75 12.75 17.0225 12.75 16.125V10.875ZM14.375 10.75C14.306 10.75 14.25 10.806 14.25 10.875V16.125C14.25 16.194 14.306 16.25 14.375 16.25H16.125C16.194 16.25 16.25 16.194 16.25 16.125V10.875C16.25 10.806 16.194 10.75 16.125 10.75H14.375Z" fill="inherit"/>
</svg>
