<svg viewBox="0 0 20 20" xmlns="http://www.w3.org/2000/svg">
<path fill-rule="evenodd" clip-rule="evenodd" d="M2.25 5.33333C2.25 4.06 3.28223 3.02777 4.55556 3.02777H15.4444C16.7178 3.02777 17.75 4.06 17.75 5.33333V14.6667C17.75 15.94 16.7178 16.9722 15.4444 16.9722H4.55556C3.28223 16.9722 2.25 15.94 2.25 14.6667V5.33333ZM4.55556 4.52777C4.11066 4.52777 3.75 4.88843 3.75 5.33333V14.6667C3.75 15.1116 4.11066 15.4722 4.55556 15.4722H15.4444C15.8893 15.4722 16.25 15.1116 16.25 14.6667V5.33333C16.25 4.88843 15.8893 4.52777 15.4444 4.52777H4.55556ZM6.35856 7.13633C6.65145 6.84344 7.12633 6.84344 7.41922 7.13633L9.75255 9.46966C10.0454 9.76256 10.0454 10.2374 9.75255 10.5303L7.41922 12.8637C7.12633 13.1566 6.65145 13.1566 6.35856 12.8637C6.06567 12.5708 6.06567 12.0959 6.35856 11.803L8.16156 9.99999L6.35856 8.19699C6.06567 7.9041 6.06567 7.42922 6.35856 7.13633ZM10.0278 12.3333C10.0278 11.9191 10.3636 11.5833 10.7778 11.5833H13.1111C13.5253 11.5833 13.8611 11.9191 13.8611 12.3333C13.8611 12.7475 13.5253 13.0833 13.1111 13.0833H10.7778C10.3636 13.0833 10.0278 12.7475 10.0278 12.3333Z" fill="inherit"/>
</svg>
