<svg viewBox="0 0 20 20" xmlns="http://www.w3.org/2000/svg">
<path fill-rule="evenodd" clip-rule="evenodd" d="M8.56302 16.2965C8.56302 17.0992 9.21379 17.75 10.0165 17.75H10.0908C11.3641 17.75 12.3964 16.7178 12.3964 15.4444V12.3056H15.3516C17.0655 12.3056 18.1803 10.5019 17.4138 8.96892L14.6916 3.52448C14.301 2.74339 13.5027 2.25 12.6294 2.25H9.50452C9.31602 2.25 9.12822 2.27312 8.94534 2.31884L6.10958 3.02778H4.64636C3.37303 3.02778 2.3408 4.06001 2.3408 5.33333V10C2.3408 11.2733 3.37303 12.3056 4.64636 12.3056H6.31904L8.21636 15.1515C8.4424 15.4906 8.56302 15.889 8.56302 16.2965ZM5.45243 10.8056H4.64636C4.20146 10.8056 3.8408 10.4449 3.8408 10V5.33333C3.8408 4.88844 4.20146 4.52778 4.64636 4.52778H5.45191V10.7778C5.45191 10.7871 5.45208 10.7963 5.45243 10.8056ZM6.95191 4.36336L9.30914 3.77405C9.37304 3.75808 9.43866 3.75 9.50452 3.75H12.6294C12.9345 3.75 13.2135 3.92239 13.3499 4.1953L16.0721 9.63974C16.34 10.1754 15.9505 10.8056 15.3516 10.8056H10.0908C9.67659 10.8056 9.3408 11.1413 9.3408 11.5556C9.3408 11.9698 9.67659 12.3056 10.0908 12.3056H10.8964V15.4444C10.8964 15.8893 10.5357 16.25 10.0908 16.25H10.0627C10.0538 15.5626 9.84615 14.892 9.46444 14.3195L6.95191 10.5507V4.36336Z" fill="inherit"/>
</svg>
