<svg viewBox="0 0 20 20" xmlns="http://www.w3.org/2000/svg">
<path fill-rule="evenodd" clip-rule="evenodd" d="M7.37059 16.25C7.06547 16.25 6.78653 16.0776 6.65008 15.8047L3.92786 10.3603C3.66005 9.82464 4.04953 9.19444 4.64837 9.19444H9.9092C10.3234 9.19444 10.6592 8.85866 10.6592 8.44444C10.6592 8.03023 10.3234 7.69444 9.9092 7.69444H9.10365V4.55556C9.10365 4.11066 9.46431 3.75 9.9092 3.75H9.93728C9.94624 4.43742 10.1539 5.10795 10.5356 5.68052L13.0481 9.4493V15.6366L10.6909 16.2259C10.627 16.2419 10.5613 16.25 10.4955 16.25H7.37059ZM14.5481 15.4722V9.22222C14.5481 9.21295 14.5479 9.20369 14.5476 9.19444H15.3536C15.7985 9.19444 16.1592 9.5551 16.1592 10V14.6667C16.1592 15.1116 15.7985 15.4722 15.3536 15.4722H14.5481ZM13.681 7.69444L11.7836 4.84847C11.5576 4.50941 11.437 4.11102 11.437 3.70352C11.437 2.90076 10.7862 2.25 9.98346 2.25H9.9092C8.63588 2.25 7.60365 3.28223 7.60365 4.55556V7.69444H4.64837C2.93446 7.69444 1.81973 9.49811 2.58621 11.0311L5.30844 16.4755C5.69898 17.2566 6.49731 17.75 7.37059 17.75H10.4955C10.684 17.75 10.8718 17.7269 11.0547 17.6812C11.0547 17.6812 11.0547 17.6812 11.0547 17.6812L13.8904 16.9722H15.3536C16.627 16.9722 17.6592 15.94 17.6592 14.6667V10C17.6592 8.72668 16.627 7.69444 15.3536 7.69444H13.681Z" fill="inherit"/>
</svg>
