<svg viewBox="0 0 20 20" xmlns="http://www.w3.org/2000/svg">
<path fill-rule="evenodd" clip-rule="evenodd" d="M1.125 5.3125C1.125 4.38052 1.88052 3.625 2.8125 3.625H17.1875C18.1195 3.625 18.875 4.38052 18.875 5.3125V7.83446C18.875 8.10218 18.7323 8.3496 18.5005 8.48366C17.9755 8.78738 17.625 9.3532 17.625 10C17.625 10.6468 17.9755 11.2126 18.5005 11.5163C18.7323 11.6504 18.875 11.8978 18.875 12.1655V14.6875C18.875 15.6195 18.1195 16.375 17.1875 16.375H2.8125C1.88052 16.375 1.125 15.6195 1.125 14.6875V12.1655C1.125 11.8978 1.26771 11.6504 1.49946 11.5163C2.02449 11.2126 2.375 10.6468 2.375 10C2.375 9.3532 2.02449 8.78738 1.49946 8.48366C1.26771 8.3496 1.125 8.10218 1.125 7.83446V5.3125ZM2.8125 5.125C2.70895 5.125 2.625 5.20895 2.625 5.3125V7.43819C3.38486 8.03225 3.875 8.95856 3.875 10C3.875 11.0414 3.38486 11.9677 2.625 12.5618V14.6875C2.625 14.7911 2.70895 14.875 2.8125 14.875H13V14.375C13 13.9608 13.3358 13.625 13.75 13.625C14.1642 13.625 14.5 13.9608 14.5 14.375V14.875H17.1875C17.2911 14.875 17.375 14.7911 17.375 14.6875V12.5618C16.6151 11.9677 16.125 11.0414 16.125 10C16.125 8.95856 16.6151 8.03225 17.375 7.43819V5.3125C17.375 5.20895 17.2911 5.125 17.1875 5.125H14.5V5.625C14.5 6.03921 14.1642 6.375 13.75 6.375C13.3358 6.375 13 6.03921 13 5.625V5.125H2.8125ZM13.75 7.375C14.1642 7.375 14.5 7.71079 14.5 8.125V8.75C14.5 9.16421 14.1642 9.5 13.75 9.5C13.3358 9.5 13 9.16421 13 8.75V8.125C13 7.71079 13.3358 7.375 13.75 7.375ZM5.5 10.625C5.5 10.2108 5.83579 9.875 6.25 9.875H10.625C11.0392 9.875 11.375 10.2108 11.375 10.625C11.375 11.0392 11.0392 11.375 10.625 11.375H6.25C5.83579 11.375 5.5 11.0392 5.5 10.625ZM13.75 10.5C14.1642 10.5 14.5 10.8358 14.5 11.25V11.875C14.5 12.2892 14.1642 12.625 13.75 12.625C13.3358 12.625 13 12.2892 13 11.875V11.25C13 10.8358 13.3358 10.5 13.75 10.5ZM5.5 12.5C5.5 12.0858 5.83579 11.75 6.25 11.75H8.75C9.16421 11.75 9.5 12.0858 9.5 12.5C9.5 12.9142 9.16421 13.25 8.75 13.25H6.25C5.83579 13.25 5.5 12.9142 5.5 12.5Z" fill="inherit"/>
</svg>
