<svg viewBox="0 0 20 20" xmlns="http://www.w3.org/2000/svg">
<path fill-rule="evenodd" clip-rule="evenodd" d="M7.5 1.75C7.91421 1.75 8.25 2.08579 8.25 2.5V3.63177C8.94766 3.64436 9.6411 3.6745 10.3299 3.72176C11.0901 3.77392 11.8446 3.84693 12.5928 3.94023C13.0038 3.99149 13.2955 4.36624 13.2442 4.77727C13.193 5.1883 12.8182 5.47996 12.4072 5.4287C11.8938 5.36469 11.3774 5.31059 10.858 5.26659C10.3665 7.13553 9.54049 8.8683 8.44794 10.3972C8.69115 10.6874 8.94572 10.9678 9.21098 11.2378C9.50132 11.5332 9.49719 12.008 9.20177 12.2984C8.90634 12.5887 8.43148 12.5846 8.14115 12.2892C7.92066 12.0648 7.70684 11.8339 7.49999 11.5967C6.19816 13.0896 4.61951 14.3345 2.84423 15.2516C2.47622 15.4417 2.02377 15.2975 1.83366 14.9295C1.64355 14.5615 1.78776 14.109 2.15577 13.9189C3.84681 13.0453 5.34035 11.8432 6.55208 10.3972C5.84945 9.41395 5.25698 8.34625 4.79282 7.21213C4.63593 6.82878 4.81951 6.39082 5.20286 6.23393C5.58621 6.07704 6.02416 6.26062 6.18105 6.64397C6.53936 7.51944 6.98238 8.35149 7.49999 9.12989C8.30119 7.92499 8.92379 6.59135 9.33012 5.1669C8.72362 5.13907 8.11348 5.125 7.5 5.125C5.8378 5.125 4.20006 5.22828 2.5928 5.4287C2.18177 5.47996 1.80702 5.1883 1.75576 4.77727C1.70451 4.36624 1.99616 3.99149 2.4072 3.94023C3.83345 3.76238 5.28237 3.65826 6.75 3.63177V2.5C6.75 2.08579 7.08579 1.75 7.5 1.75ZM13.125 7.375C13.4164 7.375 13.6814 7.54378 13.8046 7.80784L18.1796 17.1828C18.3548 17.5582 18.1925 18.0045 17.8172 18.1796C17.4418 18.3548 16.9955 18.1925 16.8204 17.8172L15.8557 15.75H10.3943L9.42964 17.8172C9.25447 18.1925 8.80819 18.3548 8.43284 18.1796C8.05748 18.0045 7.8952 17.5582 8.07036 17.1828L12.4454 7.80784C12.5686 7.54378 12.8336 7.375 13.125 7.375ZM11.0943 14.25H15.1557L13.125 9.89853L11.0943 14.25Z" fill="inherit"/>
</svg>
