<svg viewBox="0 0 20 20" xmlns="http://www.w3.org/2000/svg">
<path fill-rule="evenodd" clip-rule="evenodd" d="M10 2.625C9.54496 2.625 9.09164 2.63228 8.64016 2.64672C8.09413 2.66419 7.64491 3.11394 7.62564 3.69304C8.41141 3.64789 9.20307 3.625 10 3.625C10.7969 3.625 11.5886 3.64789 12.3744 3.69304C12.3551 3.11394 11.9059 2.66419 11.3598 2.64672C10.9084 2.63228 10.455 2.625 10 2.625ZM13.875 3.80689V3.73182C13.875 2.36391 12.8142 1.19248 11.4078 1.14749C10.9403 1.13253 10.471 1.125 10 1.125C9.52896 1.125 9.05966 1.13253 8.5922 1.14749C7.18576 1.19248 6.125 2.36391 6.125 3.73182V3.80689C5.36544 3.87856 4.6119 3.97108 3.86496 4.08388C3.57463 4.12773 3.28529 4.17464 2.99699 4.22458C2.58885 4.29528 2.31531 4.68345 2.38601 5.09159C2.4567 5.49972 2.84488 5.77327 3.25301 5.70257C3.2659 5.70034 3.2788 5.69811 3.2917 5.69589L4.11904 16.4513C4.22424 17.8189 5.36465 18.875 6.73631 18.875H13.2637C14.6354 18.875 15.7758 17.8189 15.881 16.4513L16.7083 5.69589C16.7212 5.69811 16.7341 5.70034 16.747 5.70257C17.1551 5.77327 17.5433 5.49972 17.614 5.09159C17.6847 4.68345 17.4111 4.29528 17.003 4.22458C16.7147 4.17464 16.4254 4.12773 16.135 4.08388C15.3881 3.97108 14.6346 3.87856 13.875 3.80689ZM15.2213 5.46916C14.5092 5.37452 13.791 5.29897 13.0672 5.24304C12.0552 5.16484 11.0323 5.125 10 5.125C8.96766 5.125 7.94478 5.16484 6.93278 5.24304C6.20903 5.29897 5.49082 5.37452 4.77869 5.46916L5.61462 16.3363C5.65971 16.9224 6.14846 17.375 6.73631 17.375H13.2637C13.8515 17.375 14.3403 16.9224 14.3854 16.3363L15.2213 5.46916ZM7.68752 6.75055C8.10143 6.73463 8.44987 7.05727 8.46579 7.47118L8.75425 14.9712C8.77017 15.3851 8.44754 15.7335 8.03363 15.7494C7.61972 15.7654 7.27128 15.4427 7.25536 15.0288L6.9669 7.52882C6.95098 7.11492 7.27361 6.76647 7.68752 6.75055ZM12.3125 6.75055C12.7264 6.76647 13.049 7.11492 13.0331 7.52882L12.7446 15.0288C12.7287 15.4427 12.3803 15.7654 11.9664 15.7494C11.5525 15.7335 11.2298 15.3851 11.2457 14.9712L11.5342 7.47118C11.5501 7.05727 11.8986 6.73463 12.3125 6.75055Z" fill="inherit"/>
</svg>
