<svg viewBox="0 0 20 20" xmlns="http://www.w3.org/2000/svg">
<path fill-rule="evenodd" clip-rule="evenodd" d="M2.46967 5.58078C2.76256 5.28789 3.23744 5.28789 3.53033 5.58078L7.66667 9.71712L10.2474 7.13634C10.5403 6.84345 11.0152 6.84345 11.3081 7.13634L16.25 12.0782V7.66667C16.25 7.25246 16.5858 6.91667 17 6.91667C17.4142 6.91667 17.75 7.25246 17.75 7.66667V13.8889C17.75 14.3031 17.4142 14.6389 17 14.6389H10.7778C10.3636 14.6389 10.0278 14.3031 10.0278 13.8889C10.0278 13.4747 10.3636 13.1389 10.7778 13.1389H15.1893L10.7778 8.72733L8.197 11.3081C7.9041 11.601 7.42923 11.601 7.13634 11.3081L2.46967 6.64144C2.17678 6.34855 2.17678 5.87368 2.46967 5.58078Z" fill="inherit"/>
</svg>
