<svg viewBox="0 0 20 20" xmlns="http://www.w3.org/2000/svg">
<path fill-rule="evenodd" clip-rule="evenodd" d="M10.7778 6.86111C10.3636 6.86111 10.0278 6.52533 10.0278 6.11111C10.0278 5.6969 10.3636 5.36111 10.7778 5.36111H17C17.4142 5.36111 17.75 5.6969 17.75 6.11111V12.3333C17.75 12.7476 17.4142 13.0833 17 13.0833C16.5858 13.0833 16.25 12.7476 16.25 12.3333V7.92178L11.3081 12.8637C11.0152 13.1566 10.5403 13.1566 10.2474 12.8637L7.66667 10.2829L3.53033 14.4192C3.23744 14.7121 2.76256 14.7121 2.46967 14.4192C2.17678 14.1263 2.17678 13.6515 2.46967 13.3586L7.13634 8.6919C7.42923 8.399 7.9041 8.399 8.197 8.6919L10.7778 11.2727L15.1893 6.86111H10.7778Z" fill="inherit"/>
</svg>
