<svg viewBox="0 0 20 20" xmlns="http://www.w3.org/2000/svg">
<path fill-rule="evenodd" clip-rule="evenodd" d="M6.875 5.125C5.49015 5.125 4.12229 5.19669 2.7749 5.33652C2.69635 5.34467 2.625 5.41388 2.625 5.51232V11.1254H11.125V5.51232C11.125 5.41388 11.0537 5.34467 10.9751 5.33652C9.62771 5.19669 8.25985 5.125 6.875 5.125ZM11.125 12.6254H2.625V14.6875C2.625 14.7911 2.70895 14.875 2.8125 14.875H3.77038C4.06707 14.142 4.78566 13.625 5.625 13.625C6.46434 13.625 7.18293 14.142 7.47962 14.875H11.125V12.6254ZM12.625 14.875H13.1454C13.4421 14.142 14.1607 13.625 15 13.625C15.8393 13.625 16.5579 14.142 16.8546 14.875L17.1875 14.875C17.2411 14.875 17.2845 14.8537 17.3126 14.825C17.3389 14.7982 17.3497 14.7684 17.3476 14.7341C17.1813 12.0366 16.2649 9.54298 14.8038 7.45775C14.6451 7.23122 14.3811 7.08262 14.0789 7.06096H12.625V14.875ZM12.625 5.56096V5.51232C12.625 4.66495 11.9922 3.93401 11.1299 3.84453C9.7312 3.69937 8.31166 3.625 6.875 3.625C5.43834 3.625 4.0188 3.69937 2.62007 3.84453C1.75785 3.93401 1.125 4.66495 1.125 5.51232V14.6875C1.125 15.6195 1.88052 16.375 2.8125 16.375H3.77038C4.06707 17.108 4.78566 17.625 5.625 17.625C6.46434 17.625 7.18293 17.108 7.47962 16.375H13.1454C13.4421 17.108 14.1607 17.625 15 17.625C15.8393 17.625 16.5579 17.108 16.8546 16.375L17.1875 16.375C17.1875 16.375 17.1875 16.375 17.1875 16.375C18.1063 16.375 18.9051 15.6208 18.8448 14.6418C18.661 11.66 17.6472 8.90182 16.0322 6.59698C15.5904 5.96641 14.8841 5.60274 14.1433 5.56209C14.1296 5.56134 14.1159 5.56096 14.1022 5.56096H12.625ZM5.625 15.125C5.34886 15.125 5.125 15.3489 5.125 15.625C5.125 15.9011 5.34886 16.125 5.625 16.125C5.90114 16.125 6.125 15.9011 6.125 15.625C6.125 15.3489 5.90114 15.125 5.625 15.125ZM15 15.125C14.7239 15.125 14.5 15.3489 14.5 15.625C14.5 15.9011 14.7239 16.125 15 16.125C15.2761 16.125 15.5 15.9011 15.5 15.625C15.5 15.3489 15.2761 15.125 15 15.125Z" fill="inherit"/>
</svg>
