<svg viewBox="0 0 20 20" xmlns="http://www.w3.org/2000/svg">
<path fill-rule="evenodd" clip-rule="evenodd" d="M2.25 5.33332C2.25 4.48955 2.93401 3.80554 3.77778 3.80554H10C10.8438 3.80554 11.5278 4.48955 11.5278 5.33332V5.36134C11.537 5.36118 11.5463 5.3611 11.5556 5.3611H13.5667C13.9719 5.3611 14.3605 5.52206 14.647 5.80857L14.1167 6.3389L14.647 5.80857L17.3025 8.46407C17.589 8.75058 17.75 9.13918 17.75 9.54437V13.1111C17.75 13.9549 17.066 14.6389 16.2222 14.6389H16.0697C15.7585 15.544 14.8996 16.1944 13.8889 16.1944C12.8781 16.1944 12.0193 15.544 11.7081 14.6389H11.5556C11.2715 14.6389 11.0056 14.5614 10.7778 14.4264C10.55 14.5614 10.284 14.6389 10 14.6389H8.29193C7.98071 15.544 7.12187 16.1944 6.11111 16.1944C5.10035 16.1944 4.24151 15.544 3.93029 14.6389H3.77778C2.93401 14.6389 2.25 13.9549 2.25 13.1111V5.33332ZM3.93029 13.1389C4.24151 12.2337 5.10035 11.5833 6.11111 11.5833C7.12187 11.5833 7.98071 12.2337 8.29193 13.1389H10C10.0153 13.1389 10.0278 13.1264 10.0278 13.1111L10.0278 6.88888C10.0278 6.88817 10.0278 6.88747 10.0278 6.88676V5.33332C10.0278 5.31798 10.0153 5.30554 10 5.30554H3.77778C3.76244 5.30554 3.75 5.31798 3.75 5.33332V13.1111C3.75 13.1264 3.76244 13.1389 3.77778 13.1389H3.93029ZM11.5278 13.1111C11.5278 13.1264 11.5402 13.1389 11.5556 13.1389H11.7081C12.0193 12.2337 12.8781 11.5833 13.8889 11.5833C14.8996 11.5833 15.7585 12.2337 16.0697 13.1389H16.2222C16.2376 13.1389 16.25 13.1264 16.25 13.1111V9.54437C16.25 9.53701 16.2471 9.52994 16.2419 9.52473L13.5864 6.86923C13.5812 6.86402 13.5741 6.8611 13.5667 6.8611H11.5556C11.5403 6.8611 11.528 6.87336 11.5278 6.88855V13.1111ZM6.11111 13.0833C5.66621 13.0833 5.30556 13.444 5.30556 13.8889C5.30556 14.3338 5.66621 14.6944 6.11111 14.6944C6.55601 14.6944 6.91667 14.3338 6.91667 13.8889C6.91667 13.444 6.55601 13.0833 6.11111 13.0833ZM13.8889 13.0833C13.444 13.0833 13.0833 13.444 13.0833 13.8889C13.0833 14.3338 13.444 14.6944 13.8889 14.6944C14.3338 14.6944 14.6944 14.3338 14.6944 13.8889C14.6944 13.444 14.3338 13.0833 13.8889 13.0833Z" fill="inherit"/>
</svg>
