<svg viewBox="0 0 20 20" xmlns="http://www.w3.org/2000/svg">
<path fill-rule="evenodd" clip-rule="evenodd" d="M1.125 4.0625C1.125 3.13052 1.88052 2.375 2.8125 2.375H17.1875C18.1195 2.375 18.875 3.13052 18.875 4.0625V13.4375C18.875 14.3695 18.1195 15.125 17.1875 15.125H12V16.125H15C15.4142 16.125 15.75 16.4608 15.75 16.875C15.75 17.2892 15.4142 17.625 15 17.625H5C4.58579 17.625 4.25 17.2892 4.25 16.875C4.25 16.4608 4.58579 16.125 5 16.125H8V15.125H2.8125C1.88052 15.125 1.125 14.3695 1.125 13.4375V4.0625ZM9.5 15.125V16.125H10.5V15.125H9.5ZM2.8125 13.625C2.70895 13.625 2.625 13.5411 2.625 13.4375V4.0625C2.625 3.95895 2.70895 3.875 2.8125 3.875H17.1875C17.2911 3.875 17.375 3.95895 17.375 4.0625V13.4375C17.375 13.5411 17.2911 13.625 17.1875 13.625H2.8125Z" fill="inherit"/>
</svg>
