<svg viewBox="0 0 20 20" xmlns="http://www.w3.org/2000/svg">
<path fill-rule="evenodd" clip-rule="evenodd" d="M3.75 14.375C3.75 15.4105 4.58947 16.25 5.625 16.25L14.375 16.25C15.4105 16.25 16.25 15.4105 16.25 14.375L16.25 13.5C16.25 13.0858 16.5858 12.75 17 12.75C17.4142 12.75 17.75 13.0858 17.75 13.5L17.75 14.375C17.75 16.239 16.239 17.75 14.375 17.75L5.625 17.75C3.76104 17.75 2.25 16.239 2.25 14.375L2.25 13.5C2.25 13.0858 2.58579 12.75 3 12.75C3.41421 12.75 3.75 13.0858 3.75 13.5L3.75 14.375ZM5.96967 7.03033C5.67678 6.73744 5.67678 6.26256 5.96967 5.96967L9.46967 2.46967C9.61032 2.32902 9.80109 2.25 10 2.25C10.1989 2.25 10.3897 2.32902 10.5303 2.46967L14.0303 5.96967C14.3232 6.26256 14.3232 6.73744 14.0303 7.03033C13.7374 7.32322 13.2626 7.32322 12.9697 7.03033L10.75 4.81066L10.75 13.5C10.75 13.9142 10.4142 14.25 10 14.25C9.58578 14.25 9.25 13.9142 9.25 13.5L9.25 4.81066L7.03033 7.03033C6.73744 7.32322 6.26256 7.32322 5.96967 7.03033Z" fill="inherit"/>
</svg>
