<svg viewBox="0 0 20 20" xmlns="http://www.w3.org/2000/svg">
<path fill-rule="evenodd" clip-rule="evenodd" d="M9.99988 3.875C9.03338 3.875 8.24988 4.6585 8.24988 5.625C8.24988 6.5915 9.03338 7.375 9.99988 7.375C10.9664 7.375 11.7499 6.5915 11.7499 5.625C11.7499 4.6585 10.9664 3.875 9.99988 3.875ZM6.74988 5.625C6.74988 3.83007 8.20495 2.375 9.99988 2.375C11.7948 2.375 13.2499 3.83007 13.2499 5.625C13.2499 7.41993 11.7948 8.875 9.99988 8.875C8.20495 8.875 6.74988 7.41993 6.74988 5.625ZM4.37488 7C3.75356 7 3.24988 7.50368 3.24988 8.125C3.24988 8.74632 3.75356 9.25 4.37488 9.25C4.9962 9.25 5.49988 8.74632 5.49988 8.125C5.49988 7.50368 4.9962 7 4.37488 7ZM1.74988 8.125C1.74988 6.67525 2.92513 5.5 4.37488 5.5C5.82463 5.5 6.99988 6.67525 6.99988 8.125C6.99988 9.57475 5.82463 10.75 4.37488 10.75C2.92513 10.75 1.74988 9.57475 1.74988 8.125ZM15.6249 7C15.0036 7 14.4999 7.50368 14.4999 8.125C14.4999 8.74632 15.0036 9.25 15.6249 9.25C16.2462 9.25 16.7499 8.74632 16.7499 8.125C16.7499 7.50368 16.2462 7 15.6249 7ZM12.9999 8.125C12.9999 6.67525 14.1751 5.5 15.6249 5.5C17.0746 5.5 18.2499 6.67525 18.2499 8.125C18.2499 9.57475 17.0746 10.75 15.6249 10.75C14.1751 10.75 12.9999 9.57475 12.9999 8.125ZM9.99988 11.375C8.49532 11.375 7.17274 12.1563 6.41645 13.3388C5.99816 13.9928 5.75412 14.7685 5.74993 15.6031L5.74988 15.625C5.74988 15.6563 5.75022 15.6876 5.75089 15.7187C7.02255 16.3776 8.46677 16.75 9.99988 16.75C11.533 16.75 12.9772 16.3776 14.2489 15.7187C14.2495 15.6876 14.2499 15.6563 14.2499 15.625L14.2498 15.6031C14.2456 14.7687 14.0017 13.9931 13.5836 13.3392C12.8273 12.1565 11.5046 11.375 9.99988 11.375ZM15.6937 16.3747C15.6423 16.5656 15.5169 16.7303 15.3427 16.8302C13.7682 17.7337 11.9432 18.25 9.99988 18.25C8.05657 18.25 6.23159 17.7337 4.65704 16.8302C4.48286 16.7303 4.35749 16.5656 4.30609 16.3747C3.37136 16.367 2.47223 16.2035 1.63432 15.9085C1.35471 15.81 1.15933 15.5561 1.13582 15.2605C1.12897 15.1744 1.12549 15.0876 1.12549 15C1.12549 13.2051 2.58056 11.75 4.37549 11.75C4.79243 11.75 5.19182 11.8288 5.5589 11.9724C6.61267 10.6927 8.21059 9.875 9.99988 9.875C11.7893 9.875 13.3874 10.6928 14.4411 11.9727C14.8084 11.8289 15.2081 11.75 15.6254 11.75C17.4203 11.75 18.8754 13.2051 18.8754 15C18.8754 15.0876 18.8719 15.1745 18.865 15.2605C18.8415 15.5561 18.6461 15.81 18.3665 15.9085C17.5283 16.2037 16.6288 16.3671 15.6937 16.3747ZM15.2554 13.289C15.476 13.7847 15.6286 14.3173 15.7013 14.8746C16.2681 14.8683 16.8174 14.7924 17.3414 14.6551C17.1812 13.8538 16.4738 13.25 15.6254 13.25C15.4982 13.25 15.3745 13.2635 15.2554 13.289ZM4.7445 13.2888C4.6257 13.2634 4.5023 13.25 4.37549 13.25C3.52704 13.25 2.81962 13.8538 2.65946 14.6551C3.18307 14.7923 3.73201 14.8683 4.29848 14.8746C4.37122 14.3172 4.52384 13.7846 4.7445 13.2888Z" fill="inherit"/>
</svg>
