<svg viewBox="0 0 20 20" xmlns="http://www.w3.org/2000/svg">
<path fill-rule="evenodd" clip-rule="evenodd" d="M10 3.75C6.54822 3.75 3.75 6.54822 3.75 10C3.75 11.3209 4.15975 12.546 4.85907 13.5553C6.41005 12.7906 8.15576 12.3611 10 12.3611C11.8442 12.3611 13.59 12.7906 15.1409 13.5553C15.8403 12.546 16.25 11.3209 16.25 10C16.25 6.54822 13.4518 3.75 10 3.75ZM15.9318 14.9879C17.0664 13.64 17.75 11.8998 17.75 10C17.75 5.71979 14.2802 2.25 10 2.25C5.71979 2.25 2.25 5.71979 2.25 10C2.25 11.8998 2.9336 13.64 4.06825 14.9879C4.07418 14.9952 4.08023 15.0024 4.0864 15.0094C5.50799 16.6859 7.62973 17.75 10 17.75C12.3703 17.75 14.492 16.6859 15.9136 15.0094C15.9198 15.0024 15.9258 14.9952 15.9318 14.9879ZM14.0949 14.7218C12.8432 14.1685 11.4582 13.8611 10 13.8611C8.54176 13.8611 7.15679 14.1685 5.90512 14.7218C7.00191 15.6738 8.43367 16.25 10 16.25C11.5663 16.25 12.9981 15.6738 14.0949 14.7218ZM10 6.86111C9.12555 6.86111 8.41667 7.56999 8.41667 8.44444C8.41667 9.3189 9.12555 10.0278 10 10.0278C10.8745 10.0278 11.5833 9.3189 11.5833 8.44444C11.5833 7.56999 10.8745 6.86111 10 6.86111ZM6.91667 8.44444C6.91667 6.74157 8.29712 5.36111 10 5.36111C11.7029 5.36111 13.0833 6.74157 13.0833 8.44444C13.0833 10.1473 11.7029 11.5278 10 11.5278C8.29712 11.5278 6.91667 10.1473 6.91667 8.44444Z" fill="inherit"/>
</svg>
