<svg viewBox="0 0 20 20" xmlns="http://www.w3.org/2000/svg">
<path fill-rule="evenodd" clip-rule="evenodd" d="M7.8125 3.25C6.67341 3.25 5.75 4.17341 5.75 5.3125C5.75 6.45159 6.67341 7.375 7.8125 7.375C8.95159 7.375 9.875 6.45159 9.875 5.3125C9.875 4.17341 8.95159 3.25 7.8125 3.25ZM4.25 5.3125C4.25 3.34499 5.84499 1.75 7.8125 1.75C9.78001 1.75 11.375 3.34499 11.375 5.3125C11.375 7.28001 9.78001 8.875 7.8125 8.875C5.84499 8.875 4.25 7.28001 4.25 5.3125ZM15 5.5C15.4142 5.5 15.75 5.83579 15.75 6.25V8H17.5C17.9142 8 18.25 8.33579 18.25 8.75C18.25 9.16421 17.9142 9.5 17.5 9.5H15.75V11.25C15.75 11.6642 15.4142 12 15 12C14.5858 12 14.25 11.6642 14.25 11.25V9.5H12.5C12.0858 9.5 11.75 9.16421 11.75 8.75C11.75 8.33579 12.0858 8 12.5 8H14.25V6.25C14.25 5.83579 14.5858 5.5 15 5.5ZM3.26227 15.6003C4.61479 16.3335 6.16405 16.75 7.8125 16.75C9.46096 16.75 11.0102 16.3335 12.3627 15.6003C12.1901 13.2379 10.2189 11.375 7.8125 11.375C5.40612 11.375 3.43486 13.2379 3.26227 15.6003ZM1.75 15.9375C1.75 12.5893 4.46427 9.875 7.8125 9.875C11.1607 9.875 13.875 12.5893 13.875 15.9375V15.9396C13.875 15.9735 13.8747 16.0076 13.8741 16.0412C13.8698 16.2997 13.7326 16.5378 13.5111 16.6711C11.8461 17.6736 9.89549 18.25 7.8125 18.25C5.72951 18.25 3.77886 17.6736 2.11391 16.6711C1.89241 16.5378 1.75522 16.2997 1.75087 16.0412C1.75029 16.0067 1.75 15.9722 1.75 15.9375Z" fill="inherit"/>
</svg>
