<svg viewBox="0 0 20 20" xmlns="http://www.w3.org/2000/svg">
<path fill-rule="evenodd" clip-rule="evenodd" d="M7.1875 3.25C6.04841 3.25 5.125 4.17341 5.125 5.3125C5.125 6.45159 6.04841 7.375 7.1875 7.375C8.32659 7.375 9.25 6.45159 9.25 5.3125C9.25 4.17341 8.32659 3.25 7.1875 3.25ZM3.625 5.3125C3.625 3.34499 5.21999 1.75 7.1875 1.75C9.15501 1.75 10.75 3.34499 10.75 5.3125C10.75 7.28001 9.15501 8.875 7.1875 8.875C5.21999 8.875 3.625 7.28001 3.625 5.3125ZM14.6875 5.75C13.8936 5.75 13.25 6.39359 13.25 7.1875C13.25 7.98141 13.8936 8.625 14.6875 8.625C15.4814 8.625 16.125 7.98141 16.125 7.1875C16.125 6.39359 15.4814 5.75 14.6875 5.75ZM11.75 7.1875C11.75 5.56516 13.0652 4.25 14.6875 4.25C16.3098 4.25 17.625 5.56516 17.625 7.1875C17.625 8.80984 16.3098 10.125 14.6875 10.125C13.0652 10.125 11.75 8.80984 11.75 7.1875ZM2.63727 15.6003C3.98979 16.3335 5.53905 16.75 7.1875 16.75C8.83597 16.75 10.3852 16.3335 11.7378 15.6003C11.6888 14.9289 11.4949 14.2993 11.1876 13.741C10.4104 12.329 8.90981 11.375 7.1875 11.375C4.78112 11.375 2.80986 13.2379 2.63727 15.6003ZM12.7156 16.7717C11.0886 17.712 9.19982 18.25 7.1875 18.25C5.10451 18.25 3.15386 17.6736 1.48891 16.6711C1.26741 16.5378 1.13022 16.2997 1.12587 16.0412C1.12529 16.0067 1.125 15.9722 1.125 15.9375C1.125 12.5893 3.83927 9.875 7.1875 9.875C9.10854 9.875 10.8201 10.7687 11.9302 12.1609C12.6663 11.5165 13.6311 11.125 14.6875 11.125C17.0002 11.125 18.875 12.9998 18.875 15.3125C18.875 15.371 18.8738 15.4294 18.8714 15.4874C18.86 15.7623 18.6991 16.0089 18.4521 16.1299C17.3151 16.6874 16.0367 17 14.6875 17C14.0096 17 13.3493 16.9211 12.7156 16.7717ZM13.2216 15.3478C13.694 15.4475 14.1843 15.5 14.6875 15.5C15.6323 15.5 16.5324 15.3149 17.3545 14.9793C17.1904 13.6523 16.0589 12.625 14.6875 12.625C13.9153 12.625 13.2189 12.9502 12.728 13.4731C12.9874 14.0557 13.1577 14.6866 13.2216 15.3478Z" fill="inherit"/>
</svg>
