<svg viewBox="0 0 20 20" xmlns="http://www.w3.org/2000/svg">
<path fill-rule="evenodd" clip-rule="evenodd" d="M10 2.625C8.68835 2.625 7.62503 3.68832 7.62503 5C7.62503 6.31168 8.68835 7.375 10 7.375C11.3117 7.375 12.375 6.31168 12.375 5C12.375 3.68832 11.3117 2.625 10 2.625ZM6.12503 5C6.12503 2.8599 7.85993 1.125 10 1.125C12.1401 1.125 13.875 2.8599 13.875 5C13.875 7.1401 12.1401 8.875 10 8.875C7.85993 8.875 6.12503 7.1401 6.12503 5ZM4.53098 16.2879C6.21424 16.9881 8.06123 17.375 10.0003 17.375C11.9392 17.375 13.786 16.9882 15.4691 16.2881C15.1762 13.5266 12.8393 11.375 10 11.375C7.1608 11.375 4.82395 13.5265 4.53098 16.2879ZM3.00109 16.7523C3.06671 12.9428 6.17504 9.875 10 9.875C13.8251 9.875 16.9335 12.9429 16.999 16.7526C17.0041 17.0503 16.8326 17.3229 16.5619 17.4471C14.5634 18.3641 12.3405 18.875 10.0003 18.875C7.65989 18.875 5.43678 18.364 3.43816 17.4469C3.16749 17.3226 2.99596 17.0501 3.00109 16.7523Z" fill="inherit"/>
</svg>
