<svg viewBox="0 0 20 20" xmlns="http://www.w3.org/2000/svg">
<path fill-rule="evenodd" clip-rule="evenodd" d="M16.0035 1.7917C16.3947 1.65554 16.8222 1.8623 16.9583 2.25349C17.7921 4.64902 18.25 7.26403 18.25 10C18.25 12.736 17.7921 15.351 16.9583 17.7466C16.8222 18.1377 16.3947 18.3445 16.0035 18.2083C15.6123 18.0722 15.4055 17.6447 15.5417 17.2535C16.3201 15.0169 16.75 12.5685 16.75 10C16.75 7.43151 16.3201 4.98318 15.5417 2.74655C15.4055 2.35535 15.6123 1.92785 16.0035 1.7917ZM4.2352 1.80482C4.61915 1.96024 4.80441 2.39748 4.649 2.78143C3.74705 5.00962 3.25 7.44585 3.25 10C3.25 12.5542 3.74705 14.9904 4.649 17.2186C4.80441 17.6026 4.61915 18.0398 4.2352 18.1952C3.85125 18.3506 3.41401 18.1654 3.25859 17.7814C2.28549 15.3775 1.75 12.7504 1.75 10C1.75 7.24969 2.28549 4.62258 3.25859 2.21861C3.41401 1.83466 3.85125 1.6494 4.2352 1.80482ZM7.68568 6.02435C8.44025 5.56 9.43058 5.92004 9.71075 6.76057L10.2266 8.30806L11.2302 6.80269C11.8046 5.94097 12.9106 5.60939 13.8644 6.01292L14.0422 6.08814C14.4237 6.24954 14.6021 6.68962 14.4407 7.0711C14.2793 7.45257 13.8392 7.63099 13.4578 7.46959L13.28 7.39437C12.9897 7.27156 12.6531 7.37247 12.4782 7.63474L10.8275 10.1108L11.6624 12.6156L12.7319 11.9574C13.0847 11.7403 13.5467 11.8503 13.7637 12.2031C13.9808 12.5559 13.8708 13.0178 13.5181 13.2349L12.3143 13.9757C11.5598 14.44 10.5694 14.08 10.2892 13.2395L9.77342 11.692L8.76983 13.1974C8.19535 14.0591 7.08937 14.3907 6.13556 13.9871L5.95777 13.9119C5.57629 13.7505 5.39788 13.3104 5.55927 12.9289C5.72067 12.5475 6.16075 12.3691 6.54223 12.5304L6.72002 12.6057C7.01031 12.7285 7.34691 12.6276 7.52176 12.3653L9.17249 9.8892L8.33758 7.38446L7.26807 8.04261C6.9153 8.2597 6.45334 8.14971 6.23626 7.79694C6.01917 7.44417 6.12916 6.98221 6.48193 6.76512L7.68568 6.02435Z" fill="inherit"/>
</svg>
