<svg viewBox="0 0 20 20" xmlns="http://www.w3.org/2000/svg">
<path fill-rule="evenodd" clip-rule="evenodd" d="M0.71967 3.21967C1.01256 2.92678 1.48744 2.92678 1.78033 3.21967L2.5013 3.94064C2.87266 3.73951 3.29824 3.625 3.75 3.625H11.25C12.6997 3.625 13.875 4.80025 13.875 6.25V6.93934L16.5277 4.28661C17.3939 3.42041 18.875 4.03389 18.875 5.25888V14.7411C18.875 15.9661 17.3939 16.5796 16.5277 15.7134L13.875 13.0607V13.75C13.875 14.2018 13.7605 14.6273 13.5594 14.9987L14.2803 15.7197C14.5732 16.0126 14.5732 16.4874 14.2803 16.7803C13.9874 17.0732 13.5126 17.0732 13.2197 16.7803L0.71967 4.28033C0.426777 3.98744 0.426777 3.51256 0.71967 3.21967ZM12.3733 13.8126C12.3744 13.7919 12.375 13.771 12.375 13.75V6.25C12.375 5.62868 11.8713 5.125 11.25 5.125H3.75C3.72898 5.125 3.70809 5.12557 3.68736 5.1267L12.3733 13.8126ZM13.875 10.9393L17.375 14.4393V5.56066L13.875 9.06066V10.9393ZM1.875 6.75C2.28921 6.75 2.625 7.08579 2.625 7.5V13.75C2.625 14.3713 3.12868 14.875 3.75 14.875H10C10.4142 14.875 10.75 15.2108 10.75 15.625C10.75 16.0392 10.4142 16.375 10 16.375H3.75C2.30025 16.375 1.125 15.1997 1.125 13.75V7.5C1.125 7.08579 1.46079 6.75 1.875 6.75Z" fill="inherit"/>
</svg>
