<svg viewBox="0 0 20 20" xmlns="http://www.w3.org/2000/svg">
<path fill-rule="evenodd" clip-rule="evenodd" d="M1.125 6.25C1.125 4.80025 2.30025 3.625 3.75 3.625H11.25C12.6997 3.625 13.875 4.80025 13.875 6.25V6.93934L16.5277 4.28661C17.3939 3.42041 18.875 4.03389 18.875 5.25888V14.7411C18.875 15.9661 17.3939 16.5796 16.5277 15.7134L13.875 13.0607V13.75C13.875 15.1997 12.6997 16.375 11.25 16.375H3.75C2.30025 16.375 1.125 15.1997 1.125 13.75V6.25ZM13.875 10.9393L17.375 14.4393V5.56066L13.875 9.06066V10.9393ZM3.75 5.125C3.12868 5.125 2.625 5.62868 2.625 6.25V13.75C2.625 14.3713 3.12868 14.875 3.75 14.875H11.25C11.8713 14.875 12.375 14.3713 12.375 13.75V6.25C12.375 5.62868 11.8713 5.125 11.25 5.125H3.75Z" fill="inherit"/>
</svg>
