<svg viewBox="0 0 20 20" xmlns="http://www.w3.org/2000/svg">
<path fill-rule="evenodd" clip-rule="evenodd" d="M2.375 5C2.375 3.55025 3.55025 2.375 5 2.375H6.25C6.66421 2.375 7 2.71079 7 3.125C7 3.53921 6.66421 3.875 6.25 3.875H5C4.37868 3.875 3.875 4.37868 3.875 5V6.25C3.875 6.66421 3.53921 7 3.125 7C2.71079 7 2.375 6.66421 2.375 6.25V5ZM13 3.125C13 2.71079 13.3358 2.375 13.75 2.375H15C16.4497 2.375 17.625 3.55025 17.625 5V6.25C17.625 6.66421 17.2892 7 16.875 7C16.4608 7 16.125 6.66421 16.125 6.25V5C16.125 4.37868 15.6213 3.875 15 3.875H13.75C13.3358 3.875 13 3.53921 13 3.125ZM3.125 13C3.53921 13 3.875 13.3358 3.875 13.75V15C3.875 15.6213 4.37868 16.125 5 16.125H6.25C6.66421 16.125 7 16.4608 7 16.875C7 17.2892 6.66421 17.625 6.25 17.625H5C3.55025 17.625 2.375 16.4497 2.375 15V13.75C2.375 13.3358 2.71079 13 3.125 13ZM16.875 13C17.2892 13 17.625 13.3358 17.625 13.75V15C17.625 16.4497 16.4497 17.625 15 17.625H13.75C13.3358 17.625 13 17.2892 13 16.875C13 16.4608 13.3358 16.125 13.75 16.125H15C15.6213 16.125 16.125 15.6213 16.125 15V13.75C16.125 13.3358 16.4608 13 16.875 13Z" fill="inherit"/>
<path fill-rule="evenodd" clip-rule="evenodd" d="M10 11.5C10.8284 11.5 11.5 10.8284 11.5 10C11.5 9.17157 10.8284 8.5 10 8.5C9.17157 8.5 8.5 9.17157 8.5 10C8.5 10.8284 9.17157 11.5 10 11.5ZM10 13C11.6569 13 13 11.6569 13 10C13 8.34315 11.6569 7 10 7C8.34315 7 7 8.34315 7 10C7 11.6569 8.34315 13 10 13Z" fill="inherit"/>
</svg>
