<svg viewBox="0 0 20 20" xmlns="http://www.w3.org/2000/svg">
<path fill-rule="evenodd" clip-rule="evenodd" d="M1.25 4C1.25 3.0335 2.0335 2.25 3 2.25H17C17.9665 2.25 18.75 3.0335 18.75 4V15.3333C18.75 16.2998 17.9665 17.0833 17 17.0833H3C2.0335 17.0833 1.25 16.2998 1.25 15.3333V4ZM8.08333 15.5833H11.9167V3.75H8.08333V15.5833ZM6.58333 3.75V15.5833H3C2.86193 15.5833 2.75 15.4714 2.75 15.3333V4C2.75 3.86193 2.86193 3.75 3 3.75H6.58333ZM13.4167 3.75V15.5833H17C17.1381 15.5833 17.25 15.4714 17.25 15.3333V4C17.25 3.86193 17.1381 3.75 17 3.75H13.4167Z" fill="inherit"/>
</svg>
