<svg viewBox="0 0 20 20" xmlns="http://www.w3.org/2000/svg">
<path fill-rule="evenodd" clip-rule="evenodd" d="M2.25 4.75C2.25 3.36929 3.36929 2.25 4.75 2.25H6.5C7.88071 2.25 9 3.36929 9 4.75V6.5C9 7.88071 7.88071 9 6.5 9H4.75C3.36929 9 2.25 7.88071 2.25 6.5V4.75ZM4.75 3.75C4.19772 3.75 3.75 4.19772 3.75 4.75V6.5C3.75 7.05228 4.19772 7.5 4.75 7.5H6.5C7.05228 7.5 7.5 7.05228 7.5 6.5V4.75C7.5 4.19772 7.05228 3.75 6.5 3.75H4.75ZM11 4.75C11 3.36929 12.1193 2.25 13.5 2.25H15.25C16.6307 2.25 17.75 3.36929 17.75 4.75V6.5C17.75 7.88071 16.6307 9 15.25 9H13.5C12.1193 9 11 7.88071 11 6.5V4.75ZM13.5 3.75C12.9477 3.75 12.5 4.19772 12.5 4.75V6.5C12.5 7.05228 12.9477 7.5 13.5 7.5H15.25C15.8023 7.5 16.25 7.05228 16.25 6.5V4.75C16.25 4.19772 15.8023 3.75 15.25 3.75H13.5ZM2.25 13.5C2.25 12.1193 3.36929 11 4.75 11H6.5C7.88071 11 9 12.1193 9 13.5V15.25C9 16.6307 7.88071 17.75 6.5 17.75H4.75C3.36929 17.75 2.25 16.6307 2.25 15.25V13.5ZM4.75 12.5C4.19772 12.5 3.75 12.9477 3.75 13.5V15.25C3.75 15.8023 4.19772 16.25 4.75 16.25H6.5C7.05228 16.25 7.5 15.8023 7.5 15.25V13.5C7.5 12.9477 7.05228 12.5 6.5 12.5H4.75ZM11 13.5C11 12.1193 12.1193 11 13.5 11H15.25C16.6307 11 17.75 12.1193 17.75 13.5V15.25C17.75 16.6307 16.6307 17.75 15.25 17.75H13.5C12.1193 17.75 11 16.6307 11 15.25V13.5ZM13.5 12.5C12.9477 12.5 12.5 12.9477 12.5 13.5V15.25C12.5 15.8023 12.9477 16.25 13.5 16.25H15.25C15.8023 16.25 16.25 15.8023 16.25 15.25V13.5C16.25 12.9477 15.8023 12.5 15.25 12.5H13.5Z" fill="inherit"/>
</svg>
