<svg viewBox="0 0 20 20" xmlns="http://www.w3.org/2000/svg">
<path fill-rule="evenodd" clip-rule="evenodd" d="M2.25 4.75C2.25 4.33579 2.58579 4 3 4H17C17.4142 4 17.75 4.33579 17.75 4.75C17.75 5.16421 17.4142 5.5 17 5.5H3C2.58579 5.5 2.25 5.16421 2.25 4.75ZM2.25 8.25C2.25 7.83579 2.58579 7.5 3 7.5H17C17.4142 7.5 17.75 7.83579 17.75 8.25C17.75 8.66421 17.4142 9 17 9H3C2.58579 9 2.25 8.66421 2.25 8.25ZM2.25 11.75C2.25 11.3358 2.58579 11 3 11H17C17.4142 11 17.75 11.3358 17.75 11.75C17.75 12.1642 17.4142 12.5 17 12.5H3C2.58579 12.5 2.25 12.1642 2.25 11.75ZM2.25 15.25C2.25 14.8358 2.58579 14.5 3 14.5H17C17.4142 14.5 17.75 14.8358 17.75 15.25C17.75 15.6642 17.4142 16 17 16H3C2.58579 16 2.25 15.6642 2.25 15.25Z" fill="inherit"/>
</svg>
