<svg viewBox="0 0 20 20" xmlns="http://www.w3.org/2000/svg">
<path fill-rule="evenodd" clip-rule="evenodd" d="M9.875 3.68561L6.15533 7.40528C6.01468 7.54593 5.82391 7.62495 5.625 7.62495H3.75755C3.28675 7.62495 2.9531 7.88904 2.86671 8.20266C2.70931 8.77405 2.625 9.37655 2.625 9.99995C2.625 10.6233 2.70931 11.2258 2.86671 11.7972C2.9531 12.1109 3.28675 12.3749 3.75755 12.3749H5.625C5.82391 12.3749 6.01468 12.454 6.15533 12.5946L9.875 16.3143V3.68561ZM9.02773 2.41156C9.89393 1.54535 11.375 2.15884 11.375 3.38383V16.6161C11.375 17.8411 9.89393 18.4545 9.02773 17.5883L5.31434 13.8749H3.75755C2.76277 13.8749 1.72341 13.2949 1.42058 12.1956C1.22776 11.4957 1.125 10.7592 1.125 9.99995C1.125 9.24069 1.22776 8.50424 1.42058 7.8043C1.7234 6.70497 2.76277 6.12495 3.75755 6.12495H5.31434L9.02773 2.41156ZM15.398 4.16627C15.6909 3.87338 16.1658 3.87338 16.4587 4.16627C19.6805 7.3881 19.6805 12.6117 16.4587 15.8335C16.1658 16.1264 15.6909 16.1264 15.398 15.8335C15.1051 15.5406 15.1051 15.0658 15.398 14.7729C18.0341 12.1368 18.0341 7.86297 15.398 5.22693C15.1051 4.93404 15.1051 4.45917 15.398 4.16627ZM13.1885 6.37605C13.4814 6.08316 13.9563 6.08316 14.2492 6.37605C16.2506 8.37749 16.2506 11.6225 14.2492 13.6239C13.9563 13.9168 13.4814 13.9168 13.1885 13.6239C12.8956 13.331 12.8956 12.8561 13.1885 12.5632C14.6042 11.1476 14.6042 8.85236 13.1885 7.43671C12.8956 7.14382 12.8956 6.66894 13.1885 6.37605Z" fill="inherit"/>
</svg>
