<svg viewBox="0 0 20 20" xmlns="http://www.w3.org/2000/svg">
<path fill-rule="evenodd" clip-rule="evenodd" d="M9.875 3.68561L6.15533 7.40528C6.01468 7.54593 5.82391 7.62495 5.625 7.62495H3.75755C3.28675 7.62495 2.9531 7.88904 2.86671 8.20266C2.70931 8.77405 2.625 9.37655 2.625 9.99995C2.625 10.6233 2.70931 11.2258 2.86671 11.7972C2.9531 12.1109 3.28675 12.3749 3.75755 12.3749H5.625C5.82391 12.3749 6.01468 12.454 6.15533 12.5946L9.875 16.3143V3.68561ZM9.02773 2.41156C9.89393 1.54535 11.375 2.15884 11.375 3.38383V16.6161C11.375 17.8411 9.89393 18.4545 9.02773 17.5883L5.31434 13.8749H3.75755C2.76277 13.8749 1.72341 13.2949 1.42058 12.1956C1.22776 11.4957 1.125 10.7592 1.125 9.99995C1.125 9.24069 1.22776 8.50424 1.42058 7.8043C1.7234 6.70497 2.76277 6.12495 3.75755 6.12495H5.31434L9.02773 2.41156ZM13.8447 7.59462C14.1376 7.30172 14.6124 7.30172 14.9053 7.59462L16.25 8.93929L17.5947 7.59462C17.8876 7.30172 18.3624 7.30172 18.6553 7.59462C18.9482 7.88751 18.9482 8.36238 18.6553 8.65528L17.3107 9.99995L18.6553 11.3446C18.9482 11.6375 18.9482 12.1124 18.6553 12.4053C18.3624 12.6982 17.8876 12.6982 17.5947 12.4053L16.25 11.0606L14.9053 12.4053C14.6124 12.6982 14.1376 12.6982 13.8447 12.4053C13.5518 12.1124 13.5518 11.6375 13.8447 11.3446L15.1893 9.99995L13.8447 8.65528C13.5518 8.36238 13.5518 7.88751 13.8447 7.59462Z" fill="inherit"/>
</svg>
