<svg viewBox="0 0 20 20" xmlns="http://www.w3.org/2000/svg">
<path fill-rule="evenodd" clip-rule="evenodd" d="M1.75 5C1.75 3.55025 2.92525 2.375 4.375 2.375H15.625C17.0747 2.375 18.25 3.55025 18.25 5V15C18.25 16.4497 17.0747 17.625 15.625 17.625H4.375C2.92525 17.625 1.75 16.4497 1.75 15V5ZM3.25 7.5V7.62761C3.59097 7.46563 3.9724 7.375 4.375 7.375H7.5C7.91421 7.375 8.25 7.71079 8.25 8.125C8.25 9.0915 9.0335 9.875 10 9.875C10.9665 9.875 11.75 9.0915 11.75 8.125C11.75 7.71079 12.0858 7.375 12.5 7.375H15.625C16.0276 7.375 16.409 7.46563 16.75 7.62761V7.5C16.75 6.87868 16.2463 6.375 15.625 6.375H4.375C3.75368 6.375 3.25 6.87868 3.25 7.5ZM16.75 5.12761C16.409 4.96563 16.0276 4.875 15.625 4.875H4.375C3.9724 4.875 3.59097 4.96563 3.25 5.12761V5C3.25 4.37868 3.75368 3.875 4.375 3.875H15.625C16.2463 3.875 16.75 4.37868 16.75 5V5.12761ZM16.75 10C16.75 9.37868 16.2463 8.875 15.625 8.875H13.163C12.8245 10.3084 11.5368 11.375 10 11.375C8.46321 11.375 7.17555 10.3084 6.83697 8.875H4.375C3.75368 8.875 3.25 9.37868 3.25 10V15C3.25 15.6213 3.75368 16.125 4.375 16.125H15.625C16.2463 16.125 16.75 15.6213 16.75 15V10Z" fill="inherit"/>
</svg>
