<svg viewBox="0 0 20 20" xmlns="http://www.w3.org/2000/svg">
<path fill-rule="evenodd" clip-rule="evenodd" d="M17.8665 7.75838C13.5219 3.41379 6.47794 3.41379 2.13336 7.75838C1.84046 8.05127 1.36559 8.05127 1.0727 7.75838C0.779804 7.46548 0.779804 6.99061 1.0727 6.69772C6.00307 1.76735 13.9968 1.76735 18.9271 6.69772C19.22 6.99061 19.22 7.46548 18.9271 7.75838C18.6343 8.05127 18.1594 8.05127 17.8665 7.75838ZM15.2148 10.4101C12.3347 7.52995 7.66512 7.52995 4.78501 10.4101C4.49211 10.703 4.01724 10.703 3.72435 10.4101C3.43145 10.1172 3.43145 9.6423 3.72435 9.34941C7.19025 5.88351 12.8096 5.88351 16.2755 9.34941C16.5684 9.6423 16.5684 10.1172 16.2755 10.4101C15.9826 10.703 15.5077 10.703 15.2148 10.4101ZM12.5632 13.0618C11.1475 11.6461 8.85231 11.6461 7.43666 13.0618C7.14376 13.3547 6.66889 13.3547 6.376 13.0618C6.0831 12.7689 6.0831 12.294 6.376 12.0011C8.37744 9.99967 11.6224 9.99967 13.6238 12.0011C13.9167 12.294 13.9167 12.7689 13.6238 13.0618C13.3309 13.3547 12.8561 13.3547 12.5632 13.0618ZM9.99992 15.625L9.91153 15.7134C9.96035 15.7622 10.0395 15.7622 10.0883 15.7134L9.99992 15.625ZM9.02765 14.6527C9.56462 14.1157 10.4352 14.1157 10.9722 14.6527C11.2651 14.9456 11.2651 15.4205 10.9722 15.7134L10.5303 16.1553C10.3896 16.296 10.1988 16.375 9.99992 16.375C9.80101 16.375 9.61024 16.296 9.46959 16.1553L9.02765 15.7134C8.887 15.5727 8.80798 15.382 8.80798 15.183C8.80798 14.9841 8.887 14.7934 9.02765 14.6527Z" fill="inherit"/>
</svg>
