<svg viewBox="0 0 20 20" xmlns="http://www.w3.org/2000/svg">
<path fill-rule="evenodd" clip-rule="evenodd" d="M1.75 5C1.75 3.55025 2.92525 2.375 4.375 2.375H15.625C17.0747 2.375 18.25 3.55025 18.25 5V15C18.25 16.4497 17.0747 17.625 15.625 17.625H4.375C2.92525 17.625 1.75 16.4497 1.75 15V5ZM4.375 3.875C3.75368 3.875 3.25 4.37868 3.25 5V6.125H16.75V5C16.75 4.37868 16.2463 3.875 15.625 3.875H4.375ZM16.75 7.625H3.25V15C3.25 15.6213 3.75368 16.125 4.375 16.125H15.625C16.2463 16.125 16.75 15.6213 16.75 15V7.625ZM3.625 5C3.625 4.58579 3.96079 4.25 4.375 4.25H4.38125C4.79546 4.25 5.13125 4.58579 5.13125 5V5.00625C5.13125 5.42046 4.79546 5.75625 4.38125 5.75625H4.375C3.96079 5.75625 3.625 5.42046 3.625 5.00625V5ZM5.5 5C5.5 4.58579 5.83579 4.25 6.25 4.25H6.25625C6.67046 4.25 7.00625 4.58579 7.00625 5V5.00625C7.00625 5.42046 6.67046 5.75625 6.25625 5.75625H6.25C5.83579 5.75625 5.5 5.42046 5.5 5.00625V5ZM7.375 5C7.375 4.58579 7.71079 4.25 8.125 4.25H8.13125C8.54546 4.25 8.88125 4.58579 8.88125 5V5.00625C8.88125 5.42046 8.54546 5.75625 8.13125 5.75625H8.125C7.71079 5.75625 7.375 5.42046 7.375 5.00625V5Z" fill="inherit"/>
</svg>
