<svg viewBox="0 0 20 20" xmlns="http://www.w3.org/2000/svg">
<path fill-rule="evenodd" clip-rule="evenodd" d="M2.59467 1.34469C2.83802 1.10134 3.21577 1.05483 3.51087 1.2319L6.63587 3.1069C6.86178 3.24244 7 3.48657 7 3.75002V4.61353L9.74185 7.35538C9.88726 7.00764 9.93658 6.54592 9.89114 6.00828C9.88044 5.88178 9.875 5.75395 9.875 5.62502C9.875 3.13973 11.8897 1.12502 14.375 1.12502C15.034 1.12502 15.6618 1.26713 16.2277 1.5231C16.4521 1.62457 16.6123 1.82971 16.6565 2.07195C16.7007 2.31419 16.6231 2.56268 16.449 2.73679L14.049 5.13677C14.2208 5.49118 14.5089 5.77935 14.8634 5.95111L17.2633 3.55118C17.4374 3.37706 17.6859 3.2995 17.9282 3.34367C18.1704 3.38784 18.3755 3.54811 18.477 3.77248C18.7329 4.3384 18.875 4.96613 18.875 5.62502C18.875 8.1103 16.8603 10.125 14.375 10.125C14.3534 10.125 14.3318 10.1249 14.3102 10.1246L18.0303 13.8447C19.1862 15.0005 19.1862 16.8745 18.0303 18.0303C16.8745 19.1862 15.0005 19.1862 13.8447 18.0303L9.56993 13.7556L6.21588 17.8284C5.67012 18.4911 4.85659 18.875 3.99807 18.875C2.41132 18.875 1.125 17.5887 1.125 16.0019C1.125 15.1434 1.50893 14.3299 2.17164 13.7841L7.23106 9.61756L4.61352 7.00002H3.75C3.48655 7.00002 3.24242 6.86179 3.10688 6.63589L1.23188 3.51089C1.05482 3.21578 1.10132 2.83804 1.34467 2.59469L2.59467 1.34469ZM8.39436 8.65954L8.68519 8.42004L5.71967 5.45452C5.57902 5.31387 5.5 5.1231 5.5 4.92419V4.17466L3.24126 2.81942L2.8194 3.24128L4.17464 5.50002H4.92418C5.12309 5.50002 5.31385 5.57903 5.45451 5.71969L8.39436 8.65954ZM10.5279 12.5923L14.9053 16.9697C15.4754 17.5397 16.3996 17.5397 16.9697 16.9697C17.5397 16.3996 17.5397 15.4754 16.9697 14.9053L12.4316 10.3673C12.3311 10.4313 12.2459 10.5062 12.1752 10.5921L10.5279 12.5923ZM14.375 2.62502C12.7181 2.62502 11.375 3.96816 11.375 5.62502C11.375 5.71173 11.3787 5.79741 11.3858 5.88193C11.4665 6.83634 11.3554 8.16421 10.3615 8.98273L3.1252 14.942C2.80848 15.2029 2.625 15.5917 2.625 16.0019C2.625 16.7603 3.23975 17.375 3.99807 17.375C4.40837 17.375 4.79716 17.1915 5.05799 16.8748L11.0173 9.63852C11.3961 9.1786 11.8892 8.90791 12.3884 8.75904C12.9657 8.58687 13.5778 8.56854 14.1181 8.61421C14.2026 8.62136 14.2883 8.62502 14.375 8.62502C16.0319 8.62502 17.375 7.28187 17.375 5.62502C17.375 5.60377 17.3748 5.58258 17.3743 5.56145L15.5938 7.34199C15.4112 7.52462 15.1474 7.60043 14.8957 7.54264C13.6858 7.26491 12.7352 6.31431 12.4575 5.10446C12.3997 4.85273 12.4755 4.58896 12.6581 4.40633L14.4388 2.62568C14.4176 2.62524 14.3963 2.62502 14.375 2.62502ZM12.5947 12.5947C12.8876 12.3018 13.3624 12.3018 13.6553 12.5947L15.8428 14.7822C16.1357 15.0751 16.1357 15.55 15.8428 15.8428C15.5499 16.1357 15.0751 16.1357 14.7822 15.8428L12.5947 13.6553C12.3018 13.3625 12.3018 12.8876 12.5947 12.5947ZM3.30603 15.9376C3.30603 15.5233 3.64182 15.1876 4.05603 15.1876H4.06228C4.47649 15.1876 4.81228 15.5233 4.81228 15.9376V15.9438C4.81228 16.358 4.47649 16.6938 4.06228 16.6938H4.05603C3.64182 16.6938 3.30603 16.358 3.30603 15.9438V15.9376Z" fill="inherit"/>
</svg>
