<svg viewBox="0 0 20 20" xmlns="http://www.w3.org/2000/svg">
<path fill-rule="evenodd" clip-rule="evenodd" d="M9.875 5.625C9.875 3.13972 11.8897 1.125 14.375 1.125C15.034 1.125 15.6618 1.26712 16.2277 1.52309C16.4521 1.62456 16.6123 1.82969 16.6565 2.07193C16.7007 2.31417 16.6231 2.56266 16.449 2.73678L14.049 5.13675C14.2208 5.49117 14.5089 5.77934 14.8634 5.95109L17.2633 3.55116C17.4374 3.37704 17.6859 3.29949 17.9282 3.34366C18.1704 3.38783 18.3755 3.5481 18.477 3.77246C18.7329 4.33838 18.875 4.96611 18.875 5.625C18.875 8.11028 16.8603 10.125 14.375 10.125C14.2461 10.125 14.1182 10.1196 13.9917 10.1089C13.1537 10.038 12.5002 10.1974 12.1752 10.5921L6.21588 17.8284C5.67012 18.4911 4.85659 18.875 3.99807 18.875C2.41132 18.875 1.125 17.5887 1.125 16.0019C1.125 15.1434 1.50893 14.3299 2.17164 13.7841L9.40793 7.82482C9.80257 7.49982 9.96197 6.84627 9.89114 6.00826C9.88044 5.88177 9.875 5.75393 9.875 5.625ZM14.375 2.625C12.7181 2.625 11.375 3.96815 11.375 5.625C11.375 5.71171 11.3787 5.79739 11.3858 5.88192C11.4665 6.83633 11.3554 8.1642 10.3615 8.98271L3.1252 14.942L2.64842 14.3631L3.1252 14.942C2.80848 15.2028 2.625 15.5916 2.625 16.0019C2.625 16.7603 3.23974 17.375 3.99807 17.375C4.40836 17.375 4.79716 17.1915 5.05799 16.8748L11.0173 9.63851C11.8358 8.64459 13.1637 8.53352 14.1181 8.6142C14.2026 8.62134 14.2883 8.625 14.375 8.625C16.0319 8.625 17.375 7.28185 17.375 5.625C17.375 5.60375 17.3748 5.58257 17.3743 5.56143L15.5938 7.34197C15.4112 7.52461 15.1474 7.60042 14.8957 7.54263C13.6858 7.26489 12.7352 6.3143 12.4575 5.10445C12.3997 4.85271 12.4755 4.58895 12.6581 4.40631L14.4388 2.62566C14.4176 2.62522 14.3963 2.625 14.375 2.625ZM3.30603 15.9375C3.30603 15.5233 3.64181 15.1875 4.05603 15.1875H4.06228C4.47649 15.1875 4.81228 15.5233 4.81228 15.9375V15.9438C4.81228 16.358 4.47649 16.6938 4.06228 16.6938H4.05603C3.64181 16.6938 3.30603 16.358 3.30603 15.9438V15.9375Z" fill="inherit"/>
</svg>
