<svg viewBox="0 0 20 20" xmlns="http://www.w3.org/2000/svg">
<path fill-rule="evenodd" clip-rule="evenodd" d="M10 3.25C6.27208 3.25 3.25 6.27208 3.25 10C3.25 13.7279 6.27208 16.75 10 16.75C13.7279 16.75 16.75 13.7279 16.75 10C16.75 6.27208 13.7279 3.25 10 3.25ZM1.75 10C1.75 5.44365 5.44365 1.75 10 1.75C14.5563 1.75 18.25 5.44365 18.25 10C18.25 14.5563 14.5563 18.25 10 18.25C5.44365 18.25 1.75 14.5563 1.75 10ZM7.59467 7.59467C7.88756 7.30178 8.36244 7.30178 8.65533 7.59467L10 8.93934L11.3447 7.59467C11.6376 7.30178 12.1124 7.30178 12.4053 7.59467C12.6982 7.88756 12.6982 8.36244 12.4053 8.65533L11.0607 10L12.4053 11.3447C12.6982 11.6376 12.6982 12.1124 12.4053 12.4053C12.1124 12.6982 11.6376 12.6982 11.3447 12.4053L10 11.0607L8.65533 12.4053C8.36244 12.6982 7.88756 12.6982 7.59467 12.4053C7.30178 12.1124 7.30178 11.6376 7.59467 11.3447L8.93934 10L7.59467 8.65533C7.30178 8.36244 7.30178 7.88756 7.59467 7.59467Z" fill="inherit"/>
</svg>
